<svg width="54" height="55" viewBox="0 0 54 55" fill="none" xmlns="http://www.w3.org/2000/svg">
<path fill-rule="evenodd" clip-rule="evenodd" d="M29.0104 25.5826L49.1642 20.7783C49.1753 19.7318 49.8954 18.7873 50.9691 18.5314C52.2266 18.2316 53.4889 19.0052 53.7866 20.2538C54.0847 21.5046 53.3044 22.7628 52.0491 23.0621C50.9821 23.3164 49.9067 22.7999 49.4247 21.8709L29.2709 26.6752L29.0094 25.5782L29.0104 25.5826ZM48.9323 36.3902C49.9838 36.3987 50.9311 37.1131 51.1857 38.1811C51.4839 39.4319 50.7036 40.6901 49.4483 40.9893C48.1908 41.2891 46.9285 40.5155 46.6308 39.2669C46.3778 38.2056 46.8993 37.134 47.8339 36.652L46.7619 32.1548L41.3605 29.7194L30.6079 32.2826L30.3464 31.1856L41.2895 28.5769C41.4218 28.5454 41.5579 28.5601 41.669 28.6184L47.4793 31.2391C47.6421 31.3158 47.756 31.4559 47.7959 31.6232L48.9323 36.3902ZM39.7695 44.3121L37.7695 35.9221C37.6972 35.6188 37.3921 35.4324 37.0873 35.505L31.6806 36.7939L31.9422 37.8909L36.7973 36.7335L38.6682 44.5818C37.7337 45.0638 37.2105 46.1287 37.4651 47.1967C37.7633 48.4475 39.0273 49.2184 40.2826 48.9192C41.5401 48.6194 42.3177 47.3596 42.02 46.1109C41.767 45.0496 40.8182 44.3285 39.7667 44.32L39.7695 44.3121ZM43.4222 3.63581C44.6797 3.33605 45.942 4.1096 46.2396 5.35826C46.5378 6.60909 45.7575 7.86726 44.5022 8.16651C44.1861 8.24185 43.8731 8.25049 43.577 8.20091L39.2632 18.1195C39.1986 18.2858 39.0561 18.4234 38.8678 18.4683L27.9356 21.0743L27.6741 19.9773L38.3303 17.4371L42.5341 7.75399C42.1195 7.43575 41.8064 6.98726 41.6757 6.43879C41.3775 5.18796 42.1578 3.92979 43.4131 3.63054L43.4222 3.63581ZM29.9105 0.509013C28.653 0.80878 27.8754 2.0686 28.173 3.31726C28.426 4.37859 29.3749 5.09964 30.4264 5.10819L32.2973 12.9565L26.3414 14.3763L26.6029 15.4733L33.1103 13.9221C33.4151 13.8494 33.6032 13.5454 33.5309 13.2421L31.5293 4.84526C32.4638 4.36328 32.987 3.29838 32.7324 2.23038C32.4342 0.979552 31.1702 0.208686 29.9149 0.507933L29.9105 0.509013ZM17.1948 22.0658C18.8685 22.0415 20.4095 22.553 21.6581 23.4878C23.0379 24.5161 24.0568 26.0476 24.5084 27.9121C24.5807 28.2154 24.391 28.5127 24.0929 28.5838C23.7947 28.6549 23.4897 28.4684 23.419 28.1718C23.0379 26.5732 22.1661 25.2612 20.9928 24.3839C19.9757 23.6249 18.7182 23.1895 17.3589 23.1813C17.4068 24.3763 17.0805 25.571 16.239 26.6222C15.0525 28.1044 12.8014 29.3244 8.94044 29.7923C8.62762 29.8316 8.3526 29.612 8.31447 29.303C8.27581 28.9917 8.49708 28.7175 8.80766 28.6788C12.3381 28.2543 14.3435 27.1966 15.3633 25.9285C16.4709 24.5428 16.4291 22.7973 15.7747 21.2944C15.2426 20.0758 14.3927 19.1639 13.7466 18.9974C13.4436 18.9188 13.2629 18.6179 13.3426 18.3161C13.4222 18.0143 13.725 17.8338 14.0281 17.9123C14.9756 18.1506 16.1419 19.3265 16.8083 20.8501C16.979 21.2383 17.1143 21.6466 17.2147 22.0681L17.1948 22.0658ZM17.4021 8.02883C17.1357 7.87554 17.0416 7.53039 17.1957 7.2627C17.3504 6.99726 17.6974 6.90276 17.966 7.05552C17.9743 7.0606 21.6484 9.09719 20.7429 15.0673C20.695 15.3733 20.4119 15.5869 20.1046 15.5399C19.7973 15.493 19.5834 15.2118 19.6313 14.9058C20.4225 9.69819 17.4182 8.03664 17.4059 8.03474L17.4021 8.02883ZM14.7138 13.109C14.9995 13.2342 15.1262 13.5668 14.9992 13.8492C14.8728 14.1338 14.5382 14.2607 14.2548 14.135C13.2378 13.6847 12.3303 13.008 11.6111 12.1474C10.7289 11.0899 10.1602 9.79756 9.98804 8.38947C8.97098 8.44577 8.00509 8.74671 7.15977 9.24511C6.12598 9.84736 5.2922 10.7224 4.7314 11.8081C3.95404 13.327 3.85186 15.015 4.32949 16.5317C4.98035 18.5963 6.64314 20.1557 8.72065 20.7019C9.14731 20.8123 9.58789 20.8816 10.0425 20.9005C10.3553 20.9107 10.5934 21.1744 10.5818 21.4835C10.5708 21.7948 10.3052 22.0325 9.9947 22.0217C9.46082 21.9982 8.93938 21.9175 8.43364 21.7836C7.01114 21.411 5.71731 20.6144 4.75231 19.5178C3.12635 20.7065 1.8868 22.3239 1.15408 24.1693C0.389581 26.0999 0.187989 28.2852 0.706207 30.4591C1.22442 32.633 2.4674 34.6176 4.10545 36.0134C5.69531 37.3663 7.6755 38.2398 9.79258 38.4749C10.1336 37.6396 10.6176 36.848 11.241 36.1338C12.3998 34.8137 13.9349 33.8799 15.6564 33.4695C15.9613 33.3969 16.2663 33.5833 16.3386 33.8866C16.4109 34.1898 16.2228 34.4938 15.9179 34.5665C14.4138 34.9251 13.0949 35.7225 12.0896 36.8717C10.8985 38.2349 10.2982 39.9402 10.2919 41.643C10.2867 43.3997 10.8734 44.9965 12.0653 46.4089C13.7261 48.3175 16.2139 49.2137 18.7005 48.833C20.3625 48.5805 21.9388 47.7595 23.1077 46.4322C23.374 46.1284 23.6172 45.7971 23.8361 45.4433C23.9985 45.1807 24.3471 45.0929 24.6117 45.2584C24.8751 45.4194 24.9625 45.7662 24.7956 46.0299C24.5425 46.4389 24.2618 46.8216 23.9519 47.1712C23.0843 48.1626 22.0242 48.9031 20.8729 49.3896C21.2147 51.0024 22.1372 52.3282 23.4256 53.2016C24.8309 54.1578 26.575 54.5079 28.3189 54.0922C30.0629 53.6765 31.3089 52.6726 32.1371 51.337C32.9647 49.9993 33.2799 48.3501 32.8882 46.7068C31.9968 42.9677 30.367 40.8111 28.5507 39.701C27.6634 39.1585 26.7372 38.8609 25.8323 38.7515C24.919 38.637 24.0269 38.7106 23.2176 38.9035C21.7719 39.2481 20.6316 39.9606 20.1802 40.6903C20.0178 40.9528 19.6681 41.0362 19.4001 40.8762C19.1367 40.7152 19.0538 40.3673 19.2152 40.1003C19.8069 39.1439 21.2173 38.2234 22.95 37.8103C23.8735 37.5902 24.9099 37.5057 25.9654 37.6405C27.0277 37.7737 28.1164 38.1174 29.1391 38.7408C29.9766 39.2527 30.781 39.9541 31.4994 40.8808L23.2048 6.08499C22.8131 4.44175 21.7866 3.11709 20.4512 2.29498C19.109 1.47446 17.4605 1.16758 15.8062 1.56192C14.1542 1.95573 12.8208 2.98052 11.9915 4.31159C10.6166 6.53382 10.8045 9.40859 12.4862 11.4251C13.0903 12.1506 13.8577 12.7264 14.7185 13.108L14.7138 13.109Z" fill="#00063F"/>
</svg>
