<svg width="58" height="58" viewBox="0 0 58 58" fill="none" xmlns="http://www.w3.org/2000/svg">
<path fill-rule="evenodd" clip-rule="evenodd" d="M6.08318 22.8479C4.8533 17.6886 8.03875 12.5091 13.1981 11.2792L24.0968 8.6812C24.9567 8.47621 25.4876 7.61297 25.2826 6.75309C25.0776 5.8932 24.2144 5.36229 23.3545 5.56727L12.4558 8.16532C5.57666 9.80517 1.32942 16.7111 2.96926 23.5902L8.16536 45.3877C9.80521 52.2668 16.7112 56.514 23.5902 54.8742L45.3877 49.6781C52.2668 48.0382 56.5141 41.1323 54.8742 34.2532L52.2762 23.3544C52.0712 22.4945 51.2079 21.9636 50.348 22.1686C49.4881 22.3736 48.9572 23.2368 49.1622 24.0967L51.4896 33.8601C46.5918 29.1317 38.4119 31.1551 36.1345 37.3784L30.9775 33.5826C24.8634 29.0821 16.1379 31.8372 13.7168 39.0327L11.5326 45.5235C11.4354 45.2378 11.3507 44.9449 11.2793 44.6454L6.08318 22.8479Z" fill="#00063F"/>
<path d="M37.7783 3.81731C39.4007 1.17938 42.8543 0.356093 45.4922 1.97845C48.1302 3.60081 48.9535 7.05446 47.3311 9.6924L39.3547 22.6618C39.1323 23.0235 38.7754 23.2819 38.3625 23.3803L32.8504 24.6943C31.9905 24.8993 31.1273 24.3684 30.9223 23.5085L29.6083 17.9965C29.5099 17.5835 29.5795 17.1484 29.8019 16.7867L37.7783 3.81731Z" fill="#00063F"/>
</svg>
