<svg width="65" height="59" viewBox="0 0 65 59" fill="none" xmlns="http://www.w3.org/2000/svg">
<path fill-rule="evenodd" clip-rule="evenodd" d="M27.9549 53.0966C21.9462 53.6765 16.5025 54.614 11.7645 56.2584C11.4352 56.3775 11.0709 56.3502 10.7622 56.1828C10.4534 56.0154 10.2321 55.7257 10.1508 55.3848C7.08176 42.5209 2.13607 21.7738 0.888546 16.5405C0.811866 16.2189 0.868255 15.8807 1.04251 15.6007C1.21917 15.3201 1.49908 15.1215 1.82243 15.052C2.10375 14.9976 2.39399 14.9487 2.6938 14.8976C4.54033 22.6437 10.0207 45.6337 11.3449 51.178C11.5727 52.1334 12.1735 52.9619 13.0113 53.475C13.8431 53.9845 14.8403 54.1451 15.7891 53.9214L15.7915 53.9208C17.8045 53.4689 22.2989 52.6867 27.9552 53.099L27.9549 53.0966Z" fill="#00063F"/>
<path fill-rule="evenodd" clip-rule="evenodd" d="M46.9763 48.5622C51.8387 45.6425 56.2001 44.3136 58.2027 43.8083C59.1503 43.5799 59.9702 42.9862 60.4828 42.1562C61.0013 41.3197 61.1614 40.3099 60.9337 39.3545C59.6143 33.8088 54.1339 10.819 52.2874 3.07292C52.5775 2.98093 52.8616 2.89546 53.1347 2.81766C53.4553 2.73618 53.7941 2.78479 54.0783 2.9555C54.3625 3.12622 54.563 3.40315 54.6397 3.7248C55.8872 8.95786 60.8329 29.7052 63.8972 42.5702C63.9784 42.9111 63.9092 43.27 63.7115 43.5582C63.5115 43.8469 63.1987 44.0356 62.8511 44.0779C57.8788 44.7482 52.5967 46.365 46.9755 48.56L46.9763 48.5622Z" fill="#00063F"/>
<path fill-rule="evenodd" clip-rule="evenodd" d="M37.8476 52.4334C27.5231 49.2855 18.4138 50.8 15.2337 51.5174C14.915 51.596 14.5798 51.5414 14.301 51.3719C14.0215 51.2001 13.8216 50.9256 13.7455 50.6063C12.3291 44.6753 6.16219 18.8051 4.76539 12.9456C4.60803 12.2855 5.01276 11.6207 5.67232 11.461C8.84291 10.7457 17.963 9.22367 28.2985 12.374C36.1008 4.89743 44.927 2.14399 48.0796 1.35188C48.7403 1.19692 49.4014 1.6076 49.5587 2.26772C50.9556 8.12735 57.1225 33.9976 58.5341 39.9296C58.6102 40.2488 58.5556 40.584 58.3838 40.8634C58.2119 41.1429 57.9344 41.3409 57.617 41.4141C54.455 42.2084 45.6387 44.9646 37.8476 52.4334Z" fill="#00063F"/>
<line x1="29.2923" y1="14.9325" x2="36.9801" y2="48.2629" stroke="white" stroke-width="0.6"/>
</svg>
