<svg width="74" height="59" viewBox="0 0 74 59" fill="none" xmlns="http://www.w3.org/2000/svg">
<path d="M20.8065 37.4481C20.787 37.7958 20.6246 38.0994 20.3496 38.3095C20.0746 38.5195 19.7216 38.5916 19.3816 38.5161L18.0187 38.2029C17.4718 38.0805 17.0992 37.6034 17.1117 37.0497C17.1995 33.4531 17.9563 24.406 23.1194 18.1244C23.3339 17.8626 23.6296 17.7139 23.9435 17.7053C24.2781 17.6947 24.6039 17.8368 24.8552 18.108L25.8407 19.1613C26.2295 19.5803 26.2423 20.2273 25.8707 20.7012C21.9814 25.6736 21.0286 33.3293 20.8069 37.4512L20.8065 37.4481ZM20.1581 18.352C16.3049 24.0441 15.2274 31.0643 14.9476 35.1817L5.28763 32.8643C4.42565 32.6574 3.83097 31.9053 3.83985 31.0333C3.87083 28.2088 4.26382 25.4002 5.00369 22.6832C5.88559 19.451 7.25016 16.3747 9.06663 13.5402C9.62437 12.6728 10.7854 12.4171 11.6607 12.97L20.161 18.3509L20.1581 18.352ZM13.0541 30.2186C12.9074 29.6034 12.2978 29.2431 11.6997 29.3857C11.0874 29.5316 10.7202 30.1248 10.8668 30.74C11.0094 31.3381 11.6048 31.7018 12.2171 31.5559C12.8152 31.4133 13.196 30.8139 13.0541 30.2186ZM51.7846 37.0498C51.5399 36.9576 51.2821 36.8987 51.0348 36.9095C50.1234 36.9371 49.2113 36.7723 48.3219 36.6021C47.3943 36.4229 46.4558 36.2614 45.5828 35.8946C43.3929 34.9779 41.6031 33.1893 40.4913 31.1518C41.6514 32.344 43.0277 33.3072 44.5431 33.8309L39.7317 27.7632L37.1432 28.7986C36.8622 28.9077 36.5765 28.9969 36.286 29.0662C34.7538 29.4314 33.1698 29.2131 31.8232 28.4385C30.884 27.8949 28.9525 26.5976 26.0941 24.5942C24.3916 27.9196 23.6125 31.8736 23.2687 35.0017L26.94 36.3749C26.6975 34.5877 26.9025 32.7329 27.5913 31.1149C27.4984 32.4675 27.6592 33.7354 28.0794 34.9174C28.3859 35.7864 28.8419 36.5506 29.3585 37.3033C29.7967 37.9422 30.3807 38.3719 30.9635 38.847C31.939 39.6438 32.9329 40.1894 33.9155 40.4729C36.0639 41.1015 37.2858 40.5964 38.9794 39.8978L39.6072 39.6398C39.849 39.543 40.1175 39.5332 40.3652 39.6126C41.489 39.9707 42.6424 40.2135 43.7796 40.3879C46.0517 40.7402 48.3379 40.7851 50.6313 40.6838C50.8487 40.6742 51.0615 40.6325 51.2583 40.5615C52.2635 40.2075 52.8526 39.131 52.6836 38.0938C52.5997 37.5901 52.264 37.2425 51.7846 37.0498ZM69.2047 24.2797C69.0444 24.1373 68.853 24.0415 68.6438 24.0101C68.5495 23.9934 68.465 23.9925 68.3968 23.9967C65.6726 24.917 62.8527 25.6253 60.0228 26.1043C58.8396 26.3051 57.5461 26.472 56.2287 26.6144L58.7944 29.8524C59.305 29.7849 59.8185 29.7166 60.3044 29.6339C62.9095 29.2116 64.4454 28.7732 67.1505 27.9748C68.5085 27.5729 69.7789 26.4754 69.5502 24.9227C69.504 24.6026 69.3372 24.3955 69.2065 24.2762L69.2047 24.2797ZM63.8038 31.2317L63.7867 31.2358C62.8298 31.4639 61.8477 31.6619 60.6653 31.8535C60.5842 31.8668 60.4932 31.8764 60.4092 31.8904L61.3779 33.1132C61.8592 33.7179 62.2796 34.358 62.6737 35.0136C62.7063 35.0239 62.7383 35.0193 62.768 35.0302L65.7204 36.2287C66.2844 36.4735 66.8752 36.4771 67.4073 36.26C67.9609 36.0317 68.3833 35.5939 68.6032 35.0268C68.89 34.2601 68.5643 33.3987 67.8425 33.035L63.801 31.2324L63.8038 31.2317ZM38.9694 8.46759C38.2802 7.59647 37.012 7.45334 36.1403 8.13972L32.1329 11.3163C31.2618 12.0055 31.1165 13.2772 31.805 14.1454L47.665 34.1483C48.5248 34.3587 50.0743 34.6846 50.944 34.6459C51.3325 34.6346 51.7062 34.6869 52.0639 34.7732C53.4621 35.0961 54.5814 36.1295 54.8793 37.5183C54.8921 37.5844 54.895 37.647 54.9042 37.711C55.0342 38.4836 54.9672 39.2882 54.6896 40.0557C54.5961 40.2947 54.4618 40.5013 54.3351 40.7151C54.1563 41.0256 53.9437 41.308 53.6974 41.5623C55.9721 43.8192 58.9058 45.3563 62.0741 45.9073C62.3732 45.9624 62.5948 45.8313 62.6986 45.7494C62.7997 45.6681 62.9757 45.4847 62.9932 45.1795C63.218 41.3245 62.0203 37.5375 59.6191 34.51L38.9693 8.46455L38.9694 8.46759Z" fill="#00063F"/>
<path d="M57.5 42H47.5C47.2239 42 47 42.0746 47 42.1667C47 42.2587 47.2239 42.3333 47.5 42.3333H57.5C57.7761 42.3333 58 42.2587 58 42.1667C58 42.0746 57.7761 42 57.5 42Z" fill="#00063F"/>
<path d="M57.5 43.3333H47.5C47.2239 43.3333 47 43.4079 47 43.4999C47 43.592 47.2239 43.6666 47.5 43.6666H57.5C57.7761 43.6666 58 43.592 58 43.4999C58 43.4079 57.7761 43.3333 57.5 43.3333Z" fill="#00063F"/>
<path d="M57.5 44.6665H47.5C47.2239 44.6665 47 44.7411 47 44.8332C47 44.9252 47.2239 44.9998 47.5 44.9998H57.5C57.7761 44.9998 58 44.9252 58 44.8332C58 44.7411 57.7761 44.6665 57.5 44.6665Z" fill="#00063F"/>
<path d="M57.5 45.9998H47.5C47.2239 45.9998 47 46.0744 47 46.1664C47 46.2585 47.2239 46.3331 47.5 46.3331H57.5C57.7761 46.3331 58 46.2585 58 46.1664C58 46.0744 57.7761 45.9998 57.5 45.9998Z" fill="#00063F"/>
<path d="M45.9167 42H38.0833C38.0373 42 38 42.0373 38 42.0833C38 42.2824 38 43.6049 38 43.8333C38.2452 43.8333 45.5872 43.8333 46 43.8333C46 43.6174 46 42.3365 46 42.0833C46 42.0373 45.9627 42 45.9167 42Z" fill="#00063F"/>
<path d="M43.4167 49H40.5833C40.5373 49 40.5 49.0373 40.5 49.0833V49.9167C40.5 49.9627 40.5373 50 40.5833 50H43.4167C43.4627 50 43.5 49.9627 43.5 49.9167V49.0833C43.5 49.0373 43.4627 49 43.4167 49Z" fill="#00063F"/>
<path d="M45.2441 45.7802L41.9804 44.9057C41.9185 44.8892 41.8617 44.9458 41.8783 45.0078L42.7528 48.2715C42.774 48.3504 42.8848 48.3547 42.9119 48.2776L43.5214 46.5488L45.2503 45.9393C45.3272 45.9122 45.3231 45.8014 45.2441 45.7802Z" fill="#00063F"/>
<path d="M39.1667 44.5833V44H38V44.5833C38 44.6294 38.0373 44.6667 38.0833 44.6667H39.0833C39.1294 44.6667 39.1667 44.6294 39.1667 44.5833Z" fill="#00063F"/>
<path d="M44.8333 44.5833C44.8333 44.6294 44.8706 44.6667 44.9167 44.6667H45.9167C45.9627 44.6667 46 44.6294 46 44.5833V44H44.8333V44.5833Z" fill="#00063F"/>
<path d="M42.0233 44.7447L42.9167 44.9841V44H41.0833V48.8333H42.9167V48.4855C42.7809 48.5337 42.6303 48.4583 42.5918 48.3147L41.7173 45.051C41.6678 44.8662 41.8369 44.695 42.0233 44.7447Z" fill="#00063F"/>
</svg>
