<svg width="58" height="58" viewBox="0 0 58 58" fill="none" xmlns="http://www.w3.org/2000/svg">
<path d="M37.3136 37.1786L39.1025 34.8542L34.7711 31.5207C34.6859 31.6545 34.5799 31.7835 34.4894 31.9155C34.0255 32.5846 33.5263 33.2332 32.977 33.8432L37.3084 37.1768L37.3136 37.1786Z" fill="#00063F"/>
<path d="M54.3711 42.3525L43.3535 35.2982C42.9956 35.0693 42.5817 34.9879 42.1975 35.0379C41.7615 35.0947 41.3544 35.3155 41.0662 35.6987L38.6293 38.8564C38.0744 39.5773 38.1654 40.5649 38.8278 41.17L48.4687 50.0219C49.4809 50.9471 50.7978 51.4044 52.1715 51.2782C53.55 51.1688 54.7576 50.4981 55.6017 49.4013C56.4415 48.3102 56.7717 46.9597 56.542 45.5994C56.3007 44.2456 55.5363 43.0878 54.3753 42.3472L54.3711 42.3525ZM52.6236 47.1111C52.3922 47.4118 52.058 47.5955 51.7057 47.6414C51.3535 47.6873 50.9932 47.5939 50.695 47.3622L49.847 46.7161C49.2475 46.2481 49.1353 45.386 49.5959 44.7876C50.0565 44.1891 50.926 44.0759 51.5245 44.5365L52.3735 45.1899C52.972 45.6506 53.0845 46.5151 52.6239 47.1136L52.6236 47.1111Z" fill="#00063F"/>
<path d="M21.1676 37.8756C30.3426 36.6812 36.8363 28.2437 35.6419 19.0687C34.4475 9.89375 26.0094 3.39564 16.8344 4.59006C7.65943 5.78449 1.16132 14.2225 2.35632 23.4019C3.5514 32.582 11.9958 39.0696 21.1676 37.8756ZM17.2942 8.12172C24.5208 7.18094 31.1682 12.297 32.1099 19.5311C33.0514 26.7628 27.9347 33.4051 20.7081 34.3459C13.4815 35.2867 6.82655 30.1716 5.88578 22.945C4.94499 15.7184 10.0601 9.06348 17.2942 8.12172Z" fill="#00063F"/>
<ellipse cx="19" cy="21.4999" rx="12" ry="11.5" fill="#00063F"/>
<path d="M19.5128 16.9999L17.1967 25.5516L18.2322 25.8356L20.5483 17.2838L19.5128 16.9999ZM15.8939 17.9519L11.618 20.9807L11 21.4205L11.618 21.8548L15.8939 24.8835L16.5063 24.0094L12.8484 21.4205L16.5063 18.826L15.8939 17.9519ZM21.8512 17.9519L21.2387 18.826L24.8966 21.4205L21.2387 24.0094L21.8512 24.8835L26.1271 21.8548L26.745 21.4205L26.1271 20.9807L21.8512 17.9519Z" fill="white"/>
</svg>
