<svg width="72" height="74" viewBox="0 0 72 74" fill="none" xmlns="http://www.w3.org/2000/svg">
<path d="M53.2591 40.792C52.024 44.4822 49.5439 47.5419 46.5408 49.6228C43.5221 51.6235 39.9325 52.6132 36.5251 52.4037C33.0854 52.242 29.9081 50.8655 27.438 48.8525C27.151 48.659 26.8962 48.4176 26.5769 48.272C23.5774 46.5283 19.7476 47.5648 18.0039 50.5642C16.2602 53.5637 17.2967 57.3936 20.2962 59.1372L20.4397 59.234C25.4974 62.1564 31.3957 63.4189 37 62.7436C42.6199 62.1484 47.8333 59.6788 51.805 55.9547C55.7289 52.1984 58.3621 47.3632 59.2365 42.247C60.0776 37.3866 59.319 32.422 57.3247 28.1551C56.2948 29.27 55.0424 30.0957 53.7588 30.7612C54.4937 34.1094 54.3476 37.6292 53.2591 40.792Z" fill="#00063F"/>
<path d="M50.9976 13.8008C45.9399 10.8784 40.0416 9.61587 34.4851 10.3234C28.9131 10.9509 23.6674 13.4683 19.8081 17.1289C15.9165 20.8375 13.3311 25.7049 12.5367 30.8055C11.7279 35.6181 12.5031 40.4547 14.4819 44.6415C15.3505 43.7658 16.3783 43.067 17.4694 42.4805C16.6555 38.9398 16.786 35.34 17.9067 32.1293C19.1741 28.3913 21.7343 25.316 24.7852 23.2674C27.884 21.251 31.4736 20.2614 34.9289 20.5031C38.3685 20.6648 41.5615 22.1215 43.9993 24.1823C44.2541 24.4236 44.5889 24.6494 44.9082 24.795C47.9077 26.5387 51.7698 25.4544 53.5135 22.4549C55.2572 19.4555 54.1729 15.5934 51.1734 13.8497L50.9976 13.8008Z" fill="#00063F"/>
</svg>
