<svg width="51" height="51" viewBox="0 0 51 51" fill="none" xmlns="http://www.w3.org/2000/svg">
<path d="M22.0786 0.264858C15.4263 1.13088 9.39346 4.60296 5.30025 9.91774C1.21057 15.2352 -0.601182 21.9562 0.264805 28.6083C1.13079 35.2603 4.60291 41.2934 9.91769 45.3866C15.2351 49.4763 21.9561 51.288 28.6082 50.422C35.2603 49.5561 41.2933 46.0839 45.3865 40.7692C49.4762 35.4517 51.288 28.7307 50.422 22.0786C49.5472 15.4306 46.0725 9.40137 40.7585 5.31443C35.4472 1.22396 28.7287 -0.591551 22.0786 0.264858ZM19.4955 9.81349C21.6507 9.53292 23.7636 10.5778 24.8465 12.4636C25.9321 14.3459 25.7745 16.6981 24.4484 18.4212C23.1223 20.1442 20.8918 20.8985 18.7912 20.3314C16.6941 19.767 15.14 17.9924 14.8595 15.8372C14.6753 14.4229 15.059 12.9938 15.9302 11.8655C16.7978 10.7345 18.0811 9.99761 19.4955 9.81349ZM28.2001 47.2871C20.4602 48.2884 12.7675 45.1337 7.96095 38.988L12.9922 31.0979L12.9887 31.0953C13.7017 29.9719 14.8746 29.2246 16.191 29.0532C17.5074 28.8819 18.8325 29.304 19.8094 30.2073C19.8094 30.2073 23.6125 33.7127 23.7756 33.8658L23.776 33.8689C24.12 34.1915 24.5891 34.3514 25.0595 34.3058C25.5391 34.2589 25.9712 33.991 26.226 33.5811C29.767 27.9709 32.9439 22.9841 32.9439 22.9841C33.6568 21.8608 34.8329 21.1131 36.1523 20.9413C37.4717 20.7695 38.7999 21.1912 39.7768 22.0946L47.1699 28.9276L47.1695 28.9245C46.395 33.6173 44.1334 37.9344 40.716 41.2397C37.3015 44.5452 32.9133 46.6673 28.2001 47.2871Z" fill="#00063F"/>
</svg>
