<svg width="58" height="58" viewBox="0 0 58 58" fill="none" xmlns="http://www.w3.org/2000/svg">
<path d="M31.0301 3.59301L15.0718 7.39717C11.077 8.3544 7.62509 10.857 5.47315 14.356C3.3212 17.8551 2.64498 22.0648 3.59282 26.0617L7.39698 42.0201C8.35421 46.0148 10.8568 49.4667 14.3559 51.6187C17.8549 53.7706 22.0646 54.4469 26.0616 53.499L42.0199 49.6949C46.0146 48.7376 49.4666 46.235 51.6185 42.736C53.7704 39.237 54.4467 35.0272 53.4988 31.0303L49.6947 15.0719C48.7374 11.0772 46.2348 7.62528 42.7358 5.47334C39.2368 3.32139 35.027 2.64517 31.0301 3.59301ZM14.1028 15.1238C15.1549 14.873 16.2577 14.9398 17.2718 15.3158C18.2859 15.6918 19.1658 16.36 19.8001 17.236C20.4344 18.1121 20.7947 19.1565 20.8354 20.2373C20.8762 21.3181 20.5955 22.3867 20.0289 23.308C19.4623 24.2293 18.6352 24.9619 17.6523 25.4131C16.6693 25.8643 15.5747 26.0139 14.5067 25.843C13.4387 25.6721 12.4454 25.1883 11.6524 24.4529C10.8593 23.7175 10.3022 22.7634 10.0514 21.7113C9.71508 20.3005 9.95298 18.8139 10.7128 17.5785C11.4725 16.3431 12.692 15.4601 14.1028 15.1238ZM49.0364 31.9629C49.3883 33.3665 49.4582 34.826 49.2421 36.2568C49.0259 37.6876 48.5279 39.0613 47.777 40.2983C47.0261 41.5353 46.0372 42.611 44.8675 43.463C43.6979 44.3151 42.3708 44.9265 40.9632 45.262L25.0048 49.0662C23.1342 49.5166 21.1778 49.4656 19.3332 48.9183C17.4885 48.371 15.8209 47.3467 14.4987 45.9489C14.0094 45.4116 13.7112 44.7277 13.6504 44.0035C13.5895 43.2794 13.7695 42.5553 14.1624 41.9439C15.5681 39.1531 18.0001 37.0152 20.9481 35.9789C24.4944 35.1335 28.2842 41.5196 31.0819 39.1849C34.2055 36.5664 34.288 29.0511 36.9889 24.6594C39.0551 21.2998 42.7374 23.7763 44.8969 25.2104C46.8026 26.4731 48.1516 28.4183 48.6662 30.6457L49.0364 31.9629Z" fill="#00063F"/>
<path d="M39.9998 24.6686C38.9188 24.8875 38.0164 25.4985 37.4113 26.3226L37.2937 26.4899L37.2939 26.4908L37.1853 26.6632C36.6615 27.5414 36.4495 28.6099 36.6684 29.6912C36.8873 30.7723 37.4983 31.6746 38.3224 32.2798L38.4897 32.3974C39.3984 32.9999 40.5379 33.2561 41.6911 33.0226C42.7724 32.8037 43.6745 32.1928 44.2796 31.3687L44.3972 31.2014C44.9997 30.2926 45.2558 29.1531 45.0224 28C44.7889 26.8466 44.1097 25.8965 43.2012 25.2939L43.2002 25.2941L43.0278 25.1855C42.1497 24.6617 41.0811 24.4498 39.9998 24.6686ZM40.1358 25.3406C41.0432 25.1569 41.9398 25.3349 42.6768 25.7747L42.8218 25.8659C43.5845 26.3718 44.1545 27.1682 44.3505 28.136C44.5464 29.1038 44.331 30.0593 43.8251 30.822C43.3193 31.5847 42.5228 32.1547 41.555 32.3507C40.5872 32.5466 39.6318 32.3312 38.8691 31.8253C38.1063 31.3195 37.5363 30.5231 37.3404 29.5552C37.1567 28.648 37.3339 27.7514 37.7735 27.0144L37.8657 26.8693C38.3716 26.1066 39.168 25.5365 40.1358 25.3406ZM40.3683 26.4891C40.183 26.5267 40.0629 26.7077 40.1004 26.8931L40.4378 28.5595L38.7714 28.8968C38.5857 28.9346 38.4659 29.1156 38.5034 29.3008C38.5412 29.4862 38.7222 29.6051 38.9072 29.5678L40.5736 29.2304L40.911 30.8968C40.9485 31.0822 41.1295 31.2023 41.3149 31.1648C41.5003 31.1272 41.6204 30.9462 41.5829 30.7608L41.2455 29.0944L42.9119 28.7571C43.0969 28.7193 43.2163 28.5393 43.1791 28.3542C43.1416 28.169 42.9613 28.0488 42.7761 28.0861L41.1097 28.4235L40.7723 26.7571C40.7348 26.5717 40.5537 26.4517 40.3683 26.4891Z" fill="#00063F" stroke="#00063F" stroke-width="0.3"/>
</svg>
