<svg width="24" height="24" viewBox="0 0 24 24" fill="none" xmlns="http://www.w3.org/2000/svg">
<mask id="mask0_17_1097" style="mask-type:luminance" maskUnits="userSpaceOnUse" x="0" y="0" width="24" height="24">
<path d="M12 24C18.6274 24 24 18.6274 24 12C24 5.37259 18.6274 0 12 0C5.37259 0 0 5.37259 0 12C0 18.6274 5.37259 24 12 24Z" fill="white"/>
</mask>
<g mask="url(#mask0_17_1097)">
<path d="M1.90503 0V14.7273H7.2764L12 6.54546H24V0H1.90503Z" fill="#DB4437"/>
<path d="M1.90503 0V14.7273H7.2764L12 6.54546H24V0H1.90503Z" fill="url(#paint0_linear_17_1097)"/>
</g>
<mask id="mask1_17_1097" style="mask-type:luminance" maskUnits="userSpaceOnUse" x="0" y="0" width="24" height="24">
<path d="M12 24C18.6274 24 24 18.6274 24 12C24 5.37259 18.6274 0 12 0C5.37259 0 0 5.37259 0 12C0 18.6274 5.37259 24 12 24Z" fill="white"/>
</mask>
<g mask="url(#mask1_17_1097)">
<path d="M7.40572 14.6795L1.97435 5.3645L1.89526 5.50087L7.28709 14.7463L7.40572 14.6795Z" fill="#3E2723" fill-opacity="0.15"/>
</g>
<mask id="mask2_17_1097" style="mask-type:luminance" maskUnits="userSpaceOnUse" x="0" y="0" width="24" height="24">
<path d="M12 24C18.6274 24 24 18.6274 24 12C24 5.37259 18.6274 0 12 0C5.37259 0 0 5.37259 0 12C0 18.6274 5.37259 24 12 24Z" fill="white"/>
</mask>
<g mask="url(#mask2_17_1097)">
<path d="M0 23.9999H11.4232L16.725 18.6981V14.7272H7.27637L0 2.24719V23.9999Z" fill="#0F9D58"/>
<path d="M0 23.9999H11.4232L16.725 18.6981V14.7272H7.27637L0 2.24719V23.9999Z" fill="url(#paint1_linear_17_1097)"/>
</g>
<mask id="mask3_17_1097" style="mask-type:luminance" maskUnits="userSpaceOnUse" x="0" y="0" width="24" height="24">
<path d="M12 24C18.6274 24 24 18.6274 24 12C24 5.37259 18.6274 0 12 0C5.37259 0 0 5.37259 0 12C0 18.6274 5.37259 24 12 24Z" fill="white"/>
</mask>
<g mask="url(#mask3_17_1097)">
<path d="M16.6145 14.9086L16.5014 14.8431L11.2664 24H11.4232L16.6186 14.9127L16.6145 14.9086Z" fill="#263238" fill-opacity="0.15"/>
</g>
<mask id="mask4_17_1097" style="mask-type:luminance" maskUnits="userSpaceOnUse" x="0" y="0" width="24" height="24">
<path d="M12 24C18.6274 24 24 18.6274 24 12C24 5.37259 18.6274 0 12 0C5.37259 0 0 5.37259 0 12C0 18.6274 5.37259 24 12 24Z" fill="white"/>
</mask>
<g mask="url(#mask4_17_1097)">
<mask id="mask5_17_1097" style="mask-type:luminance" maskUnits="userSpaceOnUse" x="0" y="2" width="17" height="22">
<path d="M0 23.9999H11.4232L16.725 18.6981V14.7272H7.27637L0 2.24719V23.9999Z" fill="white"/>
</mask>
<g mask="url(#mask5_17_1097)">
<path d="M12.0002 6.54553L16.7252 14.7274L11.4233 24.0001H24.0002V6.54553H12.0002Z" fill="#FFCD40"/>
<path d="M12.0002 6.54553L16.7252 14.7274L11.4233 24.0001H24.0002V6.54553H12.0002Z" fill="url(#paint2_linear_17_1097)"/>
</g>
</g>
<mask id="mask6_17_1097" style="mask-type:luminance" maskUnits="userSpaceOnUse" x="0" y="0" width="24" height="24">
<path d="M12 24C18.6274 24 24 18.6274 24 12C24 5.37259 18.6274 0 12 0C5.37259 0 0 5.37259 0 12C0 18.6274 5.37259 24 12 24Z" fill="white"/>
</mask>
<g mask="url(#mask6_17_1097)">
<path d="M12.0002 6.54553L16.7252 14.7274L11.4233 24.0001H24.0002V6.54553H12.0002Z" fill="#FFCD40"/>
<path d="M12.0002 6.54553L16.7252 14.7274L11.4233 24.0001H24.0002V6.54553H12.0002Z" fill="url(#paint3_linear_17_1097)"/>
</g>
<mask id="mask7_17_1097" style="mask-type:luminance" maskUnits="userSpaceOnUse" x="0" y="0" width="24" height="24">
<path d="M12 24C18.6274 24 24 18.6274 24 12C24 5.37259 18.6274 0 12 0C5.37259 0 0 5.37259 0 12C0 18.6274 5.37259 24 12 24Z" fill="white"/>
</mask>
<g mask="url(#mask7_17_1097)">
<mask id="mask8_17_1097" style="mask-type:luminance" maskUnits="userSpaceOnUse" x="11" y="6" width="14" height="18">
<path d="M12.0002 6.54553L16.7252 14.7274L11.4233 24.0001H24.0002V6.54553H12.0002Z" fill="white"/>
</mask>
<g mask="url(#mask8_17_1097)">
<path d="M1.90503 0V14.7273H7.2764L12 6.54546H24V0H1.90503Z" fill="#DB4437"/>
<path d="M1.90503 0V14.7273H7.2764L12 6.54546H24V0H1.90503Z" fill="url(#paint4_linear_17_1097)"/>
</g>
</g>
<mask id="mask9_17_1097" style="mask-type:luminance" maskUnits="userSpaceOnUse" x="0" y="0" width="24" height="24">
<path d="M12 24C18.6274 24 24 18.6274 24 12C24 5.37259 18.6274 0 12 0C5.37259 0 0 5.37259 0 12C0 18.6274 5.37259 24 12 24Z" fill="white"/>
</mask>
<g mask="url(#mask9_17_1097)">
<path d="M12 6.54553V9.40235L22.6909 6.54553H12Z" fill="url(#paint5_radial_17_1097)"/>
</g>
<mask id="mask10_17_1097" style="mask-type:luminance" maskUnits="userSpaceOnUse" x="0" y="0" width="24" height="24">
<path d="M12 24C18.6274 24 24 18.6274 24 12C24 5.37259 18.6274 0 12 0C5.37259 0 0 5.37259 0 12C0 18.6274 5.37259 24 12 24Z" fill="white"/>
</mask>
<g mask="url(#mask10_17_1097)">
<mask id="mask11_17_1097" style="mask-type:luminance" maskUnits="userSpaceOnUse" x="1" y="0" width="23" height="15">
<path d="M1.90503 0V5.50091L7.2764 14.7273L12 6.54546H24V0H1.90503Z" fill="white"/>
</mask>
<g mask="url(#mask11_17_1097)">
<path d="M0 23.9999H11.4232L16.725 18.6981V14.7272H7.27637L0 2.24719V23.9999Z" fill="#0F9D58"/>
<path d="M0 23.9999H11.4232L16.725 18.6981V14.7272H7.27637L0 2.24719V23.9999Z" fill="url(#paint6_linear_17_1097)"/>
</g>
</g>
<mask id="mask12_17_1097" style="mask-type:luminance" maskUnits="userSpaceOnUse" x="0" y="0" width="24" height="24">
<path d="M12 24C18.6274 24 24 18.6274 24 12C24 5.37259 18.6274 0 12 0C5.37259 0 0 5.37259 0 12C0 18.6274 5.37259 24 12 24Z" fill="white"/>
</mask>
<g mask="url(#mask12_17_1097)">
<path d="M1.90503 5.51587L9.71185 13.3213L7.2764 14.7272L1.90503 5.51587Z" fill="url(#paint7_radial_17_1097)"/>
</g>
<mask id="mask13_17_1097" style="mask-type:luminance" maskUnits="userSpaceOnUse" x="0" y="0" width="24" height="24">
<path d="M12 24C18.6274 24 24 18.6274 24 12C24 5.37259 18.6274 0 12 0C5.37259 0 0 5.37259 0 12C0 18.6274 5.37259 24 12 24Z" fill="white"/>
</mask>
<g mask="url(#mask13_17_1097)">
<path d="M11.4314 23.9851L14.2896 13.3214L16.725 14.7273L11.4314 23.9851Z" fill="url(#paint8_radial_17_1097)"/>
</g>
<mask id="mask14_17_1097" style="mask-type:luminance" maskUnits="userSpaceOnUse" x="0" y="0" width="24" height="24">
<path d="M12 24C18.6274 24 24 18.6274 24 12C24 5.37259 18.6274 0 12 0C5.37259 0 0 5.37259 0 12C0 18.6274 5.37259 24 12 24Z" fill="white"/>
</mask>
<g mask="url(#mask14_17_1097)">
<path d="M12 17.4546C15.0124 17.4546 17.4545 15.0125 17.4545 12.0001C17.4545 8.98762 15.0124 6.54553 12 6.54553C8.98749 6.54553 6.54541 8.98762 6.54541 12.0001C6.54541 15.0125 8.98749 17.4546 12 17.4546Z" fill="#F1F1F1"/>
<path d="M11.9999 16.3636C14.4098 16.3636 16.3635 14.41 16.3635 12C16.3635 9.59002 14.4098 7.63635 11.9999 7.63635C9.5899 7.63635 7.63623 9.59002 7.63623 12C7.63623 14.41 9.5899 16.3636 11.9999 16.3636Z" fill="#4285F4"/>
</g>
<mask id="mask15_17_1097" style="mask-type:luminance" maskUnits="userSpaceOnUse" x="0" y="0" width="24" height="24">
<path d="M12 24C18.6274 24 24 18.6274 24 12C24 5.37259 18.6274 0 12 0C5.37259 0 0 5.37259 0 12C0 18.6274 5.37259 24 12 24Z" fill="white"/>
</mask>
<g mask="url(#mask15_17_1097)">
<path d="M12 6.40918C8.98768 6.40918 6.54541 8.85145 6.54541 11.8637V12.0001C6.54541 8.98782 8.98768 6.54554 12 6.54554H24V6.40918H12Z" fill="#3E2723" fill-opacity="0.2"/>
<path d="M16.7182 14.7272C15.7746 16.3554 14.0168 17.4545 12 17.4545C9.98182 17.4545 8.2241 16.3554 7.28046 14.7272H7.275L0 2.24719V2.38356L7.27637 14.8636H7.28182C8.22546 16.4917 9.98319 17.5908 12.0014 17.5908C14.0182 17.5908 15.7759 16.4931 16.7196 14.8636H16.7264V14.7272H16.7182Z" fill="white" fill-opacity="0.1"/>
<path opacity="0.1" d="M12.1363 6.54553C12.1131 6.54553 12.0913 6.54826 12.0681 6.54962C15.049 6.58644 17.4545 9.01099 17.4545 12.0001C17.4545 14.9892 15.049 17.4137 12.0681 17.4505C12.0913 17.4505 12.1131 17.4546 12.1363 17.4546C15.1486 17.4546 17.5908 15.0124 17.5908 12.0001C17.5908 8.98781 15.1486 6.54553 12.1363 6.54553Z" fill="#3E2723"/>
<path d="M16.7729 14.9087C17.2365 14.1068 17.5052 13.1796 17.5052 12.1868C17.5052 11.6114 17.4152 11.0578 17.2502 10.5382C17.3797 11.0046 17.4547 11.4941 17.4547 12.0014C17.4547 12.9941 17.1861 13.9214 16.7224 14.7232L16.7252 14.7287L11.4233 24.0014H11.5815L16.7756 14.9141L16.7729 14.9087Z" fill="white" fill-opacity="0.2"/>
</g>
<mask id="mask16_17_1097" style="mask-type:luminance" maskUnits="userSpaceOnUse" x="0" y="0" width="24" height="24">
<path d="M12 24C18.6274 24 24 18.6274 24 12C24 5.37259 18.6274 0 12 0C5.37259 0 0 5.37259 0 12C0 18.6274 5.37259 24 12 24Z" fill="white"/>
</mask>
<g mask="url(#mask16_17_1097)">
<path d="M12 0.136364C18.6041 0.136364 23.9618 5.47228 23.9987 12.0682C23.9987 12.045 24 12.0232 24 12C24 5.37273 18.6273 0 12 0C5.37273 0 0 5.37273 0 12C0 12.0232 0.00136367 12.045 0.00136367 12.0682C0.0381819 5.47228 5.39591 0.136364 12 0.136364Z" fill="white" fill-opacity="0.2"/>
<path d="M12 23.8637C18.6041 23.8637 23.9618 18.5278 23.9987 11.9319C23.9987 11.9551 24 11.9769 24 12.0001C24 18.6273 18.6273 24.0001 12 24.0001C5.37273 24.0001 0 18.6273 0 12.0001C0 11.9769 0.00136367 11.9551 0.00136367 11.9319C0.0381819 18.5278 5.39591 23.8637 12 23.8637Z" fill="#3E2723" fill-opacity="0.15"/>
</g>
<path d="M12 24C18.6274 24 24 18.6274 24 12C24 5.37259 18.6274 0 12 0C5.37259 0 0 5.37259 0 12C0 18.6274 5.37259 24 12 24Z" fill="url(#paint9_radial_17_1097)"/>
<defs>
<linearGradient id="paint0_linear_17_1097" x1="2.90962" y1="9.13923" x2="10.0687" y2="4.95737" gradientUnits="userSpaceOnUse">
<stop stop-color="#A52714" stop-opacity="0.6"/>
<stop offset="0.66" stop-color="#A52714" stop-opacity="0"/>
</linearGradient>
<linearGradient id="paint1_linear_17_1097" x1="14.0277" y1="21.3408" x2="6.07337" y2="16.6813" gradientUnits="userSpaceOnUse">
<stop stop-color="#055524" stop-opacity="0.4"/>
<stop offset="0.33" stop-color="#055524" stop-opacity="0"/>
</linearGradient>
<linearGradient id="paint2_linear_17_1097" x1="15.5265" y1="5.70062" x2="17.5297" y2="14.4724" gradientUnits="userSpaceOnUse">
<stop stop-color="#EA6100" stop-opacity="0.3"/>
<stop offset="0.66" stop-color="#EA6100" stop-opacity="0"/>
</linearGradient>
<linearGradient id="paint3_linear_17_1097" x1="15.5265" y1="5.70062" x2="17.5297" y2="14.4724" gradientUnits="userSpaceOnUse">
<stop stop-color="#EA6100" stop-opacity="0.3"/>
<stop offset="0.66" stop-color="#EA6100" stop-opacity="0"/>
</linearGradient>
<linearGradient id="paint4_linear_17_1097" x1="2.90962" y1="9.13923" x2="10.0687" y2="4.95737" gradientUnits="userSpaceOnUse">
<stop stop-color="#A52714" stop-opacity="0.6"/>
<stop offset="0.66" stop-color="#A52714" stop-opacity="0"/>
</linearGradient>
<radialGradient id="paint5_radial_17_1097" cx="0" cy="0" r="1" gradientUnits="userSpaceOnUse" gradientTransform="translate(11.4791 6.53844) scale(11.4652)">
<stop stop-color="#3E2723" stop-opacity="0.2"/>
<stop offset="1" stop-color="#3E2723" stop-opacity="0"/>
</radialGradient>
<linearGradient id="paint6_linear_17_1097" x1="14.0277" y1="21.3408" x2="6.07337" y2="16.6813" gradientUnits="userSpaceOnUse">
<stop stop-color="#055524" stop-opacity="0.4"/>
<stop offset="0.33" stop-color="#055524" stop-opacity="0"/>
</linearGradient>
<radialGradient id="paint7_radial_17_1097" cx="0" cy="0" r="1" gradientUnits="userSpaceOnUse" gradientTransform="translate(1.89276 5.52541) scale(10.6424)">
<stop stop-color="#3E2723" stop-opacity="0.2"/>
<stop offset="1" stop-color="#3E2723" stop-opacity="0"/>
</radialGradient>
<radialGradient id="paint8_radial_17_1097" cx="0" cy="0" r="1" gradientUnits="userSpaceOnUse" gradientTransform="translate(11.9782 12.0189) scale(11.9823 11.9823)">
<stop stop-color="#263238" stop-opacity="0.2"/>
<stop offset="1" stop-color="#263238" stop-opacity="0"/>
</radialGradient>
<radialGradient id="paint9_radial_17_1097" cx="0" cy="0" r="1" gradientUnits="userSpaceOnUse" gradientTransform="translate(3.58446 3.27464) scale(24.1023)">
<stop stop-color="white" stop-opacity="0.1"/>
<stop offset="1" stop-color="white" stop-opacity="0"/>
</radialGradient>
</defs>
</svg>
