<svg width="28" height="21" viewBox="0 0 28 21" fill="none" xmlns="http://www.w3.org/2000/svg">
<path d="M14.6566 12.9178C14.6566 12.9178 13.0348 16.8829 14.0005 17.62C15.7705 18.9715 25.2022 11.8352 25.2022 10.3559C25.2022 8.90192 15.7317 2.25954 14.2172 3.34783C13.1892 4.08599 14.2717 7.89974 14.2717 7.89974C14.2717 7.89974 8.09973 7.78708 5.25244 8.3739C4.44372 8.54042 2.55469 8.65839 2.55469 10.555C2.55469 12.1235 4.42846 12.529 5.19794 12.7126C8.01907 13.3844 14.6566 12.9178 14.6566 12.9178Z" fill="#00063F"/>
<path d="M13.1895 1.46796C13.5751 1.18504 14.1012 1.15985 14.5986 1.22284C15.1531 1.29311 15.8051 1.48985 16.502 1.76678C17.9007 2.32266 19.5675 3.23623 21.1621 4.25995C22.7581 5.28458 24.302 6.43265 25.4521 7.46893C26.026 7.98598 26.5129 8.48506 26.8604 8.93475C27.0341 9.15968 27.1807 9.38225 27.2852 9.59589C27.3873 9.80491 27.4638 10.0351 27.4639 10.2687C27.4639 10.5019 27.3895 10.7357 27.2891 10.9504C27.1864 11.1699 27.0417 11.4008 26.8691 11.6369C26.5241 12.1091 26.0397 12.6389 25.4658 13.1906C24.316 14.2959 22.7685 15.5289 21.1572 16.6252C19.5484 17.7198 17.854 18.6921 16.4092 19.2648C15.6887 19.5504 15.0059 19.7467 14.4141 19.798C13.8692 19.8453 13.3235 19.7759 12.916 19.4523L12.8359 19.384C12.4176 18.9983 12.2409 18.4181 12.1689 17.8644C12.0954 17.2976 12.1208 16.6729 12.1826 16.1057C12.2442 15.5406 12.3438 15.0132 12.4277 14.6262C12.3555 14.6332 12.2784 14.6431 12.1963 14.6506C11.6397 14.7009 10.8611 14.7567 9.97168 14.7814C8.31476 14.8275 6.23344 14.7654 4.48438 14.3273L4.13965 14.2346C3.67741 14.1014 2.78507 13.864 2.01465 13.3361C1.2213 12.7924 0.536146 11.9248 0.536133 10.5666C0.536133 9.79351 0.695711 9.17057 0.975586 8.67108C1.25585 8.1709 1.64192 7.82113 2.05273 7.57245C2.84125 7.09522 3.79548 6.96603 4.22363 6.85956L4.91211 6.70331C6.54418 6.36716 8.32379 6.22271 9.74707 6.16327C10.5631 6.12919 11.2681 6.12308 11.7695 6.12518C11.8739 6.12562 11.9697 6.12711 12.0557 6.12811C12.0541 6.10064 12.0513 6.07235 12.0498 6.04315C12.0307 5.67552 12.0185 5.17078 12.0479 4.62811C12.0771 4.08809 12.1485 3.49434 12.3018 2.95428C12.4527 2.42262 12.6978 1.88876 13.1143 1.52753L13.1895 1.46796Z" stroke="#00063F" stroke-width="0.928571"/>
</svg>
