<svg width="28" height="28" viewBox="0 0 28 28" fill="none" xmlns="http://www.w3.org/2000/svg">
<path d="M18.1028 19.2439L19.2445 18.1023L17.117 15.9749C17.061 16.0419 16.994 16.1047 16.9352 16.1704C16.6344 16.5026 16.3158 16.8212 15.9727 17.1151L18.1001 19.2426L18.1028 19.2439Z" fill="#00063F"/>
<path d="M27.0454 23.2804L21.5326 18.6468C21.3535 18.4964 21.1334 18.4226 20.9201 18.4226C20.6781 18.4226 20.4402 18.5142 20.2556 18.7029L18.701 20.2534C18.3469 20.6075 18.3264 21.153 18.645 21.5304L23.2785 27.0474C23.7652 27.6243 24.4516 27.9675 25.2104 27.9962C25.9706 28.0345 26.6775 27.7542 27.2162 27.2155C27.7521 26.6796 28.0283 25.9658 27.9996 25.207C27.9641 24.4509 27.6291 23.7645 27.048 23.2778L27.0454 23.2804ZM25.7533 25.7537C25.6057 25.9014 25.4101 25.978 25.2146 25.978C25.0191 25.978 24.829 25.9014 24.6828 25.7537L24.2657 25.3408C23.9718 25.0428 23.9718 24.5642 24.2657 24.2703C24.5597 23.9763 25.0424 23.9763 25.3363 24.2703L25.7533 24.6873C26.0473 24.9812 26.0473 25.4611 25.7533 25.7551V25.7537Z" fill="#00063F"/>
<path d="M9.23971 15.3829C12.625 15.3829 15.3787 12.6279 15.3787 9.24398C15.3787 5.85865 12.6236 3.09802 9.23971 3.09802C5.85437 3.09802 3.09375 5.85305 3.09375 9.24398C3.09375 12.6361 5.8515 15.3829 9.23971 15.3829ZM4.70453 9.23698C4.94244 9.83173 5.17762 10.3431 5.46064 10.8052C6.33978 12.2614 7.64143 13.172 9.24118 13.7763C6.67622 14.7566 3.7214 11.8088 4.7046 9.23971L4.70453 9.23698Z" fill="#00063F"/>
<path d="M9.23977 18.4771C14.3329 18.4771 18.4771 14.3329 18.4771 9.23977C18.4771 4.14666 14.3329 0 9.23977 0C4.14666 0 0 4.14421 0 9.23977C0 14.3357 4.14841 18.4771 9.23977 18.4771ZM9.23977 1.96045C13.2513 1.96045 16.5163 5.22545 16.5163 9.24117C16.5163 13.2555 13.2513 16.5177 9.23977 16.5177C5.22821 16.5177 1.95905 13.2527 1.95905 9.24117C1.95905 5.22961 5.22405 1.96045 9.23977 1.96045Z" fill="#00063F"/>
</svg>
