<svg width="26" height="26" viewBox="0 0 26 26" fill="none" xmlns="http://www.w3.org/2000/svg">
<path d="M24.3924 8.85212C23.86 7.57109 22.7801 6.18794 21.9344 5.75071C22.5376 6.91891 22.9562 8.17351 23.1752 9.46987L23.1775 9.49042C21.7921 6.03651 19.4428 4.64388 17.5241 1.61139C17.427 1.45805 17.33 1.30441 17.2355 1.14222C17.1814 1.04959 17.1381 0.966129 17.1005 0.889305C17.0209 0.7352 16.9596 0.572337 16.9177 0.404018C16.9178 0.396251 16.915 0.388735 16.9099 0.382904C16.9047 0.377073 16.8976 0.373335 16.8899 0.372403C16.8824 0.370332 16.8744 0.370332 16.8668 0.372403C16.8653 0.372403 16.8627 0.375249 16.8608 0.375881C16.8589 0.376513 16.8548 0.379359 16.852 0.380623L16.8567 0.372403C13.779 2.17445 12.7348 5.51044 12.6387 7.17907C11.4096 7.26355 10.2345 7.71647 9.26664 8.47875C9.16566 8.39322 9.06013 8.31322 8.95049 8.23911C8.6713 7.26188 8.6594 6.22764 8.91603 5.24424C7.78579 5.79178 6.78149 6.56796 5.96669 7.52367H5.961C5.4754 6.90813 5.50954 4.87846 5.53736 4.4545C5.3937 4.51224 5.25657 4.58504 5.12827 4.6717C4.69959 4.97765 4.29883 5.32096 3.9307 5.6976C3.5112 6.12292 3.12806 6.58262 2.7853 7.07189C1.99753 8.1887 1.43879 9.45018 1.14133 10.7841L1.12489 10.865C1.10181 10.9728 1.01866 11.5128 1.00444 11.6301C1.00444 11.6393 1.00254 11.6478 1.00159 11.657C0.894334 12.2145 0.827872 12.779 0.802734 13.3462L0.802734 13.4094C0.805421 16.4774 1.95889 19.4327 4.03519 21.6914C6.11149 23.9501 8.95953 25.3477 12.0165 25.608C15.0734 25.8684 18.1168 24.9725 20.5451 23.0975C22.9735 21.2225 24.6101 18.5048 25.1316 15.4814C25.1521 15.3234 25.1689 15.1669 25.1872 15.0072C25.4396 12.9213 25.1664 10.8055 24.3924 8.85212ZM10.2701 18.4434C10.3273 18.4709 10.3811 18.5006 10.4399 18.5269L10.4484 18.5323C10.389 18.5038 10.3295 18.4742 10.2701 18.4434ZM23.1784 9.49327V9.48157L23.1806 9.49453L23.1784 9.49327Z" fill="url(#paint0_linear_54_2050)"/>
<path d="M24.3924 8.85214C23.86 7.57111 22.7801 6.18796 21.9344 5.75073C22.5376 6.91894 22.9562 8.17353 23.1752 9.4699V9.48159L23.1775 9.49455C24.1219 12.1971 23.9853 15.1601 22.7962 17.7643C21.3919 20.7776 17.9926 23.866 12.6719 23.7158C6.92272 23.553 1.85962 19.2869 0.91307 13.6993C0.740769 12.8182 0.91307 12.3715 0.999694 11.6554C0.881527 12.2116 0.815587 12.7777 0.802734 13.3462L0.802734 13.4094C0.805421 16.4774 1.95889 19.4328 4.03519 21.6914C6.11149 23.9501 8.95953 25.3477 12.0165 25.6081C15.0734 25.8684 18.1168 24.9726 20.5451 23.0975C22.9735 21.2225 24.6101 18.5048 25.1316 15.4814C25.1521 15.3234 25.1689 15.1669 25.1872 15.0072C25.4396 12.9214 25.1664 10.8055 24.3924 8.85214Z" fill="url(#paint1_radial_54_2050)"/>
<path d="M24.3924 8.85214C23.86 7.57111 22.7801 6.18796 21.9344 5.75073C22.5376 6.91894 22.9562 8.17353 23.1752 9.4699V9.48159L23.1775 9.49455C24.1219 12.1971 23.9853 15.1601 22.7962 17.7643C21.3919 20.7776 17.9926 23.866 12.6719 23.7158C6.92272 23.553 1.85962 19.2869 0.91307 13.6993C0.740769 12.8182 0.91307 12.3715 0.999694 11.6554C0.881527 12.2116 0.815587 12.7777 0.802734 13.3462L0.802734 13.4094C0.805421 16.4774 1.95889 19.4328 4.03519 21.6914C6.11149 23.9501 8.95953 25.3477 12.0165 25.6081C15.0734 25.8684 18.1168 24.9726 20.5451 23.0975C22.9735 21.2225 24.6101 18.5048 25.1316 15.4814C25.1521 15.3234 25.1689 15.1669 25.1872 15.0072C25.4396 12.9214 25.1664 10.8055 24.3924 8.85214Z" fill="url(#paint2_radial_54_2050)"/>
<path d="M18.4381 10.2926C18.4646 10.3113 18.4893 10.33 18.5143 10.3486C18.2065 9.80284 17.8233 9.30315 17.3761 8.86429C13.5678 5.05534 16.3781 0.60556 16.852 0.379514L16.8567 0.372559C13.779 2.1746 12.7348 5.51059 12.6387 7.17922C12.7816 7.16942 12.9232 7.15741 13.0693 7.15741C14.1613 7.15941 15.2333 7.45056 16.1763 8.00125C17.1194 8.55194 17.8997 9.34254 18.4381 10.2926Z" fill="url(#paint3_radial_54_2050)"/>
<path d="M13.0771 11.0532C13.0569 11.358 11.9801 12.4092 11.6036 12.4092C8.1193 12.4092 7.55371 14.517 7.55371 14.517C7.70799 16.2918 8.94476 17.7537 10.4398 18.527C10.5081 18.5624 10.5773 18.5943 10.6466 18.6256C10.7665 18.6787 10.8864 18.7278 11.0064 18.7729C11.5195 18.9545 12.0569 19.0582 12.6007 19.0805C18.7077 19.367 19.8907 11.7775 15.4836 9.57525C16.5233 9.43997 17.5762 9.69561 18.438 10.2926C17.8997 9.34248 17.1193 8.55189 16.1763 8.00119C15.2333 7.4505 14.1613 7.15935 13.0692 7.15735C12.9238 7.15735 12.7815 7.16936 12.6386 7.17916C11.4095 7.26365 10.2344 7.71657 9.2666 8.47885C9.45344 8.63692 9.66431 8.84811 10.1085 9.28597C10.94 10.1051 13.0724 10.9537 13.0771 11.0532Z" fill="url(#paint4_radial_54_2050)"/>
<path d="M13.0771 11.0532C13.0569 11.358 11.9801 12.4092 11.6036 12.4092C8.1193 12.4092 7.55371 14.517 7.55371 14.517C7.70799 16.2918 8.94476 17.7537 10.4398 18.527C10.5081 18.5624 10.5773 18.5943 10.6466 18.6256C10.7665 18.6787 10.8864 18.7278 11.0064 18.7729C11.5195 18.9545 12.0569 19.0582 12.6007 19.0805C18.7077 19.367 19.8907 11.7775 15.4836 9.57525C16.5233 9.43997 17.5762 9.69561 18.438 10.2926C17.8997 9.34248 17.1193 8.55189 16.1763 8.00119C15.2333 7.4505 14.1613 7.15935 13.0692 7.15735C12.9238 7.15735 12.7815 7.16936 12.6386 7.17916C11.4095 7.26365 10.2344 7.71657 9.2666 8.47885C9.45344 8.63692 9.66431 8.84811 10.1085 9.28597C10.94 10.1051 13.0724 10.9537 13.0771 11.0532Z" fill="url(#paint5_radial_54_2050)"/>
<path d="M8.69573 8.07138C8.795 8.13461 8.87688 8.18962 8.94865 8.23925C8.66945 7.26202 8.65755 6.22778 8.91419 5.24438C7.78394 5.79193 6.77964 6.56811 5.96484 7.52381C6.0246 7.52223 7.80198 7.4903 8.69573 8.07138Z" fill="url(#paint6_radial_54_2050)"/>
<path d="M0.91491 13.6994C1.86051 19.287 6.92456 23.5531 12.6737 23.7159C17.9945 23.8664 21.3937 20.7776 22.798 17.7644C23.9871 15.1602 24.1237 12.1972 23.1793 9.49463V9.48293C23.1793 9.47377 23.1774 9.46839 23.1793 9.47124L23.1815 9.49179C23.6162 12.3298 22.1727 15.0794 19.916 16.9386L19.9091 16.9545C15.5121 20.5355 11.3042 19.115 10.4525 18.5352C10.393 18.5067 10.3336 18.4771 10.2741 18.4464C7.71051 17.221 6.65141 14.8853 6.8784 12.8822C6.26985 12.8911 5.67176 12.7234 5.15658 12.3994C4.64141 12.0753 4.23127 11.6088 3.97585 11.0564C4.64881 10.6441 5.41613 10.4111 6.2047 10.3794C6.99327 10.3477 7.7768 10.5186 8.48064 10.8756C9.93171 11.5343 11.5829 11.5992 13.0812 11.0564C13.0765 10.9568 10.9441 10.108 10.1126 9.28913C9.66841 8.85127 9.45754 8.6404 9.27069 8.48201C9.16972 8.39648 9.06418 8.31648 8.95455 8.24237C8.88183 8.19273 8.79995 8.13899 8.70163 8.0745C7.80788 7.49342 6.0305 7.52535 5.97169 7.52693H5.966C5.4804 6.91139 5.51454 4.88172 5.54236 4.45776C5.39871 4.5155 5.26157 4.5883 5.13327 4.67496C4.70459 4.98091 4.30383 5.32422 3.9357 5.70086C3.5147 6.12498 3.12998 6.58363 2.78556 7.07199C1.99779 8.1888 1.43905 9.45027 1.14159 10.7842C1.13558 10.8092 0.700246 12.7124 0.91491 13.6994Z" fill="url(#paint7_radial_54_2050)"/>
<path d="M17.3766 8.86426C17.8239 9.30361 18.207 9.80383 18.5147 10.3502C18.582 10.4011 18.6449 10.4516 18.6984 10.5006C21.4764 13.0614 20.0208 16.6813 19.9124 16.939C22.169 15.0797 23.6113 12.3302 23.1779 9.49213C21.7919 6.03663 19.4426 4.644 17.5239 1.61151C17.4268 1.45818 17.3298 1.30453 17.2352 1.14235C17.1812 1.04971 17.1379 0.966251 17.1002 0.889427C17.0207 0.735322 16.9593 0.572459 16.9175 0.40414C16.9176 0.396373 16.9148 0.388857 16.9096 0.383026C16.9045 0.377195 16.8974 0.373457 16.8897 0.372525C16.8821 0.370454 16.8742 0.370454 16.8666 0.372525C16.865 0.372525 16.8625 0.375371 16.8606 0.376003C16.8587 0.376635 16.8546 0.379481 16.8518 0.380745C16.3779 0.605526 13.5676 5.05531 17.3766 8.86426Z" fill="url(#paint8_radial_54_2050)"/>
<path d="M18.6966 10.4989C18.6431 10.4499 18.5802 10.3994 18.5129 10.3485C18.4879 10.3298 18.4633 10.3112 18.4367 10.2925C17.5748 9.69553 16.522 9.43989 15.4823 9.57517C19.8894 11.7787 18.707 19.3669 12.5993 19.0805C12.0555 19.0581 11.5181 18.9544 11.005 18.7729C10.8851 18.728 10.7652 18.6789 10.6452 18.6255C10.576 18.5939 10.5068 18.5623 10.4385 18.5269L10.447 18.5323C11.2987 19.1137 15.5054 20.5341 19.9036 16.9515L19.9106 16.9357C20.0203 16.6796 21.4758 13.0588 18.6966 10.4989Z" fill="url(#paint9_radial_54_2050)"/>
<path d="M7.55363 14.517C7.55363 14.517 8.11922 12.4092 11.6035 12.4092C11.98 12.4092 13.0578 11.358 13.0771 11.0533C11.5787 11.5961 9.92754 11.5312 8.47647 10.8724C7.77263 10.5154 6.98909 10.3446 6.20053 10.3763C5.41196 10.4079 4.64464 10.641 3.97168 11.0533C4.22709 11.6057 4.63724 12.0722 5.15241 12.3963C5.66758 12.7203 6.26568 12.888 6.87423 12.879C6.64724 14.8825 7.70633 17.2182 10.27 18.4432C10.3272 18.4707 10.3809 18.5005 10.4397 18.5267C8.94342 17.7537 7.70791 16.2918 7.55363 14.517Z" fill="url(#paint10_radial_54_2050)"/>
<path d="M24.3924 8.85212C23.86 7.57109 22.7801 6.18794 21.9344 5.75071C22.5376 6.91891 22.9562 8.17351 23.1752 9.46987L23.1775 9.49042C21.7921 6.03651 19.4428 4.64388 17.5241 1.61139C17.427 1.45805 17.33 1.30441 17.2355 1.14222C17.1814 1.04959 17.1381 0.966129 17.1005 0.889305C17.0209 0.7352 16.9596 0.572337 16.9177 0.404018C16.9178 0.396251 16.915 0.388735 16.9099 0.382904C16.9047 0.377073 16.8976 0.373335 16.8899 0.372403C16.8824 0.370332 16.8744 0.370332 16.8668 0.372403C16.8653 0.372403 16.8627 0.375249 16.8608 0.375881C16.8589 0.376513 16.8548 0.379359 16.852 0.380623L16.8567 0.372403C13.779 2.17445 12.7348 5.51044 12.6387 7.17907C12.7816 7.16927 12.9232 7.15725 13.0693 7.15725C14.1613 7.15925 15.2333 7.4504 16.1763 8.0011C17.1194 8.55179 17.8997 9.34238 18.4381 10.2925C17.5762 9.69551 16.5234 9.43987 15.4837 9.57515C19.8908 11.7787 18.7084 19.3669 12.6007 19.0805C12.0569 19.0581 11.5195 18.9544 11.0064 18.7728C10.8865 18.7279 10.7666 18.6788 10.6466 18.6255C10.5774 18.5939 10.5082 18.5623 10.4399 18.5269L10.4484 18.5323C10.389 18.5038 10.3295 18.4742 10.2701 18.4434C10.3273 18.4709 10.3811 18.5006 10.4399 18.5269C8.94354 17.7536 7.70803 16.2917 7.55375 14.5169C7.55375 14.5169 8.11934 12.4091 11.6036 12.4091C11.9801 12.4091 13.0579 11.3579 13.0772 11.0531C13.0724 10.9536 10.94 10.1047 10.1085 9.28588C9.66435 8.84801 9.45348 8.63714 9.26664 8.47875C9.16566 8.39322 9.06013 8.31322 8.95049 8.23911C8.6713 7.26188 8.6594 6.22764 8.91603 5.24424C7.78579 5.79178 6.78149 6.56796 5.96669 7.52367H5.961C5.4754 6.90813 5.50954 4.87846 5.53736 4.4545C5.3937 4.51224 5.25657 4.58504 5.12827 4.6717C4.69959 4.97765 4.29883 5.32096 3.9307 5.6976C3.5112 6.12292 3.12806 6.58262 2.7853 7.07189C1.99753 8.1887 1.43879 9.45018 1.14133 10.7841L1.12489 10.865C1.10181 10.9728 0.99843 11.5204 0.983571 11.638C0.983571 11.6288 0.983571 11.6469 0.983571 11.638C0.889014 12.2032 0.828626 12.7737 0.802734 13.3462L0.802734 13.4094C0.805421 16.4774 1.95889 19.4327 4.03519 21.6914C6.11149 23.9501 8.95953 25.3477 12.0165 25.608C15.0734 25.8684 18.1168 24.9725 20.5451 23.0975C22.9735 21.2225 24.6101 18.5048 25.1316 15.4814C25.1521 15.3234 25.1689 15.1669 25.1872 15.0072C25.4396 12.9213 25.1664 10.8055 24.3924 8.85212Z" fill="url(#paint11_linear_54_2050)"/>
<defs>
<linearGradient id="paint0_linear_54_2050" x1="22.7706" y1="4.28758" x2="2.42994" y2="23.9124" gradientUnits="userSpaceOnUse">
<stop offset="0.048" stop-color="#FFF44F"/>
<stop offset="0.111" stop-color="#FFE847"/>
<stop offset="0.225" stop-color="#FFC830"/>
<stop offset="0.368" stop-color="#FF980E"/>
<stop offset="0.401" stop-color="#FF8B16"/>
<stop offset="0.462" stop-color="#FF672A"/>
<stop offset="0.534" stop-color="#FF3647"/>
<stop offset="0.705" stop-color="#E31587"/>
</linearGradient>
<radialGradient id="paint1_radial_54_2050" cx="0" cy="0" r="1" gradientUnits="userSpaceOnUse" gradientTransform="translate(21.8307 3.17659) scale(25.5438 25.5438)">
<stop offset="0.129" stop-color="#FFBD4F"/>
<stop offset="0.186" stop-color="#FFAC31"/>
<stop offset="0.247" stop-color="#FF9D17"/>
<stop offset="0.283" stop-color="#FF980E"/>
<stop offset="0.403" stop-color="#FF563B"/>
<stop offset="0.467" stop-color="#FF3750"/>
<stop offset="0.71" stop-color="#F5156C"/>
<stop offset="0.782" stop-color="#EB0878"/>
<stop offset="0.86" stop-color="#E50080"/>
</radialGradient>
<radialGradient id="paint2_radial_54_2050" cx="0" cy="0" r="1" gradientUnits="userSpaceOnUse" gradientTransform="translate(12.4968 13.6197) scale(25.5438 25.5438)">
<stop offset="0.3" stop-color="#960E18"/>
<stop offset="0.351" stop-color="#B11927" stop-opacity="0.74"/>
<stop offset="0.435" stop-color="#DB293D" stop-opacity="0.343"/>
<stop offset="0.497" stop-color="#F5334B" stop-opacity="0.094"/>
<stop offset="0.53" stop-color="#FF3750" stop-opacity="0"/>
</radialGradient>
<radialGradient id="paint3_radial_54_2050" cx="0" cy="0" r="1" gradientUnits="userSpaceOnUse" gradientTransform="translate(15.5763 -2.62013) scale(18.5054 18.5054)">
<stop offset="0.132" stop-color="#FFF44F"/>
<stop offset="0.252" stop-color="#FFDC3E"/>
<stop offset="0.506" stop-color="#FF9D12"/>
<stop offset="0.526" stop-color="#FF980E"/>
</radialGradient>
<radialGradient id="paint4_radial_54_2050" cx="0" cy="0" r="1" gradientUnits="userSpaceOnUse" gradientTransform="translate(9.6713 20.2919) scale(12.1625 12.1625)">
<stop offset="0.353" stop-color="#3A8EE6"/>
<stop offset="0.472" stop-color="#5C79F0"/>
<stop offset="0.669" stop-color="#9059FF"/>
<stop offset="1" stop-color="#C139E6"/>
</radialGradient>
<radialGradient id="paint5_radial_54_2050" cx="0" cy="0" r="1" gradientUnits="userSpaceOnUse" gradientTransform="translate(13.8925 11.5263) rotate(-13.5916) scale(6.44849 7.54958)">
<stop offset="0.206" stop-color="#9059FF" stop-opacity="0"/>
<stop offset="0.278" stop-color="#8C4FF3" stop-opacity="0.064"/>
<stop offset="0.747" stop-color="#7716A8" stop-opacity="0.45"/>
<stop offset="0.975" stop-color="#6E008B" stop-opacity="0.6"/>
</radialGradient>
<radialGradient id="paint6_radial_54_2050" cx="0" cy="0" r="1" gradientUnits="userSpaceOnUse" gradientTransform="translate(12.1746 2.13162) scale(8.7497 8.74971)">
<stop stop-color="#FFE226"/>
<stop offset="0.121" stop-color="#FFDB27"/>
<stop offset="0.295" stop-color="#FFC82A"/>
<stop offset="0.502" stop-color="#FFA930"/>
<stop offset="0.732" stop-color="#FF7E37"/>
<stop offset="0.792" stop-color="#FF7139"/>
</radialGradient>
<radialGradient id="paint7_radial_54_2050" cx="0" cy="0" r="1" gradientUnits="userSpaceOnUse" gradientTransform="translate(19.052 -3.41827) scale(37.331 37.3311)">
<stop offset="0.113" stop-color="#FFF44F"/>
<stop offset="0.456" stop-color="#FF980E"/>
<stop offset="0.622" stop-color="#FF5634"/>
<stop offset="0.716" stop-color="#FF3647"/>
<stop offset="0.904" stop-color="#E31587"/>
</radialGradient>
<radialGradient id="paint8_radial_54_2050" cx="0" cy="0" r="1" gradientUnits="userSpaceOnUse" gradientTransform="translate(15.9052 -1.34244) rotate(83.976) scale(27.3608 17.9567)">
<stop stop-color="#FFF44F"/>
<stop offset="0.06" stop-color="#FFE847"/>
<stop offset="0.168" stop-color="#FFC830"/>
<stop offset="0.304" stop-color="#FF980E"/>
<stop offset="0.356" stop-color="#FF8B16"/>
<stop offset="0.455" stop-color="#FF672A"/>
<stop offset="0.57" stop-color="#FF3647"/>
<stop offset="0.737" stop-color="#E31587"/>
</radialGradient>
<radialGradient id="paint9_radial_54_2050" cx="0" cy="0" r="1" gradientUnits="userSpaceOnUse" gradientTransform="translate(11.9681 5.37233) scale(23.3064 23.3064)">
<stop offset="0.137" stop-color="#FFF44F"/>
<stop offset="0.48" stop-color="#FF980E"/>
<stop offset="0.592" stop-color="#FF5634"/>
<stop offset="0.655" stop-color="#FF3647"/>
<stop offset="0.904" stop-color="#E31587"/>
</radialGradient>
<radialGradient id="paint10_radial_54_2050" cx="0" cy="0" r="1" gradientUnits="userSpaceOnUse" gradientTransform="translate(18.1203 6.73647) scale(25.5087 25.5087)">
<stop offset="0.094" stop-color="#FFF44F"/>
<stop offset="0.231" stop-color="#FFE141"/>
<stop offset="0.509" stop-color="#FFAF1E"/>
<stop offset="0.626" stop-color="#FF980E"/>
</radialGradient>
<linearGradient id="paint11_linear_54_2050" x1="22.5262" y1="4.18262" x2="5.21836" y2="21.4901" gradientUnits="userSpaceOnUse">
<stop offset="0.167" stop-color="#FFF44F" stop-opacity="0.8"/>
<stop offset="0.266" stop-color="#FFF44F" stop-opacity="0.634"/>
<stop offset="0.489" stop-color="#FFF44F" stop-opacity="0.217"/>
<stop offset="0.6" stop-color="#FFF44F" stop-opacity="0"/>
</linearGradient>
</defs>
</svg>
