<svg width="24" height="25" viewBox="0 0 24 25" fill="none" xmlns="http://www.w3.org/2000/svg">
<path d="M23.1312 8.31643C22.6091 7.0603 21.5502 5.70403 20.7209 5.2753C21.3124 6.4208 21.7229 7.65101 21.9377 8.92218L21.9399 8.94233C20.5814 5.55554 18.2778 4.18998 16.3964 1.21643C16.3012 1.06607 16.206 0.915413 16.1133 0.756382C16.0603 0.665551 16.0179 0.58371 15.981 0.508379C15.9029 0.357269 15.8428 0.197571 15.8018 0.0325238C15.8018 0.0249077 15.7991 0.0175379 15.7941 0.0118202C15.789 0.00610258 15.7821 0.00243727 15.7745 0.00152351C15.7671 -0.000507837 15.7593 -0.000507837 15.7519 0.00152351C15.7503 0.00152351 15.7478 0.00431354 15.746 0.00493355C15.7441 0.00555355 15.7401 0.00834358 15.7373 0.0095836L15.742 0.00152351C12.7241 1.76854 11.7001 5.0397 11.6059 6.67589C10.4007 6.75874 9.24844 7.20285 8.2994 7.95032C8.20039 7.86645 8.0969 7.78801 7.9894 7.71534C7.71563 6.7571 7.70397 5.74296 7.95561 4.77867C6.84733 5.31558 5.86255 6.07667 5.06359 7.0138H5.05801C4.58185 6.41022 4.61533 4.42 4.64261 4.00429C4.50174 4.0609 4.36727 4.13229 4.24146 4.21726C3.82111 4.51727 3.42815 4.8539 3.06717 5.22322C2.65583 5.64027 2.28014 6.09104 1.94403 6.5708C1.17158 7.66591 0.623695 8.90286 0.332013 10.2109L0.315893 10.2902C0.293263 10.3959 0.211732 10.9254 0.197782 11.0404C0.197782 11.0494 0.195922 11.0578 0.194992 11.0668C0.0898196 11.6134 0.0246495 12.167 0 12.7231L0 12.7851C0.00263413 15.7935 1.13369 18.6914 3.16963 20.9062C5.20557 23.1209 7.99826 24.4914 10.9958 24.7467C13.9933 25.002 16.9775 24.1235 19.3587 22.285C21.7398 20.4464 23.3446 17.7815 23.856 14.8169C23.8761 14.6619 23.8926 14.5084 23.9105 14.3519C24.158 12.3066 23.8901 10.2318 23.1312 8.31643ZM9.28335 17.7213C9.33946 17.7483 9.39217 17.7774 9.44983 17.8032L9.4582 17.8084C9.39991 17.7805 9.34163 17.7515 9.28335 17.7213ZM21.9408 8.94512V8.93365L21.943 8.94636L21.9408 8.94512Z" fill="url(#paint0_linear_17_1188)"/>
<path d="M23.1312 8.3164C22.6091 7.06027 21.5502 5.704 20.7209 5.27527C21.3124 6.42077 21.7229 7.65098 21.9377 8.92215V8.93362L21.9399 8.94633C22.8659 11.5964 22.732 14.5018 21.566 17.0554C20.189 20.01 16.8558 23.0385 11.6384 22.8912C6.00104 22.7316 1.03634 18.5484 0.108191 13.0694C-0.0607606 12.2054 0.108191 11.7674 0.193132 11.0652C0.0772613 11.6106 0.012603 12.1657 0 12.7231L0 12.7851C0.00263413 15.7935 1.13369 18.6914 3.16963 20.9061C5.20557 23.1209 7.99826 24.4914 10.9958 24.7467C13.9933 25.0019 16.9775 24.1235 19.3587 22.2849C21.7398 20.4464 23.3446 17.7814 23.856 14.8169C23.8761 14.6619 23.8926 14.5084 23.9105 14.3519C24.158 12.3065 23.8901 10.2318 23.1312 8.3164Z" fill="url(#paint1_radial_17_1188)"/>
<path d="M23.1312 8.3164C22.6091 7.06027 21.5502 5.704 20.7209 5.27527C21.3124 6.42077 21.7229 7.65098 21.9377 8.92215V8.93362L21.9399 8.94633C22.8659 11.5964 22.732 14.5018 21.566 17.0554C20.189 20.01 16.8558 23.0385 11.6384 22.8912C6.00104 22.7316 1.03634 18.5484 0.108191 13.0694C-0.0607606 12.2054 0.108191 11.7674 0.193132 11.0652C0.0772613 11.6106 0.012603 12.1657 0 12.7231L0 12.7851C0.00263413 15.7935 1.13369 18.6914 3.16963 20.9061C5.20557 23.1209 7.99826 24.4914 10.9958 24.7467C13.9933 25.0019 16.9775 24.1235 19.3587 22.2849C21.7398 20.4464 23.3446 17.7814 23.856 14.8169C23.8761 14.6619 23.8926 14.5084 23.9105 14.3519C24.158 12.3065 23.8901 10.2318 23.1312 8.3164Z" fill="url(#paint2_radial_17_1188)"/>
<path d="M17.2927 9.72887C17.3187 9.74716 17.3429 9.76545 17.3674 9.78374C17.0656 9.24858 16.6899 8.75861 16.2514 8.32827C12.5171 4.59335 15.2727 0.230059 15.7374 0.00840699L15.742 0.00158691C12.7241 1.76861 11.7002 5.03976 11.606 6.67596C11.7461 6.66635 11.885 6.65457 12.0282 6.65457C13.099 6.65653 14.1502 6.94202 15.0749 7.48201C15.9996 8.022 16.7648 8.79723 17.2927 9.72887Z" fill="url(#paint3_radial_17_1188)"/>
<path d="M12.0357 10.4747C12.0159 10.7736 10.96 11.8043 10.5908 11.8043C7.17423 11.8043 6.61963 13.8711 6.61963 13.8711C6.77091 15.6115 7.98364 17.0449 9.44965 17.8032C9.51661 17.8379 9.5845 17.8692 9.65239 17.8999C9.76998 17.952 9.88758 18.0001 10.0052 18.0444C10.5083 18.2224 11.0353 18.3241 11.5685 18.346C17.5569 18.6269 18.7169 11.1849 14.3954 9.02545C15.4149 8.8928 16.4473 9.14347 17.2924 9.72884C16.7645 8.7972 15.9993 8.02197 15.0746 7.48198C14.1499 6.94199 13.0988 6.6565 12.0279 6.65454C11.8853 6.65454 11.7458 6.66632 11.6057 6.67593C10.4005 6.75877 9.24826 7.20289 8.29923 7.95035C8.48244 8.10536 8.68921 8.31244 9.12476 8.74179C9.94007 9.54501 12.031 10.3771 12.0357 10.4747Z" fill="url(#paint4_radial_17_1188)"/>
<path d="M12.0357 10.4747C12.0159 10.7736 10.96 11.8043 10.5908 11.8043C7.17423 11.8043 6.61963 13.8711 6.61963 13.8711C6.77091 15.6115 7.98364 17.0449 9.44965 17.8032C9.51661 17.8379 9.5845 17.8692 9.65239 17.8999C9.76998 17.952 9.88758 18.0001 10.0052 18.0444C10.5083 18.2224 11.0353 18.3241 11.5685 18.346C17.5569 18.6269 18.7169 11.1849 14.3954 9.02545C15.4149 8.8928 16.4473 9.14347 17.2924 9.72884C16.7645 8.7972 15.9993 8.02197 15.0746 7.48198C14.1499 6.94199 13.0988 6.6565 12.0279 6.65454C11.8853 6.65454 11.7458 6.66632 11.6057 6.67593C10.4005 6.75877 9.24826 7.20289 8.29923 7.95035C8.48244 8.10536 8.68921 8.31244 9.12476 8.74179C9.94007 9.54501 12.031 10.3771 12.0357 10.4747Z" fill="url(#paint5_radial_17_1188)"/>
<path d="M7.73909 7.55074C7.83643 7.61274 7.91672 7.66668 7.98709 7.71535C7.71332 6.75711 7.70165 5.74297 7.9533 4.77869C6.84502 5.31559 5.86024 6.07668 5.06128 7.01381C5.11987 7.01226 6.86271 6.98095 7.73909 7.55074Z" fill="url(#paint6_radial_17_1188)"/>
<path d="M0.109556 13.0695C1.03677 18.5485 6.00241 22.7316 11.6398 22.8913C16.8572 23.0389 20.1903 20.0101 21.5674 17.0555C22.7333 14.5019 22.8673 11.5965 21.9412 8.94642V8.93495C21.9412 8.92596 21.9394 8.92069 21.9412 8.92348L21.9434 8.94363C22.3696 11.7265 20.9542 14.4226 18.7414 16.2458L18.7345 16.2613C14.423 19.7727 10.2969 18.3798 9.46173 17.8113C9.40345 17.7834 9.34517 17.7543 9.28689 17.7242C6.77307 16.5226 5.73456 14.2323 5.95714 12.2681C5.36042 12.2769 4.77395 12.1125 4.26879 11.7947C3.76363 11.477 3.36146 11.0195 3.11101 10.4778C3.77088 10.0736 4.52329 9.84503 5.29653 9.81399C6.06977 9.78295 6.83808 9.95045 7.52824 10.3005C8.95111 10.9465 10.5702 11.0101 12.0394 10.4778C12.0348 10.3802 9.94379 9.54782 9.12848 8.74492C8.69292 8.31556 8.48615 8.10879 8.30294 7.95348C8.20393 7.86961 8.10044 7.79117 7.99294 7.7185C7.92164 7.66982 7.84134 7.61712 7.74493 7.55388C6.86855 6.9841 5.12572 7.01541 5.06806 7.01696H5.06248C4.58631 6.41338 4.61979 4.42316 4.64707 4.00745C4.50621 4.06406 4.37174 4.13545 4.24593 4.22042C3.82558 4.52043 3.43261 4.85706 3.07164 5.22638C2.65882 5.64226 2.28157 6.09199 1.94384 6.57086C1.17139 7.66597 0.623509 8.90292 0.331828 10.2109C0.325938 10.2354 -0.100937 12.1016 0.109556 13.0695Z" fill="url(#paint7_radial_17_1188)"/>
<path d="M16.2519 8.32833C16.6905 8.75914 17.0662 9.24964 17.3679 9.78535C17.4339 9.83526 17.4956 9.88486 17.548 9.93291C20.272 12.4439 18.8448 15.9935 18.7384 16.2461C20.9512 14.423 22.3655 11.7269 21.9405 8.944C20.5814 5.55566 18.2778 4.1901 16.3964 1.21655C16.3012 1.0662 16.206 0.915535 16.1133 0.756503C16.0603 0.665673 16.0178 0.583832 15.981 0.508501C15.9029 0.357391 15.8428 0.197693 15.8018 0.0326459C15.8018 0.0250298 15.7991 0.01766 15.794 0.0119423C15.789 0.00622465 15.7821 0.00255934 15.7745 0.00164558C15.7671 -0.000385767 15.7593 -0.000385767 15.7519 0.00164558C15.7503 0.00164558 15.7478 0.00443561 15.746 0.00505562C15.7441 0.00567562 15.7401 0.00846565 15.7373 0.00970567C15.2726 0.230118 12.517 4.59341 16.2519 8.32833Z" fill="url(#paint8_radial_17_1188)"/>
<path d="M17.5463 9.93124C17.4939 9.88318 17.4322 9.83358 17.3662 9.78367C17.3417 9.76538 17.3175 9.74709 17.2915 9.7288C16.4464 9.14343 15.414 8.89276 14.3945 9.02541C18.716 11.1861 17.5566 18.6268 11.5676 18.346C11.0343 18.3241 10.5074 18.2224 10.0043 18.0443C9.88666 18.0003 9.76907 17.9522 9.65147 17.8999C9.58358 17.8689 9.51569 17.8379 9.44873 17.8031L9.4571 17.8084C10.2922 18.3785 14.4172 19.7714 18.7299 16.2584L18.7367 16.2429C18.8443 15.9918 20.2716 12.4413 17.5463 9.93124Z" fill="url(#paint9_radial_17_1188)"/>
<path d="M6.61976 13.8711C6.61976 13.8711 7.17435 11.8043 10.5909 11.8043C10.9601 11.8043 12.0169 10.7735 12.0358 10.4747C10.5666 11.0069 8.94753 10.9433 7.52466 10.2974C6.8345 9.94729 6.06619 9.7798 5.29295 9.81084C4.51971 9.84188 3.7673 10.0704 3.10742 10.4747C3.35787 11.0164 3.76004 11.4738 4.2652 11.7916C4.77037 12.1093 5.35684 12.2738 5.95356 12.2649C5.73098 14.2294 6.76949 16.5197 9.2833 17.721C9.33942 17.748 9.39212 17.7771 9.44978 17.8028C7.98253 17.0449 6.77104 15.6114 6.61976 13.8711Z" fill="url(#paint10_radial_17_1188)"/>
<path d="M23.1312 8.31643C22.6091 7.0603 21.5502 5.70403 20.7209 5.2753C21.3124 6.4208 21.7229 7.65101 21.9377 8.92218L21.9399 8.94233C20.5814 5.55554 18.2778 4.18998 16.3964 1.21643C16.3012 1.06607 16.206 0.915413 16.1133 0.756382C16.0603 0.665551 16.0179 0.58371 15.981 0.508379C15.9029 0.357269 15.8428 0.197571 15.8018 0.0325238C15.8018 0.0249077 15.7991 0.0175379 15.7941 0.0118202C15.789 0.00610258 15.7821 0.00243727 15.7745 0.00152351C15.7671 -0.000507837 15.7593 -0.000507837 15.7519 0.00152351C15.7503 0.00152351 15.7478 0.00431354 15.746 0.00493355C15.7441 0.00555355 15.7401 0.00834358 15.7373 0.0095836L15.742 0.00152351C12.7241 1.76854 11.7001 5.0397 11.6059 6.67589C11.746 6.66628 11.8849 6.6545 12.0281 6.6545C13.0989 6.65647 14.1501 6.94196 15.0748 7.48195C15.9995 8.02194 16.7647 8.79717 17.2926 9.72881C16.4475 9.14343 15.4151 8.89276 14.3956 9.02541C18.7171 11.1861 17.5576 18.6268 11.5687 18.346C11.0354 18.3241 10.5085 18.2224 10.0054 18.0443C9.88776 18.0003 9.77016 17.9522 9.65257 17.8999C9.58468 17.8689 9.51679 17.8379 9.44983 17.8032L9.4582 17.8084C9.39991 17.7805 9.34163 17.7515 9.28335 17.7213C9.33946 17.7483 9.39217 17.7774 9.44983 17.8032C7.98258 17.0449 6.77109 15.6114 6.61981 13.8711C6.61981 13.8711 7.1744 11.8043 10.5909 11.8043C10.9602 11.8043 12.017 10.7735 12.0359 10.4747C12.0312 10.377 9.94025 9.54466 9.12494 8.74176C8.68939 8.3124 8.48262 8.10563 8.2994 7.95032C8.20039 7.86645 8.0969 7.78801 7.9894 7.71534C7.71563 6.7571 7.70397 5.74296 7.95561 4.77867C6.84733 5.31558 5.86255 6.07667 5.06359 7.0138H5.05801C4.58185 6.41022 4.61533 4.42 4.64261 4.00429C4.50174 4.0609 4.36727 4.13229 4.24146 4.21726C3.82111 4.51727 3.42815 4.8539 3.06717 5.22322C2.65583 5.64027 2.28014 6.09104 1.94403 6.5708C1.17158 7.66591 0.623695 8.90286 0.332013 10.2109L0.315893 10.2902C0.293263 10.3959 0.191892 10.9329 0.177322 11.0482C0.177322 11.0392 0.177322 11.0569 0.177322 11.0482C0.0846031 11.6024 0.0253884 12.1618 0 12.7231L0 12.7851C0.00263413 15.7935 1.13369 18.6914 3.16963 20.9062C5.20557 23.1209 7.99826 24.4914 10.9958 24.7467C13.9933 25.002 16.9775 24.1235 19.3587 22.285C21.7398 20.4464 23.3446 17.7815 23.856 14.8169C23.8761 14.6619 23.8926 14.5084 23.9105 14.3519C24.158 12.3066 23.8901 10.2318 23.1312 8.31643Z" fill="url(#paint11_linear_17_1188)"/>
<defs>
<linearGradient id="paint0_linear_17_1188" x1="21.5409" y1="3.8406" x2="1.59558" y2="23.084" gradientUnits="userSpaceOnUse">
<stop offset="0.048" stop-color="#FFF44F"/>
<stop offset="0.111" stop-color="#FFE847"/>
<stop offset="0.225" stop-color="#FFC830"/>
<stop offset="0.368" stop-color="#FF980E"/>
<stop offset="0.401" stop-color="#FF8B16"/>
<stop offset="0.462" stop-color="#FF672A"/>
<stop offset="0.534" stop-color="#FF3647"/>
<stop offset="0.705" stop-color="#E31587"/>
</linearGradient>
<radialGradient id="paint1_radial_17_1188" cx="0" cy="0" r="1" gradientUnits="userSpaceOnUse" gradientTransform="translate(20.6192 2.75116) scale(25.0473 25.0473)">
<stop offset="0.129" stop-color="#FFBD4F"/>
<stop offset="0.186" stop-color="#FFAC31"/>
<stop offset="0.247" stop-color="#FF9D17"/>
<stop offset="0.283" stop-color="#FF980E"/>
<stop offset="0.403" stop-color="#FF563B"/>
<stop offset="0.467" stop-color="#FF3750"/>
<stop offset="0.71" stop-color="#F5156C"/>
<stop offset="0.782" stop-color="#EB0878"/>
<stop offset="0.86" stop-color="#E50080"/>
</radialGradient>
<radialGradient id="paint2_radial_17_1188" cx="0" cy="0" r="1" gradientUnits="userSpaceOnUse" gradientTransform="translate(11.4667 12.9913) scale(25.0473 25.0473)">
<stop offset="0.3" stop-color="#960E18"/>
<stop offset="0.351" stop-color="#B11927" stop-opacity="0.74"/>
<stop offset="0.435" stop-color="#DB293D" stop-opacity="0.343"/>
<stop offset="0.497" stop-color="#F5334B" stop-opacity="0.094"/>
<stop offset="0.53" stop-color="#FF3750" stop-opacity="0"/>
</radialGradient>
<radialGradient id="paint3_radial_17_1188" cx="0" cy="0" r="1" gradientUnits="userSpaceOnUse" gradientTransform="translate(14.4864 -2.93293) scale(18.1457 18.1457)">
<stop offset="0.132" stop-color="#FFF44F"/>
<stop offset="0.252" stop-color="#FFDC3E"/>
<stop offset="0.506" stop-color="#FF9D12"/>
<stop offset="0.526" stop-color="#FF980E"/>
</radialGradient>
<radialGradient id="paint4_radial_17_1188" cx="0" cy="0" r="1" gradientUnits="userSpaceOnUse" gradientTransform="translate(8.69606 19.5338) scale(11.9261 11.9261)">
<stop offset="0.353" stop-color="#3A8EE6"/>
<stop offset="0.472" stop-color="#5C79F0"/>
<stop offset="0.669" stop-color="#9059FF"/>
<stop offset="1" stop-color="#C139E6"/>
</radialGradient>
<radialGradient id="paint5_radial_17_1188" cx="0" cy="0" r="1" gradientUnits="userSpaceOnUse" gradientTransform="translate(12.8352 10.9386) rotate(-13.5916) scale(6.32316 7.40285)">
<stop offset="0.206" stop-color="#9059FF" stop-opacity="0"/>
<stop offset="0.278" stop-color="#8C4FF3" stop-opacity="0.064"/>
<stop offset="0.747" stop-color="#7716A8" stop-opacity="0.45"/>
<stop offset="0.975" stop-color="#6E008B" stop-opacity="0.6"/>
</radialGradient>
<radialGradient id="paint6_radial_17_1188" cx="0" cy="0" r="1" gradientUnits="userSpaceOnUse" gradientTransform="translate(11.1504 1.72642) scale(8.57965 8.57965)">
<stop stop-color="#FFE226"/>
<stop offset="0.121" stop-color="#FFDB27"/>
<stop offset="0.295" stop-color="#FFC82A"/>
<stop offset="0.502" stop-color="#FFA930"/>
<stop offset="0.732" stop-color="#FF7E37"/>
<stop offset="0.792" stop-color="#FF7139"/>
</radialGradient>
<radialGradient id="paint7_radial_17_1188" cx="0" cy="0" r="1" gradientUnits="userSpaceOnUse" gradientTransform="translate(17.8941 -3.71551) scale(36.6055 36.6055)">
<stop offset="0.113" stop-color="#FFF44F"/>
<stop offset="0.456" stop-color="#FF980E"/>
<stop offset="0.622" stop-color="#FF5634"/>
<stop offset="0.716" stop-color="#FF3647"/>
<stop offset="0.904" stop-color="#E31587"/>
</radialGradient>
<radialGradient id="paint8_radial_17_1188" cx="0" cy="0" r="1" gradientUnits="userSpaceOnUse" gradientTransform="translate(14.8091 -1.67999) rotate(83.976) scale(26.829 17.6077)">
<stop stop-color="#FFF44F"/>
<stop offset="0.06" stop-color="#FFE847"/>
<stop offset="0.168" stop-color="#FFC830"/>
<stop offset="0.304" stop-color="#FF980E"/>
<stop offset="0.356" stop-color="#FF8B16"/>
<stop offset="0.455" stop-color="#FF672A"/>
<stop offset="0.57" stop-color="#FF3647"/>
<stop offset="0.737" stop-color="#E31587"/>
</radialGradient>
<radialGradient id="paint9_radial_17_1188" cx="0" cy="0" r="1" gradientUnits="userSpaceOnUse" gradientTransform="translate(10.9486 4.90425) scale(22.8534 22.8534)">
<stop offset="0.137" stop-color="#FFF44F"/>
<stop offset="0.48" stop-color="#FF980E"/>
<stop offset="0.592" stop-color="#FF5634"/>
<stop offset="0.655" stop-color="#FF3647"/>
<stop offset="0.904" stop-color="#E31587"/>
</radialGradient>
<radialGradient id="paint10_radial_17_1188" cx="0" cy="0" r="1" gradientUnits="userSpaceOnUse" gradientTransform="translate(16.981 6.24177) scale(25.0129 25.0129)">
<stop offset="0.094" stop-color="#FFF44F"/>
<stop offset="0.231" stop-color="#FFE141"/>
<stop offset="0.509" stop-color="#FFAF1E"/>
<stop offset="0.626" stop-color="#FF980E"/>
</radialGradient>
<linearGradient id="paint11_linear_17_1188" x1="21.3012" y1="3.73768" x2="4.3298" y2="20.7088" gradientUnits="userSpaceOnUse">
<stop offset="0.167" stop-color="#FFF44F" stop-opacity="0.8"/>
<stop offset="0.266" stop-color="#FFF44F" stop-opacity="0.634"/>
<stop offset="0.489" stop-color="#FFF44F" stop-opacity="0.217"/>
<stop offset="0.6" stop-color="#FFF44F" stop-opacity="0"/>
</linearGradient>
</defs>
</svg>
