<svg width="23" height="22" viewBox="0 0 23 22" fill="none" xmlns="http://www.w3.org/2000/svg">
<path d="M12.924 1.39142C12.1633 0.706857 11.0087 0.706868 10.2481 1.39144L0.843795 9.85563C0.195342 10.4393 0.608197 11.5151 1.48062 11.5151C2.00635 11.5151 2.43255 11.9413 2.43255 12.467V19.8127C2.43255 20.9173 3.32798 21.8127 4.43255 21.8127H6.15346C7.25803 21.8127 8.15346 20.9173 8.15346 19.8127V15.8035C8.15346 14.6989 9.04889 13.8035 10.1535 13.8035H13.0185C14.1231 13.8035 15.0185 14.6989 15.0185 15.8035V19.8127C15.0185 20.9173 15.914 21.8127 17.0185 21.8127H18.7395C19.844 21.8127 20.7395 20.9173 20.7395 19.8127V12.467C20.7395 11.9413 21.1656 11.5151 21.6913 11.5151C22.5637 11.5151 22.9765 10.4393 22.328 9.85571L20.2574 7.99237C19.836 7.61308 19.5953 7.07272 19.5953 6.50571V3.50583C19.5953 2.87392 19.083 2.36165 18.4511 2.36165H18.2234C17.7173 2.36165 17.3069 2.77199 17.3069 3.27816C17.3069 4.07166 16.3671 4.49022 15.7773 3.95941L12.924 1.39142Z" fill="#00063F"/>
</svg>
