<svg width="70" height="70" viewBox="0 0 70 70" fill="none" xmlns="http://www.w3.org/2000/svg">
<rect width="70" height="70" rx="20" fill="#FAA9E4"/>
<path d="M48.9888 40.9905L44.5627 24.5628C44.5485 24.5084 44.52 24.4593 44.4826 24.4182L43.1162 22.9606C43.0852 22.9274 43.049 22.9022 43.0089 22.8837C43.0089 22.8837 34.1566 18.959 32.5162 18.2297C31.0322 17.5692 29.8223 18.4857 29.3905 19.0626L22.45 28.3135C22.419 28.3547 22.3983 28.4024 22.388 28.4541L22.0054 30.417C22.0041 30.425 22.0067 30.433 22.0067 30.4422C22.0041 30.4661 21.9989 30.49 22.0002 30.5139C22.0015 30.5271 22.0067 30.5377 22.0093 30.551C22.0105 30.559 22.008 30.5656 22.0105 30.5736L26.4367 47.2824C26.4599 47.3726 26.5207 47.4495 26.6008 47.4933C26.6487 47.5198 26.7017 47.533 26.756 47.533C26.7922 47.533 26.8284 47.5277 26.8633 47.5145L28.3369 46.9946V49.1565C28.3369 49.3448 28.4856 49.496 28.6678 49.496H29.119L29.1604 50H43.8607V43.0674L48.773 41.4042C48.941 41.3472 49.0354 41.1655 48.9876 40.9917L48.9888 40.9905ZM40.3087 44.4575H30.7456C30.5633 44.4575 30.4146 44.3063 30.4146 44.1179C30.4146 43.9296 30.5633 43.7784 30.7456 43.7784H40.3087C40.4922 43.7784 40.6396 43.9296 40.6396 44.1179C40.6396 44.3063 40.4922 44.4575 40.3087 44.4575ZM40.6396 46.1366C40.6396 46.3249 40.4922 46.4761 40.3087 46.4761H30.7456C30.5633 46.4761 30.4146 46.3249 30.4146 46.1366C30.4146 45.9482 30.5633 45.797 30.7456 45.797H40.3087C40.4922 45.797 40.6396 45.9482 40.6396 46.1366ZM40.3087 42.4387H30.7456C30.5633 42.4387 30.4146 42.2875 30.4146 42.0992C30.4146 41.9108 30.5633 41.7596 30.7456 41.7596H40.3087C40.4922 41.7596 40.6396 41.9108 40.6396 42.0992C40.6396 42.2875 40.4922 42.4387 40.3087 42.4387ZM40.3087 40.4201H30.7456C30.5633 40.4201 30.4146 40.2689 30.4146 40.0805C30.4146 39.8922 30.5633 39.741 30.7456 39.741H40.3087C40.4922 39.741 40.6396 39.8922 40.6396 40.0805C40.6396 40.2689 40.4922 40.4201 40.3087 40.4201ZM40.3087 38.4014H30.7456C30.5633 38.4014 30.4146 38.2502 30.4146 38.0619C30.4146 37.8736 30.5633 37.7224 30.7456 37.7224H40.3087C40.4922 37.7224 40.6396 37.8736 40.6396 38.0619C40.6396 38.2502 40.4922 38.4014 40.3087 38.4014ZM40.3087 36.3841H30.7456C30.5633 36.3841 30.4146 36.2329 30.4146 36.0446C30.4146 35.8562 30.5633 35.705 30.7456 35.705H40.3087C40.4922 35.705 40.6396 35.8562 40.6396 36.0446C40.6396 36.2329 40.4922 36.3841 40.3087 36.3841ZM40.3087 34.3655H30.7456C30.5633 34.3655 30.4146 34.213 30.4146 34.0259C30.4146 33.8389 30.5633 33.6864 30.7456 33.6864H40.3087C40.4922 33.6864 40.6396 33.8389 40.6396 34.0259C40.6396 34.213 40.4922 34.3655 40.3087 34.3655ZM40.3087 32.3468H30.7456C30.5633 32.3468 30.4146 32.1943 30.4146 32.0073C30.4146 31.8203 30.5633 31.6678 30.7456 31.6678H40.3087C40.4922 31.6678 40.6396 31.8203 40.6396 32.0073C40.6396 32.1943 40.4922 32.3468 40.3087 32.3468ZM40.3087 30.3282H30.7456C30.5633 30.3282 30.4146 30.1757 30.4146 29.9887C30.4146 29.8017 30.5633 29.6491 30.7456 29.6491H40.3087C40.4922 29.6491 40.6396 29.8017 40.6396 29.9887C40.6396 30.1757 40.4922 30.3282 40.3087 30.3282ZM29.9143 19.4777C29.9531 19.4273 30.8773 18.2403 32.254 18.8517C33.813 19.5454 41.9012 23.1305 42.6858 23.4792L43.5273 24.3771L35.6639 26.527L28.6704 26.5005C28.5799 26.5071 28.4985 26.5363 28.4352 26.6C28.3731 26.6636 28.3382 26.7499 28.3382 26.84V28.2539L22.7628 29.9953L23.0213 28.6677L29.9143 19.4777ZM26.9838 46.7532L22.7863 30.9092C23.262 31.01 24.0001 31.2102 24.6297 31.5657C25.6858 32.1612 28.1858 33.4994 28.3383 33.5803V46.2759L26.9838 46.7532ZM43.861 42.3511V27.4595H43.4809V26.8958C43.4809 26.7353 43.3698 26.6067 43.2237 26.5722C43.5339 25.8958 43.8312 25.4342 44.0355 25.157L48.2664 40.8605L43.8611 42.3525L43.861 42.3511Z" fill="#00063F"/>
</svg>
