<svg width="71" height="70" viewBox="0 0 71 70" fill="none" xmlns="http://www.w3.org/2000/svg">
<rect x="0.732422" width="70" height="70" rx="20" fill="#FAA9E4"/>
<path d="M28.7344 41.8697C31.5182 42.0709 34.201 43.1674 36.185 45.25V30.3273C34.2262 26.1814 29.4333 25.9673 25.0498 25.4287V41.9539C26.3661 41.8111 27.5125 41.7724 28.7344 41.8697ZM27.0464 29.1855C29.8366 29.0103 32.1858 29.6072 34.4278 31.067C34.5726 31.1644 34.6167 31.3655 34.5222 31.5147C34.4341 31.6639 34.2262 31.7094 34.0877 31.612C31.94 30.2106 29.7734 29.6591 27.084 29.8343C26.6747 29.8538 26.6308 29.218 27.0464 29.1855ZM27.0464 31.5083C29.8366 31.3266 32.1858 31.9235 34.4278 33.3898C34.5726 33.4806 34.6167 33.6818 34.5222 33.8375C34.4278 33.9932 34.2325 34.0321 34.0877 33.9348C31.94 32.5334 29.7734 31.9819 27.084 32.1571C26.6747 32.1765 26.6308 31.5278 27.0464 31.5083ZM27.0464 33.8245C29.8366 33.6493 32.1858 34.2462 34.4278 35.706C34.5726 35.8033 34.6167 36.0045 34.5222 36.1537C34.4278 36.3094 34.2325 36.3548 34.0877 36.2575C31.9337 34.8496 29.7734 34.3046 27.084 34.4733C26.681 34.5122 26.6308 33.8505 27.0464 33.8245ZM27.0464 36.1473C29.8366 35.9721 32.1858 36.569 34.4278 38.0288C34.5726 38.1261 34.6167 38.3272 34.5222 38.4764C34.4341 38.6322 34.2325 38.6646 34.0877 38.5802C31.94 37.1723 29.7734 36.6273 27.084 36.796C26.6747 36.8155 26.6308 36.1797 27.0464 36.1473ZM26.7504 38.8139C26.7378 38.6322 26.8701 38.483 27.0464 38.47C28.9107 38.3532 30.4979 38.5608 32.0346 39.1318C32.3621 39.2486 32.2677 39.7741 31.9276 39.7611C30.416 39.2421 28.9044 38.989 27.0841 39.1188C26.914 39.1188 26.7567 38.9955 26.7504 38.8139ZM22.877 45.6524V27.4077H24.4201V42.3172C24.4201 42.5054 24.5964 42.6676 24.7728 42.6351C26.0198 42.4859 27.2732 42.421 28.5076 42.5054C30.9954 42.6546 33.4579 43.5434 35.3097 45.2952H35.316L35.3223 45.3082C31.0834 44.1209 27.6951 44.5754 22.877 45.6524ZM36.8149 45.2501C39.731 42.1813 43.8879 41.4611 47.9501 41.9542V25.429C43.5666 25.9676 38.7735 26.1816 36.8149 30.3276V45.2501ZM45.9158 39.1187C44.0956 38.9825 42.584 39.242 41.0723 39.7611C40.7322 39.774 40.6377 39.2485 40.9652 39.1317C42.502 38.5608 44.0891 38.3532 45.9534 38.4699C46.1298 38.4829 46.262 38.6321 46.2494 38.8138C46.2431 38.9955 46.0921 39.1252 45.9158 39.1187ZM38.572 31.0669C40.8141 29.6071 43.1571 29.0102 45.9533 29.1854C46.1296 29.1984 46.2619 29.3476 46.2493 29.5292C46.243 29.7109 46.0918 29.8407 45.9155 29.8342C43.2198 29.659 41.0595 30.2105 38.9119 31.6119C38.5718 31.839 38.2256 31.3005 38.572 31.0669ZM38.572 33.3896C40.8141 31.9234 43.1635 31.3264 45.9533 31.5081C46.1296 31.5146 46.2619 31.6703 46.2493 31.852C46.243 32.0272 46.0918 32.1634 45.9155 32.1569C43.2261 31.9818 41.0595 32.5332 38.9119 33.9346C38.5655 34.1682 38.2256 33.6167 38.572 33.3896ZM38.572 35.7059C40.8141 34.2461 43.1635 33.6492 45.9533 33.8244C46.1296 33.8373 46.2619 33.993 46.2493 34.1682C46.243 34.3499 46.0918 34.4861 45.9155 34.4732C43.2261 34.3045 41.0595 34.8495 38.9119 36.2574C38.5718 36.4845 38.2256 35.9394 38.572 35.7059ZM38.572 38.0286C40.8141 36.5688 43.1571 35.9719 45.9533 36.1471C46.1296 36.1601 46.2619 36.3158 46.2493 36.491C46.243 36.6726 46.0918 36.8024 45.9155 36.7959C43.2198 36.6272 41.0595 37.1722 38.9119 38.5801C38.5655 38.7942 38.2256 38.2687 38.572 38.0286ZM48.2271 42.6353C48.3971 42.6612 48.5861 42.5055 48.5798 42.3173V27.4079H50.1228V45.6525C45.2983 44.569 41.9164 44.1278 37.6776 45.3087C37.6776 45.3087 37.6776 45.3022 37.6839 45.2957H37.6901C40.518 42.6031 44.536 42.1421 48.2271 42.6353ZM51.9997 30.0872V46.1972C52.0123 46.6124 51.6218 46.9628 51.225 46.9238C46.4509 46.541 42.4769 46.4762 39.0696 46.7357C38.9247 46.7486 38.805 46.8654 38.7799 47.0147C38.3642 49.6618 34.6482 49.6618 34.2201 47.0147C34.195 46.8654 34.0753 46.7486 33.9304 46.7357C29.8871 46.4502 26.2089 46.58 21.775 46.9238C21.3782 46.9692 20.9877 46.6059 21.0003 46.1972V30.0872C21.0003 29.6915 21.3278 29.3541 21.712 29.3541H22.2473V46.0674C22.2473 46.2685 22.4489 46.4372 22.6378 46.3788C28.5898 44.8216 32.9479 45.0682 36.6136 46.3658C40.0839 44.9254 44.5745 44.9254 50.3624 46.3788C50.5514 46.4372 50.7592 46.2685 50.7529 46.0674V29.3541H51.2883C51.6724 29.3541 51.9997 29.6915 51.9997 30.0872ZM36.1851 22.853V17.3187C36.1851 16.897 36.8149 16.8905 36.8149 17.3187V22.853C36.8149 23.2747 36.1851 23.2812 36.1851 22.853ZM28.8037 19.1483C28.5644 18.7979 29.0746 18.4281 29.3139 18.772L32.4378 23.2748C32.6771 23.6187 32.167 23.995 31.9277 23.6511L28.8037 19.1483ZM40.5626 23.2747L43.6865 18.7719C43.9258 18.428 44.436 18.8043 44.1966 19.1482L41.0727 23.651C40.8334 23.9949 40.3232 23.6186 40.5626 23.2747Z" fill="#00063F"/>
</svg>
