<svg width="71" height="70" viewBox="0 0 71 70" fill="none" xmlns="http://www.w3.org/2000/svg">
<rect x="0.634766" width="70" height="70" rx="20" fill="#FFD978"/>
<path d="M46.31 41.6404L46.4179 46.4151L46.4725 48.8004C46.4725 49.0095 46.4978 49.1764 46.4669 49.4235C46.4375 49.6571 46.324 49.8756 46.1628 50.0467C46.0003 50.2178 45.7788 50.3413 45.5392 50.3942C45.2785 50.4418 45.0921 50.4187 44.8861 50.4323C43.245 50.4852 41.5983 50.4662 39.9573 50.4662H24.2347C24.1071 50.4662 23.9796 50.4418 23.8605 50.4038C23.3742 50.2517 23.0098 49.7847 23 49.2892V21.2246C23 20.9775 23.0785 20.729 23.2256 20.5295C23.3728 20.3299 23.5788 20.167 23.8198 20.0815C23.9375 20.038 24.0651 20.0149 24.194 20.0054C24.3216 20 24.4056 20.0054 24.5135 20H40.5347C40.609 20 40.6777 20.0339 40.7211 20.0815L42.166 21.6862L43.5758 23.3194L46.3913 26.5899L46.3969 26.5953C46.4124 26.6143 46.4222 26.6387 46.4222 26.6618L46.3143 31.7134L46.1965 26.667L46.226 26.739L43.2675 23.5866L41.7932 22.0104L40.3483 20.4057L40.5347 20.4872H24.5136H24.2193C24.1408 20.4926 24.0623 20.5062 23.9936 20.5347C23.8465 20.5876 23.7189 20.6827 23.6293 20.8062C23.541 20.9298 23.4919 21.0777 23.4919 21.2298V49.2739C23.4975 49.578 23.7176 49.8644 24.0174 49.954C24.0917 49.9785 24.1702 49.992 24.2487 49.992H39.9545C41.5956 49.992 43.2423 49.973 44.8833 50.026C45.0851 50.026 45.3107 50.045 45.4579 50.0206C45.6204 49.992 45.7774 49.916 45.8951 49.802C46.0129 49.6879 46.1011 49.5359 46.1264 49.373C46.1516 49.225 46.1418 48.9915 46.1516 48.8014L46.2062 46.4161L46.31 41.6404Z" fill="#00063F"/>
<path d="M46.3106 26.6675H41.5526C40.992 26.6675 40.5352 26.2249 40.5352 25.6819V20.2393L46.3106 26.6675Z" fill="#00063F"/>
<path d="M25.4473 23.053C27.4275 22.867 29.4034 22.8249 31.3838 22.8154C33.364 22.8209 35.34 22.8629 37.3204 23.053C35.3401 23.2431 33.3642 23.2865 31.3838 23.2906C29.4036 23.2865 27.4277 23.239 25.4473 23.053Z" fill="#00063F"/>
<path d="M25.4473 26.0999C27.4275 25.9139 29.4034 25.8718 31.3838 25.8623C33.364 25.8677 35.34 25.9098 37.3204 26.0999C35.3401 26.2899 33.3642 26.3334 31.3838 26.3375C29.4036 26.3293 27.4277 26.2859 25.4473 26.0999Z" fill="#00063F"/>
<path d="M25.4473 29.1419C26.8978 29.0414 28.3468 28.9993 29.7973 28.9613C31.2478 28.9179 32.6969 28.9138 34.1474 28.9043C35.5979 28.9097 37.047 28.9138 38.4975 28.9613L40.6753 29.0278C41.4026 29.0659 42.1258 29.0903 42.8531 29.1473C42.1258 29.2003 41.4026 29.2233 40.6753 29.2613L38.4975 29.3279C37.047 29.3713 35.5979 29.3754 34.1474 29.3849C32.6969 29.3795 31.2478 29.37 29.7973 29.3279C28.3468 29.2899 26.8978 29.2423 25.4473 29.1419Z" fill="#00063F"/>
<path d="M48.8069 31.7178H31.2624C30.6037 31.7178 30.0684 32.2364 30.0684 32.8745V40.4771C30.0684 41.1152 30.6037 41.6338 31.2624 41.6338H48.8069C49.4655 41.6338 50.0009 41.1152 50.0009 40.4771V32.8758C50.0009 32.2378 49.4711 31.7178 48.8069 31.7178ZM36.8889 34.547C36.8203 34.6095 36.7418 34.638 36.6479 34.638H35.0306V39.0612C35.0306 39.1617 34.9956 39.2418 34.9227 39.3083C34.8485 39.3749 34.7658 39.4088 34.6621 39.4088C34.5584 39.4088 34.4757 39.3749 34.407 39.3083C34.3383 39.2418 34.3033 39.1604 34.3033 39.0612V34.638H32.6762C32.5823 34.638 32.4996 34.6041 32.4352 34.547C32.3707 34.4846 32.3371 34.4086 32.3371 34.3135C32.3371 34.2226 32.3665 34.1425 32.4352 34.08C32.4996 34.0176 32.5781 33.985 32.6762 33.985H36.6478C36.7417 33.985 36.8244 34.0189 36.8888 34.08C36.9575 34.1465 36.9869 34.2226 36.9869 34.3135C36.9925 34.4086 36.9576 34.4846 36.8889 34.547ZM42.2762 39.3067C42.2117 39.3787 42.1235 39.4112 42.0155 39.4112C41.8978 39.4112 41.8039 39.3637 41.7311 39.2633L40.0255 37.1875L38.3452 39.2728C38.2667 39.3637 38.1728 39.4112 38.0649 39.4112C37.9766 39.4112 37.8981 39.3773 37.8294 39.3162C37.7608 39.2497 37.7313 39.1777 37.7313 39.0881C37.7313 39.0067 37.7566 38.9361 37.8056 38.8736L39.6485 36.6784L37.8252 34.5021C37.7762 34.4397 37.751 34.3691 37.751 34.2876C37.751 34.1871 37.786 34.107 37.8491 34.0446C37.9135 33.9821 38.0018 33.9496 38.0999 33.9496C38.2275 33.9496 38.3256 33.9971 38.3942 34.088L40.0746 36.1584L41.7549 34.0731C41.8137 33.9916 41.902 33.9496 42.0198 33.9496C42.1137 33.9496 42.1963 33.9835 42.265 34.0446C42.3337 34.1111 42.3687 34.1871 42.3687 34.2781C42.3687 34.35 42.3491 34.4166 42.3042 34.4736L40.4614 36.6729L42.3042 38.8682C42.3533 38.9211 42.3785 38.9876 42.3785 39.0677C42.3687 39.1546 42.3393 39.2361 42.2762 39.3067ZM47.6283 34.547C47.5597 34.6095 47.4812 34.638 47.3873 34.638H45.77V39.0612C45.77 39.1617 45.735 39.2418 45.6621 39.3083C45.5878 39.3749 45.5051 39.4088 45.4014 39.4088C45.2977 39.4088 45.215 39.3749 45.1464 39.3083C45.0777 39.2418 45.0427 39.1604 45.0427 39.0612V34.638H43.4156C43.3217 34.638 43.239 34.6041 43.1745 34.547C43.1101 34.4846 43.0806 34.4086 43.0806 34.3135C43.0806 34.2226 43.1101 34.1425 43.1745 34.08C43.239 34.0176 43.3175 33.985 43.4156 33.985H47.3872C47.4853 33.985 47.5637 34.0189 47.6282 34.08C47.6969 34.1465 47.7263 34.2226 47.7263 34.3135C47.7263 34.4086 47.6914 34.4846 47.6283 34.547Z" fill="#00063F"/>
<path d="M25.4473 44.596C26.8978 44.4955 28.3468 44.4534 29.7973 44.4154C31.2478 44.372 32.6969 44.3679 34.1474 44.3584C35.5979 44.3638 37.047 44.3679 38.4975 44.4154L40.6753 44.4819C41.4026 44.52 42.1258 44.5444 42.8531 44.596C42.1258 44.6489 41.4026 44.672 40.6753 44.7155L38.4975 44.782C37.047 44.8254 35.5979 44.8295 34.1474 44.839C32.6969 44.8336 31.2478 44.8241 29.7973 44.782C28.3468 44.7399 26.8978 44.6964 25.4473 44.596Z" fill="#00063F"/>
<path d="M25.4473 47.553C26.8978 47.4525 28.3468 47.4105 29.7973 47.3724C31.2478 47.329 32.6969 47.3249 34.1474 47.3154C35.5979 47.3209 37.047 47.3249 38.4975 47.3724L40.6753 47.439C41.4026 47.477 42.1258 47.5014 42.8531 47.5584C42.1258 47.6114 41.4026 47.6345 40.6753 47.6779L38.4975 47.7444C37.047 47.7879 35.5979 47.792 34.1474 47.8015C32.6969 47.796 31.2478 47.7865 29.7973 47.7444C28.3468 47.6956 26.8978 47.6535 25.4473 47.553Z" fill="#00063F"/>
</svg>
