<svg width="70" height="70" viewBox="0 0 70 70" fill="none" xmlns="http://www.w3.org/2000/svg">
<rect width="70" height="70" rx="20" fill="#FFA666"/>
<path d="M48.8611 31.9687L48.6047 31.711C48.0388 31.1464 47.0538 31.1452 46.488 31.711L36.7172 41.4818C36.6556 41.5435 36.6149 41.6212 36.5976 41.7062L36.1588 43.898C36.1304 44.0423 36.1748 44.1902 36.2784 44.2938C36.361 44.3763 36.4731 44.422 36.5878 44.422C36.6161 44.422 36.6457 44.4195 36.6741 44.4133L38.8659 43.9745C38.951 43.9572 39.0286 43.9153 39.0903 43.8549L48.8611 34.0841C49.1434 33.8018 49.2999 33.4258 49.2999 33.0251C49.2999 32.6257 49.1446 32.2497 48.8611 31.9674L48.8611 31.9687ZM48.241 33.4652L38.5639 43.1423L37.1475 43.4259L37.431 42.0094L47.1081 32.3323C47.3423 32.0981 47.7504 32.0981 47.9846 32.3323L48.241 32.59C48.3581 32.7071 48.4222 32.8624 48.4222 33.0276C48.4222 33.1928 48.3581 33.3493 48.241 33.4665L48.241 33.4652Z" fill="#00063F"/>
<path d="M39.038 44.8347L36.8462 45.2736C36.7587 45.2908 36.6749 45.2994 36.5873 45.2994C36.2409 45.2994 35.9081 45.1638 35.6578 44.9136C35.5136 44.7693 35.4076 44.598 35.3472 44.4143C35.325 44.4193 35.2991 44.4229 35.2732 44.4229H35.2424C34.6063 44.4229 34.0146 44.1123 33.6509 43.5896C33.2909 43.0682 33.2084 42.4012 33.4278 41.8058C33.5067 41.6 33.4808 41.3805 33.3538 41.2005C33.0999 40.8319 32.4909 40.8455 32.2542 41.2264L30.6454 43.7992C30.4038 44.1887 29.9834 44.4217 29.5236 44.4217C29.0946 44.4217 28.6866 44.2109 28.4413 43.8559C28.191 43.5058 28.1343 43.0497 28.2785 42.6466L29.0811 40.451C29.1513 40.2538 29.1254 40.043 29.0022 39.8729C28.8838 39.6978 28.6952 39.6017 28.4844 39.6017C28.2428 39.6017 28.0283 39.7373 27.9186 39.9518L26.0201 43.7439C25.9154 43.9584 25.6515 44.0459 25.4333 43.9362C25.2188 43.8314 25.1313 43.5676 25.241 43.3494L27.1345 39.5573C27.3934 39.0445 27.9099 38.724 28.4844 38.724C28.975 38.724 29.4398 38.9656 29.7209 39.3687C30.0056 39.7718 30.071 40.2896 29.9045 40.7494L29.102 42.9449C29.0539 43.0854 29.0712 43.2346 29.1587 43.3567C29.3301 43.602 29.7418 43.5933 29.8996 43.3345L31.5121 40.7617C31.7931 40.3105 32.2788 40.0381 32.8138 40.0381C33.3181 40.0381 33.7865 40.2834 34.0762 40.7001C34.3609 41.1118 34.4263 41.6419 34.2512 42.1116C34.128 42.4445 34.1723 42.7995 34.3696 43.0892C34.5718 43.3789 34.891 43.5453 35.2424 43.5453C35.2732 43.5453 35.304 43.5502 35.3348 43.5539L35.7379 41.5335C35.786 41.2795 35.913 41.0465 36.0979 40.8629L45.7936 31.1671L45.7923 21.1918C45.7923 19.9825 44.8111 19 43.6005 19L25.1918 19.0012C23.9825 19.0012 23 19.9825 23 21.1931V45.7383C23 46.9476 23.9813 47.9301 25.1918 47.9301H43.6005C44.8098 47.9301 45.7923 46.9488 45.7923 45.7383V38.3924L39.7088 44.476C39.5251 44.6596 39.2922 44.7866 39.0382 44.8359L39.038 44.8347ZM25.6961 25.3436L27.5846 22.3196C27.8559 21.8906 28.3206 21.6317 28.8297 21.6317C29.255 21.6317 29.6581 21.8154 29.9343 22.136C30.2153 22.4602 30.3423 22.8855 30.2807 23.3058L29.7679 26.8782C29.737 27.1014 29.8024 27.3257 29.9515 27.5008C30.1007 27.6722 30.3152 27.7683 30.5433 27.7683C30.8502 27.7683 31.1264 27.5883 31.2533 27.3122L32.8362 23.8272C33.0815 23.2922 33.6165 22.9458 34.2082 22.9458C35.0367 22.9458 35.7122 23.6213 35.7122 24.4497V25.8082C35.7122 26.1632 36.0019 26.453 36.3569 26.453C36.6022 26.453 36.8254 26.3173 36.9351 26.0979L38.1185 23.7261C38.3601 23.2441 38.8422 22.9458 39.3858 22.9458C39.7975 22.9458 40.192 23.1294 40.4595 23.445C40.7307 23.7606 40.8454 24.181 40.7751 24.589L40.2672 27.6401C40.245 27.7843 40.2844 27.9249 40.3769 28.0346C40.4694 28.1443 40.6 28.2059 40.7455 28.2059C40.9563 28.2059 41.14 28.074 41.2053 27.8768L41.871 25.8735C41.9499 25.6455 42.1952 25.5234 42.4282 25.5974C42.6563 25.6763 42.7783 25.9216 42.7043 26.1546L42.0386 28.1529C41.85 28.7101 41.3335 29.0824 40.7455 29.0824C40.3461 29.0824 39.9701 28.9073 39.7112 28.6004C39.4486 28.2934 39.3389 27.8952 39.4042 27.5007L39.9121 24.4497C39.938 24.287 39.8949 24.1341 39.7938 24.0108C39.5571 23.7347 39.0665 23.7914 38.9038 24.1205L37.7203 26.4874C37.4614 27.0052 36.94 27.3294 36.3569 27.3294C35.5199 27.3294 34.8357 26.6452 34.8357 25.8082V24.4497C34.8357 24.1033 34.5546 23.8234 34.2094 23.8234C33.9641 23.8234 33.7361 23.9677 33.635 24.192L32.0521 27.672C31.7846 28.2637 31.1929 28.6446 30.5445 28.6446C30.0625 28.6446 29.6064 28.4338 29.2908 28.0751C28.9752 27.7114 28.8347 27.2294 28.9012 26.7511L29.414 23.1787C29.4362 23.0074 29.3881 22.8409 29.2735 22.7103C29.0282 22.4255 28.5326 22.4649 28.3317 22.7842L26.4431 25.8082C26.3112 26.014 26.0437 26.0757 25.8378 25.9487C25.6319 25.8217 25.5703 25.5493 25.6973 25.3434L25.6961 25.3436ZM25.2671 33.2234L26.6823 31.0981C26.9757 30.6593 27.4663 30.3967 27.9927 30.3967C28.5055 30.3967 28.9739 30.6334 29.2723 31.0537C29.5743 31.4704 29.6532 31.9869 29.4917 32.4738L28.7249 34.7754C28.6547 34.9813 28.6904 35.2007 28.8174 35.3757C28.9443 35.5557 29.1416 35.6568 29.361 35.6568C29.6063 35.6568 29.8295 35.5249 29.9478 35.3104L31.5997 32.3345C31.8142 31.9487 32.2173 31.712 32.6562 31.712C33.0026 31.712 33.3318 31.8562 33.5586 32.1151C33.7867 32.369 33.8964 32.7117 33.8606 33.0532L33.6375 35.0478C33.6202 35.2056 33.6683 35.3547 33.7731 35.4731C34.027 35.7579 34.5399 35.6703 34.689 35.3239L36.8759 30.213C37.0559 29.7927 37.4726 29.5202 37.9275 29.5202C38.2689 29.5202 38.5895 29.6694 38.8089 29.932C39.0283 30.1946 39.1195 30.5373 39.0591 30.8701L38.529 33.7807C38.5032 33.9212 38.5426 34.0617 38.6338 34.1702C38.7213 34.2799 38.8533 34.3416 38.9975 34.3416C39.1996 34.3416 39.3833 34.2097 39.4487 34.0174L39.6767 33.3246C39.7556 33.0965 40.0009 32.9745 40.2339 33.0484C40.462 33.1273 40.584 33.3726 40.5101 33.6056L40.2783 34.2935C40.0946 34.8458 39.5818 35.2181 38.9987 35.2181C38.5956 35.2181 38.2184 35.043 37.9595 34.7311C37.7006 34.4242 37.5958 34.0211 37.6661 33.6217L38.1962 30.7161C38.2134 30.6064 38.1703 30.5275 38.1395 30.493C38.1086 30.4584 38.0433 30.3968 37.9287 30.3968C37.8239 30.3968 37.7265 30.4621 37.6833 30.5595L35.4915 35.6704C35.2684 36.1968 34.7556 36.5333 34.1848 36.5333C33.7768 36.5333 33.3909 36.3583 33.1197 36.06C32.8522 35.7579 32.7203 35.3548 32.7647 34.9505L32.9878 32.9559C33.0014 32.8289 32.9434 32.7414 32.904 32.697C32.8695 32.6576 32.7856 32.5873 32.6537 32.5873C32.5354 32.5873 32.4257 32.6527 32.364 32.7587L30.7121 35.7345C30.4409 36.2252 29.9182 36.5321 29.3573 36.5321C28.8531 36.5321 28.397 36.3004 28.1036 35.8874C27.8102 35.4793 27.7313 34.9715 27.8891 34.4931L28.6559 32.1965C28.7261 31.9771 28.6904 31.749 28.5597 31.5653C28.2885 31.1881 27.666 31.1967 27.4071 31.5826L25.9919 33.7042C25.86 33.9064 25.5839 33.9631 25.3866 33.8275C25.1844 33.6956 25.1277 33.4194 25.2633 33.2222L25.2671 33.2234Z" fill="#00063F"/>
</svg>
