<svg width="70" height="70" viewBox="0 0 70 70" fill="none" xmlns="http://www.w3.org/2000/svg">
<rect width="70" height="70" rx="20" fill="#FFD978"/>
<path d="M45.6752 41.6404L45.7831 46.4151L45.8378 48.8004C45.8378 49.0095 45.863 49.1764 45.8322 49.4235C45.8027 49.6571 45.6892 49.8756 45.5281 50.0467C45.3655 50.2178 45.1441 50.3413 44.9044 50.3942C44.6437 50.4418 44.4573 50.4187 44.2513 50.4323C42.6103 50.4852 40.9635 50.4662 39.3226 50.4662H23.5999C23.4724 50.4662 23.3448 50.4418 23.2257 50.4038C22.7394 50.2517 22.375 49.7847 22.3652 49.2892V21.2246C22.3652 20.9775 22.4437 20.729 22.5909 20.5295C22.738 20.3299 22.944 20.167 23.1851 20.0815C23.3028 20.038 23.4303 20.0149 23.5593 20.0054C23.6868 20 23.7709 20.0054 23.8788 20H39.9C39.9742 20 40.0429 20.0339 40.0863 20.0815L41.5312 21.6862L42.9411 23.3194L45.7566 26.5899L45.7622 26.5953C45.7776 26.6143 45.7874 26.6387 45.7874 26.6618L45.6795 31.7134L45.5618 26.667L45.5912 26.739L42.6328 23.5866L41.1584 22.0104L39.7136 20.4057L39.9 20.4872H23.8788H23.5845C23.506 20.4926 23.4275 20.5062 23.3589 20.5347C23.2117 20.5876 23.0842 20.6827 22.9945 20.8062C22.9062 20.9298 22.8572 21.0777 22.8572 21.2298V49.2739C22.8628 49.578 23.0828 49.8644 23.3827 49.954C23.457 49.9785 23.5354 49.992 23.6139 49.992H39.3197C40.9608 49.992 42.6075 49.973 44.2485 50.026C44.4503 50.026 44.6759 50.045 44.8231 50.0206C44.9857 49.992 45.1426 49.916 45.2604 49.802C45.3781 49.6879 45.4664 49.5359 45.4916 49.373C45.5168 49.225 45.507 48.9915 45.5168 48.8014L45.5715 46.4161L45.6752 41.6404Z" fill="#00063F"/>
<path d="M45.6758 26.6675H40.9178C40.3572 26.6675 39.9004 26.2249 39.9004 25.6819V20.2393L45.6758 26.6675Z" fill="#00063F"/>
<path d="M24.8125 23.053C26.7927 22.867 28.7686 22.8249 30.749 22.8154C32.7293 22.8209 34.7052 22.8629 36.6856 23.053C34.7054 23.2431 32.7294 23.2865 30.749 23.2906C28.7688 23.2865 26.7929 23.239 24.8125 23.053Z" fill="#00063F"/>
<path d="M24.8125 26.0999C26.7927 25.9139 28.7686 25.8718 30.749 25.8623C32.7293 25.8677 34.7052 25.9098 36.6856 26.0999C34.7054 26.2899 32.7294 26.3334 30.749 26.3375C28.7688 26.3293 26.7929 26.2859 24.8125 26.0999Z" fill="#00063F"/>
<path d="M24.8125 29.1419C26.263 29.0414 27.7121 28.9993 29.1626 28.9613C30.6131 28.9179 32.0621 28.9138 33.5126 28.9043C34.9631 28.9097 36.4122 28.9138 37.8627 28.9613L40.0405 29.0278C40.7679 29.0659 41.491 29.0903 42.2184 29.1473C41.491 29.2003 40.7679 29.2233 40.0405 29.2613L37.8627 29.3279C36.4122 29.3713 34.9631 29.3754 33.5126 29.3849C32.0621 29.3795 30.6131 29.37 29.1626 29.3279C27.7121 29.2899 26.263 29.2423 24.8125 29.1419Z" fill="#00063F"/>
<path d="M48.1721 31.7178H30.6276C29.9689 31.7178 29.4336 32.2364 29.4336 32.8745V40.4771C29.4336 41.1152 29.9689 41.6338 30.6276 41.6338H48.1721C48.8308 41.6338 49.3661 41.1152 49.3661 40.4771V32.8758C49.3661 32.2378 48.8364 31.7178 48.1721 31.7178ZM36.2542 34.547C36.1855 34.6095 36.107 34.638 36.0131 34.638H34.3959V39.0612C34.3959 39.1617 34.3608 39.2418 34.288 39.3083C34.2137 39.3749 34.131 39.4088 34.0273 39.4088C33.9236 39.4088 33.8409 39.3749 33.7722 39.3083C33.7036 39.2418 33.6685 39.1604 33.6685 39.0612V34.638H32.0414C31.9475 34.638 31.8649 34.6041 31.8004 34.547C31.7359 34.4846 31.7023 34.4086 31.7023 34.3135C31.7023 34.2226 31.7317 34.1425 31.8004 34.08C31.8649 34.0176 31.9433 33.985 32.0414 33.985H36.013C36.1069 33.985 36.1896 34.0189 36.2541 34.08C36.3227 34.1465 36.3522 34.2226 36.3522 34.3135C36.3578 34.4086 36.3229 34.4846 36.2542 34.547ZM41.6414 39.3067C41.577 39.3787 41.4887 39.4112 41.3808 39.4112C41.2631 39.4112 41.1692 39.3637 41.0963 39.2633L39.3907 37.1875L37.7104 39.2728C37.6319 39.3637 37.538 39.4112 37.4301 39.4112C37.3418 39.4112 37.2634 39.3773 37.1947 39.3162C37.126 39.2497 37.0966 39.1777 37.0966 39.0881C37.0966 39.0067 37.1218 38.9361 37.1709 38.8736L39.0137 36.6784L37.1905 34.5021C37.1414 34.4397 37.1162 34.3691 37.1162 34.2876C37.1162 34.1871 37.1512 34.107 37.2143 34.0446C37.2788 33.9821 37.3671 33.9496 37.4652 33.9496C37.5927 33.9496 37.6908 33.9971 37.7595 34.088L39.4398 36.1584L41.1201 34.0731C41.179 33.9916 41.2673 33.9496 41.385 33.9496C41.4789 33.9496 41.5616 33.9835 41.6302 34.0446C41.6989 34.1111 41.7339 34.1871 41.7339 34.2781C41.7339 34.35 41.7143 34.4166 41.6695 34.4736L39.8266 36.6729L41.6695 38.8682C41.7185 38.9211 41.7438 38.9876 41.7438 39.0677C41.7339 39.1546 41.7045 39.2361 41.6414 39.3067ZM46.9936 34.547C46.9249 34.6095 46.8464 34.638 46.7525 34.638H45.1353V39.0612C45.1353 39.1617 45.1002 39.2418 45.0273 39.3083C44.9531 39.3749 44.8704 39.4088 44.7667 39.4088C44.663 39.4088 44.5803 39.3749 44.5116 39.3083C44.4429 39.2418 44.4079 39.1604 44.4079 39.0612V34.638H42.7808C42.6869 34.638 42.6042 34.6041 42.5398 34.547C42.4753 34.4846 42.4459 34.4086 42.4459 34.3135C42.4459 34.2226 42.4753 34.1425 42.5398 34.08C42.6042 34.0176 42.6827 33.985 42.7808 33.985H46.7524C46.8505 33.985 46.929 34.0189 46.9934 34.08C47.0621 34.1465 47.0915 34.2226 47.0915 34.3135C47.0915 34.4086 47.0566 34.4846 46.9936 34.547Z" fill="#00063F"/>
<path d="M24.8125 44.596C26.263 44.4955 27.7121 44.4534 29.1626 44.4154C30.6131 44.372 32.0621 44.3679 33.5126 44.3584C34.9631 44.3638 36.4122 44.3679 37.8627 44.4154L40.0405 44.4819C40.7679 44.52 41.491 44.5444 42.2184 44.596C41.491 44.6489 40.7679 44.672 40.0405 44.7155L37.8627 44.782C36.4122 44.8254 34.9631 44.8295 33.5126 44.839C32.0621 44.8336 30.6131 44.8241 29.1626 44.782C27.7121 44.7399 26.263 44.6964 24.8125 44.596Z" fill="#00063F"/>
<path d="M24.8125 47.553C26.263 47.4525 27.7121 47.4105 29.1626 47.3724C30.6131 47.329 32.0621 47.3249 33.5126 47.3154C34.9631 47.3209 36.4122 47.3249 37.8627 47.3724L40.0405 47.439C40.7679 47.477 41.491 47.5014 42.2184 47.5584C41.491 47.6114 40.7679 47.6345 40.0405 47.6779L37.8627 47.7444C36.4122 47.7879 34.9631 47.792 33.5126 47.8015C32.0621 47.796 30.6131 47.7865 29.1626 47.7444C27.7121 47.6956 26.263 47.6535 24.8125 47.553Z" fill="#00063F"/>
</svg>
