<svg width="74" height="74" viewBox="0 0 74 74" fill="none" xmlns="http://www.w3.org/2000/svg">
<rect x="0.267578" width="73.4146" height="73.4146" rx="20" fill="#93E7FE"/>
<path fill-rule="evenodd" clip-rule="evenodd" d="M38.8551 49.2182C38.2509 49.2182 37.8884 49.0909 37.6467 48.9636C37.4051 48.8364 37.4051 48.7091 37.4051 48.4545V24.7818H37.5259C38.9759 24.7818 40.0634 24.9091 40.9092 25.0364C41.7551 25.1636 42.3592 25.2909 42.7217 25.5455C43.2051 25.8 43.4467 26.0545 43.6884 26.3091C43.9301 26.6909 44.0509 27.0727 44.1717 27.5818L45.1384 31.9091H47.1926V23H23.9926L23.2676 31.7818H25.4426L26.6509 26.9455C26.7717 26.4364 27.0134 26.0545 27.1342 25.8C27.3759 25.5455 27.7384 25.2909 28.2217 25.1636C28.7051 25.0364 29.3092 24.9091 30.1551 24.9091C31.0009 24.9091 32.0884 24.7818 33.4176 24.7818H33.5384V48.4545C33.5384 48.7091 33.4176 48.8364 33.1759 48.9636C32.9342 49.0909 32.5717 49.2182 31.9676 49.2182L29.3092 49.4727L29.1884 51H41.5134L41.3926 49.4727L38.8551 49.2182ZM48.6426 38.2727V34.4545H46.2259V38.2727H42.6009V40.8182H46.2259V44.6364H48.6426V40.8182H52.2676V38.2727H48.6426Z" fill="#00063F"/>
</svg>
