<svg width="71" height="70" viewBox="0 0 71 70" fill="none" xmlns="http://www.w3.org/2000/svg">
<rect x="0.732422" width="70" height="70" rx="20" fill="#FFA666"/>
<path d="M25.9968 43.4628C24.7584 42.5967 23.0565 42.8968 22.1942 44.1314C21.3281 45.3659 21.6282 47.0716 22.8628 47.9339C24.0974 48.8 25.7992 48.4999 26.6653 47.2653C27.5315 46.0307 27.2314 44.3289 25.9968 43.4628ZM25.86 46.6993C25.2978 47.4857 24.2076 47.6642 23.425 47.1058C22.6539 46.555 22.4601 45.4913 22.992 44.7088C23.5542 43.9224 24.6444 43.7401 25.4269 44.3023C26.1981 44.8531 26.388 45.9168 25.86 46.6993Z" fill="#00063F"/>
<path d="M35.1937 36.6787C34.9278 36.6901 34.7151 36.9028 34.7075 37.1688C34.6961 37.4461 34.9164 37.6778 35.1937 37.6892C35.4596 37.6778 35.6685 37.4689 35.6799 37.2029C35.6913 36.9256 35.4748 36.6901 35.1937 36.6787Z" fill="#00063F"/>
<path d="M49.5716 43.1741C48.1281 41.1608 45.3246 40.6935 43.3113 42.137C43.0226 42.346 42.7567 42.5853 42.5249 42.8588L38.5477 37.1835C40.7281 33.9887 44.0406 30.0532 44.5838 26.4406C45.0017 24.4501 45.0093 22.3988 44.6029 20.4082C44.5649 20.2069 44.4091 20.0511 44.2116 20.0093C44.014 19.9714 43.8127 20.0511 43.695 20.2145C41.4157 23.4738 38.2817 27.9563 35.1896 32.3743L26.6728 20.2145C26.5132 19.9865 26.1979 19.9334 25.97 20.0929C25.8636 20.1651 25.7915 20.2791 25.7649 20.4044C24.9519 24.4387 25.8294 28.6325 28.1923 32.0058L31.8201 37.1873C30.3689 39.2576 29.0052 41.2025 27.8428 42.8588C26.2777 40.9746 23.4818 40.7163 21.5976 42.2814C19.7173 43.8503 19.4589 46.6462 21.024 48.5265C22.5891 50.4107 25.385 50.669 27.2692 49.104C27.5693 48.8532 27.8352 48.5645 28.0593 48.2454L31.4782 43.3564L33.8524 43.4818C34.0271 43.497 34.1943 43.4172 34.2893 43.2729C34.5096 42.9652 34.8249 42.5169 35.1858 41.9965L36.0747 43.2691C36.1734 43.4134 36.3406 43.497 36.5153 43.4818L38.8895 43.3564L42.3084 48.2454C45.8375 52.9293 52.7588 48.0365 49.5716 43.1741ZM33.6283 42.4599L31.2503 42.3308C31.0755 42.3156 30.9084 42.3992 30.8096 42.5473L27.235 47.6642C26.1523 49.2103 24.025 49.5864 22.4827 48.5075C20.9367 47.4249 20.5606 45.2976 21.6394 43.7515C22.308 42.798 23.421 42.2472 24.5873 42.3004C25.7535 42.3232 26.8209 42.969 27.3869 43.987C27.4705 44.1428 27.6301 44.2415 27.8048 44.2529C27.9795 44.2719 28.1505 44.1884 28.2455 44.0402C29.5484 42.1902 31.1401 39.911 32.8495 37.476C36.3216 32.5148 40.7927 26.1253 43.8013 21.8213C44.4965 26.7027 42.0805 30.737 38.9959 34.8017C37.3396 37.1075 35.1706 40.2947 33.6283 42.4599ZM46.9429 47.0944C46.9353 47.0982 46.9277 47.102 46.9239 47.1058C46.1489 47.6566 45.0739 47.4781 44.5231 46.7031C43.9723 45.9282 44.1546 44.8532 44.9295 44.3023C44.9371 44.2985 44.9447 44.2947 44.9485 44.2909C45.7235 43.7401 46.7985 43.9225 47.3493 44.6974C47.8964 45.4724 47.714 46.5436 46.9429 47.0944Z" fill="#00063F"/>
</svg>
