<svg width="74" height="74" viewBox="0 0 74 74" fill="none" xmlns="http://www.w3.org/2000/svg">
<rect width="73.4146" height="73.4146" rx="20" fill="#93E7FE"/>
<path fill-rule="evenodd" clip-rule="evenodd" d="M38.5875 49.2182C37.9833 49.2182 37.6208 49.0909 37.3792 48.9636C37.1375 48.8364 37.1375 48.7091 37.1375 48.4545V24.7818H37.2583C38.7083 24.7818 39.7958 24.9091 40.6417 25.0364C41.4875 25.1636 42.0917 25.2909 42.4542 25.5455C42.9375 25.8 43.1792 26.0545 43.4208 26.3091C43.6625 26.6909 43.7833 27.0727 43.9042 27.5818L44.8708 31.9091H46.925V23H23.725L23 31.7818H25.175L26.3833 26.9455C26.5042 26.4364 26.7458 26.0545 26.8667 25.8C27.1083 25.5455 27.4708 25.2909 27.9542 25.1636C28.4375 25.0364 29.0417 24.9091 29.8875 24.9091C30.7333 24.9091 31.8208 24.7818 33.15 24.7818H33.2708V48.4545C33.2708 48.7091 33.15 48.8364 32.9083 48.9636C32.6667 49.0909 32.3042 49.2182 31.7 49.2182L29.0417 49.4727L28.9208 51H41.2458L41.125 49.4727L38.5875 49.2182ZM48.375 38.2727V34.4545H45.9583V38.2727H42.3333V40.8182H45.9583V44.6364H48.375V40.8182H52V38.2727H48.375Z" fill="#00063F"/>
</svg>
