<svg width="113" height="158" viewBox="0 0 113 158" fill="none" xmlns="http://www.w3.org/2000/svg">
<path opacity="0.08" d="M1.27874 79.8615C1.65145 79.6434 2.08135 79.5409 2.51325 79.5669C3.40003 79.6612 4.29078 79.8694 5.18 80.0428C6.56041 80.2593 7.90743 80.653 9.18742 81.213C10.9846 82.0545 12.8903 82.6434 14.8496 82.9625C17.0462 83.4074 19.2142 83.9855 21.3409 84.6938C22.7343 85.123 24.0326 85.8716 25.4421 86.2652C26.3077 86.4665 27.1071 86.8853 27.7644 87.4815C28.773 88.3333 29.8617 89.0862 31.0154 89.7303C33.3408 91.2071 35.6661 92.6722 37.9905 94.1254C38.632 94.5264 39.3067 94.8648 39.9639 95.2211C39.9525 94.8965 39.6915 94.7642 39.5702 94.5839C38.3176 92.9474 36.7162 91.6072 34.8814 90.6596C33.6701 89.9728 32.4963 89.2219 31.3658 88.4101C30.0324 87.3891 28.5674 86.5499 27.0107 85.916C26.4997 85.7153 26.0245 85.4342 25.6031 85.0828C23.8714 83.3554 21.9727 81.8012 19.935 80.4438C19.6045 80.2305 19.2997 79.9811 19.0254 79.7003C16.6787 77.5533 15.0105 74.8581 13.0673 72.3819C11.6694 70.5913 10.2888 68.7737 8.83141 67.0464C7.04685 65.1337 5.75216 62.8217 5.05788 60.3077C4.88043 59.8677 4.80519 59.3938 4.83715 58.921C4.86942 58.4486 5.00791 57.9895 5.24301 57.5783C5.69618 57.713 6.12657 57.9151 6.51882 58.1786C9.15011 60.6409 11.7392 63.1398 14.3537 65.6203C15.8076 67.0139 17.2703 68.3985 18.7585 69.7646C19.3438 70.3167 20.0052 70.7873 20.5807 71.3217C22.2668 72.7869 23.9362 74.2702 25.6315 75.7352C25.8991 75.9402 26.1802 76.128 26.4726 76.2967C26.0072 74.964 25.4443 73.6667 24.7887 72.4156C24.4173 71.6635 24.0455 70.9023 23.6395 70.1686C22.8288 68.7367 21.9661 67.3239 21.1715 65.8562C20.1219 63.9226 19.1936 61.9144 18.0663 60.0274C17.0179 58.2121 16.2874 56.2335 15.9054 54.1762C15.6155 52.7361 15.1946 51.3355 14.7996 49.9254C14.5676 49.1158 14.2309 48.336 13.981 47.527C13.5921 46.2835 13.9242 45.9301 15.2373 45.8527C16.4113 47.5716 17.5857 49.2906 18.7601 51.0092C19.9341 52.7282 21.1926 54.5763 22.3873 56.3737C23.086 57.6599 23.9102 58.8751 24.8486 60.001C25.0136 60.1989 25.1547 60.4156 25.2689 60.6462C26.1402 62.0409 27.0464 63.426 27.8832 64.8486C28.8229 66.4343 29.6757 68.0495 30.5632 69.6546C30.9301 70.5287 31.4137 71.3489 32.0017 72.0945C32.0439 71.7943 32.0655 71.6616 32.0875 71.5294C32.2289 70.5496 32.3442 69.5709 32.513 68.608C32.6298 67.9191 32.8802 67.2606 32.9612 66.5729C33.1267 65.2673 33.229 63.9287 33.3248 62.6518C33.4473 61.3007 33.3658 59.9387 33.083 58.6102C32.9486 57.7389 32.917 56.8554 32.9891 55.9777C32.9709 55.4688 33.0942 54.9641 33.1201 54.4536C33.1861 53.3361 33.19 52.2025 33.309 51.0831C33.4279 49.9636 33.6292 48.9207 33.8382 47.8509C33.9235 47.5195 34.0811 47.2117 34.3006 46.9485C34.6049 46.5699 34.916 46.6211 35.187 47.0341C35.4576 47.447 35.5737 47.7332 35.8149 48.0504C36.9264 49.4989 37.5128 51.325 38.4367 52.9639C38.4898 53.0618 38.5267 53.1672 38.5452 53.2765C39.0429 54.9676 39.1248 56.7518 38.7838 58.4782C38.3965 60.0814 38.3865 61.7535 38.7554 63.3635C39.0596 64.7151 39.18 66.0992 39.3876 67.4628C39.3955 67.6822 39.4649 67.8997 39.5165 68.1088C39.9141 69.9362 40.0581 71.8085 39.9449 73.6731C39.9124 75.2292 39.5966 76.7765 39.4576 78.327C39.2279 79.9238 39.2857 81.549 39.629 83.1267C40.141 85.3424 40.8659 87.5047 41.7939 89.5839C42.0406 90.1737 42.3572 90.7327 42.7368 91.2487C44.0097 92.7625 45.3514 94.2209 46.5893 95.7533C48.0674 97.5677 49.4592 99.4467 50.9114 101.28C51.3187 101.802 51.8299 102.269 52.2537 102.756C51.9498 101.499 51.5781 100.259 51.1406 99.041C49.7444 95.0626 48.3219 91.0942 46.9428 87.1068C45.9582 84.2661 45.0349 81.4057 44.0761 78.5552C43.7308 77.5389 43.3946 76.5306 43.0409 75.532C42.9786 75.4244 42.9382 75.3056 42.9222 75.1827C42.9062 75.0602 42.9146 74.9353 42.9476 74.8158C42.9802 74.6962 43.0363 74.5848 43.1127 74.4871C43.1891 74.3894 43.284 74.3077 43.3922 74.2469C43.5625 74.3575 43.7182 74.4879 43.8565 74.6359C44.8693 76.0348 45.8903 77.4164 46.8425 78.8524C48.0733 80.6749 49.2957 82.5065 50.4316 84.385C51.3731 86.0232 52.2644 87.7339 53.1986 89.3991C54.1323 91.0642 55.1671 92.5944 55.9514 94.2732C57.5387 97.6656 59.013 101.105 60.4782 104.545C61.0459 105.747 61.3712 107.046 61.4362 108.371C61.4941 109.803 61.8765 111.205 62.5545 112.472C62.907 113.198 63.3203 113.888 63.6643 114.615C64.5239 116.432 65.4014 118.248 66.2004 120.093C66.6787 121.206 67.0792 122.349 67.4002 123.516C67.5942 124.371 67.9954 125.166 68.5693 125.832C69.9082 127.259 70.8977 128.974 71.4595 130.842C71.6337 131.385 72.0102 131.842 72.5121 132.117C72.5007 131.792 72.4326 131.619 72.3908 131.445C71.9685 130.01 71.6216 128.556 71.3518 127.086C71.1178 125.453 70.7323 123.846 70.2002 122.283C70.0054 121.656 69.8847 121.008 69.8395 120.353C69.7556 119.477 69.8324 118.667 69.7499 117.835C69.3795 114.641 68.8947 111.459 68.5952 108.262C68.3687 105.871 68.3442 103.456 68.2494 101.052C68.2093 99.9293 68.1686 98.7972 68.2081 97.6713C68.2683 97.3211 68.3688 96.9789 68.5071 96.6516C68.8831 97.0435 69.1995 97.2442 69.3325 97.5032C69.9466 98.8713 70.509 100.267 71.1059 101.654C71.703 103.04 72.2825 104.427 72.9229 105.785C73.7639 107.576 74.7618 109.301 75.4985 111.131C77.0037 115.19 77.8505 119.459 78.0081 123.779C78.059 125.924 77.9823 128.071 77.7784 130.207C77.6703 131.88 77.4648 133.547 77.2593 135.214C77.0468 136.319 77.0877 137.459 77.3787 138.548C77.9039 140.147 78.2366 141.797 79.3106 143.185C79.3938 143.288 79.3998 143.455 79.4663 143.584C79.8432 144.497 80.2672 145.389 80.7364 146.258C82.2135 148.793 83.812 151.262 85.2373 153.825C85.9638 155.128 85.7371 156.444 84.2266 156.932C83.8775 157.049 83.5189 157.148 83.1695 157.256C82.9603 157.337 82.7298 157.346 82.5146 157.281C82.2994 157.217 82.1119 157.082 81.9821 156.899C81.486 156.314 81.0356 155.691 80.6349 155.037C79.6901 153.31 78.8687 151.58 77.8885 149.855C76.8161 148.018 75.6138 146.256 74.4721 144.457C73.823 143.295 72.7524 142.421 71.479 142.015C70.2863 141.649 69.1461 141.13 68.0856 140.474C66.1709 139.297 64.357 137.959 62.4934 136.728C60.9835 135.676 59.585 134.473 58.3201 133.139C57.2333 132.049 56.1091 130.996 54.9484 129.98C53.2892 128.531 51.5708 127.155 49.9043 125.751C49.2199 125.148 48.5771 124.5 47.9804 123.81C47.1148 122.819 46.3603 121.728 45.4516 120.765C44.1567 119.409 43.0138 117.917 42.0424 116.316C41.7957 115.912 41.5938 115.482 41.4402 115.036C41.2114 114.278 40.8309 113.574 40.3219 112.965C39.8131 112.356 39.186 111.856 38.4786 111.494C37.8064 111.214 37.1928 110.811 36.6698 110.305C36.0667 109.847 35.3914 109.492 34.6716 109.254C33.3942 108.611 32.125 107.94 30.8397 107.314C29.8596 106.827 28.8378 106.404 27.8571 105.909C26.3102 105.124 24.8373 104.197 23.2502 103.519C20.995 102.459 18.8729 101.139 16.927 99.5859C16.7098 99.435 16.6105 99.1307 16.3864 98.7955C16.8275 98.5349 17.168 98.1728 17.555 98.1249C18.4268 97.9597 19.3198 97.9308 20.2017 98.0394C23.0992 98.5517 25.9741 99.1701 28.8481 99.7711C30.1845 100.183 31.5511 100.491 32.9349 100.693C34.9847 100.911 36.9755 101.515 38.8011 102.471C40.0037 103.003 41.1902 103.588 42.3925 104.112C43.9085 104.774 45.4575 105.357 46.966 106.045C49.0682 107.107 51.034 108.418 52.8198 109.95C53.1558 110.211 53.5002 110.455 53.9889 110.79C53.9243 110.459 53.9729 110.334 53.8818 110.258C52.3101 108.297 50.8822 106.147 48.8608 104.456C47.0517 103.026 44.9792 101.962 42.761 101.324C41.4934 100.943 40.2093 100.607 38.9497 100.209C36.794 99.4579 34.5854 98.8691 32.3425 98.4459C30.798 98.2763 29.3034 97.7986 27.9469 97.0421C25.7443 95.7077 23.5753 94.3285 21.3811 92.985C19.8963 92.0258 18.296 91.2568 16.6182 90.6971C15.5943 90.3939 14.6119 89.9656 13.6935 89.4214C10.3264 87.3781 6.99981 85.2456 3.68364 83.1572C2.85398 82.6187 2.05755 82.0315 1.2984 81.3982C1.15923 81.3236 1.04256 81.2134 0.960974 81.0794C0.879091 80.9448 0.834618 80.791 0.832914 80.6342C0.8308 80.4774 0.870942 80.3231 0.949303 80.1872C1.02807 80.0514 1.1417 79.9386 1.27874 79.8615ZM25.0716 87.2611C24.8024 86.8921 24.1202 86.8351 23.6269 86.6316C24.3862 88.0353 25.3946 89.2914 26.6034 90.3389L26.8019 90.2094C26.2823 89.1948 25.7043 88.2106 25.0716 87.2611ZM28.1282 89.5079C27.7212 88.7476 27.3136 87.9705 26.2216 87.8126C26.9264 88.9932 27.5856 90.1402 28.3056 91.2591C28.4276 91.3926 28.5756 91.5005 28.7408 91.5753C28.9059 91.65 29.0846 91.6899 29.2662 91.6935C28.8871 90.9765 28.5164 90.2419 28.1282 89.5079ZM29.0923 89.547C29.515 90.53 30.0066 91.4828 30.5631 92.3982C30.8709 92.8538 31.5581 93.0597 32.0731 93.3772C31.9156 92.5504 31.5634 91.7722 31.0452 91.1064C30.527 90.4406 29.8576 89.9059 29.0923 89.547ZM20.037 72.1742L19.8204 72.2865C20.1149 72.8744 20.3665 73.481 20.7033 74.0149C21.0403 74.5485 20.9898 75.3495 22.0863 75.648C21.2657 74.4272 20.8677 73.1749 20.037 72.1742ZM21.7852 76.6065C20.1693 75.3827 18.6457 74.0433 17.226 72.599C16.4684 71.9118 15.736 71.1889 14.9952 70.475C14.7477 70.2281 14.5175 69.9633 14.0783 69.5384C14.5018 69.5244 14.7578 69.5163 14.8744 69.5654C15.5209 70.0507 16.1302 70.583 16.6976 71.1576C17.48 72.0315 18.3847 72.7892 19.3835 73.4073C19.0096 72.5848 18.6447 71.7625 18.2533 70.9494C18.136 70.765 17.9797 70.6081 17.7953 70.4897C16.3578 69.3448 15.0266 68.0737 13.818 66.6918C12.4067 65.2617 10.9353 63.8774 9.47955 62.4399C8.69247 61.6746 7.89771 60.9276 7.09347 60.1803C6.91089 60.0107 6.70317 59.8769 6.33035 59.5813C6.58178 60.7317 7.09129 61.8113 7.82091 62.7394C8.92451 64.4606 10.1164 66.179 11.3226 67.8002C11.9363 68.6591 12.6677 69.3555 13.349 70.1331C13.4864 70.2537 13.6177 70.3814 13.7426 70.5153C15.0843 72.2291 16.426 73.9425 17.7328 75.6569C18.6535 76.8898 19.7288 78.0006 20.933 78.962C22.8788 80.5239 24.6976 82.2308 26.6093 83.8292C27.0442 84.1483 27.5161 84.4135 28.0151 84.6185C28.6603 84.8757 29.2897 85.169 29.9016 85.4974C31.1124 86.2663 32.2732 87.1159 33.4593 87.9207C33.9028 88.2226 34.3627 88.4977 34.8136 88.7555L35.0257 88.5114C34.5339 87.842 34.0936 87.1361 33.5492 86.4946C32.1344 84.6683 30.3932 83.1164 28.4136 81.9175C26.4437 80.6884 24.6152 79.2482 22.9608 77.6227C22.5968 77.2532 22.2037 76.9132 21.7852 76.6065ZM22.5112 74.6766C23.2607 75.8823 23.2952 77.5941 25.0186 78.1094C24.3383 76.8752 24.0273 75.3389 22.5112 74.6766ZM25.9247 77.5266C26.1886 78.2298 26.4037 78.8112 26.6272 79.3839C26.6861 79.5487 26.7206 79.7758 26.8475 79.8598C27.8249 80.6485 28.8891 81.3242 30.0192 81.874C28.9108 80.0215 27.8137 78.4759 25.9247 77.5266ZM34.1236 66.7198L33.8856 66.7272C33.6298 68.2291 33.3655 69.7224 33.1627 71.2222C33.0382 71.9243 32.9601 72.6343 32.9296 73.3469C32.8662 73.9362 32.9268 74.5325 33.1069 75.0981C33.6636 76.4145 34.3296 77.6829 35.0969 78.8901C35.1224 78.4802 35.1075 78.0686 35.0534 77.6617C34.8518 76.7991 34.8022 75.9094 34.9062 75.0311C35.0023 73.7629 34.9829 72.4808 35.0257 71.2059C35.0151 70.9548 35.0359 70.703 35.0871 70.4572C35.4244 69.0144 34.6351 67.933 34.125 66.7637L34.1236 66.7198ZM34.3945 64.9014C34.2141 65.7856 34.8198 66.1788 35.1483 66.7218C35.0911 66.0527 34.8279 65.4169 34.3945 64.9014ZM34.5584 62.577C34.3124 63.3493 34.6049 63.8754 35.4065 64.3064L34.5584 62.577ZM37.4849 77.2488C37.6571 75.1439 37.8111 73.0305 37.833 70.9218C37.7982 68.2204 37.5425 65.5257 37.0682 62.8644C36.9662 61.6323 36.9428 60.3948 36.9976 59.1596C36.944 57.6595 36.8904 56.159 36.7756 54.6691C36.7518 54.4887 36.7453 54.3066 36.7559 54.125C36.9823 52.7913 36.3606 51.7047 35.747 50.5999C35.4258 50.0131 35.1477 49.3984 34.8524 48.7932L34.623 48.8007C34.4769 50.1492 34.3216 51.4984 34.2025 52.855C34.0257 54.2306 33.9281 55.6151 33.9092 57.002C33.8339 58.4947 34.0925 59.9863 34.6654 61.3701C34.7002 61.475 34.7517 61.5742 34.8173 61.6637C36.1833 63.0603 36.2536 64.7795 36.1235 66.576C36.0538 67.5973 36.1435 68.6222 36.1179 69.6418C36.0927 70.6619 36.0114 71.6045 35.9582 72.5813C35.9046 73.5581 35.8223 74.4655 35.8208 75.4142C35.8494 76.2129 35.9484 77.0089 35.9599 77.8166C35.9984 78.9046 35.9229 79.9964 35.9268 81.0946C35.9157 81.4138 35.972 81.7322 36.0923 82.0289C36.8239 83.4634 37.5984 84.8792 38.3646 86.2949C38.4077 86.3709 38.4674 86.4361 38.5397 86.4855C38.6121 86.5349 38.6944 86.5675 38.7808 86.5804C38.719 86.2852 38.6378 85.9946 38.5379 85.7095C37.5167 83.0107 37.156 80.1105 37.4849 77.2488ZM52.1353 90.2946C51.3922 88.7809 50.6753 87.258 49.9063 85.7545C49.4694 84.8902 48.9642 84.0985 48.4845 83.2883C47.5481 81.7986 46.612 80.3181 45.6759 78.8375C45.4246 78.3778 45.1123 77.9534 44.7478 77.576C44.7985 77.8706 44.8677 78.162 44.9557 78.448C46.5232 83.0268 48.1258 87.5866 49.7101 92.1296C50.3498 93.9627 50.8676 95.8523 51.542 97.6748C52.3929 99.9755 53.3481 102.237 54.2773 104.517C54.7799 105.74 55.3177 106.943 55.8378 108.157C55.9064 108.369 56.0122 108.568 56.1503 108.744C57.2244 109.886 57.5799 111.43 58.3772 112.73C59.1744 114.031 59.8741 115.317 60.6362 116.628C60.8647 117.009 61.1784 117.332 61.553 117.573C61.2881 116.728 60.9637 115.901 60.5816 115.101C60.0511 114.182 59.6055 113.218 59.2509 112.219C58.867 111.116 58.2909 110.071 57.8286 108.997C57.2724 107.759 56.7073 106.53 56.1507 105.291C55.6011 103.874 54.9614 102.492 54.2364 101.154C53.9877 100.553 53.811 99.9248 53.7105 99.2826C53.3198 97.9865 52.9546 96.672 52.521 95.4033C51.929 93.6654 51.2998 91.8763 50.6367 90.1319C50.3342 89.3251 49.918 88.5564 49.5543 87.7689L49.9195 87.6077L52.0571 92.0625C52.2222 91.8001 52.3161 91.4993 52.33 91.1894C52.3435 90.8794 52.2763 90.5712 52.1353 90.2946ZM58.1221 113.995L57.0429 112.22C57.1887 113.331 57.3293 113.564 58.1228 114.012L58.1221 113.995ZM53.1779 92.2811C53.1296 93.4069 52.6081 94.3816 53.4391 95.4001C53.4811 94.3446 54.1179 93.3751 53.1781 92.2988L53.1779 92.2811ZM54.374 94.6141C54.0055 95.4254 54.4294 96.1671 54.3581 96.8901C54.214 97.6858 54.305 98.5064 54.6192 99.2534C54.8684 98.3187 55.0352 97.3638 55.1177 96.3996C54.9774 95.7658 54.7257 95.1613 54.374 94.6141ZM64.113 118.281C62.9726 116.025 61.7108 113.826 60.6659 111.532C60.1904 110.342 59.8501 109.104 59.6509 107.84C59.0719 105.568 58.301 103.348 57.3473 101.203C56.9774 100.249 56.5293 99.3231 56.0986 98.3885C55.9733 98.1706 55.8302 97.9636 55.6701 97.77C55.4543 98.8923 55.2508 99.874 55.0739 100.855C55.0897 101.036 55.1473 101.212 55.2423 101.368C56.3115 103.854 57.346 106.36 58.4501 108.836C59.1421 110.404 59.9298 111.933 60.6564 113.491C61.1061 114.452 61.5294 115.43 61.9528 116.401C62.8021 118.428 63.9757 120.307 65.4282 121.963C65.4322 121.668 65.3979 121.374 65.3264 121.088C64.9471 120.116 64.5949 119.161 64.112 118.246L64.113 118.281ZM71.7324 117.463C72.1422 116.572 71.6699 115.709 70.4092 114.792C70.1282 116.066 71.2061 116.576 71.7314 117.428L71.7324 117.463ZM70.0668 112.369C70.081 112.773 70.0957 113.177 70.1111 113.607L71.4339 114.293L71.5792 114.156L70.3209 112.317L70.0668 112.369ZM83.3471 156.047L84.1872 154.843C83.7029 154.138 83.1092 154.087 82.2507 154.282L83.3471 156.047ZM42.1448 106.079C41.2401 104.7 39.8643 103.692 38.2721 103.244C37.8266 103.074 37.3919 102.877 36.9704 102.653C35.898 102.158 34.749 101.847 33.5725 101.735C32.1611 101.535 30.7563 101.273 29.3686 100.993C26.4297 100.315 23.5061 99.5664 20.5591 98.9063C20.0697 98.883 19.5797 98.9374 19.1077 99.0674L19.0663 99.385C19.2615 99.5303 19.4669 99.6614 19.6807 99.7782C22.816 101.258 25.9681 102.719 29.0775 104.217C29.6348 104.489 30.1264 104.904 30.6585 105.212C31.6504 105.777 32.6411 106.316 33.6413 106.872C34.4432 107.312 35.2959 107.697 36.0638 108.182C39.0172 110.049 42.1638 111.594 45.4491 112.788C46.4764 113.179 47.4802 113.627 48.4557 114.132C50.3731 115.141 52.2159 116.294 54.1665 117.241C56.1171 118.188 58.0051 118.874 60.1387 119.762C59.9672 119.416 59.9128 119.12 59.7312 118.985C57.9163 117.629 56.0215 116.259 54.104 114.994C53.136 114.349 52.0252 113.92 50.9976 113.338L44.6939 109.94C44.2079 109.684 43.7049 109.454 43.2102 109.207C41.3641 108.288 39.5236 107.37 37.6892 106.451C37.4455 106.311 37.2098 106.158 36.9836 105.991L37.0822 105.786L43.4075 108.295C42.9257 107.415 42.5309 106.751 42.1448 106.079ZM60.0978 126.774C61.4508 128.056 62.991 129.149 64.4294 130.35C65.4666 131.195 66.4968 132.101 67.4923 133.017C68.2412 133.705 68.9477 134.446 69.6714 135.17C69.7723 135.28 69.8568 135.418 69.9493 135.538C70.0336 135.422 70.1085 135.296 70.1836 135.179C68.8044 132.638 67.2414 130.199 65.5069 127.881C65.3828 127.748 65.2659 127.608 65.1564 127.462C64.2223 125.885 62.9707 124.517 61.4801 123.444C59.1252 121.574 56.6257 119.893 54.0051 118.415C52.4778 117.705 50.9104 117.084 49.3109 116.555C48.0116 116.035 46.7293 115.488 45.446 114.923C44.8271 114.662 44.2074 114.375 43.5884 114.105L43.4807 114.302L46.7429 116.621L54.6543 122.241C56.5758 123.62 58.3953 125.135 60.0978 126.774ZM60.3614 129.708C60.4354 129.302 60.5027 128.966 60.5837 128.506L58.1552 126.301C58.1379 128.041 59.4337 128.71 60.3614 129.708ZM61.3397 129.404C61.8958 130.379 62.176 131.556 63.3356 132.115C62.6773 131.241 62.6196 129.872 61.3397 129.404ZM47.4288 108.376C47.2904 108.205 47.0556 108.063 47.0051 107.88C46.7547 106.808 45.8362 106.565 44.9927 106.189C44.1488 105.812 43.4255 105.589 42.6377 105.29L42.4845 105.453C43.7182 106.853 44.6511 108.501 46.168 109.673C45.7908 108.499 44.7973 107.644 44.4032 106.498C44.4596 106.444 44.5197 106.396 44.5835 106.351C44.7248 106.419 44.8555 106.506 44.9724 106.611C45.8311 107.655 46.6902 108.707 47.5313 109.761C47.7181 109.987 47.87 110.24 47.9823 110.51C48.1846 110.987 48.5601 111.115 49.1293 111.228C48.7232 110.192 48.1486 109.228 47.4288 108.376ZM50.7962 111.157C50.4344 110.643 50.1191 110.097 49.8547 109.528C49.4989 108.467 48.6204 108.1 47.6283 107.781L51.1525 112.481L51.386 112.342C51.2127 111.943 51.0132 111.546 50.7962 111.157ZM50.4694 109.674L52.132 111.966C52.3461 112.267 52.5425 112.576 52.7632 112.824C52.8916 113.042 53.0637 113.231 53.269 113.379C56.049 114.955 58.5954 116.91 60.8334 119.186C61.1173 119.467 61.307 119.83 61.5562 120.13C62.0729 120.745 62.5982 121.361 63.1316 121.958C63.6654 122.556 64.1582 122.76 64.0723 123.571C64.0827 123.851 64.4559 124.164 64.6595 124.43L65.5042 125.58C66.2022 126.568 66.8309 127.601 67.6058 128.525C68.4035 129.579 69.0921 130.71 69.6607 131.902C70.7447 133.971 71.997 135.949 73.4045 137.816C73.5701 138.016 73.706 138.24 73.8081 138.479C73.8659 138.618 73.8231 138.9 73.7633 138.955C73.586 139.066 73.3746 139.11 73.167 139.08C73.0083 139.085 72.8768 138.87 72.731 138.742C71.9365 138.051 71.1898 137.306 70.4962 136.513C69.4138 135.363 68.242 134.299 66.9914 133.333C65.935 132.444 64.8025 131.646 63.495 130.643C63.5271 130.89 63.5862 131.133 63.6709 131.367C64.0859 131.961 64.448 132.59 64.7536 133.247C65.0365 134.006 65.5506 134.659 66.2246 135.114C67.7029 136.191 69.1976 137.24 70.6842 138.308C70.7862 138.404 70.8784 138.51 70.9603 138.624C70.3109 138.733 69.9439 138.35 69.546 138.09C67.9102 137.045 66.2904 135.964 64.6714 134.901C64.6098 134.903 64.5194 134.844 64.4823 134.793C63.5462 133.312 62.0418 132.491 60.8251 131.318C59.9116 130.469 58.9948 129.524 58.0288 128.694C57.0631 127.865 56.2135 127.321 55.3042 126.595C54.1209 125.606 52.98 124.571 51.8561 123.527C51.5148 123.169 51.2055 122.782 50.9318 122.371C51.5873 122.183 51.8215 122.553 52.1042 122.807L57.0315 127.224C57.1411 127.326 57.2592 127.419 57.4593 127.58C57.4346 126.895 57.4171 126.404 57.4643 125.744C52.7369 121.886 47.8146 118.272 42.7166 114.915C43.0989 115.882 43.7399 116.727 44.5702 117.359C45.7473 118.364 46.7508 119.554 47.5399 120.882C48.3202 121.946 49.1919 122.94 50.1456 123.855C51.0064 124.705 51.9674 125.403 52.8795 126.208C54.3197 127.462 55.7169 128.751 57.1749 130.004C59.3414 131.814 61.4746 133.678 63.7511 135.343C65.5823 136.819 67.6183 138.023 69.7962 138.917C70.2785 139.107 70.738 139.351 71.1646 139.645C72.6535 140.527 74.234 141.244 75.878 141.786C76.1271 142.085 76.3763 142.384 76.6724 142.761L76.3014 143.503C78.11 146.659 79.9002 149.798 81.7562 153.05L83.2913 153.001C83.1994 152.751 83.0904 152.508 82.965 152.273C81.6981 150.434 80.3623 148.641 79.1732 146.756C78.6031 145.688 78.092 144.591 77.6427 143.468C77.5077 143.064 77.2766 142.699 76.9693 142.403C76.6618 142.107 76.2873 141.889 75.8774 141.768C75.9805 141.773 76.0837 141.77 76.1861 141.758C76.299 141.705 76.4089 141.645 76.5153 141.581C76.3649 141.076 76.1779 140.537 76.035 139.997C75.9011 139.515 75.7978 139.026 75.7265 138.531C75.5909 137.455 75.4725 136.37 75.3806 135.283C75.3573 134.634 75.3342 133.976 75.311 133.327C75.2714 133.121 75.2109 132.92 75.1306 132.726L75.1281 132.656C75.8022 131.756 75.5689 130.657 75.6123 129.654C75.6677 128.238 75.5725 126.809 75.4602 125.39C75.3687 122.836 75.2776 120.283 74.9837 117.745C74.8461 116.175 74.5242 114.625 74.0242 113.129C72.5599 108.977 70.9471 104.874 69.3476 100.648C69.0612 101.317 68.98 102.056 69.1144 102.773C69.288 105.402 69.511 107.943 69.7093 110.528C69.7273 111.019 69.8115 111.403 70.3856 111.657C70.6452 111.753 70.8164 112.09 71.0277 112.321L71.2367 112.235C71.1102 111.659 70.9571 111.085 70.8561 110.49C70.7557 109.896 70.7093 109.344 70.6347 108.741C71.2033 108.582 71.3558 108.902 71.423 109.295C71.6667 110.675 71.945 112.036 72.1354 113.418C72.5356 116.207 72.8475 119.008 73.2735 121.788C73.5503 123.598 73.9669 125.376 74.2876 127.176C74.7124 128.962 74.9813 130.782 75.0913 132.613L75.0927 132.657L74.182 131.888C74.2205 130.204 73.9728 128.525 73.448 126.921C72.8346 124.51 72.4247 122.052 72.2231 119.573C72.1855 118.529 71.501 118.156 70.6157 117.596C70.6546 118.32 70.7309 119.042 70.8431 119.759C71.0568 120.797 71.4017 121.805 71.6066 122.843C71.9292 124.458 72.1552 126.085 72.4691 127.7C72.6416 128.573 72.9287 129.442 73.1541 130.313C73.3181 130.949 73.4645 131.586 73.6198 132.222C73.9219 133.503 74.2673 134.775 74.5257 136.067C74.6655 136.774 74.4754 136.894 73.8559 136.853C72.9882 135.308 72.1932 133.823 71.3205 132.384C70.2785 130.661 69.1662 128.94 68.0801 127.218C67.7568 126.553 67.2421 125.997 66.6012 125.623C66.4914 125.561 66.3965 125.476 66.3229 125.373C66.2493 125.271 66.1984 125.154 66.1738 125.031C65.9523 123.281 64.9652 121.855 63.8939 120.3C63.6125 121.082 64.3423 121.48 64.1828 122.205C60.3881 117.259 55.7452 113.017 50.4694 109.674ZM49.5677 102.237C49.573 102.386 49.4741 102.582 49.5831 102.666C50.0161 103.267 50.4881 103.838 50.9956 104.378C52.6802 106.157 54.1712 108.108 55.4428 110.199C55.767 110.67 56.1377 111.109 56.5493 111.507C55.0644 108.492 53.2261 105.662 51.0727 103.075C50.4943 103.199 50.3276 102.739 50.0853 102.387L50.9675 102.358L49.7181 101.011C49.5303 100.839 49.3552 100.654 49.1952 100.457C47.3367 97.8813 45.3519 95.4771 43.3747 93.0375C43.0235 92.601 42.4657 92.3204 42.0803 91.911C41.6985 91.4753 41.3431 91.0176 41.0157 90.5403C41.2585 91.4185 41.7049 92.2284 42.3191 92.9049C42.9367 93.5904 43.4974 94.3243 43.996 95.0993C43.4954 95.4318 43.1207 95.3209 42.9064 95.0119C42.4086 94.2014 41.6976 93.5407 40.8508 93.1017C40.7598 93.0389 40.6917 92.9488 40.6563 92.8447C40.3179 92.2418 40.0434 91.6061 39.838 90.9471C39.5021 89.4648 38.4911 88.3553 37.8006 87.0776C37.1102 85.7996 36.1621 84.7237 35.75 83.3227C35.6501 82.992 35.2699 82.7406 35.0484 82.4668C35.0243 81.9026 34.9359 81.3427 34.7856 80.7977C34.2833 79.5929 33.6759 78.4177 33.0952 77.2417C33.0542 77.1679 32.9968 77.1038 32.9279 77.0544C32.859 77.005 32.78 76.9716 32.6965 76.9559C32.1229 76.9744 31.9594 76.6021 31.9627 76.1891C31.9911 74.0274 30.8766 72.2538 29.8949 70.4758C28.2412 67.4549 26.4577 64.4996 24.7172 61.5251C24.5791 61.266 24.4194 61.0182 24.2405 60.7849C22.446 58.4211 20.7919 55.9547 19.2871 53.3993C18.4475 52.0247 17.4025 50.7847 16.1881 49.7221C16.3786 50.3661 16.543 51.0108 16.7514 51.6456C16.9596 52.2799 17.1937 52.659 17.3184 53.182C17.8669 55.1232 18.615 57.0034 19.5503 58.7933C20.3672 60.2315 21.0142 61.7581 21.4793 63.3427C21.6688 63.9735 21.9432 64.576 22.2941 65.1347C23.4603 67.3809 24.6442 69.6091 25.8196 71.8551C27.0764 74.4266 28.5077 76.9103 30.1035 79.2886C31.5554 81.359 33.0673 83.3831 34.605 85.3889C35.0407 85.9635 35.8474 86.2976 36.1518 86.9026C36.3982 87.5604 36.6985 88.197 37.05 88.8062C38.1549 90.3164 39.1739 91.8998 40.3993 93.3097C42.0392 95.2067 43.5608 97.257 45.797 98.5461C45.9327 98.6069 46.0494 98.7033 46.1337 98.8251C46.9229 100.268 48.1156 101.454 49.5677 102.237ZM3.72407 81.3197C5.67004 82.6271 7.63236 83.9163 9.59537 85.2147C11.8211 86.5808 14.1587 87.7571 16.5835 88.7308C17.4179 89.099 18.2202 89.556 19.0466 89.942C21.5569 91.2591 23.9863 92.7236 26.3218 94.3274C28.1294 95.4617 30.0874 96.339 32.1383 96.9329C33.3699 97.2881 34.672 97.3952 35.9341 97.6269C37.9216 98.0104 39.8621 98.6072 41.721 99.4072C43.2535 100.034 44.7455 100.759 46.2094 101.432C46.3976 101.513 46.5944 101.578 47.0147 101.731C46.8761 101.487 46.7234 101.251 46.5569 101.025C46.4094 100.854 46.1764 100.756 46.0726 100.575C45.0193 98.7822 43.1149 98.1235 41.4626 97.123C39.513 95.9473 37.5798 94.7361 35.6462 93.5249C34.4176 92.7476 33.2057 91.9525 31.7945 91.0142C31.8789 91.285 31.9918 91.5462 32.1311 91.794C32.5363 92.2636 32.9054 92.7627 33.2357 93.2868C33.8096 94.2799 34.7285 95.0314 35.8195 95.3995C37.6152 96.2195 39.4069 96.9348 41.2008 97.7022C41.3087 97.7517 41.3844 97.8984 41.5958 98.1287C41.3572 98.1705 41.1135 98.1782 40.8723 98.1521C39.4947 97.6521 38.1159 97.1345 36.7371 96.617C36.1288 96.3906 35.5112 96.1646 34.8852 95.9566C33.205 95.3959 31.9482 94.0839 30.3764 93.3527C29.0988 92.7085 27.8558 91.9981 26.6526 91.2247C26.4242 91.1144 26.1876 91.0223 25.945 90.949C25.7479 90.8673 25.4736 90.8501 25.3713 90.7039C24.6832 89.7421 23.5599 89.445 22.6001 89.0366C21.4602 88.5286 20.3452 87.9675 19.2052 87.4599C18.6128 87.198 17.9971 87.0159 17.3704 86.7815C17.5486 86.0815 17.6074 85.9918 18.2883 86.2684C19.3725 86.699 20.4252 87.2446 21.4852 87.7461L23.7636 88.7264C23.7419 88.4285 23.678 88.135 23.5735 87.8543C23.1485 86.9004 22.3769 86.1408 21.4134 85.7281C19.7135 85.1155 18.0139 84.5205 16.2745 84.0408C15.1597 83.7342 13.972 83.6236 12.832 83.3528C12.0148 83.1637 11.2119 82.9168 10.4299 82.6135C9.43565 82.233 8.47518 81.7982 7.48835 81.3649C7.10337 81.2364 6.71017 81.135 6.3115 81.0602C5.49238 80.8703 4.67314 80.6859 3.85419 80.5071C3.62257 80.474 3.38876 80.458 3.15481 80.4596L3.08134 80.6291C3.27622 80.8763 3.49131 81.1072 3.72407 81.3197ZM34.3289 57.384C34.2748 57.6049 34.1496 57.8026 34.2064 57.9148C34.514 58.6076 34.8471 59.2823 35.1628 59.9573C35.3234 60.2505 35.4208 60.7567 35.9234 60.4859C36.4261 60.2151 36.2269 59.835 36.0211 59.5165C35.5535 58.7847 35.2996 57.8619 34.3289 57.384ZM64.692 91.4606C63.318 90.2975 62.0696 88.9954 60.9674 87.5751C60.4934 86.9231 60.0363 86.2435 59.5292 85.6365C58.155 84.0199 56.9121 82.2976 55.8121 80.486C53.877 77.5304 52.3515 74.329 51.277 70.9698C51.1578 70.5902 51.1168 70.1914 51.1557 69.7965C51.2381 69.5002 51.3748 69.2219 51.5593 68.9752C51.8294 69.1245 52.1765 69.2012 52.3525 69.4238C53.581 70.9301 54.8441 72.4181 55.9434 74.0164C56.4555 74.8185 57.0664 75.554 57.7614 76.2063C59.0179 77.2637 59.9231 78.6223 61.4103 79.4525C61.5003 79.5025 61.5571 79.6147 61.6307 79.6916C62.6334 80.8097 63.6018 81.9643 64.6643 83.028C66.1205 84.4742 67.6619 85.8388 69.1526 87.275C69.8745 87.9543 70.6139 88.6243 71.2671 89.359C72.0791 90.3532 73.0001 91.2546 74.0128 92.0459C74.7501 92.5949 75.4522 93.1882 76.1166 93.8228C77.2489 94.8577 78.3643 95.9197 79.4801 96.9904C80.1782 97.637 80.8426 98.3189 81.4695 99.0344C82.4839 100.231 83.4291 101.475 84.4176 102.69C84.4176 102.69 84.5499 102.686 84.6998 102.681C84.6825 102.468 84.6455 102.258 84.5891 102.052C83.8715 100.011 83.136 97.9704 82.4112 95.973C81.6106 93.5224 80.1019 91.3587 78.0731 89.7534C76.6835 88.6741 75.3863 87.4685 73.978 86.3721C72.5697 85.276 70.9004 84.2844 69.4459 83.128C67.9919 81.9716 66.4566 80.5366 64.9789 79.2231C64.2403 78.5705 63.5435 77.8553 62.7626 77.2565C60.9189 75.8369 59.2015 74.2613 57.6307 72.5473C57.1732 72.0106 56.7626 71.4363 56.4035 70.8299C55.927 70.0989 55.5367 69.3119 55.0599 68.5722C53.8532 66.6873 52.6294 64.8119 51.4055 62.9451C51.0413 62.3946 50.6427 61.863 50.3131 61.2938C49.5502 59.9568 48.8127 58.6018 48.0757 57.255C47.3386 55.9086 46.6212 54.6142 45.9287 53.2749C45.6912 52.8084 45.4076 52.2901 45.7687 51.7602C46.8324 51.6206 46.8408 51.6115 47.4208 52.278C47.7615 52.6623 48.0591 53.0829 48.347 53.4688C49.2679 54.5287 50.1277 55.6075 51.0568 56.6405C51.7977 57.5021 52.5966 58.3131 53.4487 59.0665C55.3881 60.699 57.4207 62.2145 59.3598 63.8384C61.636 65.75 63.8618 67.725 66.0953 69.6817C67.171 70.6221 68.2555 71.5535 69.2635 72.5748C70.8395 74.1696 72.3698 75.8009 73.8544 77.4689C74.977 78.7325 76.0036 80.0345 77.059 81.3883C77.5578 82.0044 78.0317 82.6568 78.5136 83.2915L78.7394 83.1874C78.6078 82.7173 78.4502 82.2569 78.3449 81.7771C77.7122 78.9072 76.6584 76.144 75.2167 73.5771C75.0073 73.1893 74.8194 72.7905 74.6527 72.3829C73.8056 70.4251 72.994 68.466 72.1381 66.5171C71.3317 64.7074 70.4903 62.916 69.6406 61.125C69.3352 60.4849 69.2015 59.7163 68.3867 59.409C68.2522 59.3515 68.182 59.1166 68.0884 58.9619C67.7152 58.1654 67.2724 57.3892 66.7763 56.6058C66.4384 55.9927 66.036 55.4167 65.5757 54.8878C63.7501 52.9695 61.5142 51.4836 59.0348 50.5404C57.8161 50.0528 56.6458 49.423 55.4436 48.8995C54.842 48.5462 54.1762 48.3138 53.4848 48.2162C52.2803 48.1237 51.0808 47.9252 49.8816 47.7268C48.4886 47.3658 47.0438 47.2491 45.6121 47.382C45.4709 47.4176 45.3233 47.4222 45.18 47.3961C43.4963 46.9938 41.7962 46.627 40.1454 46.1534C37.7258 45.4235 35.3208 44.6051 32.9165 43.8046C31.0036 43.164 29.0977 42.4787 27.1929 41.8199C26.8087 41.692 26.4164 41.5904 26.0398 41.4356C24.4001 40.7771 22.8013 40.0295 21.1301 39.4776C20.1826 39.1654 19.2598 38.5455 18.159 38.8799C18.0087 38.8847 17.8024 38.7947 17.6326 38.7299C16.7814 38.397 15.9217 38.065 15.0781 37.697C14.7665 37.6073 14.4851 37.4341 14.2658 37.1961C14.0178 36.8342 13.6481 36.5722 13.2234 36.4567C12.9992 36.3588 12.8484 36.0913 12.656 35.9041C12.8408 35.6958 13.0547 35.5143 13.2906 35.3654C13.5046 35.3179 13.726 35.3109 13.9433 35.3443C15.4166 35.2964 16.881 35.2493 18.3543 35.2014C19.1096 35.0582 19.8727 34.9575 20.6398 34.8991C22.1048 34.9567 23.5569 35.2049 24.9585 35.6379C28.063 36.5679 31.2828 37.055 34.5223 37.0851C34.7075 37.0792 34.8928 37.073 35.0762 37.0146C36.6797 36.9013 38.2967 36.682 39.9045 36.6912C43.9164 36.8071 47.8727 37.6746 51.566 39.248L51.8792 39.3609C54.1899 40.2259 56.4025 41.332 58.4795 42.6611C58.6873 42.7859 58.8943 42.8937 59.2636 43.0924C59.2154 42.8648 59.1514 42.641 59.0715 42.4221C58.2751 40.8932 57.4871 39.3551 56.665 37.8442C55.8423 36.3335 54.7853 34.681 54.028 33.0104C53.1757 31.0288 52.6478 28.9253 52.4628 26.7799C52.43 26.3436 52.3434 25.9127 52.2053 25.4969C51.5491 23.6997 50.9105 21.8932 50.1675 20.134C49.3686 18.1673 48.8746 16.0921 48.7026 13.9795C48.6904 13.5406 48.6334 13.1038 48.5321 12.6761C47.835 10.284 46.9153 7.96109 45.7849 5.73731C45.0439 4.27675 44.5021 2.7043 43.8552 1.17025C43.8094 1.07469 43.7838 0.970871 43.7799 0.865124C43.7761 0.75942 43.7938 0.654 43.8327 0.555605C43.8712 0.457108 43.9299 0.367717 44.0049 0.292836C44.0798 0.217956 44.1697 0.159321 44.2685 0.120418C44.6854 -0.0775504 44.9272 0.274696 45.1667 0.539351C45.6717 1.07645 46.1675 1.61375 46.7061 2.10582C47.9757 3.27703 49.3562 4.33924 50.5226 5.5928C51.8915 7.06828 53.0889 8.69856 54.3465 10.2829C55.4596 11.6008 56.4554 13.0116 57.3237 14.4999C58.1201 16.0285 58.7521 17.6365 59.2083 19.2968C60.2097 22.6025 61.2979 25.879 62.3778 29.1558C62.7445 30.2774 63.2073 31.3601 63.6468 32.5408C63.7585 31.9573 63.8545 31.4271 63.9507 30.906C64.4471 28.9181 64.6711 26.8719 64.6167 24.823C64.5657 23.7586 64.6165 22.6922 64.7679 21.638C64.794 21.4673 64.8571 21.3044 64.9527 21.1604C65.0479 21.0162 65.1738 20.8944 65.3209 20.8031C65.7123 20.6324 65.9731 21.0191 66.1526 21.3471C66.3059 21.6015 66.4309 21.8713 66.5262 22.1521C67.0487 24.1732 67.6062 26.1844 68.0598 28.2516C68.3127 29.3943 68.3198 30.5889 68.5207 31.7505C68.8213 33.4978 69.1996 35.1899 69.5878 36.9077C69.5924 37.0394 69.6588 37.1601 69.7398 37.4563L70.0907 36.8915C70.6251 35.7688 71.2771 34.7054 72.0351 33.7189C72.2089 33.4871 72.3346 33.2233 72.4052 32.9424C72.5732 32.4629 72.652 31.9421 72.8566 31.4873C73.5866 29.6472 74.1252 27.7371 74.4635 25.7868C74.7722 24.3713 75.1103 22.9577 75.4778 21.5461C76.1013 18.9824 76.343 16.3404 76.1958 13.7046C76.1643 12.8272 76.2362 11.8673 75.5311 11.1698C76.0309 10.3279 76.3078 10.1695 76.6499 10.5977C77.5993 11.7246 78.3286 13.0181 78.8 14.411C79.2902 16.2167 79.4673 18.0913 79.3246 19.9546C79.2808 21.1294 79.4944 22.3005 79.9507 23.3867C80.7062 25.1053 80.9724 26.9961 80.7201 28.8522C80.3542 30.9723 79.9884 33.0925 79.4537 35.1829C79.0469 36.9004 78.4619 38.5708 77.9343 40.3713C79.2499 39.3798 80.4562 38.5324 81.6248 37.6164C83.8838 35.8299 86.5973 35.1448 89.3209 34.5033C91.6005 34.0728 93.8286 33.4119 95.9719 32.5312C97.3452 31.9157 98.7761 31.4214 100.188 30.9101C100.467 30.8045 101.005 30.7695 101.071 30.8816C101.227 31.227 101.28 31.6093 101.225 31.9835C101.169 32.2709 101.049 32.542 100.873 32.7766C100.412 33.4832 99.7839 34.0672 99.0445 34.4786C97.6702 35.3224 96.2514 36.1589 94.8979 37.0812C92.5577 38.7218 90.0535 40.1186 87.4248 41.2499C84.9701 42.2735 82.7192 43.7236 80.777 45.5321C78.9718 47.2993 77.3656 49.2571 75.9866 51.3709C75.2114 52.3462 74.5781 53.4251 74.1051 54.5767C73.9382 55.0914 73.61 55.55 73.3985 56.0577C73.2696 56.353 73.206 56.6727 73.2111 56.9948C73.4207 60.3879 74.879 63.3802 76.3644 66.6351C76.4968 66.1387 76.5753 65.8728 76.6276 65.6075C76.9414 63.9985 77.2368 62.3815 77.5676 60.7721C77.9285 59.0033 78.3248 57.2336 78.6965 55.5262C78.7792 55.1282 78.809 54.7233 78.9279 54.3415C79.141 53.6318 79.4914 53.5505 80.0213 54.0427C80.1947 54.204 80.4189 54.302 80.5932 54.4721C80.767 54.642 81.0577 54.8702 81.1014 55.1056C81.2739 55.9785 81.3775 56.9065 81.4721 57.8168C81.5666 58.7274 81.5292 59.4138 81.6719 60.1998C82.2525 63.5982 82.8681 66.9779 83.4749 70.3666C83.4856 70.6738 83.6637 70.9581 83.8242 71.4886L84.0226 70.8673C84.6937 68.6405 84.6728 66.3224 85.042 64.0528C85.226 62.5607 85.5153 61.0833 85.9089 59.6324C86.2877 58.4521 86.5751 57.2446 86.7689 56.0202C86.8998 54.7415 87.2851 53.5017 87.9016 52.3732C88.5452 51.3511 89.1706 50.3206 89.8238 49.3155C90.8945 47.6469 91.9656 45.987 93.0641 44.3439C94.0199 42.817 95.3774 41.5796 96.99 40.7645C97.3251 40.6229 97.6204 40.4022 97.8504 40.1219C98.1035 39.8048 98.4369 39.5606 98.8165 39.414C99.1961 39.2677 99.608 39.224 100.011 39.2874C100.761 39.2634 101.111 39.9196 100.72 40.5912C100.413 41.0851 100.054 41.5447 99.6471 41.961C98.9409 42.5959 98.368 43.3639 97.9615 44.2206C97.6616 44.9681 97.3612 45.7158 97.1595 46.4865C96.8945 47.257 96.6837 48.0443 96.5278 48.8439C96.1904 51.0156 95.9328 53.194 95.5859 55.3573C95.2393 57.5207 94.8488 59.4482 94.5085 61.5413C93.9986 64.8387 92.9169 68.0211 91.3119 70.9476C90.7736 71.9491 90.2889 72.9751 89.7416 73.9678C89.4266 74.54 89.0032 75.0545 88.6519 75.6019C87.8679 76.6158 87.3077 77.7831 87.0077 79.0283C86.8837 79.8627 86.6825 80.6839 86.4065 81.4809C86.0146 82.4671 85.7835 83.5098 85.7219 84.5689C85.5918 85.5365 85.5531 86.514 85.6056 87.4893C85.8639 89.5251 85.9988 91.5742 86.0101 93.6255C86.0752 94.1988 86.205 94.7632 86.3969 95.3081C86.4889 95.6566 86.6772 95.9845 86.7958 96.332C87.3789 98.0702 87.9445 99.8087 88.5189 101.547C88.5825 101.669 88.6545 101.788 88.7346 101.9C88.8729 101.67 88.9913 101.428 89.0885 101.177C89.5564 99.6863 90.0595 98.194 90.4558 96.6792C91.1242 94.1275 91.7126 91.561 92.3457 89.0106C92.4762 88.478 92.6526 87.958 92.8731 87.456C93.7462 85.4425 94.7538 83.4861 95.4926 81.4243C95.9655 79.9518 96.6569 78.5587 97.5443 77.2903C99.4073 74.8058 101.361 72.3879 103.279 69.9453C103.659 69.4586 103.993 68.9209 104.419 68.4768C105.662 67.1889 106.977 65.9252 108.213 64.6732C108.998 63.9011 109.801 63.1548 110.605 62.4173C110.973 62.0803 111.407 62.1102 111.492 62.5025C111.702 63.4535 112.308 64.3297 111.983 65.3769C111.892 65.8809 111.834 66.3905 111.808 66.9023C111.618 68.5204 111.318 70.1239 110.911 71.7013C110.28 73.4482 109.532 75.1513 108.673 76.7984C107.924 78.3424 107.013 79.7951 106.274 81.3565C105.08 84.0303 103.948 86.7025 102.889 89.4511C102.297 91.2299 101.604 92.9737 100.815 94.6747C100.236 95.774 99.8008 96.9477 99.2395 98.0463C98.7113 99.2532 98.0534 100.4 97.2773 101.465C95.7695 103.358 94.4462 105.389 93.3253 107.532C91.9609 109.942 91.519 112.764 92.0812 115.478C92.1732 115.908 92.2389 116.343 92.2779 116.781C92.4588 119.621 92.6136 122.471 92.8034 125.311C92.9256 127.249 93.1093 129.175 93.2491 131.112C93.2784 131.57 93.1438 132.023 92.8691 132.39C92.5945 132.757 92.1976 133.016 91.7487 133.12C89.8255 133.182 87.8705 131.857 88.0978 129.812C88.1987 128.93 88.2534 127.989 88.3002 127.073C88.3881 126.197 88.4009 125.315 88.3385 124.437C88.1491 122.844 87.8101 121.265 87.5505 119.683C87.4374 118.993 87.3512 118.311 87.2471 117.62C86.8795 115.243 86.7921 112.794 85.2345 110.728C84.6085 109.614 83.8821 108.558 83.064 107.574C81.2566 105.862 79.3412 104.266 77.329 102.796C75.2964 101.281 73.3203 99.6903 71.4003 98.0252C69.5257 96.5431 67.7829 94.9037 66.1909 93.1249C65.7332 92.5313 65.2292 91.975 64.6829 91.4605L64.692 91.4606ZM70.034 89.2053L69.9765 89.0757C68.9157 88.0647 67.8385 87.0804 66.8124 86.0507C64.8609 84.0757 62.7045 82.3095 60.8806 80.2077C59.8582 79.0286 58.6133 78.0499 57.4801 76.9795L57.2571 77.1712C58.0444 78.1911 58.8141 79.2206 59.601 80.2317C60.3879 81.2428 60.9573 82.1025 61.6943 82.9571C62.6143 83.9819 63.5317 84.9448 64.451 85.9517C65.37 86.9581 66.127 87.8738 66.9737 88.8303C67.3326 89.2403 67.702 89.6853 68.3552 89.1807C68.5965 89.7528 69.3832 90.0258 68.9757 90.7333C69.3592 91.0721 69.5829 91.6535 70.3501 91.6287C70.1047 91.18 69.9132 90.7644 69.6889 90.4201C69.6178 90.3215 69.5676 90.2088 69.5424 90.09C69.5172 89.9712 69.5168 89.8484 69.5415 89.7293C69.5665 89.6104 69.6159 89.4981 69.6865 89.3994C69.7571 89.3007 69.8481 89.2174 69.9527 89.1554L70.0263 89.2322C70.3813 90.0202 70.7358 90.7994 71.0992 91.5782C71.1013 91.6395 71.2866 91.6332 71.385 91.6656L71.4324 91.7517C71.5531 92.1696 71.6753 92.6222 71.7867 93.014L72.0474 92.9004C71.8395 92.5202 71.64 92.1314 71.4324 91.7517C71.4324 91.7517 71.4292 91.6639 71.4278 91.6287C71.5194 90.4838 70.7121 89.8865 70.0253 89.2057L70.034 89.2053ZM73.2609 92.5095C73.1087 92.1982 72.7304 91.9908 72.4567 91.745L72.2327 91.9102L73.7868 94.8644L74.1184 94.7481C73.8349 93.9844 73.5955 93.219 73.2521 92.5099L73.2609 92.5095ZM74.5275 93.3469C74.7203 94.6374 75.2612 95.8524 76.0925 96.8628C75.9659 96.5244 75.8472 96.1768 75.7027 95.839C75.5582 95.5008 75.367 95.0944 75.8487 94.7274L74.5275 93.3469ZM62.3968 67.5089C59.7472 65.5388 57.3086 63.2814 54.6933 61.2839C53.132 60.0688 51.6669 58.7361 50.3117 57.297C49.7702 56.726 49.2967 56.0823 48.7206 55.5301C49.1531 56.7946 49.8947 57.9328 50.8791 58.8422C51.7926 59.6913 52.8032 60.5367 53.7521 61.3846C54.2994 61.8765 54.8297 62.3775 55.3514 62.8879C57.5666 65.0648 59.7733 67.2597 61.9796 69.4373C62.1257 69.5546 62.2801 69.6611 62.4414 69.7563C62.4267 69.344 62.4175 69.0807 62.4006 68.6156C63.7073 69.5833 63.7676 71.2768 65.138 72.3042C64.5213 70.3654 64.0204 68.7123 62.3968 67.5089ZM68.6333 72.9906C68.2747 72.6818 67.8927 72.4003 67.4908 72.149C67.4908 72.149 67.4883 72.0877 67.4872 72.0525C66.9229 71.328 66.2233 70.718 65.4272 70.2571C65.7551 72.0569 66.6851 73.6957 68.0659 74.9066C67.812 74.2206 67.5689 73.5959 67.3342 72.9622C67.2163 72.6234 67.0535 72.2689 67.4883 72.0791L67.5426 72.1209C68.176 73.5326 68.8 74.9354 69.4601 76.3461C69.6779 76.8571 70.0556 77.2853 70.5372 77.5671C70.5058 76.9499 70.3138 76.3507 69.9801 75.8283C69.8097 75.5089 69.4869 75.124 69.5655 74.849C69.7262 73.9129 69.1457 73.4835 68.6333 72.9906ZM69.7102 78.4022C68.4764 77.2386 67.3972 75.9559 66.2575 74.7189C65.7065 74.1308 65.3666 73.2632 64.286 73.4213C64.1536 73.4256 63.895 73.1087 63.8167 72.892C63.5776 72.2295 63.1734 71.6384 62.6424 71.1729C61.133 69.7196 59.6237 68.2663 58.1574 66.7765C56.6913 65.2864 55.2838 63.7155 53.7288 62.22C52.987 61.4796 52.1258 60.8574 51.1969 60.0706C51.2597 60.3497 51.2115 60.483 51.3106 60.5414C53.0942 62.4951 54.1692 64.9024 55.5723 67.0883C56.9284 69.3991 58.5617 71.5381 60.4364 73.4578C61.222 74.1878 62.1281 74.8262 62.9214 75.5211C64.863 77.215 66.7696 78.9102 68.7379 80.6035C69.9475 81.5831 71.2339 82.4906 72.4971 83.486C74.1141 84.7428 75.714 86.0173 77.4256 87.2004C76.3231 85.7606 75.1343 84.376 74.1282 82.9151C72.9496 81.0731 71.2534 79.828 69.7451 78.4012L69.7102 78.4022ZM80.3582 87.4572C79.636 86.277 78.7321 85.2081 77.9059 84.0841C76.4852 82.0849 74.9601 80.1608 73.3371 78.3198C72.4181 77.322 71.5 76.3413 70.5814 75.3522L70.4618 75.4613C70.9352 76.6057 71.4268 77.7492 71.8839 78.9291C71.9678 79.0879 72.0875 79.2255 72.234 79.3309C73.7199 80.3808 74.6052 81.9246 75.6796 83.3215C76.8361 85.0985 78.1092 86.7974 79.4912 88.4074C80.2815 89.2604 80.9565 90.1169 81.6695 91.0338C82.7371 92.355 83.3879 93.9605 83.5389 95.6469C83.5895 95.9435 83.6678 96.2352 83.7731 96.5177C84.4566 98.8409 85.1491 101.164 85.7881 103.48C86.1958 104.951 86.7987 106.361 87.5807 107.674C87.635 107.472 87.6661 107.265 87.6734 107.056C87.4286 105.395 87.1838 103.734 86.9037 102.074C86.8024 101.462 86.587 100.872 86.4327 100.262C86.073 98.8415 85.7393 97.4204 85.3973 95.9993C85.2344 95.3899 85.244 94.678 84.4558 94.3697C84.2589 94.2972 84.133 93.9848 84.0104 93.7603C82.7954 91.6477 81.6506 89.5146 80.3933 87.4558L80.3582 87.4572ZM50.0849 42.0455C49.5773 41.1834 49.0429 40.3222 48.5178 39.4608C48.2359 38.9869 47.7844 38.9663 47.2273 38.9403C48.1583 40.2805 49.0854 41.5155 50.0147 42.8031L50.2405 42.6905C50.2161 42.4698 50.1638 42.2533 50.0849 42.0455ZM58.0008 44.0907C57.258 43.5701 56.4399 43.175 55.6829 42.7429L55.4323 42.4083L53.6843 41.6831L53.6286 41.6056L53.5757 41.6076C52.2223 40.7129 50.7418 40.0265 49.1839 39.5709C49.4471 40.0195 49.5907 40.3221 49.7855 40.5883C50.6792 41.5629 51.4823 42.616 52.1855 43.7345C52.2336 43.8471 52.4815 43.8654 52.7502 43.9708C52.5484 42.765 51.3699 42.1705 51.3113 41.0218C52.7068 42.0134 53.408 43.5892 54.5454 44.7826L54.7622 44.6612C54.5076 44.2127 54.272 43.7988 54.0164 43.3152C53.7604 42.8311 53.5196 42.514 53.3015 42.0908C53.083 41.6674 53.3303 41.6593 53.5648 41.5549L53.6356 41.5527C54.0555 42.1892 54.4846 42.8255 54.9133 43.4531C55.3421 44.0802 55.7547 44.7523 56.1915 45.3617C56.2844 45.4904 56.4546 45.5553 56.7628 45.5278C56.3877 44.916 56.0475 44.2946 55.6468 43.7104C55.4837 43.5375 55.3753 43.3217 55.334 43.089C55.2927 42.8563 55.3207 42.6167 55.4145 42.3999C55.4181 42.4964 55.4843 42.6261 55.5565 42.6677L55.6829 42.7429C56.2017 43.4201 56.7201 44.0882 57.2216 44.7838C57.5466 45.2213 57.811 45.7046 58.1535 46.1414C58.3196 46.2788 58.5053 46.3916 58.7042 46.4749L58.8575 46.312C58.639 45.8886 58.4114 45.4479 58.1941 45.0507C58.2346 44.9986 58.2804 44.9499 58.3302 44.9058C58.534 44.9903 58.7256 45.1024 58.8984 45.239C59.2846 45.6658 59.6354 46.0936 60.0066 46.5911C60.262 46.8731 60.5751 47.097 60.9249 47.2481C61.2748 47.3987 61.6532 47.4731 62.0338 47.4653C61.9286 47.2405 61.9138 47.0739 61.8143 47.0068C60.5873 46.0275 59.2975 45.0327 58.0014 44.1086L58.0008 44.0907ZM57.3951 16.5092C56.1049 13.8748 54.419 11.45 52.3956 9.31833C51.4738 8.24129 50.5499 7.09413 49.6295 6.06089C48.4734 4.84222 47.2235 3.73177 45.9721 2.56887L45.7131 2.73534C45.9553 3.50822 46.2477 4.26462 46.5888 4.99975C48.2581 8.14844 49.5623 11.4749 50.4759 14.9148C50.6286 15.4808 50.6326 16.0868 50.8119 16.6608C51.2303 17.9826 51.6647 19.2686 52.1976 20.5866C53.1293 22.864 53.8292 25.2282 54.2865 27.6432C54.5504 28.7038 54.8826 29.7464 55.2816 30.7648C55.3787 31.0405 55.4947 31.3099 55.6282 31.5703C56.1732 32.73 56.7528 33.8796 57.2709 35.0311C57.7889 36.1826 58.3708 37.3848 58.8023 38.5923C59.3168 40.0878 60.0519 41.5 60.9835 42.7821C61.5955 43.5967 62.0605 44.5039 62.6122 45.3648C62.7706 45.5834 62.9465 45.7896 63.1377 45.9799C63.2301 45.724 63.267 45.4513 63.2469 45.1797C63.2264 44.9079 63.149 44.6432 63.0196 44.4027C62.1268 41.6556 61.146 38.9291 60.3404 36.153C59.7654 34.1511 59.488 32.0692 58.9564 30.0483C58.6502 28.8899 58.1164 27.7917 57.6961 26.6632C57.3179 25.7552 56.9899 24.8274 56.7135 23.884C56.099 21.6099 55.2386 19.4081 54.1477 17.3171C53.5315 16.1424 52.9245 14.9761 52.2576 13.8644C51.5908 12.7527 51.0459 11.8392 50.48 10.8298C50.2357 10.416 50.0165 9.96634 49.7903 9.56955C49.3089 8.70663 48.8428 7.77301 48.3425 6.86687C48.2167 6.58456 48.109 6.29463 48.02 5.99882C48.2836 6.00511 48.5394 6.08779 48.7567 6.23688C48.974 6.38596 49.1427 6.59481 49.2425 6.83779C50.1871 8.56405 51.1321 10.2904 52.0771 12.0168C53.129 14.0295 54.0862 16.098 55.1473 18.1105C57.0394 21.6333 58.0605 25.4919 59.5426 29.1511C59.909 30.2653 60.1773 31.4088 60.345 32.5685C60.6694 33.9902 60.9591 35.4212 61.3278 36.8413C61.7579 38.5053 62.2676 40.1576 62.7506 41.8113C62.8097 41.9689 62.8798 42.1224 62.961 42.2701L63.1263 42.1942C62.9838 41.3751 62.8981 40.5472 62.8699 39.7167C62.8966 38.8067 63.0032 37.9007 63.1884 37.0096C63.3504 36.1095 63.3174 35.1852 63.0917 34.298C61.8739 29.6105 60.4178 24.9872 58.7283 20.4455C58.3726 19.1394 58.0061 17.7808 57.3951 16.5092ZM66.7378 49.5883C66.7263 49.2724 66.06 48.9163 65.6525 48.6309C65.1707 48.3055 64.6706 48.0081 64.1544 47.7394C63.7486 47.5413 63.3323 47.3639 62.9082 47.2086C63.0478 47.7716 63.3047 48.2995 63.6619 48.7586C64.0187 49.2175 64.4685 49.5973 64.9814 49.8734L65.4805 49.506C66.1502 49.7041 66.3307 50.3042 66.6738 50.7674C67.0173 51.2308 67.099 51.7902 67.9076 51.931C67.774 51.6456 67.6713 51.4907 67.612 51.3171C67.3878 50.727 66.7744 50.3689 66.7826 49.6045L66.7378 49.5883ZM67.7903 32.0818C67.4967 30.2902 67.3172 28.4777 67.0851 26.6756C66.958 25.1458 66.4952 23.6614 65.7286 22.3272C65.6605 22.5198 65.6112 22.7184 65.5819 22.9205C65.5419 24.2746 65.5281 25.6191 65.4881 26.9732C65.4935 27.5187 65.4541 28.0636 65.3698 28.6022C64.7998 31.7629 64.5415 34.9723 64.5992 38.1846C64.6269 38.3295 64.6321 38.4772 64.6148 38.6235C64.0058 40.6112 64.3942 42.5836 64.6159 44.5795C64.643 45.2547 64.805 45.9186 65.0918 46.532C65.2779 46.7864 65.4968 47.0157 65.7433 47.2137L65.9151 47.0851C65.9022 46.7253 65.8369 46.3758 65.7715 46.0268C65.5791 44.3566 65.6865 42.6666 66.0877 41.0356C66.2416 40.152 66.1463 39.2153 66.2466 38.3072C66.435 36.3822 66.4867 34.446 66.4014 32.5133C66.3993 32.4516 66.4679 32.3967 66.5771 32.235C66.6661 32.4148 66.7436 32.6004 66.809 32.7897C67.4334 34.9483 66.9658 37.177 67.0426 39.3267C67.0385 40.6028 66.9092 41.8751 66.6568 43.1255C66.4587 43.8648 66.4867 44.647 66.7372 45.3717C66.9505 44.4163 67.1281 43.453 67.4033 42.5128C67.5995 41.7812 67.8702 41.072 68.2112 40.3958C68.7654 39.4375 68.9628 38.3148 68.7689 37.2242C68.4964 35.5199 68.0731 33.812 67.7903 32.0818ZM72.5755 35.2473C71.5132 37.3987 70.469 39.5675 69.38 41.7198C68.2405 43.6754 67.7586 45.9434 68.0037 48.1946L69.2967 49.2772C69.4723 48.2485 69.7014 47.2294 69.9824 46.224C70.3884 44.9812 70.9287 43.7778 71.4237 42.5582C71.9627 41.1706 72.5287 39.7878 73.1213 38.4095C73.2528 38.1092 73.321 37.7851 73.3216 37.4576C73.3219 37.1295 73.2545 36.805 73.1237 36.5034C72.9846 36.0645 72.88 35.6155 72.8112 35.1609C72.7051 35.164 72.5993 35.1677 72.5755 35.2473ZM73.3795 33.0251C73.2176 33.4347 73.096 33.737 73.0561 33.8612L74.0322 36.4651C74.6406 35.6902 74.066 35.1814 73.9675 34.6491C73.9471 34.0531 73.7243 33.4814 73.3353 33.0267L73.3795 33.0251ZM74.1892 30.7238C73.9763 31.1875 73.7532 31.6164 73.5417 32.1238C74.7603 32.6117 74.2174 33.982 75.0914 34.7091C75.011 33.3904 74.8016 32.0819 74.4659 30.8027L74.1892 30.7238ZM77.3197 36.2709C77.9145 34.6198 78.2547 32.8882 78.3284 31.1344C78.3477 30.1938 78.5792 29.2552 78.678 28.3121C78.8044 27.4071 78.8782 26.4955 78.8985 25.5817C78.8993 24.8942 78.7943 24.2103 78.5875 23.5537C77.8796 21.163 77.6053 18.6673 77.7769 16.1834C77.8469 15.3586 77.6728 14.5306 77.2765 13.8014L77.0577 13.8524C77.0149 14.2111 77.0073 14.5732 77.0343 14.9336C77.3612 17.1631 76.8031 19.3335 76.3843 21.464C75.966 23.5947 75.4384 25.887 74.9431 28.0904C74.8059 28.7009 74.606 29.2872 74.4411 29.8635C75.3546 30.7124 75.2542 31.8577 75.734 32.9229C76.0323 32.6143 76.1921 32.3983 76.0619 31.9633C75.7923 31.0936 75.611 30.221 75.3943 29.3495C75.3777 29.1628 75.3708 28.9753 75.3743 28.788C75.5508 28.7823 75.7094 28.7771 75.7392 28.8727C76.5072 30.3413 77.2391 31.7934 76.4889 33.5305C75.9905 34.7463 75.3849 35.9154 74.6793 37.0242C74.0826 38.0169 73.5791 39.0625 73.1747 40.1472C72.3644 42.1853 71.554 44.232 70.8419 46.2929C70.6241 46.9798 70.443 47.6778 70.298 48.3837L70.4799 48.5273C70.6707 48.4243 70.9512 48.3712 71.0428 48.2102C71.4019 47.5705 71.726 46.9119 72.0142 46.2373C72.6311 44.9561 73.3972 43.752 74.2974 42.6497C74.866 41.8407 75.3526 40.9776 75.7511 40.0726C76.35 38.8497 76.8742 37.5919 77.3211 36.3062L77.3197 36.2709ZM84.286 38.6808C84.9315 38.2031 84.5983 37.5374 84.8015 36.802C83.9435 37.2601 83.9146 37.4366 84.2863 38.6986L84.286 38.6808ZM72.3064 54.4152C72.5129 53.5699 72.6739 52.7144 72.7889 51.8523C72.8881 51.9017 73.1028 51.9826 73.4433 52.1209C74.1795 51.2184 74.9562 50.2182 75.6983 49.2281C76.5407 48.0852 77.319 46.883 78.2242 45.7729C79.5428 44.2918 81.1285 43.0699 82.9003 42.1691C85.7466 40.5046 88.6398 38.9178 91.5589 37.3123C92.0438 37.0417 92.5676 36.8667 93.0717 36.6396C95.4469 35.4841 97.6757 34.0527 99.7111 32.3751C99.8028 32.3043 99.8774 32.2137 99.9285 32.1101C99.98 32.0065 100.007 31.8925 100.008 31.7769C99.2599 32.1085 98.4935 32.4144 97.7454 32.7285C94.9028 33.9516 91.9364 34.8692 88.8961 35.4658L88.2477 35.6096C87.1185 35.8923 87.163 35.8998 87.098 37.0437C87.0706 37.519 87.2356 38.1815 86.3362 38.4741C86.3101 37.7371 86.287 37.0875 86.2644 36.4647C85.8252 36.2767 85.5122 36.4188 85.5958 36.7763C85.9211 38.2237 84.9739 38.9046 83.9287 39.5622C82.3008 40.6106 80.7762 41.8102 79.3759 43.1444C79.2561 43.2289 79.1413 43.3206 79.0322 43.419C76.9125 45.8856 74.565 48.1667 72.8363 50.9459C72.5287 51.4498 72.2522 51.9724 72.0089 52.5098C71.8445 52.8577 71.6537 52.9517 71.2973 52.6207C72.0002 50.6048 73.1405 48.7683 74.6379 47.2418C75.6075 46.1916 76.5221 45.099 77.5374 44.0996C78.7157 42.9634 79.9851 41.9034 81.2181 40.8182C81.5757 40.501 81.958 40.2125 82.3619 39.9553C82.7361 39.7534 83.0241 39.4237 83.172 39.0264C83.3203 38.6293 83.319 38.1919 83.1679 37.7947C82.3598 38.2237 81.5747 38.6952 80.8159 39.2061C79.7666 39.9954 78.773 40.862 77.7889 41.7376C77.4093 42.0746 77.0727 42.4574 76.7871 42.8765C76.4508 43.3533 75.9257 43.4844 75.5043 43.7966C74.7877 44.3652 74.1569 45.0335 73.6322 45.781C72.6728 47.1124 71.7854 48.4763 70.9172 49.8921C70.7578 50.2597 70.6499 50.6478 70.5962 51.0445C70.9536 51.402 71.4157 51.7298 71.031 52.3307C70.6462 52.9316 70.3884 52.8875 69.9252 52.5332C69.7146 52.3324 69.5232 52.1123 69.3543 51.8755C68.9044 51.3054 68.3781 50.7994 67.7903 50.3712C68.1003 50.752 68.3402 51.1847 68.4982 51.6486C68.6587 52.5636 69.124 53.3998 69.8195 54.0212C70.0949 54.3113 70.2565 54.6397 69.6744 54.9045C69.0072 54.2761 68.3393 53.6212 67.637 53.0028C66.8642 52.292 66.0563 51.6205 65.2157 50.9905C63.9523 50.0489 62.6386 49.1767 61.2806 48.3768C60.1196 47.7545 58.9198 47.2063 57.6888 46.7362C55.655 45.9236 53.5946 45.112 51.5681 44.2552C50.1957 43.6669 48.8725 42.9632 47.4987 42.3311C46.8606 42.0356 46.1994 41.8109 45.5705 41.5152C44.0436 40.8002 42.5328 41.2799 41.023 41.5394C40.373 41.6483 39.7377 41.9059 39.1677 41.2834L38.3139 42.1016C38.1426 42.0102 37.9734 41.9719 37.899 41.869C37.7431 41.5946 37.5058 41.3745 37.2192 41.2391C36.933 41.1038 36.6119 41.0596 36.2999 41.1124C36.2304 41.1283 36.1588 41.1307 36.0884 41.1193C33.4107 40.3275 30.5855 40.1114 27.9685 39.0453C26.6148 38.4919 25.1956 38.0721 23.826 37.5629C23.3764 37.3697 22.9406 37.1464 22.5218 36.8938C22.5192 36.8238 22.5164 36.7447 22.5839 36.6633C22.7691 36.6575 22.9844 36.5009 23.1451 36.5487C25.3431 37.2592 27.6029 37.7134 29.7077 38.7783C30.2171 38.9932 30.7546 39.1356 31.3034 39.2008C32.7197 39.4536 34.133 39.7009 35.5431 39.9423C35.7472 39.9796 35.9577 39.9289 36.304 39.9878L35.2499 38.4144C35.3093 38.3511 35.3597 38.2791 35.4193 38.2069C35.6315 38.2583 35.8347 38.3436 36.0201 38.4597C36.5127 38.9007 36.9368 39.4052 37.4382 39.8459C37.7467 40.0773 38.0732 40.2839 38.4143 40.4642C38.3778 39.4464 37.179 39.2653 37.3457 38.2412C37.5739 38.2807 37.7926 38.3631 37.9902 38.484C38.5288 38.9759 39.0338 39.5131 39.5644 40.0227C39.9302 40.3798 40.2979 40.7808 41.0074 40.3629L39.8351 38.9423C40.1653 38.554 40.4182 38.7127 40.6463 38.9163C41.0661 39.269 41.4525 39.6593 41.8012 40.0822C42.0419 40.3997 42.2685 40.568 42.6268 40.4508C44.058 39.9741 45.2803 40.5582 46.5222 41.2033C47.0791 41.4751 47.6197 41.7651 48.1675 42.0285L48.311 41.8394L46.2832 38.4701C45.3914 38.2117 44.4844 38.0093 43.5676 37.8642C41.2248 37.5185 38.846 37.5013 36.4999 37.8119C35.0136 38.0369 33.5093 38.1268 32.0054 38.0803C31.9352 38.0909 31.8644 38.0931 31.7936 38.0871C29.4525 37.5744 27.1049 37.1233 24.797 36.5566C23.0146 36.1046 21.3533 35.5875 19.4758 35.9381C18.3703 36.1498 17.2326 36.1866 16.0505 36.4796C16.3108 36.6246 16.5844 36.7451 16.8671 36.8394C18.9509 37.4387 20.9903 38.1829 22.9701 39.0666C24.7622 39.7815 26.6386 40.3887 28.4807 41.0315C28.6871 41.1129 28.9091 41.1496 29.1067 41.2485C30.8031 42.0859 32.6204 42.6527 34.4925 42.9276C35.7988 43.3023 37.083 43.7506 38.3382 44.2703C40.659 44.9596 42.9891 45.6482 45.3479 46.1694C46.4434 46.2915 47.546 46.3383 48.6472 46.3085C49.5329 46.3763 50.4232 46.5762 51.2498 46.7164L54.1722 47.1838C56.6325 47.6619 59.0104 48.4966 61.2293 49.6612C62.7477 50.4012 64.1734 51.3165 65.4777 52.3874C66.27 52.9684 66.9537 53.6837 67.4962 54.5008C67.7523 54.8907 67.9018 55.3399 67.9314 55.8043C67.9256 56.2016 68.0376 56.5923 68.254 56.9272C69.8896 59.4182 71.2685 62.0668 72.3695 64.8316C72.9161 66.0257 73.5475 67.1798 74.259 68.2846C74.4994 68.7376 74.7078 69.2062 74.8834 69.6875C75.5485 71.596 76.4161 73.429 77.4724 75.1554C77.7208 73.7421 77.4494 72.2852 76.7075 71.0513C76.4769 70.7846 76.2714 70.4972 76.0937 70.1928C75.9404 69.8553 75.8834 69.4968 75.3718 69.5134C75.0013 69.5255 74.8246 69.2764 74.7746 68.8653C74.6849 68.3258 74.5478 67.7953 74.3644 67.2797C73.9236 65.8093 73.4736 64.3393 73.0411 62.8685C73.034 62.6669 73.0787 62.4281 73.0179 62.2193C73.0173 61.5969 72.8231 60.9894 72.4613 60.4805C72.2544 60.1389 72.1485 59.7464 72.1558 59.3482C72.1714 58.8186 72.1583 58.2882 72.1169 57.7597C71.8958 56.6519 71.9614 55.5068 72.3071 54.433L72.3064 54.4152ZM86.5784 61.0688C86.1927 63.3742 85.8599 65.6863 85.5183 67.9905C85.5262 68.2095 85.534 68.429 85.4532 68.6426L84.1808 75.2985C84.1549 75.4038 84.1533 75.5137 84.1771 75.6196C84.2008 75.7255 84.2489 75.8243 84.3175 75.909C84.7889 74.5145 85.2421 73.112 85.7219 71.7085C85.9865 70.9534 86.2689 70.2062 86.5779 69.4672C87.0178 68.4251 87.4843 67.3907 87.9419 66.357C88.0326 66.1592 88.076 65.9424 88.0682 65.7247C88.0603 65.507 88.0019 65.294 87.8968 65.1024C87.6563 64.5477 87.4945 63.9644 87.2582 63.2958C88.1408 63.2672 88.0437 64.263 88.8003 64.4229C88.8928 64.0511 89.1436 63.6564 89.0618 63.3427C88.6243 61.7316 88.1088 60.1497 87.5587 58.3493C87.0489 59.1793 86.7155 60.1047 86.5784 61.0688ZM88.145 55.4839L87.8471 55.5462C87.6476 57.6257 88.866 59.3434 89.4425 61.3891C89.6711 61.2484 89.8401 61.0287 89.9171 60.7723C89.9945 60.5159 89.9742 60.2399 89.8607 59.9962C89.2773 58.4986 88.7055 56.9915 88.1447 55.4751L88.145 55.4839ZM84.4512 87.8079C84.4589 87.4068 84.4445 87.0052 84.4079 86.6058C84.3542 85.2542 84.4691 83.9021 84.7501 82.5802C84.9549 81.2169 85.2976 79.8789 85.7734 78.585C86.31 77.2941 86.8996 75.9922 87.4919 74.7783C88.6981 72.4466 90.0212 70.1726 91.2092 67.8237C92.5388 65.2129 93.3773 62.3815 93.6837 59.4685C93.834 57.979 94.2146 56.5261 94.4094 55.0527C94.6966 53.2074 94.9223 51.3642 95.2007 49.5193C95.5727 46.6381 96.5348 43.8657 98.0274 41.3722C98.1048 41.1925 98.1629 41.0049 98.2017 40.8133C96.8863 41.3952 95.726 42.275 94.8137 43.3824C93.6941 44.9211 92.6837 46.5435 91.6811 48.1571C90.6789 49.7709 89.7642 51.3557 88.8234 52.9583C88.6118 53.3011 88.4326 53.6628 88.288 54.0385C88.2185 54.2417 88.2263 54.4633 88.3101 54.6616C89.014 56.0706 89.7699 57.4519 90.4836 58.887C90.6241 58.757 90.7182 58.585 90.7514 58.3967C90.7845 58.2088 90.755 58.0148 90.6671 57.8443C90.3755 57.0983 90.1183 56.325 89.8789 55.5596C89.8307 55.2282 89.8186 54.8927 89.8432 54.5592C90.7471 55.1363 90.5797 56.1431 91.3915 56.6085L92.3561 53.9423C92.9086 54.337 92.6873 54.8099 92.5915 55.1028C92.3103 56.131 91.9665 57.1347 91.6314 58.138C91.2165 59.3814 90.7036 60.6017 90.3869 61.868C89.8697 63.8119 89.1621 65.7 88.2744 67.5056C87.0716 70.1801 86.2326 72.9042 85.2884 75.6402C84.9287 76.7061 84.793 77.8437 84.5234 78.9506C84.3632 79.6587 84.1672 80.3589 84.0164 81.0754C83.9366 81.4284 83.896 81.7888 83.8957 82.1509C83.9781 82.9762 84.008 83.8054 83.9843 84.6339C83.827 86.0876 83.9634 87.5588 84.3861 88.9608C84.3989 88.5735 84.4382 88.186 84.4508 87.7991L84.4512 87.8079ZM81.1582 80.676C81.0087 79.7057 80.78 78.7467 80.6302 77.7677C80.3998 76.2553 80.2043 74.742 79.9822 73.2295C79.935 72.9079 79.8646 72.5903 79.7719 72.2786C79.3093 70.4238 79.2557 68.4927 79.6138 66.6177C79.7213 66.7639 79.8022 66.9279 79.8519 67.102C79.9805 68.2311 80.0734 69.3523 80.1757 70.4825C80.19 70.8861 80.2048 71.2895 80.2802 71.6825C80.798 74.301 81.3531 76.9888 81.8452 79.6435C81.9764 80.3417 82.0458 81.0514 82.142 81.7596C82.1598 82.2684 82.1781 82.7773 82.2579 83.2756L82.5577 83.2658C82.5917 83.0044 82.5727 82.7386 82.5013 82.4845C82.4299 82.2304 82.308 81.9926 82.1427 81.7861L82.1406 81.7244C82.2081 81.6344 82.3373 81.5424 82.3257 81.4636C82.005 78.6718 81.6318 75.8903 81.3553 73.0972C81.1822 71.4599 81.1853 69.817 81.0563 68.1785C80.9323 66.6893 80.7288 65.2024 80.5607 63.7059C80.4677 62.8304 80.3603 62.0521 80.2865 61.22C80.1574 59.8359 80.0724 58.4419 79.944 57.067C79.9034 56.7871 79.7694 56.5287 79.5641 56.3326C79.3429 57.3059 79.1036 58.2715 78.9001 59.2532C78.4188 61.6054 77.9376 63.9576 77.5012 66.3259C77.1308 67.9429 77.2434 69.6336 77.825 71.191C78.4336 72.6472 78.3738 74.1865 78.6134 75.6982C78.6262 76.058 78.7182 76.4151 78.8018 76.7727C79.1394 78.308 79.468 79.8432 79.8494 81.3682C80.0868 82.3268 80.4117 83.2651 80.7129 84.2831C79.962 84.7732 80.25 85.4226 80.6168 86.0431C81.3579 87.2578 82.1341 88.4626 82.9863 89.8231C83.0856 88.6909 82.8836 87.5523 82.4002 86.5215C81.9944 85.6186 81.7054 84.6683 81.5396 83.6943C81.3364 82.7082 81.3085 81.6724 81.1579 80.6669L81.1582 80.676ZM98.7833 77.3646C98.6647 77.6005 98.59 77.8558 98.5629 78.1184C98.7241 79.3509 99.1489 80.5351 99.8088 81.5918C99.976 80.0933 99.1274 78.8382 99.0495 77.4L98.7833 77.3646ZM99.556 76.9881C99.9023 78.0313 100.266 79.0647 100.63 80.0982C100.634 80.2125 100.822 80.2853 100.977 80.4386C101.068 80.2424 101.195 80.1065 101.174 80.0103C100.858 78.5886 100.534 77.185 100.179 75.6504C99.6361 76.0194 99.3582 76.3973 99.555 76.962L99.556 76.9881ZM96.1366 99.2007C97.3834 97.0171 98.3324 94.6587 99.4255 92.3744C99.6116 91.8606 99.8327 91.3606 100.087 90.8768C101.453 88.7948 101.949 86.3716 102.804 84.0864C103.579 82.1231 104.538 80.236 105.667 78.4508C106.582 76.8574 107.551 75.3237 108.466 73.722C108.763 73.1518 109.008 72.5557 109.197 71.9412C109.636 70.6271 109.985 69.2804 110.469 67.982C110.846 66.5474 110.955 65.0549 110.788 63.5795C106.487 66.7847 103.715 71.0208 100.594 74.899L101.96 79.0188C102.091 78.2469 102.023 77.4546 101.763 76.7149C101.649 76.0069 101.527 75.2992 101.394 74.5394C101.857 74.4102 102.006 74.6073 102.099 74.9909C102.259 75.7582 102.49 76.5093 102.788 77.2351C103.002 76.5031 102.955 75.72 102.656 75.0166C102.502 74.6526 102.411 74.3306 102.966 74.0581C103.21 74.6915 103.425 75.2729 103.737 76.106C104.525 74.9034 105.126 73.9443 105.805 72.9296C106.228 73.1444 106.181 73.5674 105.966 73.9521C105.625 74.5518 105.203 75.1011 104.826 75.6843C104.299 76.5095 103.782 77.3523 103.255 78.1775C102.728 79.0028 102.261 79.7818 101.696 80.5293C101.131 81.2769 100.271 82.1654 99.6216 83.0298C99.2947 83.4676 99.0435 83.9566 98.8785 84.4769C98.2221 86.3781 97.6106 88.2954 96.9986 90.2039C96.5076 91.5413 96.2243 92.9453 96.1582 94.3688C96.0561 95.4517 95.7556 96.5064 95.2714 97.4807C94.5313 99.2615 93.6961 101.098 92.868 102.891C92.4702 103.556 92.1971 104.289 92.062 105.052C93.5258 103.01 94.9981 101.206 96.1356 99.1746L96.1366 99.2007ZM89.6662 130.947C89.7791 131.251 89.9952 131.505 90.2767 131.668C90.5583 131.831 90.8878 131.89 91.2083 131.837C91.3306 131.798 91.4427 131.732 91.5367 131.644C91.6306 131.557 91.7041 131.45 91.7521 131.331C91.8 131.213 91.8211 131.085 91.8142 130.957C91.8071 130.829 91.772 130.704 91.7113 130.591C91.5893 130.322 91.3708 130.108 91.0987 129.99C90.8267 129.872 90.5207 129.859 90.2401 129.953C89.7168 130.137 89.5006 130.513 89.6653 130.921L89.6662 130.947ZM88.796 119.441C89.1164 121.24 89.4724 123.047 89.6784 124.859C89.8231 126.189 89.774 127.535 89.7712 128.941L91.5421 129.068C91.573 128.808 91.5814 128.547 91.5672 128.285C91.4221 127.192 91.2245 126.109 91.0794 125.016C90.7428 122.514 90.4061 120.013 90.1136 117.51C90.0403 116.941 90.2042 116.339 90.1479 115.752C90.0467 114.648 89.8572 113.547 89.7292 112.436C89.6748 112.083 89.6829 111.722 89.753 111.372C89.9223 110.673 90.1801 109.979 90.3762 109.288C90.6875 108.467 90.8363 107.595 90.8144 106.717C90.8087 106.133 90.9076 105.553 91.1064 105.003C91.3283 104.19 91.5946 103.39 91.904 102.606C92.3096 101.6 92.7872 100.627 93.2464 99.6372L94.6178 96.7378L93.5247 93.8303C94.405 93.7491 94.2864 94.6313 94.7296 94.9246C95.2301 94.0999 95.2805 94.0283 94.701 92.6415C94.3934 91.9397 94.3702 91.0446 93.5131 90.5363L93.8752 89.7956C94.9753 90.1816 94.5966 91.4502 95.3962 92.0744C95.5155 91.923 95.5941 91.7441 95.6244 91.5537C95.6547 91.3638 95.6358 91.1691 95.5694 90.9881C95.2488 90.1728 94.885 89.3852 94.5998 88.5685C94.5032 88.3484 94.47 88.1062 94.5041 87.869C94.5918 87.5171 94.7064 87.173 94.847 86.8389C95.2262 87.8104 95.6054 88.7818 95.9757 89.7541L96.2817 89.6649C97.0188 88.2972 95.8776 87.2536 95.5075 86.0446C95.6469 85.7412 95.8939 85.7334 96.0882 85.9818C96.4591 86.4702 96.7783 87.0049 97.2184 87.7021C97.6569 86.3789 98.011 85.1639 98.4608 83.9107C97.7588 83.059 97.3854 81.9869 97.4078 80.8877C98.2793 80.5609 97.9968 81.5539 98.4712 81.732C98.5231 80.8435 98.3517 79.9554 97.9727 79.1476C97.2611 79.5048 97.1719 80.2188 96.9799 80.7788C96.4129 82.5481 95.7035 84.2691 94.8586 85.925C94.7773 86.1597 94.7237 86.4031 94.699 86.6505C94.0192 87.3094 93.5542 88.1569 93.364 89.0829C93.1352 89.8859 92.952 90.7013 92.8153 91.5252L92.1786 94.4712C91.3846 96.9651 90.5901 99.4507 89.9385 101.975C89.7743 102.949 89.7178 103.937 89.7699 104.924C89.7837 106.82 89.5877 108.712 89.1854 110.565C89.1006 110.91 88.829 111.217 88.7882 111.561C88.691 112.549 88.1446 113.567 88.3088 114.458C88.6056 116.091 88.5067 117.772 88.795 119.415L88.796 119.441ZM82.7006 104.327C83.907 105.711 85.0449 107.15 86.2009 108.606C86.4689 108.94 86.6944 109.319 87.067 109.86C87.0909 109.618 87.0822 109.373 87.041 109.132C86.576 107.55 85.7868 106.08 84.723 104.815C84.0996 104.074 83.5285 103.291 83.0142 102.472C81.0447 99.9597 78.9122 97.5787 76.63 95.3435C76.5271 95.2402 76.4172 95.1442 76.302 95.0555L76.084 95.1326C76.1234 95.3605 76.1816 95.585 76.2581 95.8034C76.7522 96.7801 77.2109 97.758 77.7751 98.7146C77.9525 99.0254 78.1673 99.3135 78.4151 99.5725C79.8496 101.16 81.3001 102.703 82.6996 104.3L82.7006 104.327ZM77.8006 101.165C78.4798 101.63 79.1912 102.048 79.9296 102.414L80.0815 102.206C79.8172 101.987 79.5794 101.748 79.3071 101.546C79.0348 101.345 78.7956 101.326 78.6652 101.137C76.7974 98.2983 74.0746 96.2432 71.6517 93.9408C70.4817 92.8365 69.167 91.8865 68.0072 90.8085C66.8469 89.7303 65.7389 88.6241 64.6132 87.5277C64.1187 87.0427 63.6072 86.5585 63.1469 86.0465C62.9523 85.7761 62.7853 85.4873 62.6484 85.1842C62.5225 84.8701 62.3449 84.579 62.1228 84.3227C61.3145 83.5438 60.6376 82.64 60.1196 81.6465C59.5553 80.9306 58.9408 80.2549 58.281 79.6245C57.7855 79.0824 57.3365 78.5005 56.9382 77.8845C56.7731 77.5066 56.7304 77.0871 56.8159 76.6847C55.4113 74.7861 54.0071 72.8958 52.6036 71.0146L52.4223 71.1347C53.0071 72.1788 53.5919 73.2228 54.1857 74.2576L58.1147 81.1581C59.0531 82.7318 60.163 84.1985 61.424 85.5309C63.6761 87.9971 65.9103 90.4634 68.2139 92.8836C71.2114 95.8547 74.4146 98.6133 77.7999 101.138L77.8006 101.165ZM36.6498 86.5087C36.5878 86.3353 36.5106 86.1671 36.4201 86.0067C35.7801 85.1488 35.1116 84.2393 34.4957 83.3191C34.0946 82.7175 33.7793 82.0512 33.421 81.4127L32.697 80.1886C32.5412 79.9732 32.3977 79.7489 32.2668 79.5176C30.4179 75.721 28.1867 72.1122 26.6939 68.1462C26.3129 67.3142 25.8797 66.5068 25.3975 65.7282C24.4525 64.0021 23.6249 62.3421 22.7087 60.6762C22.3584 60.0454 21.9186 59.468 21.4023 58.9619L21.0652 59.166C21.1623 59.4176 21.2333 59.6699 21.3476 59.9035C22.0993 61.3376 22.8516 62.7774 23.6038 64.2227C24.0761 65.0857 24.6042 66.0176 25.0524 66.943C25.6145 68.0932 26.0812 69.2902 26.651 70.405C27.4025 71.9182 28.1974 73.4033 29.0012 74.8794C30.0787 76.8649 31.2696 78.803 32.2695 80.8264C33.2355 82.7564 34.4678 84.544 35.93 86.1365C36.0207 86.2414 36.1321 86.3261 36.2574 86.3856C36.3827 86.445 36.519 86.478 36.6579 86.4819L36.6498 86.5087ZM92.5599 94.0197L92.1601 94.4454C92.2177 94.5755 92.2842 94.7048 92.4561 95.0685C92.5715 94.5902 92.6421 94.342 92.7036 94.0851L92.5599 94.0197Z" fill="#00063F"/>
</svg>
