<svg width="231" height="354" viewBox="0 0 231 354" fill="none" xmlns="http://www.w3.org/2000/svg">
<g opacity="0.07">
<path d="M225.356 221.466C223.163 222.552 220.907 223.504 218.6 224.318C209.412 227.366 200.24 230.282 190.945 233.232C188.426 233.976 185.824 234.404 183.2 234.506C178.861 234.824 174.581 235.691 170.461 237.086C164.417 238.968 158.411 240.952 152.352 242.807C148.66 243.794 144.809 244.026 141.025 243.49C135.423 243.136 129.801 243.201 124.208 243.685C120.964 243.871 117.701 243.894 114.449 244.034C108.781 244.182 103.199 245.438 98.0146 247.732C92.088 250.53 87.4874 254.755 82.4665 258.563C82.2868 258.715 82.3261 259.044 81.8872 259.775C83.2741 259.206 84.2427 258.832 85.1845 258.473C90.3696 255.889 95.8491 253.944 101.504 252.683C105.517 251.951 109.561 251.5 113.576 250.837C116.779 250.322 119.963 249.642 123.132 249.094C128.063 247.914 133.172 247.683 138.19 248.411C141.611 248.771 145.054 248.865 148.49 248.694C155.704 249.008 162.931 249.28 170.148 249.819C172.315 250.096 174.425 250.711 176.403 251.64C177.321 251.907 177.887 253.067 178.781 253.961C178.043 254.628 177.623 255.297 177.013 255.527C171.434 258.064 165.575 259.934 159.558 261.1C155.364 261.755 151.291 263.081 147.128 264.018C144.491 264.608 141.798 265 139.167 265.568C135.724 266.286 132.292 267.118 128.858 267.883C126.998 268.013 125.173 268.453 123.458 269.184C121.906 270.077 120.199 270.67 118.426 270.931C116.52 271.368 114.722 272.185 113.14 273.333C111.558 274.481 110.225 275.938 109.22 277.615C108.583 278.594 107.842 279.501 107.008 280.319C103.721 283.565 100.092 286.445 96.1847 288.908C93.413 290.657 90.9748 292.82 88.3105 294.668C86.4661 295.978 84.534 297.161 82.5295 298.21C77.6821 300.644 72.751 302.895 67.9429 305.273C64.5732 307.007 61.2562 308.846 57.9909 310.79C54.173 313.219 50.1177 315.253 45.8878 316.857C40.6945 318.693 35.5651 320.774 30.2881 322.428C27.3625 323.354 24.3306 323.9 21.2656 324.053C17.9847 324.248 14.9032 325.69 12.6509 328.083C8.83855 331.7 4.90444 335.192 1.23449 338.941C-2.06452 342.505 -5.13427 346.135 -8.45414 349.693C-9.80592 351.016 -11.2571 352.234 -12.7947 353.337C-13.2151 353.695 -13.7433 353.904 -14.2954 353.928C-14.8475 353.951 -15.3916 353.789 -15.8411 353.468C-16.6085 352.996 -17.4028 352.539 -18.164 352.045C-21.4557 349.912 -21.1204 346.662 -18.6878 343.977C-13.7184 338.638 -8.42894 333.753 -3.37076 328.576C-1.72538 326.778 -0.17378 324.898 1.27797 322.94C1.51497 322.669 1.63032 322.274 1.89076 322.078C5.23035 319.386 7.02382 315.633 9.30832 312.136C10.6625 309.702 11.4509 306.993 11.6151 304.212C12.1366 300.09 12.6581 295.966 13.4151 291.889C14.2247 286.642 15.3442 281.447 16.7672 276.331C19.8405 266.077 24.5268 256.377 30.6496 247.597C33.5152 243.66 36.9396 240.132 40.0304 236.35C42.3808 233.483 44.6238 230.517 46.8668 227.551C49.1098 224.585 51.3177 221.586 53.6113 218.68C54.1028 218.077 54.9785 217.789 56.0949 217.14C56.226 218.011 56.258 218.893 56.1889 219.77C55.5372 222.475 54.8164 225.183 54.0398 227.852C52.3772 233.565 50.8334 239.336 48.8423 244.932C46.1894 252.415 43.1037 259.75 40.2835 267.185C39.541 269.117 39.1248 271.167 38.5424 273.17C38.0384 274.713 37.3568 276.191 36.5121 277.577C34.296 281.001 32.402 284.621 30.854 288.392C29.3195 291.753 27.6104 295.031 25.734 298.212C25.6121 298.628 25.3663 299.01 25.0369 299.751C26.4001 299.396 27.5742 298.531 28.3188 297.336C30.7921 293.198 34.1896 289.689 38.246 287.084C39.9706 285.783 41.3513 284.081 42.2683 282.125C43.7688 279.53 45.4448 277.04 47.2871 274.674C50.3108 270.737 53.5039 266.917 56.6546 263.083C57.9155 261.551 59.3179 260.15 60.5994 258.622C62.9839 255.998 64.7457 252.869 65.7525 249.469C66.7098 246.332 68.2743 243.414 70.3562 240.88C75.9534 233.461 81.4307 226.144 87.3759 219.009C90.2622 215.46 93.8281 212.382 96.8931 208.999C99.9591 205.617 103.186 201.987 106.529 198.663C110.376 194.851 114.4 191.206 118.439 187.586C121.538 184.71 124.851 182.033 128.112 179.296C128.532 179.025 128.983 178.807 129.456 178.646C129.677 178.858 129.853 179.112 129.976 179.393C130.099 179.674 130.165 179.976 130.17 180.282C130.175 180.589 130.121 180.893 130.008 181.178C129.895 181.463 129.727 181.724 129.514 181.942C128.065 184.122 126.652 186.334 125.212 188.562C121.136 194.794 117.241 201.102 113.193 207.32C107.487 216.041 101.69 224.69 95.9492 233.378C94.1678 236.032 92.53 238.779 91.0429 241.609C92.4102 240.718 93.8085 239.88 95.1375 238.888C99.7103 235.378 104.167 231.722 108.79 228.273C112.67 225.353 116.753 222.674 120.705 219.82C121.922 218.815 123.016 217.668 123.962 216.403C127.435 211.984 130.474 207.241 133.037 202.24C134.813 198.665 135.937 194.802 136.357 190.834C136.967 187.03 137.153 183.126 138.019 179.375C138.881 174.833 140.36 170.432 142.416 166.292C142.561 165.791 142.9 165.325 143.115 164.822C144.437 161.678 145.562 158.431 147.108 155.376C148.955 151.718 149.929 147.681 149.952 143.582C150.188 139.234 151.465 135.006 153.677 131.254C153.788 131.003 153.94 130.772 154.125 130.571C157.352 127.257 159.796 123.287 163.394 120.33C164.16 119.717 164.791 118.95 165.507 118.276C166.223 117.603 167.155 117.512 167.671 118.612C168.022 119.404 168.189 120.264 168.16 121.13C168.009 123.823 167.831 126.531 167.46 129.204C167.089 131.878 166.386 134.682 165.866 137.403C165.514 138.612 165.563 139.916 165.254 141.138C164.893 143.287 164.282 145.386 163.433 147.393C161.953 150.406 160.933 153.624 160.405 156.939C159.834 160.144 159.272 163.395 158.892 166.564C158.669 168.264 158.867 169.994 158.727 171.718C158.545 174.13 158.226 176.549 157.969 178.984C157.878 179.297 157.912 179.647 157.831 180.391C159.722 179.02 161.419 177.399 162.875 175.572C165.964 172.264 168.997 168.917 172.178 165.682C175.035 162.781 178.035 160.012 180.958 157.199C181.37 156.716 181.837 156.282 182.351 155.908C185.27 153.78 187.972 151.37 190.417 148.712C194.355 145.13 198.343 141.609 202.316 138.061C206.289 134.512 209.999 131.25 213.839 127.844C217.051 128.779 217.499 129.882 215.818 132.627C214.732 134.414 213.456 136.079 212.412 137.878C210.615 141.019 208.763 144.121 207.198 147.398C205.04 152.099 202.099 156.397 198.499 160.112C194.668 163.949 191.237 168.198 187.563 172.195C184.791 175.189 181.878 178.049 179.065 181.031C177.652 182.542 176.304 184.14 174.963 185.718C172.641 188.318 170.513 191.086 168.595 193.997C169.395 193.771 170.179 193.493 170.941 193.165C175.87 190.686 180.748 188.148 185.655 185.663C187.435 184.757 189.297 184.032 190.943 183.04C195.318 180.673 199.644 178.245 203.954 175.791C211.69 171.438 219.377 167.025 227.141 162.726C228.236 162.334 229.384 162.111 230.546 162.065C230.857 163.195 230.909 164.381 230.699 165.533C230.488 166.686 230.021 167.776 229.332 168.724C226.152 174.329 221.664 179.084 216.251 182.582C211.701 185.781 207.337 189.351 202.919 192.792C196.786 197.543 191.186 202.948 184.28 206.705C183.456 207.212 182.578 207.624 181.661 207.933C175.93 209.891 170.408 212.413 165.175 215.461C163.958 216.047 162.654 216.431 161.315 216.6C157.22 217.17 153.22 218.289 149.423 219.924C146.235 221.18 142.983 222.265 139.678 223.172C134.732 224.325 130.101 226.562 126.123 229.722C125.726 230.081 125.128 230.269 124.798 231.009C126.582 230.556 128.395 230.156 130.166 229.586C136.602 227.524 143.032 225.43 149.457 223.305C152.597 222.463 155.649 221.322 158.569 219.895C160.503 218.864 162.671 218.35 164.862 218.401C168.46 218.318 171.967 217.304 175.59 217.136C181.088 216.736 186.605 216.673 192.111 216.946C196.974 217.377 201.873 217.128 206.666 216.207C210.057 215.645 213.506 215.523 216.927 215.846C219.151 215.973 221.401 216.018 223.571 216.333C224.616 216.534 225.579 217.042 226.335 217.793C226.615 218.062 226.817 218.401 226.922 218.775C227.027 219.149 227.029 219.543 226.929 219.918C226.829 220.293 226.63 220.635 226.353 220.908C226.078 221.179 225.733 221.372 225.356 221.466ZM68.1886 206.909C72.1676 204.959 75.9327 202.598 79.4222 199.865C80.9464 198.589 82.4479 197.24 84.0259 196.093C88.2805 193.055 92.2873 189.683 96.0081 186.01C102.413 180.102 107.99 173.357 112.589 165.957C113.103 165.119 113.444 164.188 113.59 163.217C113.573 162.456 113.416 161.704 113.127 161.001C112.392 161.194 111.518 161.166 110.963 161.592C107.122 164.455 103.21 167.251 99.6204 170.415C97.9051 172.025 95.9967 173.414 93.9376 174.55C90.3015 176.319 87.3201 179.025 83.272 180.108C83.0273 180.173 82.8238 180.408 82.6018 180.547C79.5337 182.617 76.5255 184.795 73.3479 186.697C69.0003 189.277 64.4989 191.608 60.0748 194.143C57.9423 195.331 55.7737 196.487 53.7713 197.85C51.233 199.739 48.4912 201.337 45.5976 202.618C43.5075 203.484 41.4741 204.479 39.5059 205.595C36.1796 207.386 32.8771 209.252 29.5683 211.138C27.5123 212.263 25.5151 213.493 23.587 214.826C20.4435 217.077 17.4364 219.483 14.3435 221.794C14.3435 221.794 14.0306 221.703 13.6764 221.6C13.8468 221.1 14.0626 220.617 14.3218 220.159C17.2701 215.702 20.2608 211.257 23.1998 206.91C26.5942 201.521 31.5026 197.253 37.3114 194.641C41.2779 192.901 45.1009 190.802 49.1222 189.032C53.1435 187.263 57.7234 185.904 61.8913 184.018C66.0582 182.132 70.5876 179.628 74.9062 177.38C77.0625 176.266 79.1568 174.976 81.3812 174.017C86.6365 171.737 91.6853 169.007 96.4687 165.855C97.8845 164.847 99.2115 163.721 100.435 162.486C102.014 161.023 103.422 159.374 105.007 157.891C109.026 154.107 113.08 150.357 117.13 146.627C118.332 145.529 119.604 144.497 120.735 143.334C123.364 140.593 125.944 137.793 128.517 135.013C131.09 132.234 133.585 129.568 136.048 126.779C136.897 125.805 137.888 124.735 137.348 123.244C134.898 122.26 134.883 122.233 133.097 123.477C132.052 124.191 131.087 125.018 130.167 125.768C127.329 127.747 124.626 129.809 121.785 131.72C119.496 133.334 117.101 134.791 114.613 136.078C109 138.809 103.237 141.203 97.6304 143.914C91.0461 147.109 84.5432 150.487 78.0332 153.816C74.899 155.415 71.7493 156.987 68.7277 158.821C64.0042 161.683 59.3674 164.662 54.8174 167.755C51.3755 170.101 48.1391 172.597 44.8025 175.199C43.24 176.372 41.7148 177.648 40.1812 178.875L39.7062 178.488C40.3051 177.441 40.9599 176.433 41.502 175.347C44.7508 168.85 48.9384 162.867 53.9314 157.59C54.6656 156.788 55.3555 155.947 55.9999 155.071C59.2064 150.893 62.3292 146.69 65.5512 142.538C68.5707 138.691 71.6626 134.908 74.774 131.131C75.8904 129.783 76.6752 128.021 78.8036 127.781C79.1588 127.726 79.4686 127.205 79.7857 126.891C81.1581 125.209 82.6844 123.617 84.3419 122.042C85.5191 120.778 86.8275 119.642 88.2454 118.654C93.7599 115.168 99.9901 112.969 106.471 112.221C109.672 111.795 112.843 110.999 116.026 110.478C117.674 109.997 119.401 109.847 121.108 110.035C124.035 110.548 127.014 110.804 129.993 111.06C133.532 111.045 137.046 111.647 140.377 112.839C140.692 113.011 141.041 113.112 141.399 113.137C145.655 113.2 149.93 113.358 154.151 113.23C160.361 112.956 166.589 112.461 172.805 112.009C177.752 111.64 182.71 111.16 187.649 110.743C188.643 110.671 189.639 110.667 190.631 110.525C194.938 109.947 199.202 109.13 203.52 108.826C205.967 108.656 208.543 107.733 210.963 109.206C211.319 109.31 211.865 109.22 212.309 109.168C214.54 108.889 216.79 108.618 219.023 108.25C219.821 108.225 220.596 107.982 221.263 107.545C222.074 106.828 223.114 106.425 224.196 106.408C224.79 106.31 225.311 105.76 225.884 105.429C225.57 104.816 225.17 104.251 224.698 103.75C224.217 103.505 223.693 103.353 223.155 103.3C219.673 102.286 216.211 101.28 212.729 100.265C211.016 99.461 209.258 98.7536 207.466 98.1453C203.939 97.3894 200.328 97.0982 196.725 97.281C188.762 97.6166 180.792 96.8194 173.053 94.9141C172.616 94.787 172.178 94.659 171.776 94.407C168.023 93.1564 164.303 91.6436 160.465 90.6842C150.833 88.5135 140.878 88.1789 131.121 89.698L130.307 89.7775C124.275 90.4415 118.331 91.7437 112.574 93.6635C112.003 93.8359 111.445 93.9681 110.444 94.2191C110.697 93.7027 110.985 93.205 111.308 92.7289C114.134 89.5482 116.945 86.3407 119.821 83.2189C122.698 80.0981 126.219 76.7801 129.037 73.236C132.271 69.004 134.805 64.2816 136.547 59.2493C136.89 58.2229 137.358 57.2424 137.939 56.3297C140.593 52.4201 143.211 48.4775 146.049 44.7119C149.146 40.4832 151.582 35.8078 153.273 30.8464C153.569 29.8011 153.97 28.7885 154.47 27.8244C157.583 22.5133 161.184 17.5038 165.227 12.8606C167.879 9.81019 170.124 6.36981 172.596 3.08566C172.763 2.8845 172.887 2.65111 172.961 2.39986C173.034 2.14871 173.056 1.88507 173.023 1.62535C172.991 1.36563 172.905 1.11541 172.772 0.890077C172.638 0.664746 172.46 0.469261 172.248 0.315701C171.374 -0.41358 170.584 0.283582 169.853 0.772144C168.324 1.75195 166.816 2.73786 165.234 3.5892C161.498 5.62307 157.563 7.32783 154.023 9.62224C149.866 12.3252 146.023 15.5041 142.065 18.5362C138.612 21.0172 135.383 23.7929 132.411 26.8321C129.586 30.012 127.104 33.4826 125.01 37.1857C120.618 44.5024 116.037 51.6958 111.476 58.8951C109.921 61.3611 108.162 63.6754 106.398 66.2385C106.486 64.7711 106.579 63.441 106.665 62.1326C106.688 57.0621 107.395 52.0182 108.768 47.1375C109.535 44.6161 110.061 42.0276 110.34 39.407C110.381 38.9816 110.329 38.5525 110.189 38.1487C110.049 37.7449 109.823 37.376 109.528 37.0673C108.699 36.4188 107.843 37.1871 107.216 37.8642C106.696 38.3806 106.235 38.9515 105.837 39.5668C103.366 44.0948 100.817 48.5778 98.4824 53.2586C97.1864 55.8445 96.4449 58.7051 95.2615 61.3684C93.4852 65.3752 91.5572 69.2023 89.59 73.0852C89.4991 73.3981 89.2678 73.647 88.895 74.3079L88.4013 72.7392C87.8086 69.7207 86.8998 66.7724 85.6916 63.9439C85.4179 63.2819 85.2785 62.5725 85.2806 61.8558C85.1711 60.6031 85.2992 59.3061 85.0875 58.0905C84.4637 53.2321 84.3388 48.3225 84.7157 43.4386C84.8386 39.8555 84.8902 36.2591 84.8706 32.6494C84.9398 26.1204 85.9663 19.6368 87.916 13.4055C88.5232 11.3204 88.9342 8.97465 91.0378 7.73222C90.3573 5.40796 89.7934 4.8592 88.7184 5.67729C85.7721 7.80038 83.2493 10.4572 81.281 13.5099C79.0174 17.5413 77.458 21.9289 76.668 26.4845C76.0597 29.3288 74.8401 32.0069 73.0939 34.3332C70.2509 37.9936 68.4695 42.3659 67.9449 46.9711C67.5308 52.279 67.1167 57.5869 67.1229 62.9267C67.0506 67.2939 67.4317 71.657 67.5969 76.2968C65.0627 73.1162 62.702 70.3475 60.4724 67.4374C56.1723 61.7742 50.1208 58.4748 44.0187 55.2739C38.847 52.8499 33.9376 49.905 29.3639 46.4847C26.4641 44.1704 23.3536 42.1115 20.2979 40.0231C19.6969 39.5995 18.437 39.1876 18.2119 39.4161C17.6315 40.1495 17.2722 41.0337 17.1761 41.9646C17.1348 42.688 17.2567 43.4114 17.5334 44.0813C18.2047 46.0578 19.3468 47.8416 20.8607 49.2795C23.6232 52.1421 26.4971 55.0141 29.1635 58.0522C33.7455 63.4151 38.8666 68.2935 44.4452 72.6112C49.6747 76.5643 54.1596 81.4158 57.6914 86.9386C60.9216 92.2786 63.5622 97.9543 65.5666 103.865C66.8224 106.677 67.6774 109.651 68.106 112.702C68.1917 114.038 68.6957 115.338 68.8919 116.685C69.0199 117.472 68.9776 118.277 68.77 119.047C66.2121 127.056 60.9216 133.342 55.4081 140.242C55.3927 138.97 55.3668 138.285 55.403 137.617C55.6312 133.566 55.908 129.508 56.0959 125.446C56.3086 120.984 56.4377 116.498 56.5875 112.176C56.6319 111.172 56.8064 110.182 56.7548 109.194C56.6773 107.362 55.8914 106.952 54.33 107.81C53.8188 108.091 53.2251 108.189 52.7066 108.491C52.1893 108.792 51.3579 109.161 51.1111 109.7C50.1704 111.688 49.3607 113.85 48.5831 115.976C47.8055 118.102 47.4782 119.771 46.6613 121.569C43.2163 129.364 39.699 137.094 36.1971 144.851C35.9854 145.581 35.3885 146.154 34.6842 147.328L34.5882 145.717C34.3393 139.967 35.7954 134.42 36.2921 128.752C36.7589 125.061 36.9654 121.341 36.9076 117.622C36.7207 114.56 36.7682 111.489 37.0491 108.434C37.5128 105.287 37.3465 102.079 36.5617 98.9963C35.6477 96.1522 34.7823 93.2989 33.8354 90.49C32.2957 85.8347 30.7497 81.2 29.1284 76.5891C27.7766 72.3437 25.292 68.5476 21.943 65.6086C21.2304 65.0643 20.6604 64.3549 20.2824 63.5422C19.8714 62.6272 19.225 61.8382 18.4092 61.2548C17.5933 60.6723 16.6381 60.3161 15.6395 60.2221C13.8664 59.7068 12.6344 61.0668 13.159 62.9164C13.5896 64.2878 14.1679 65.6096 14.8846 66.856C16.1827 68.8099 17.0822 71.0012 17.5314 73.3041C17.7926 75.2796 18.0549 77.2562 18.0684 79.2276C18.2326 81.2372 18.2574 83.254 18.1438 85.2667C17.6305 90.6811 16.9231 96.0624 16.4378 101.462C15.9514 106.862 15.7128 111.723 15.2543 116.951C14.4695 125.17 15.117 133.462 17.1668 141.46C17.8422 144.191 18.3751 146.946 19.0773 149.662C19.4811 151.226 20.1781 152.719 20.6831 154.246C21.9368 157.156 22.5636 160.297 22.5234 163.467C22.3127 165.543 22.2941 167.636 22.4686 169.715C22.8043 172.32 22.7227 174.96 22.227 177.539C21.9502 179.939 21.4494 182.307 20.7327 184.614C18.8821 189.339 17.3176 194.17 16.0464 199.083C15.5435 200.418 14.8918 201.693 14.1039 202.882C13.6733 203.662 13.0258 204.333 12.5322 205.094C10.0881 208.907 7.68567 212.731 5.26237 216.549C5.03642 216.804 4.79301 217.043 4.53392 217.264C4.34421 216.627 4.20872 215.975 4.1289 215.315C3.91833 211.453 3.62433 207.567 3.59883 203.693C3.55359 197.165 3.70819 190.651 3.74629 184.148C3.75837 182.791 3.65335 181.436 3.43225 180.098C2.57285 174.736 1.35821 169.429 0.847961 164.034C0.614161 160.214 -0.18865 156.451 -1.53403 152.867C-4.46706 145.772 -7.65712 138.78 -10.7457 131.752C-11.3563 130.353 -11.8262 128.859 -12.5713 127.534C-14.7538 123.687 -17.1214 119.853 -19.3072 116.096C-20.7097 113.766 -22.172 111.486 -23.6405 109.226C-24.3125 108.193 -25.3646 108 -25.8046 108.889C-26.8832 111.041 -28.8576 112.773 -28.7189 115.483C-28.8087 116.747 -28.9784 118.005 -29.2268 119.248C-29.7556 123.245 -30.0138 127.273 -29.9994 131.305C-29.5553 135.88 -28.8064 140.42 -27.7579 144.895C-26.9104 149.055 -25.6208 153.094 -24.8063 157.29C-23.5827 164.431 -22.5052 171.531 -21.6492 178.769C-21.3163 183.396 -20.7237 188.001 -19.8739 192.563C-19.1608 195.552 -18.836 198.633 -18.1647 201.61C-17.6378 204.827 -16.7653 207.977 -15.5622 211.007C-13.1167 216.467 -11.1951 222.146 -9.82317 227.968C-8.03342 234.581 -8.69217 241.619 -11.6784 247.785C-12.1584 248.76 -12.5788 249.763 -12.9372 250.788C-15.0914 257.49 -17.1891 264.231 -19.3641 270.926C-20.8305 275.497 -22.4369 280.006 -23.9451 284.565C-24.2926 285.646 -24.2464 286.814 -23.8147 287.863C-23.383 288.911 -22.5939 289.773 -21.587 290.296C-17.0413 291.62 -11.5783 289.636 -10.8792 284.591C-10.585 282.415 -10.1441 280.124 -9.70049 277.9C-9.37881 275.746 -8.87424 273.623 -8.19246 271.554C-6.775 267.849 -5.00921 264.27 -3.43107 260.635C-2.74299 259.049 -2.12358 257.465 -1.45647 255.872C0.861696 250.395 2.55509 244.577 7.52095 240.571C9.68866 238.282 12.0602 236.193 14.6068 234.333C19.953 231.33 25.4861 228.671 31.1731 226.376C36.9365 223.982 42.6111 221.373 48.1969 218.552C53.5638 216.142 58.7117 213.274 63.5849 209.98C65.0359 208.836 66.5745 207.809 68.1886 206.909Z" fill="white"/>
<path d="M226.335 217.793C225.579 217.042 224.616 216.534 223.571 216.333C221.401 216.018 219.151 215.973 216.927 215.846C213.506 215.523 210.057 215.645 206.666 216.207C201.873 217.128 196.974 217.377 192.111 216.946C186.605 216.673 181.088 216.736 175.59 217.136C172.008 217.315 168.46 218.318 164.862 218.401C162.677 218.356 160.518 218.872 158.59 219.901C155.669 221.328 152.618 222.469 149.477 223.31C143.04 225.432 136.609 227.526 130.188 229.593C128.416 230.163 126.602 230.562 124.82 231.016C125.044 230.244 125.746 230.086 126.145 229.728C130.123 226.568 134.752 224.331 139.7 223.179C143.003 222.271 146.256 221.186 149.443 219.93C153.24 218.295 157.241 217.177 161.336 216.607C162.675 216.437 163.978 216.053 165.196 215.467C170.371 212.382 175.839 209.814 181.518 207.802C182.435 207.492 183.313 207.08 184.137 206.574C191.033 202.857 196.643 197.412 202.776 192.66C207.194 189.219 211.587 185.702 216.108 182.449C221.521 178.952 226.01 174.197 229.189 168.592C229.879 167.645 230.346 166.554 230.556 165.401C230.766 164.248 230.714 163.063 230.404 161.933C229.242 161.98 228.093 162.202 226.999 162.594C219.234 166.893 211.548 171.306 203.812 175.659C199.502 178.113 195.176 180.541 190.8 182.909C189.07 183.876 187.208 184.601 185.513 185.531C180.606 188.016 175.727 190.554 170.798 193.032C170.036 193.361 169.252 193.64 168.453 193.866C170.371 190.954 172.499 188.186 174.82 185.586C176.162 184.009 177.51 182.41 178.922 180.898C181.723 177.959 184.636 175.098 187.42 172.063C191.094 168.066 194.525 163.817 198.356 159.979C201.956 156.266 204.897 151.967 207.056 147.266C208.62 143.989 210.473 140.887 212.27 137.747C213.314 135.947 214.589 134.282 215.675 132.494C217.357 129.75 216.779 128.699 213.697 127.712C209.856 131.118 206.015 134.524 202.173 137.928C198.333 141.334 194.212 144.998 190.275 148.58C187.829 151.238 185.128 153.649 182.208 155.776C181.695 156.15 181.227 156.584 180.815 157.067C177.893 159.88 174.893 162.649 172.035 165.55C168.834 168.779 165.822 172.132 162.733 175.44C161.328 177.312 159.678 178.984 157.825 180.413C157.906 179.667 157.935 179.336 157.963 179.005C158.22 176.569 158.539 174.152 158.721 171.74C158.86 170.016 158.663 168.284 158.887 166.585C159.285 163.353 159.853 160.081 160.399 156.96C160.927 153.645 161.947 150.428 163.427 147.415C164.276 145.407 164.887 143.308 165.247 141.159C165.6 139.949 165.612 138.664 165.86 137.423C166.38 134.703 167.059 131.982 167.454 129.225C167.85 126.468 168.003 123.844 168.153 121.15C168.151 120.304 167.962 119.469 167.599 118.704C167.103 117.61 166.331 117.543 165.434 118.368C164.539 119.193 164.089 119.809 163.322 120.422C159.794 123.218 157.289 127.239 154.092 130.606C153.907 130.808 153.755 131.038 153.644 131.289C151.432 135.041 150.155 139.27 149.92 143.619C149.871 147.7 148.88 151.716 147.025 155.352C145.48 158.408 144.353 161.653 143.031 164.797C142.88 165.318 142.582 165.797 142.332 166.267C140.276 170.407 138.797 174.81 137.936 179.35C137.07 183.102 136.884 187.006 136.274 190.809C135.853 194.779 134.73 198.641 132.954 202.215C130.39 207.216 127.351 211.959 123.878 216.379C122.932 217.643 121.839 218.791 120.621 219.796C116.669 222.65 112.587 225.329 108.707 228.248C104.084 231.697 99.6266 235.354 95.0539 238.863C93.7661 239.868 92.2646 240.675 90.9593 241.584C92.4464 238.755 94.0842 236.008 95.8656 233.355C101.606 224.666 107.404 216.017 113.109 207.296C117.179 201.084 121.115 194.788 125.129 188.537C126.568 186.311 127.981 184.098 129.43 181.919C129.644 181.699 129.812 181.438 129.924 181.153C130.037 180.869 130.093 180.565 130.087 180.258C130.081 179.951 130.015 179.65 129.893 179.369C129.77 179.088 129.593 178.834 129.372 178.622C128.899 178.783 128.449 179.001 128.03 179.272C124.767 182.009 121.496 184.699 118.355 187.561C114.317 191.181 110.292 194.827 106.445 198.639C103.208 201.993 100.046 205.552 96.8094 208.975C93.5741 212.398 90.1796 215.437 87.2923 218.984C81.4514 226.151 75.8511 233.5 70.2726 240.855C68.1907 243.39 66.6272 246.309 65.6689 249.445C64.662 252.844 62.9003 255.973 60.5158 258.599C59.2353 260.125 57.8318 261.526 56.5709 263.06C53.4202 266.892 50.2272 270.713 47.2035 274.651C45.389 277.026 43.7409 279.524 42.2683 282.125C41.2872 284.057 39.8487 285.72 38.0766 286.967C34.0202 289.572 30.6217 293.081 28.1494 297.219C27.4049 298.415 26.2307 299.279 24.8676 299.633C25.0917 298.862 25.3591 298.487 25.5646 298.095C27.441 294.913 29.1501 291.636 30.6847 288.276C32.2327 284.503 34.1266 280.883 36.3427 277.461C37.1875 276.075 37.868 274.595 38.373 273.052C39.1041 271.003 39.4129 269.012 40.1141 267.068C42.9344 259.633 46.02 252.298 48.673 244.814C50.663 239.219 52.1862 233.442 53.8705 227.735C54.6471 225.066 55.4309 222.376 56.0195 219.652C56.0887 218.775 56.0567 217.893 55.9255 217.024C54.7916 217.734 53.9159 218.022 53.4419 218.562C51.1483 221.468 48.9611 224.474 46.6975 227.434C44.4338 230.394 42.2115 233.366 39.8611 236.233C36.7703 240.015 33.3459 243.542 30.4802 247.481C24.4307 256.296 19.8229 266.017 16.8271 276.281C15.404 281.396 14.2846 286.591 13.475 291.839C12.718 295.916 12.1965 300.039 11.675 304.163C11.5108 306.944 10.7224 309.651 9.36822 312.085C7.1463 315.601 5.35273 319.353 1.95077 322.028C1.69022 322.223 1.57487 322.62 1.33787 322.889C-0.113878 324.847 -1.66549 326.728 -3.31086 328.526C-8.36905 333.704 -13.6766 338.65 -18.6279 343.926C-21.15 346.608 -21.4079 349.902 -18.1041 351.995C-17.3428 352.488 -16.5486 352.946 -15.7812 353.417C-15.3317 353.739 -14.7876 353.901 -14.2355 353.877C-13.6834 353.853 -13.1552 353.646 -12.7348 353.286C-11.1972 352.184 -9.74603 350.966 -8.39425 349.642C-5.09524 346.078 -2.08807 342.43 1.29439 338.891C4.96434 335.141 8.89845 331.65 12.7108 328.032C14.9631 325.639 18.0446 324.198 21.3255 324.003C24.3905 323.851 27.4224 323.303 30.348 322.377C35.625 320.724 40.7595 318.622 45.9477 316.808C50.1848 315.205 54.2474 313.174 58.0714 310.746C61.3223 308.797 64.6403 306.958 68.0234 305.228C72.8564 302.767 77.7864 300.516 82.61 298.166C84.6073 297.136 86.5322 295.974 88.3724 294.686C91.0368 292.837 93.4966 290.681 96.2466 288.925C100.155 286.463 103.784 283.583 107.07 280.338C107.904 279.519 108.645 278.612 109.282 277.634C110.287 275.957 111.621 274.5 113.203 273.351C114.785 272.202 116.583 271.385 118.489 270.949C120.261 270.688 121.968 270.095 123.521 269.202C125.236 268.471 127.061 268.032 128.921 267.901C132.355 267.137 135.787 266.303 139.23 265.587C141.861 265.018 144.553 264.625 147.191 264.037C151.354 263.099 155.427 261.774 159.62 261.117C165.638 259.952 171.496 258.082 177.076 255.545C177.685 255.316 178.106 254.646 178.844 253.979C177.95 253.085 177.359 252.009 176.465 251.658C174.488 250.729 172.377 250.115 170.209 249.837C162.993 249.297 155.766 249.026 148.552 248.713C145.117 248.884 141.673 248.789 138.253 248.429C133.235 247.701 128.125 247.933 123.193 249.112C120.005 249.654 116.822 250.334 113.639 250.854C109.624 251.518 105.579 251.97 101.566 252.701C95.912 253.963 90.4316 255.907 85.2465 258.491C84.2871 258.912 83.3185 259.287 81.9502 259.793C82.3054 259.037 82.2651 258.709 82.5285 258.582C87.4637 254.839 92.1706 250.555 98.0146 247.732C103.193 245.407 108.778 244.12 114.452 243.944C117.704 243.805 120.968 243.783 124.212 243.596C129.805 243.111 135.426 243.047 141.028 243.402C144.812 243.938 148.664 243.704 152.355 242.718C158.414 240.862 164.42 238.878 170.465 236.996C174.585 235.602 178.865 234.734 183.204 234.416C185.828 234.314 188.429 233.886 190.948 233.142C200.212 230.297 209.434 227.213 218.604 224.229C220.908 223.444 223.162 222.522 225.356 221.466C225.733 221.372 226.078 221.179 226.353 220.908C226.63 220.635 226.829 220.293 226.929 219.918C227.029 219.543 227.027 219.149 226.922 218.775C226.817 218.401 226.615 218.062 226.335 217.793ZM165.141 221.016C166.006 220.295 167.667 220.575 168.966 220.388C166.305 223.291 163.14 225.688 159.623 227.462L159.229 227.03C161.083 224.914 163.057 222.907 165.141 221.016ZM156.493 224.539C157.925 222.964 159.367 221.349 162.066 221.637C159.67 224.038 157.403 226.386 155.008 228.63C154.637 228.876 154.218 229.044 153.779 229.123C153.341 229.201 152.89 229.188 152.456 229.085C153.794 227.597 155.123 226.062 156.493 224.539ZM154.172 224.044C152.568 226.143 150.819 228.128 148.937 229.984C147.927 230.889 146.164 230.963 144.745 231.41C145.621 229.523 146.933 227.872 148.572 226.592C150.211 225.311 152.13 224.437 154.172 224.044ZM186.291 187.907L186.74 188.309C185.681 189.539 184.714 190.84 183.587 191.915C182.46 192.989 182.095 194.941 179.3 194.987C181.997 192.561 183.705 189.8 186.291 187.907ZM179.437 197.47C184.03 195.521 188.474 193.239 192.733 190.642C194.956 189.456 197.14 188.17 199.338 186.91C200.078 186.469 200.787 185.974 202.092 185.223C201.091 184.931 200.486 184.755 200.178 184.802C198.343 185.571 196.568 186.476 194.867 187.508C192.472 189.126 189.856 190.391 187.101 191.263C188.491 189.519 189.859 187.77 191.286 186.059C191.677 185.688 192.145 185.407 192.656 185.236C196.776 183.368 200.72 181.132 204.439 178.555C208.67 175.987 213.016 173.565 217.358 171.006C219.698 169.651 222.045 168.345 224.415 167.044C224.953 166.749 225.529 166.554 226.597 166.073C225.3 168.679 223.431 170.957 221.129 172.737C217.455 176.191 213.572 179.585 209.714 182.737C207.73 184.422 205.564 185.646 203.469 187.094C203.068 187.3 202.678 187.526 202.299 187.771C198.062 191.062 193.825 194.352 189.67 197.666C186.728 200.061 183.492 202.068 180.039 203.639C174.454 206.197 169.084 209.18 163.558 211.847C162.328 212.347 161.042 212.695 159.729 212.882C158.035 213.105 156.357 213.424 154.7 213.838C151.348 214.943 148.066 216.272 144.751 217.478C143.51 217.931 142.248 218.31 141.017 218.653L140.659 217.939C142.237 216.633 143.715 215.209 145.401 214.003C149.881 210.487 154.972 207.828 160.418 206.161C165.858 204.416 171.089 202.078 176.018 199.189C177.11 198.525 178.253 197.95 179.437 197.47ZM178.877 192.398C176.359 194.832 175.239 198.917 170.819 199.1C173.189 196.556 174.862 193.061 178.877 192.398ZM169.013 197.15C167.957 198.675 167.092 199.938 166.212 201.175C165.971 201.535 165.751 202.058 165.398 202.182C162.59 203.477 159.644 204.448 156.617 205.077C160.382 201.31 163.935 198.273 169.013 197.15ZM156.028 166.228L156.59 166.391C156.289 170.149 156.013 173.892 155.587 177.612C155.458 179.372 155.213 181.122 154.853 182.85C154.647 184.302 154.141 185.695 153.368 186.942C151.243 189.759 148.887 192.394 146.326 194.821C146.514 193.822 146.799 192.844 147.174 191.902C148.178 189.956 148.836 187.852 149.121 185.683C149.661 182.583 150.485 179.52 151.156 176.436C151.334 175.84 151.437 175.224 151.464 174.603C151.535 170.937 154.073 168.825 155.998 166.332L156.028 166.228ZM156.485 161.702C156.379 163.932 154.697 164.506 153.584 165.607C154.126 164.038 155.14 162.674 156.485 161.702ZM157.504 156.027C157.622 158.03 156.606 159.113 154.434 159.657L157.504 156.027ZM141.63 189.427C142.496 184.274 143.411 179.112 144.638 174.041C146.36 167.584 148.604 161.277 151.349 155.185C152.339 152.292 153.145 149.339 153.764 146.343C154.802 142.778 155.84 139.212 157.017 135.709C157.183 135.291 157.309 134.858 157.394 134.416C157.663 131.08 159.804 128.853 161.937 126.578C163.058 125.367 164.094 124.063 165.165 122.791L165.707 122.949C165.237 126.273 164.789 129.603 164.25 132.929C163.837 136.336 163.23 139.716 162.433 143.054C161.707 146.679 160.186 150.099 157.981 153.068C157.835 153.298 157.652 153.504 157.441 153.679C153.339 156.195 152.128 160.275 151.349 164.663C150.895 167.154 150.06 169.557 149.502 172.018C148.943 174.48 148.565 176.79 148.1 179.166C147.635 181.541 147.281 183.767 146.709 186.043C146.156 187.941 145.437 189.79 144.92 191.72C144.168 194.306 143.686 196.97 143.011 199.601C142.843 200.374 142.516 201.103 142.049 201.741C139.436 204.735 136.731 207.657 134.046 210.585C133.897 210.741 133.715 210.861 133.513 210.935C133.311 211.009 133.095 211.037 132.881 211.016C133.207 210.345 133.577 209.698 133.988 209.075C138.059 203.226 140.678 196.491 141.63 189.427ZM98.8005 211.771C101.49 208.595 104.122 205.38 106.867 202.244C108.432 200.438 110.117 198.847 111.751 197.197C114.887 194.196 118.016 191.217 121.145 188.238C122.022 187.289 123.024 186.461 124.122 185.779C123.822 186.454 123.481 187.111 123.097 187.743C116.584 197.767 109.999 207.724 103.467 217.653C100.831 221.658 98.4504 225.874 95.7375 229.833C92.3142 234.831 88.6657 239.673 85.0678 244.574C83.1285 247.199 81.1168 249.757 79.1413 252.349C78.849 252.817 78.4762 253.229 78.0404 253.566C74.7875 255.65 73.004 259.134 70.3149 261.767C67.6258 264.4 65.1784 267.057 62.5667 269.736C61.7912 270.51 60.8473 271.094 59.8084 271.443C60.9526 269.577 62.227 267.794 63.6231 266.107C65.4448 264.228 67.0919 262.186 68.5428 260.007C70.127 257.596 72.1335 255.443 73.887 253.149C75.9637 250.519 78.0559 247.916 80.1337 245.286C82.3033 242.222 84.6661 239.299 87.2055 236.533C88.1628 235.243 88.9652 233.844 89.5941 232.365C91.3114 229.495 92.9792 226.566 94.7823 223.788C97.2473 219.981 99.8321 216.075 102.471 212.296C103.681 210.546 105.139 208.956 106.484 207.29L105.711 206.68L97.9144 216.059C97.68 215.329 97.6387 214.55 97.7936 213.799C97.9495 213.047 98.2965 212.349 98.8005 211.771ZM70.1559 264.956L73.8044 261.358C72.783 263.933 72.307 264.405 70.1435 264.997L70.1559 264.956ZM95.1107 215.899C94.5427 218.629 95.1943 221.285 92.5961 223.22C93.1362 220.663 92.2068 217.949 95.0993 215.941L95.1107 215.899ZM90.8447 220.764C91.2309 222.935 89.7707 224.455 89.5022 226.232C89.3628 228.228 88.6482 230.141 87.4461 231.741C87.4193 229.347 87.601 226.955 87.9893 224.592C88.708 223.158 89.6747 221.862 90.8447 220.764ZM53.2777 271.578C57.364 266.864 61.7054 262.36 65.5873 257.496C67.442 254.934 69.0045 252.171 70.2457 249.262C73.004 244.166 76.1878 239.312 79.7619 234.751C81.2221 232.689 82.8517 230.742 84.4451 228.763C84.8758 228.317 85.3425 227.908 85.8413 227.542C85.6751 230.365 85.5646 232.843 85.3911 235.304C85.2434 235.729 84.9997 236.115 84.6785 236.431C80.6221 241.742 76.637 247.118 72.5032 252.384C69.9029 255.721 67.0981 258.908 64.4214 262.201C62.767 264.23 61.1643 266.319 59.5668 268.387C56.3128 272.732 52.3762 276.521 47.9098 279.605C48.0792 278.896 48.3394 278.211 48.6833 277.569C50.1766 275.471 51.5955 273.395 53.3015 271.495L53.2777 271.578ZM35.6147 264.966C35.1789 262.577 36.8281 260.796 40.3888 259.367C40.2855 262.594 37.4074 263.159 35.6385 264.882L35.6147 264.966ZM42.6741 253.767C42.3953 254.726 42.1154 255.685 41.818 256.707L38.2491 257.545L37.9857 257.129L42.0999 253.487L42.6741 253.767ZM-15.471 350.409L-16.7429 347.009C-15.1609 345.613 -13.7153 345.854 -11.7871 346.844L-15.471 350.409ZM113.036 255.724C116.029 252.968 119.919 251.392 123.986 251.288C125.15 251.153 126.306 250.945 127.446 250.667C130.302 250.134 133.229 250.09 136.101 250.54C139.586 250.921 143.093 251.15 146.57 251.325C153.986 251.493 161.408 251.482 168.832 251.698C170.012 251.941 171.147 252.37 172.193 252.97L172.099 253.757C171.546 253.987 170.977 254.176 170.396 254.325C162.027 255.96 153.628 257.541 145.308 259.236C143.815 259.548 142.392 260.242 140.937 260.656C138.23 261.405 135.542 262.093 132.821 262.817C130.643 263.382 128.378 263.785 126.253 264.479C118.082 267.154 109.646 268.938 101.091 269.798C98.406 270.107 95.7417 270.569 93.1104 271.185C87.9284 272.435 82.8372 274.075 77.6139 275.156C72.3906 276.237 67.4751 276.728 61.8511 277.557C62.4696 276.832 62.7794 276.153 63.2937 275.941C68.4416 273.798 73.7889 271.667 79.1258 269.805C81.8242 268.849 84.7322 268.497 87.5339 267.73L104.619 263.428C105.932 263.11 107.271 262.866 108.6 262.574C113.556 261.499 118.5 260.42 123.429 259.337C124.095 259.149 124.75 258.925 125.39 258.664L125.279 258.111L108.682 260.268C110.364 258.452 111.708 257.101 113.036 255.724ZM57.6955 294.397C53.6929 296.647 49.3597 298.326 45.2032 300.328C42.2187 301.721 39.2136 303.266 36.2849 304.857C34.0832 306.048 31.9497 307.395 29.7862 308.688C29.4785 308.892 29.1935 309.171 28.9002 309.402C28.7701 309.071 28.6678 308.724 28.5594 308.399C33.3882 303.145 38.593 298.249 44.1323 293.751C44.5092 293.506 44.8727 293.242 45.2218 292.96C48.4045 289.748 52.2172 287.232 56.4212 285.566C63.1677 282.52 70.1445 280.013 77.2866 278.069C81.3574 277.298 85.4696 276.766 89.6024 276.474C93.0143 276.02 96.4026 275.49 99.8032 274.92C101.437 274.671 103.088 274.36 104.727 274.091L104.864 274.629L95.6828 278.199L73.4181 286.85C68.0028 288.982 62.7474 291.505 57.6955 294.397ZM55.2873 301.273C55.3575 300.253 55.4009 299.406 55.4866 298.255L62.6121 294.448C61.598 298.632 58.1034 299.446 55.2873 301.273ZM53.1404 299.946C51.2237 301.944 49.842 304.596 46.7388 305.23C48.8382 303.535 49.8058 300.288 53.1404 299.946ZM99.0493 258.008C99.4831 257.682 100.128 257.485 100.36 257.077C101.607 254.658 103.943 254.637 106.182 254.249C108.422 253.86 110.281 253.768 112.34 253.53L112.606 254.014C108.816 256.621 105.593 260.003 101.268 261.888C102.879 259.303 105.765 257.859 107.4 255.35C107.297 255.188 107.184 255.034 107.059 254.888C106.681 254.965 106.316 255.095 105.975 255.273C103.295 257.253 100.609 259.253 97.965 261.266C97.3826 261.695 96.8673 262.208 96.4356 262.788C95.6642 263.808 94.6914 263.887 93.2663 263.81C94.8628 261.573 96.8167 259.613 99.0493 258.008ZM89.337 262.622C90.5111 261.609 91.5934 260.494 92.5693 259.288C94.0605 256.963 96.3768 256.619 98.9347 256.459L87.6847 265.579L87.2127 265.102C87.8674 264.252 88.5841 263.421 89.337 262.622ZM91.0151 259.266L85.6627 263.746C84.9697 264.337 84.314 264.96 83.6376 265.419C83.1997 265.862 82.6751 266.21 82.0958 266.441C74.5138 268.525 67.2592 271.659 60.5447 275.751C59.6979 276.251 59.0256 277.006 58.2501 277.572C56.6453 278.733 55.0199 279.888 53.3861 280.996C51.7514 282.103 50.4533 282.291 50.1662 284.289C49.9711 284.956 48.8919 285.478 48.2454 285.991L45.5347 288.233C43.272 290.176 41.1468 292.271 38.7396 294.013C36.1992 296.054 33.8715 298.348 31.7938 300.858C27.9553 305.158 23.7709 309.137 19.2838 312.756C18.7675 313.136 18.308 313.589 17.9197 314.1C17.6976 314.398 17.6284 315.101 17.7379 315.268C18.0932 315.642 18.5703 315.877 19.0835 315.931C19.4584 316.041 19.9024 315.605 20.3268 315.389C22.6401 314.215 24.8717 312.884 27.0052 311.407C30.283 309.308 33.7208 307.473 37.2876 305.918C40.3444 304.432 43.5271 303.21 47.252 301.603C47.0258 302.175 46.7377 302.721 46.3938 303.23C45.0441 304.403 43.7998 305.69 42.6731 307.078C41.5382 308.727 39.9169 309.979 38.0343 310.659C33.8581 312.338 29.6592 313.943 25.4686 315.596C25.167 315.765 24.8831 315.963 24.6187 316.186C26.1006 316.843 27.2076 316.148 28.3136 315.768C32.8461 314.26 37.362 312.657 41.8655 311.095C42.0111 311.137 42.2621 311.053 42.3819 310.951C45.5109 307.972 49.5941 306.922 53.2054 304.851C55.8976 303.373 58.6559 301.666 61.4617 300.265C64.2665 298.865 66.621 298.08 69.2285 296.894C72.6488 295.243 75.9957 293.458 79.3075 291.64C80.3382 290.99 81.3099 290.251 82.2114 289.432C80.7636 288.58 79.9808 289.325 79.1526 289.763L64.7302 297.349C64.4069 297.527 64.0693 297.677 63.4951 297.94C63.9691 296.313 64.3088 295.145 64.597 293.533C78.2036 287.168 92.1273 281.505 106.313 276.566C104.816 278.651 102.775 280.287 100.414 281.295C96.9984 282.986 93.8849 285.228 91.1989 287.931C88.6936 290.007 86.0127 291.86 83.1853 293.47C80.618 294.984 77.9041 296.072 75.2419 297.446C71.0492 299.573 66.937 301.813 62.702 303.928C56.4408 306.947 50.2261 310.114 43.7905 312.718C38.531 315.14 32.9483 316.784 27.2159 317.598C25.9508 317.76 24.7075 318.066 23.5127 318.51C19.4295 319.715 15.2275 320.471 10.9809 320.766C10.2054 321.332 9.43008 321.898 8.4957 322.621L8.93026 324.625C2.70535 331.091 -3.46587 337.528 -9.8618 344.194L-13.49 343.137C-13.1197 342.595 -12.7125 342.079 -12.2713 341.592C-8.13649 337.955 -3.86531 334.471 0.11207 330.676C2.11868 328.463 4.0025 326.142 5.75476 323.723C6.32119 322.838 7.09352 322.102 8.00559 321.58C8.91776 321.058 9.9427 320.764 10.993 320.724C10.7443 320.673 10.5001 320.603 10.2632 320.512C10.0266 320.315 9.80061 320.105 9.58622 319.885C10.251 318.767 11.0235 317.589 11.6915 316.381C12.3029 315.307 12.8461 314.196 13.316 313.054C14.2919 310.556 15.2326 308.025 16.1104 305.476C16.5596 303.933 17.014 302.369 17.4632 300.826C17.6821 300.357 17.9486 299.911 18.2574 299.496L18.3059 299.33C17.2453 296.759 18.468 294.265 18.973 291.833C19.7 288.404 20.7936 285.035 21.9223 281.7C23.6893 275.632 25.4552 269.564 27.695 263.657C28.9756 259.975 30.6826 256.456 32.782 253.172C38.7902 244.109 45.1226 235.254 51.4984 226.095C51.7752 227.874 51.5201 229.697 50.7652 231.333C48.7566 237.533 46.684 243.489 44.6434 249.568C44.3027 250.735 43.8689 251.604 42.3468 251.862C41.6693 251.936 41.0569 252.64 40.4136 253.063L39.9675 252.73C40.618 251.427 41.3316 250.142 41.9326 248.779C42.5326 247.415 42.9777 246.12 43.5219 244.717C42.2631 243.989 41.7055 244.664 41.3069 245.565C39.889 248.726 38.3998 251.821 37.108 255.019C34.4622 261.464 32.0199 267.991 29.3184 274.398C27.5608 278.569 25.4892 282.579 23.6335 286.699C21.5372 290.724 19.7929 294.923 18.4195 299.249L18.3895 299.353L21.027 298.064C21.9564 294.002 23.5653 290.126 25.7887 286.602C28.7133 281.193 31.1814 275.548 33.1652 269.727C33.8881 267.246 35.7458 266.769 38.1954 265.967C37.6635 267.679 37.0439 269.363 36.3417 271.013C35.2027 273.373 33.7693 275.58 32.6509 277.946C30.9026 281.621 29.3773 285.384 27.6496 289.066C26.7088 291.055 25.4975 292.963 24.4318 294.915C23.6552 296.34 22.9199 297.778 22.164 299.209C20.6666 302.097 19.0721 304.936 17.6728 307.876C16.9107 309.486 17.2908 309.891 18.7923 310.17C21.7974 306.995 24.5929 303.919 27.5453 301.002C31.074 297.505 34.7689 294.057 38.4019 290.59C39.5761 289.192 41.1395 288.174 42.8941 287.668C43.1936 287.585 43.4713 287.438 43.7089 287.238C43.9464 287.038 44.1385 286.789 44.2717 286.509C45.861 282.447 49.0788 279.629 52.5755 276.553C52.7717 278.601 50.791 279.11 50.7311 280.947C62.7753 271.401 76.414 264.06 91.0151 259.266ZM97.6759 241.979C97.5726 242.333 97.6893 242.865 97.3785 243C95.9823 244.175 94.5107 245.257 92.9741 246.241C87.8798 249.48 83.1429 253.249 78.8439 257.487C77.7854 258.42 76.636 259.245 75.4133 259.949C80.7812 253.625 86.8792 247.96 93.5802 243.071C94.8835 243.722 95.5599 242.72 96.3509 242.023L94.266 241.416L98.0611 238.947C98.6125 238.65 99.1423 238.313 99.6431 237.938C105.635 232.895 111.824 228.341 118.016 223.697C119.117 222.865 120.617 222.532 121.784 221.785C122.958 220.974 124.083 220.093 125.152 219.148C124.041 221.106 122.486 222.776 120.612 224.023C118.724 225.29 116.943 226.708 115.284 228.262C116.276 229.365 117.236 229.328 117.934 228.718C119.612 227.078 121.707 225.928 123.992 225.392C124.247 225.297 124.464 225.122 124.611 224.894C125.783 223.655 126.823 222.298 127.712 220.843C129.412 217.493 132.495 215.449 134.915 212.806C137.336 210.163 140.248 208.161 142.08 205.053C142.519 204.321 143.578 203.95 144.272 203.428C144.671 202.09 145.222 200.801 145.91 199.586C147.838 197.003 149.999 194.556 152.096 192.09C152.239 191.938 152.414 191.819 152.608 191.743C152.803 191.666 153.011 191.634 153.22 191.648C154.576 192.042 155.191 191.249 155.434 190.257C156.677 185.055 160.409 181.482 163.827 177.817C169.601 171.582 175.645 165.583 181.597 159.512C182.083 158.975 182.614 158.478 183.182 158.028C188.893 153.454 194.331 148.549 199.467 143.339C202.302 140.555 205.545 138.219 209.084 136.411C208.239 137.84 207.456 139.285 206.574 140.681C205.694 142.075 204.906 142.841 204.291 144.019C201.807 148.34 198.883 152.392 195.568 156.114C192.749 159.064 190.281 162.331 188.211 165.847C187.377 167.244 186.358 168.522 185.182 169.647C181.04 174.322 176.867 178.944 172.703 183.612C168.148 189.012 163.231 194.095 157.985 198.825C153.268 202.904 148.437 206.835 143.556 210.707C142.169 211.819 140.044 212.128 138.951 213.393C137.965 214.82 136.863 216.164 135.656 217.41C132.107 220.357 128.717 223.533 124.942 226.166C119.883 229.714 115.013 233.703 108.901 235.429C108.541 235.492 108.204 235.652 107.929 235.893C105.173 238.872 101.611 240.987 97.6759 241.979ZM219.622 219.798C214.191 221.745 208.733 223.639 203.267 225.555C197.134 227.472 190.849 228.867 184.479 229.722C182.267 230.095 180.078 230.702 177.874 231.123C171.092 232.749 164.414 234.779 157.875 237.199C152.879 238.816 147.68 239.725 142.432 239.898C139.282 239.998 136.113 239.46 132.965 239.245C127.995 238.952 123.009 239.199 118.093 239.982C114.06 240.55 110.065 241.378 106.168 242.098C105.67 242.179 105.162 242.213 104.067 242.323C104.545 241.824 105.052 241.352 105.586 240.911C106.042 240.591 106.656 240.499 107.013 240.128C110.611 236.47 115.55 236.053 120.094 234.662C125.454 233.032 130.796 231.308 136.139 229.583C139.539 228.469 142.909 227.302 146.842 225.913C146.476 226.511 146.049 227.069 145.567 227.578C144.316 228.457 143.134 229.428 142.029 230.484C140.058 232.515 137.412 233.756 134.589 233.973C129.812 234.844 125.108 235.465 120.367 236.211C120.08 236.264 119.81 236.569 119.167 236.993C119.71 237.239 120.286 237.406 120.877 237.49C124.464 237.132 128.064 236.732 131.664 236.333C133.251 236.161 134.86 235.996 136.478 235.88C140.822 235.56 144.613 233.181 148.803 232.387C152.239 231.622 155.632 230.677 158.969 229.556C159.58 229.431 160.2 229.355 160.822 229.327C161.342 229.252 162.006 229.378 162.338 229.09C164.562 227.203 167.419 227.176 169.954 226.783C172.979 226.26 175.977 225.595 179.002 225.074C180.572 224.807 182.15 224.746 183.786 224.566C183.786 222.779 183.7 222.528 181.91 222.776C179.065 223.147 176.225 223.813 173.394 224.368L167.37 225.329C167.602 224.627 167.932 223.962 168.352 223.353C169.943 221.325 172.243 219.974 174.789 219.572C179.212 219.141 183.624 218.751 188.06 218.663C190.903 218.608 193.801 219.067 196.682 219.114C198.745 219.159 200.808 219.057 202.856 218.807C205.456 218.502 208.009 218.045 210.624 217.608C211.619 217.535 212.618 217.532 213.613 217.596C215.681 217.64 217.745 217.698 219.805 217.769C220.377 217.831 220.944 217.936 221.501 218.082L221.573 218.534C220.959 219.008 220.306 219.43 219.622 219.798ZM161.201 143.714C161.196 144.276 161.375 144.827 161.171 145.061C160.018 146.535 158.815 147.95 157.653 149.376C157.092 149.981 156.553 151.135 155.52 150.179C154.486 149.223 155.191 148.433 155.875 147.795C157.433 146.325 158.598 144.267 161.201 143.714ZM68.1669 206.903C72.1469 204.953 75.9121 202.592 79.4005 199.858C80.9258 198.584 82.4273 197.233 84.0042 196.087C88.2599 193.049 92.2667 189.677 95.9874 186.004C102.392 180.097 107.97 173.351 112.568 165.95C113.082 165.113 113.422 164.181 113.569 163.211C113.552 162.45 113.395 161.699 113.105 160.994C112.371 161.188 111.497 161.16 110.943 161.586C107.101 164.449 103.188 167.246 99.5987 170.408C97.8917 172.019 95.9895 173.41 93.9376 174.55C90.3015 176.319 87.3201 179.025 83.272 180.108C83.0273 180.173 82.8238 180.408 82.6018 180.547C79.5337 182.617 76.5255 184.795 73.3479 186.697C69.0003 189.277 64.4989 191.608 60.0748 194.143C57.9423 195.331 55.7737 196.487 53.7713 197.85C51.233 199.739 48.4912 201.338 45.5976 202.618C43.5075 203.484 41.4741 204.479 39.5059 205.595C36.1796 207.386 32.8771 209.252 29.5683 211.138C27.5123 212.263 25.5151 213.493 23.587 214.826C20.4435 217.077 17.4364 219.483 14.3435 221.794C14.3435 221.794 14.0306 221.703 13.6764 221.6C13.8468 221.1 14.0626 220.617 14.3218 220.159C17.2701 215.702 20.2608 211.257 23.1998 206.91C26.5942 201.521 31.5026 197.253 37.3114 194.641C41.2779 192.901 45.1009 190.802 49.1222 189.032C53.1435 187.263 57.7234 185.904 61.8913 184.018C66.0582 182.132 70.5876 179.628 74.9062 177.38C77.0625 176.266 79.1568 174.976 81.3812 174.017C86.6365 171.737 91.6853 169.007 96.4687 165.855C97.8845 164.847 99.2115 163.721 100.435 162.486C102.014 161.023 103.422 159.374 105.007 157.891C109.026 154.107 113.08 150.357 117.13 146.627C118.332 145.529 119.604 144.497 120.735 143.334C123.364 140.593 125.944 137.793 128.517 135.013C131.09 132.234 133.585 129.568 136.048 126.779C136.897 125.805 137.888 124.735 137.348 123.244C134.898 122.26 134.883 122.233 133.097 123.477C132.052 124.191 131.087 125.018 130.167 125.768C127.329 127.747 124.626 129.809 121.785 131.72C119.496 133.334 117.101 134.791 114.613 136.078C109 138.809 103.237 141.203 97.6304 143.914C91.0461 147.109 84.5432 150.487 78.0332 153.816C74.899 155.415 71.7493 156.987 68.7277 158.821C64.0042 161.683 59.3674 164.662 54.8174 167.755C51.3755 170.101 48.1391 172.597 44.8025 175.199C43.24 176.372 41.7148 177.648 40.1812 178.875L39.7062 178.488C40.3051 177.441 40.9599 176.433 41.502 175.347C44.7508 168.85 48.9384 162.867 53.9314 157.591C54.6656 156.788 55.3555 155.947 55.9999 155.071C59.2064 150.893 62.3292 146.69 65.5512 142.538C68.5707 138.691 71.6626 134.908 74.774 131.131C75.8904 129.783 76.6752 128.021 78.8036 127.781C79.1588 127.726 79.4686 127.205 79.7857 126.891C81.1581 125.209 82.6844 123.617 84.3419 122.042C85.5191 120.778 86.8275 119.642 88.2454 118.654C93.7599 115.168 99.9901 112.969 106.471 112.221C109.672 111.795 112.843 110.999 116.026 110.478C117.674 109.997 119.401 109.847 121.108 110.035C124.035 110.548 127.014 110.804 129.993 111.06C133.532 111.045 137.046 111.647 140.377 112.839C140.692 113.011 141.041 113.112 141.399 113.137C145.655 113.2 149.93 113.358 154.151 113.23C160.361 112.956 166.589 112.461 172.805 112.009C177.752 111.64 182.71 111.16 187.649 110.743C188.643 110.671 189.639 110.667 190.631 110.525C194.938 109.947 199.202 109.13 203.52 108.826C205.967 108.656 208.543 107.733 210.963 109.206C211.319 109.31 211.865 109.22 212.309 109.168C214.54 108.889 216.79 108.618 219.023 108.25C219.821 108.225 220.596 107.982 221.263 107.545C222.074 106.828 223.114 106.425 224.196 106.408C224.79 106.31 225.311 105.76 225.884 105.429C225.57 104.816 225.17 104.251 224.698 103.75C224.217 103.505 223.693 103.353 223.155 103.3C219.673 102.286 216.211 101.28 212.729 100.265C211.016 99.461 209.258 98.7536 207.466 98.1453C203.939 97.3894 200.328 97.0982 196.725 97.281C188.762 97.6166 180.792 96.8194 173.053 94.9141C172.616 94.787 172.178 94.659 171.776 94.407C168.023 93.1564 164.303 91.6436 160.465 90.6842C150.833 88.5135 140.878 88.1789 131.121 89.698L130.307 89.7775C124.275 90.4415 118.331 91.7437 112.574 93.6635C112.003 93.8359 111.445 93.9681 110.444 94.2191C110.697 93.7027 110.985 93.205 111.308 92.7289C114.134 89.5482 116.945 86.3407 119.821 83.2189C122.698 80.0981 126.219 76.7801 129.037 73.236C132.271 69.004 134.805 64.2816 136.547 59.2493C136.89 58.2229 137.358 57.2424 137.939 56.3297C140.593 52.4201 143.211 48.4775 146.049 44.7119C149.146 40.4832 151.582 35.8078 153.273 30.8464C153.569 29.8011 153.97 28.7885 154.47 27.8244C157.583 22.5133 161.184 17.5038 165.227 12.8606C167.879 9.81019 170.124 6.36981 172.596 3.08566C172.763 2.8845 172.887 2.65111 172.961 2.39986C173.034 2.14871 173.056 1.88507 173.023 1.62535C172.991 1.36563 172.905 1.11541 172.772 0.890077C172.638 0.664746 172.46 0.469261 172.248 0.315701C171.374 -0.41358 170.584 0.283582 169.853 0.772144C168.324 1.75195 166.816 2.73786 165.234 3.5892C161.498 5.62307 157.563 7.32783 154.023 9.62224C149.866 12.3252 146.023 15.5041 142.065 18.5362C138.612 21.0172 135.383 23.7929 132.411 26.8321C129.586 30.012 127.104 33.4826 125.01 37.1857C120.618 44.5024 116.037 51.6958 111.476 58.8951C109.921 61.3611 108.162 63.6754 106.398 66.2385C106.486 64.7711 106.579 63.441 106.665 62.1326C106.688 57.0621 107.395 52.0182 108.768 47.1375C109.535 44.6161 110.061 42.0276 110.34 39.407C110.381 38.9816 110.329 38.5525 110.189 38.1487C110.049 37.7449 109.823 37.376 109.528 37.0673C108.699 36.4188 107.843 37.1871 107.216 37.8642C106.696 38.3806 106.235 38.9515 105.837 39.5668C103.366 44.0948 100.817 48.5778 98.4824 53.2586C97.1864 55.8445 96.4449 58.7051 95.2615 61.3684C93.4852 65.3752 91.5572 69.2023 89.59 73.0852C89.4991 73.3981 89.2678 73.647 88.895 74.3079L88.4013 72.7392C87.8086 69.7207 86.8998 66.7724 85.6916 63.9439C85.4179 63.2819 85.2785 62.5725 85.2806 61.8558C85.1711 60.6031 85.2992 59.3061 85.0875 58.0905C84.4637 53.2321 84.3388 48.3225 84.7157 43.4386C84.8386 39.8555 84.8902 36.2591 84.8706 32.6494C84.9398 26.1204 85.9663 19.6369 87.916 13.4055C88.5232 11.3204 88.9342 8.97465 91.0378 7.73222C90.3573 5.40796 89.7934 4.8592 88.7184 5.67729C85.7721 7.80038 83.2493 10.4572 81.281 13.5099C79.0174 17.5413 77.458 21.9289 76.668 26.4845C76.0597 29.3288 74.8401 32.0069 73.0939 34.3332C70.2509 37.9937 68.4695 42.3659 67.9449 46.9711C67.5308 52.279 67.1167 57.5869 67.1229 62.9267C67.0506 67.2939 67.4317 71.657 67.5969 76.2968C65.0627 73.1162 62.702 70.3475 60.4724 67.4374C56.1723 61.7742 50.1208 58.4748 44.0187 55.2739C38.847 52.85 33.9376 49.905 29.3639 46.4847C26.4641 44.1704 23.3536 42.1115 20.2979 40.0231C19.6969 39.5995 18.437 39.1876 18.2119 39.4161C17.6315 40.1495 17.2722 41.0337 17.1761 41.9646C17.1348 42.688 17.2567 43.4115 17.5334 44.0813C18.2047 46.0578 19.3468 47.8416 20.8597 49.2795C23.6232 52.1421 26.4971 55.0142 29.1635 58.0522C33.7455 63.4151 38.8666 68.2935 44.4452 72.6112C49.6747 76.5643 54.1596 81.4158 57.6914 86.9386C60.9216 92.2786 63.5622 97.9543 65.5666 103.865C66.8224 106.677 67.6774 109.651 68.106 112.702C68.1917 114.038 68.6957 115.338 68.8919 116.685C69.0199 117.472 68.9776 118.277 68.77 119.047C66.2121 127.056 60.9216 133.342 55.4071 140.242C55.3926 138.97 55.3668 138.285 55.403 137.617C55.6312 133.566 55.908 129.508 56.0959 125.446C56.3086 120.984 56.4377 116.498 56.5875 112.176C56.6319 111.172 56.8064 110.182 56.7548 109.194C56.6773 107.362 55.8914 106.953 54.33 107.81C53.8188 108.091 53.2251 108.189 52.7066 108.491C52.1893 108.792 51.3579 109.162 51.1111 109.7C50.1704 111.688 49.3607 113.85 48.5831 115.976C47.8055 118.102 47.4782 119.771 46.6613 121.569C43.2163 129.364 39.699 137.094 36.1971 144.851C35.9854 145.581 35.3885 146.154 34.6842 147.328L34.5882 145.717C34.3393 139.967 35.7954 134.42 36.2921 128.752C36.7589 125.061 36.9654 121.341 36.9076 117.622C36.7207 114.56 36.7682 111.489 37.0491 108.434C37.5128 105.287 37.3465 102.079 36.5617 98.9963C35.6477 96.1522 34.7823 93.2989 33.8354 90.49C32.2957 85.8347 30.7497 81.2 29.1284 76.5891C27.7766 72.3437 25.292 68.5476 21.943 65.6086C21.2304 65.0643 20.6604 64.3549 20.2824 63.5422C19.8714 62.6272 19.225 61.8382 18.4092 61.2548C17.5933 60.6723 16.6381 60.3161 15.6395 60.2221C13.8664 59.7068 12.6344 61.0668 13.159 62.9164C13.5896 64.2878 14.1679 65.6096 14.8846 66.856C16.1827 68.8099 17.0822 71.0012 17.5314 73.3041C17.7926 75.2796 18.0549 77.2562 18.0684 79.2276C18.2326 81.2372 18.2574 83.254 18.1438 85.2667C17.6305 90.6811 16.9231 96.0624 16.4378 101.462C15.9514 106.862 15.7128 111.723 15.2543 116.951C14.4695 125.17 15.117 133.462 17.1668 141.46C17.8422 144.191 18.3751 146.947 19.0773 149.662C19.4811 151.226 20.1781 152.719 20.6831 154.246C21.9368 157.156 22.5636 160.297 22.5234 163.467C22.3127 165.543 22.2941 167.636 22.4686 169.715C22.8043 172.32 22.7227 174.962 22.227 177.539C21.9502 179.939 21.4494 182.307 20.7327 184.614C18.8821 189.339 17.3176 194.17 16.0464 199.083C15.5435 200.418 14.8918 201.693 14.1039 202.882C13.6733 203.662 13.0258 204.333 12.5322 205.094C10.0881 208.907 7.68567 212.731 5.26237 216.549C5.03642 216.804 4.79301 217.043 4.53392 217.264C4.34421 216.627 4.20872 215.975 4.1289 215.315C3.91833 211.453 3.62433 207.567 3.59883 203.693C3.55359 197.165 3.70819 190.651 3.74629 184.148C3.75837 182.791 3.65335 181.436 3.43225 180.098C2.57285 174.736 1.35811 169.429 0.847961 164.034C0.614161 160.214 -0.18865 156.451 -1.53403 152.867C-4.46706 145.772 -7.65712 138.78 -10.7457 131.752C-11.3563 130.353 -11.8262 128.859 -12.5713 127.534C-14.7538 123.687 -17.1214 119.853 -19.3072 116.096C-20.7097 113.766 -22.172 111.486 -23.6405 109.226C-24.3125 108.193 -25.3646 108 -25.8046 108.889C-26.8832 111.041 -28.8576 112.773 -28.7189 115.483C-28.8087 116.747 -28.9784 118.005 -29.2268 119.248C-29.7556 123.245 -30.0138 127.273 -29.9994 131.305C-29.5553 135.88 -28.8064 140.42 -27.7579 144.895C-26.9104 149.055 -25.6208 153.094 -24.8063 157.29C-23.5827 164.431 -22.5052 171.531 -21.6492 178.769C-21.3163 183.396 -20.7237 188.001 -19.8739 192.563C-19.1608 195.552 -18.836 198.633 -18.1647 201.61C-17.6378 204.827 -16.7653 207.977 -15.5622 211.007C-13.1167 216.467 -11.1951 222.146 -9.82317 227.968C-8.03342 234.581 -8.69217 241.619 -11.6784 247.785C-12.1584 248.76 -12.5788 249.763 -12.9372 250.788C-15.0914 257.49 -17.1891 264.231 -19.3641 270.926C-20.8305 275.497 -22.437 280.006 -23.9451 284.565C-24.2926 285.646 -24.2465 286.814 -23.8147 287.863C-23.383 288.911 -22.5939 289.773 -21.587 290.296C-17.0413 291.62 -11.5783 289.636 -10.8792 284.591C-10.585 282.415 -10.1441 280.124 -9.70059 277.9C-9.37881 275.746 -8.87424 273.623 -8.19246 271.554C-6.775 267.849 -5.00921 264.27 -3.43107 260.635C-2.74299 259.049 -2.12358 257.465 -1.45647 255.872C0.861696 250.395 2.55509 244.577 7.52095 240.571C9.68866 238.282 12.0602 236.193 14.6068 234.333C19.953 231.33 25.4861 228.671 31.1731 226.376C36.9365 223.982 42.6111 221.373 48.1969 218.552C53.5638 216.142 58.7117 213.274 63.5849 209.98C65.0359 208.836 66.5745 207.809 68.1886 206.909L68.1669 206.903ZM56.8033 198.234L57.0191 197.958C60.1606 196.181 63.3247 194.478 66.3949 192.635C72.244 189.09 78.4545 186.17 84.0765 182.243C87.2282 180.039 90.7889 178.452 94.1389 176.577L94.5541 177.172C92.0591 179.138 89.6003 181.137 87.1115 183.081C84.6228 185.026 82.7443 186.74 80.4693 188.34C77.6552 190.236 74.8845 191.985 72.0829 193.839C69.2822 195.692 66.9226 197.425 64.3243 199.203C63.2204 199.967 62.07 200.809 60.8194 199.2C59.8972 200.424 57.8566 200.599 58.3988 202.544C57.2794 203.123 56.3933 204.381 54.5799 203.853C55.4371 202.927 56.1455 202.047 56.889 201.358C57.1183 201.165 57.3062 200.925 57.4384 200.656C57.5706 200.386 57.646 200.092 57.6594 199.791C57.6718 199.491 57.6222 199.191 57.5138 198.912C57.4054 198.632 57.2391 198.377 57.0274 198.164L56.8054 198.303C55.4815 199.976 54.1638 201.628 52.8254 203.275C52.7831 203.42 52.3452 203.292 52.0912 203.31L51.9259 203.487C51.3848 204.416 50.8189 205.427 50.316 206.298L49.7635 205.867C50.4895 205.082 51.201 204.271 51.9259 203.487C51.9259 203.487 51.9869 203.279 52.0117 203.195C52.4877 200.393 54.7741 199.454 56.824 198.24L56.8033 198.234ZM47.1085 204.189C47.6599 203.535 48.6874 203.268 49.4888 202.846L49.9225 203.379L44.4266 209.515L43.7068 209.034C44.8458 207.375 45.8806 205.686 47.1291 204.195L47.1085 204.189ZM43.5818 205.424C42.3395 208.401 40.3134 210.985 37.7193 212.9C38.2263 212.166 38.72 211.405 39.2694 210.683C39.8187 209.96 40.521 209.102 39.5957 207.928L43.5818 205.424ZM88.1659 150.863C95.6756 147.755 102.857 143.83 110.301 140.636C114.76 138.675 119.06 136.373 123.163 133.749C124.799 132.71 126.318 131.456 128.026 130.483C126.229 133.251 123.771 135.528 120.873 137.108C118.181 138.587 115.259 139.998 112.484 141.452C110.881 142.298 109.313 143.176 107.76 144.081C101.16 147.95 94.5696 151.867 87.9903 155.742C87.5711 155.934 87.1384 156.095 86.6964 156.226C86.9814 155.246 87.1632 154.62 87.4854 153.515C83.7842 155.038 82.6132 159.062 78.7241 160.69C81.3698 156.417 83.5663 152.758 88.1659 150.863ZM69.9772 160.202C71.0192 159.681 72.1004 159.239 73.2106 158.882C73.2106 158.882 73.254 158.736 73.2777 158.652C75.0622 157.259 77.0997 156.223 79.2766 155.604C77.4033 159.72 74.1926 163.083 70.1673 165.144C71.1886 163.654 72.1469 162.304 73.0908 160.927C73.5772 160.187 74.1803 159.436 73.2591 158.715L73.1042 158.782C70.7383 161.781 68.4003 164.765 65.9715 167.745C65.1422 168.838 63.9825 169.634 62.6638 170.016C63.113 168.555 63.934 167.235 65.0462 166.186C65.6462 165.524 66.6489 164.798 66.6282 164.09C66.8131 161.747 68.4571 161.072 69.9772 160.202ZM64.1281 172.523C67.7745 170.486 71.1245 168.068 74.5913 165.797C76.2611 164.723 77.5974 162.85 80.0769 163.889C80.3898 163.98 81.1984 163.378 81.5164 162.906C82.4882 161.463 83.81 160.292 85.358 159.5C89.8368 156.936 94.3155 154.372 98.7137 151.694C103.112 149.015 107.419 146.107 112.032 143.47C114.249 142.147 116.679 141.18 119.37 139.861C119.051 140.492 119.085 140.841 118.814 140.92C113.378 144.517 109.356 149.634 104.686 154.02C100.052 158.734 94.8618 162.867 89.2296 166.326C86.9143 167.597 84.3677 168.575 82.0555 169.758C76.4005 172.635 70.8282 175.537 65.1102 178.396C61.6331 180.007 58.0167 181.398 54.4023 183.014C49.7862 185.042 45.2001 187.121 40.4033 188.914C43.9041 186.134 47.5773 183.539 50.8612 180.65C54.7875 176.951 59.5854 175.001 64.0455 172.5L64.1281 172.523ZM33.2581 187.74C35.6952 185.35 38.498 183.339 41.1488 181.147C45.7474 177.22 50.5494 173.536 55.5341 170.112C58.3296 168.28 61.1127 166.488 63.902 164.677L64.1209 165.012C62.2982 167.467 60.4332 169.91 58.6281 172.46C58.3317 172.79 57.963 173.047 57.5499 173.21C53.3717 174.821 50.3253 177.983 46.9174 180.677C43.0831 184.233 39.0184 187.53 34.7483 190.548C32.3473 192.111 30.2189 193.753 27.9635 195.517C24.6176 198.034 22.0927 201.487 20.71 205.439C20.4095 206.12 20.046 206.771 19.6236 207.385C16.5854 212.539 13.5256 217.688 10.5977 222.852C8.73426 226.13 6.44201 229.143 3.78171 231.815C3.77468 231.299 3.82622 230.782 3.93548 230.277C5.52663 226.443 7.11769 222.608 8.79219 218.798C9.40467 217.393 10.2762 216.109 11.0138 214.74C12.7325 211.554 14.3899 208.349 16.067 205.15C16.825 203.788 17.234 202.075 19.2993 201.816C19.8126 201.763 20.3021 201.09 20.7306 200.627C24.9078 196.302 28.9301 191.885 33.1755 187.715L33.2581 187.74ZM132.954 97.3109C134.687 95.5533 136.483 93.8142 138.257 92.069C139.217 91.1045 140.305 91.3306 141.649 91.6084C138.617 94.2542 135.658 96.65 132.662 99.1708L132.192 98.7629C132.384 98.2486 132.64 97.7612 132.954 97.3109ZM112.848 97.3842C114.934 96.5891 117.123 96.1409 119.19 95.5667L119.99 94.9172L124.596 94.2449L124.776 94.0931L124.901 94.1302C128.669 92.8105 132.614 92.068 136.603 91.9265C135.703 92.8415 135.178 93.4797 134.552 93.9991C131.831 95.7908 129.278 97.8262 126.924 100.08C126.741 100.32 126.139 100.213 125.434 100.302C126.647 97.5329 129.816 96.8266 130.653 94.1075C126.725 95.6338 124.098 98.9849 120.663 101.152L120.22 100.729C121.099 99.809 121.912 98.9601 122.814 97.9563C123.718 96.9515 124.484 96.3381 125.261 95.4562C126.039 94.5743 125.454 94.4039 124.958 94.0105L124.791 93.9619C123.404 95.2321 121.996 96.4961 120.593 97.7395C119.191 98.9818 117.8 100.342 116.389 101.537C116.09 101.789 115.645 101.84 114.927 101.586C116.192 100.348 117.379 99.0654 118.689 97.9088C119.183 97.5939 119.572 97.1426 119.811 96.6097C120.051 96.0769 120.13 95.4851 120.038 94.9079C119.97 95.1371 119.734 95.4077 119.537 95.4634L119.19 95.5667C117.543 96.8741 115.902 98.1598 114.285 99.5219C113.245 100.373 112.321 101.37 111.24 102.209C110.761 102.437 110.25 102.594 109.725 102.673L109.459 102.188C110.236 101.306 111.046 100.388 111.805 99.5684C111.74 99.4186 111.66 99.274 111.569 99.1377C111.032 99.2162 110.507 99.368 110.012 99.59C108.833 100.378 107.737 101.19 106.551 102.156C105.771 102.677 104.889 103.023 103.964 103.171C103.039 103.319 102.092 103.266 101.189 103.015C101.576 102.54 101.713 102.15 101.99 102.05C105.509 100.45 109.186 98.8517 112.836 97.4266L112.848 97.3842ZM131.022 31.6073C135.695 26.0769 141.184 21.2908 147.299 17.4136C150.15 15.3933 153.047 13.2061 155.868 11.2899C159.362 9.07296 163.015 7.17282 166.702 5.14773L167.219 5.70507C166.173 7.41075 165.017 9.04632 163.758 10.6011C157.87 17.1335 152.744 24.315 148.48 32.0069C147.772 33.2712 147.395 34.7221 146.62 35.9891C144.821 38.9037 143.006 41.7227 140.936 44.5583C137.334 49.4514 134.232 54.6938 131.677 60.2066C130.405 62.589 128.981 64.8867 127.412 67.0853C127.013 67.6874 126.573 68.2626 126.097 68.8058C124.095 71.2542 122.016 73.6573 120.083 76.1027C118.15 78.5481 116.034 81.0761 114.273 83.7084C112.14 86.981 109.531 89.919 106.533 92.4253C104.58 94.0053 102.922 95.8972 101.085 97.6249C100.575 98.0524 100.03 98.4396 99.4593 98.7794C99.3943 98.1092 99.4717 97.4328 99.6844 96.7935C99.8982 96.1543 100.243 95.5667 100.698 95.069C104.492 89.0257 108.483 83.0857 112.087 76.9195C114.672 72.4697 116.596 67.6461 119.089 63.1239C120.521 60.5329 122.459 58.2249 124.146 55.7751C125.598 53.8282 126.942 51.8033 128.173 49.7096C131.017 44.631 134.403 39.8758 138.272 35.5271C140.453 33.0858 142.607 30.6592 144.871 28.4004C147.134 26.1414 148.987 24.2832 150.948 22.2077C151.781 21.3646 152.576 20.4199 153.356 19.6063C155.027 17.8307 156.704 15.8762 158.446 14.0085C158.917 13.4082 159.35 12.7786 159.741 12.1235C159.109 11.9777 158.449 12.0198 157.841 12.2447C157.233 12.4697 156.704 12.8676 156.319 13.3894C153.02 16.9527 149.721 20.5161 146.422 24.0795C142.694 28.2642 139.158 32.6409 135.408 36.8195C128.762 44.1132 123.988 52.7436 118.236 60.6145C116.687 63.063 115.353 65.6416 114.25 68.3204C112.615 71.532 111.056 74.7871 109.316 77.9677C107.282 81.6957 105.065 85.3473 102.911 89.0185C102.674 89.3603 102.414 89.6856 102.131 89.9902L101.783 89.7073C102.619 87.8299 103.326 85.8967 103.897 83.9222C104.385 81.7236 104.681 79.4858 104.78 77.2355C104.94 74.9781 105.579 72.7816 106.655 70.7916C112.401 60.2933 118.675 50.0944 125.457 40.2337C127.097 37.3183 128.795 34.284 131.022 31.6073ZM88.6905 105.236C88.9094 104.485 90.7135 104.038 91.8577 103.602C93.2033 103.116 94.5758 102.708 95.9688 102.378C97.0563 102.151 98.1561 101.98 99.261 101.866C98.5867 103.131 97.6542 104.24 96.5244 105.123C95.3957 106.006 94.0935 106.642 92.7035 106.991L91.7369 105.806C90.0206 105.872 89.2265 107.201 88.1277 108.102C87.0279 109.004 86.494 110.296 84.4813 110.14C84.9728 109.537 85.3116 109.228 85.5584 108.848C86.4506 107.57 88.1298 107.085 88.5738 105.247L88.6905 105.236ZM96.8012 62.6086C98.5877 58.4913 100.115 54.2541 101.761 50.0739C102.992 46.4826 104.996 43.2053 107.632 40.4736C107.677 40.9768 107.674 41.4833 107.622 41.9859C106.896 45.2578 106.113 48.4906 105.387 51.7625C105.043 53.0672 104.807 54.3981 104.681 55.7414C104.122 63.6692 102.791 71.5238 100.705 79.1925C100.551 79.5229 100.449 79.8741 100.401 80.2355C100.647 85.3741 98.5247 89.8673 96.7857 94.5185C96.3117 96.1213 95.5227 97.6145 94.4673 98.9105C93.8694 99.4073 93.2085 99.8234 92.5011 100.148L92.1696 99.7346C92.4185 98.8796 92.7861 98.0813 93.1538 97.2841C94.6253 93.396 95.3947 89.2777 95.4277 85.1211C95.5971 82.9081 96.3923 80.7198 96.7041 78.481C97.4229 73.7492 98.4741 69.0742 99.8497 64.4912C99.892 64.3446 99.7619 64.1711 99.5998 63.7167C99.2786 64.0936 98.9812 64.4912 98.7106 64.9053C95.9131 69.7011 95.6756 75.3313 94.1885 80.44C93.4243 83.5029 92.9606 86.633 92.8037 89.7857C92.8274 91.6797 92.2863 93.5385 91.2495 95.1237C91.3207 92.702 91.4818 90.2835 91.3961 87.8608C91.3724 85.9865 91.1576 84.1204 90.7548 82.2905C90.0154 79.6541 90.2261 76.8411 91.3497 74.344C93.0329 70.4229 95.0776 66.5855 96.8012 62.6086ZM83.4765 67.2794C84.7033 73.0873 85.8764 78.9261 87.1663 84.7525C88.6957 90.1379 88.4685 95.8713 86.5188 101.12L82.7804 102.928C82.986 100.353 83.0582 97.7694 82.9983 95.1867C82.7846 91.9585 82.2269 88.7427 81.787 85.5156C81.344 81.8589 80.8338 78.197 80.2576 74.5299C80.1264 73.7296 80.1605 72.9107 80.3578 72.1248C80.556 71.3379 80.9134 70.6006 81.408 69.9572C82.0059 68.9896 82.5274 67.9765 82.9674 66.9283C83.2183 67.0006 83.4682 67.0739 83.4765 67.2794ZM82.9085 61.4592C83.0458 62.5405 83.1522 63.3398 83.1718 63.662L79.2662 69.3107C78.2862 67.0812 79.9643 66.2117 80.522 64.9951C80.932 63.5783 81.8097 62.3432 83.0128 61.4902L82.9085 61.4592ZM82.3746 55.446C82.6008 56.688 82.8724 57.8528 83.0686 59.1987C79.8683 59.6252 80.3309 63.2427 77.8071 64.453C78.7984 61.3395 80.0913 58.3294 81.6672 55.4664L82.3746 55.446ZM71.549 66.8385C71.1328 62.5157 71.3724 58.1553 72.2605 53.9043C72.7851 51.6368 72.8027 49.2445 73.1393 46.9223C73.3872 44.6747 73.7641 42.4435 74.2701 40.2397C74.6852 38.5905 75.3503 37.0144 76.2415 35.5659C79.3788 30.2646 81.5464 24.4467 82.6441 18.3851C82.9777 16.3642 83.8947 14.4848 85.2816 12.9778L85.7721 13.2338C85.6565 14.1202 85.4551 14.9933 85.1721 15.8411C83.0407 20.9883 83.0541 26.534 82.7598 31.8992C82.4644 37.2643 82.3312 43.0838 82.1753 48.6704C82.1319 50.2184 82.2528 51.7463 82.2961 53.2292C79.6039 54.7074 79.1485 57.5152 77.3589 59.777C76.8353 58.8548 76.5854 58.2393 77.1595 57.2756C78.3296 55.3543 79.291 53.3724 80.3361 51.4146C80.4889 50.9771 80.619 50.5316 80.7244 50.0801C80.3072 49.9588 79.9323 49.8495 79.8032 50.0607C77.0821 53.1138 74.457 56.1496 75.1913 60.7735C75.6415 63.9935 76.3757 67.1669 77.3847 70.2567C78.2046 73.0015 78.7705 75.8166 79.0762 78.6648C79.7712 84.0471 80.461 89.4501 80.9082 94.8273C81.0104 96.6077 81.0187 98.3921 80.9361 100.174L80.4156 100.407C80.0232 100.043 79.3871 99.7449 79.2662 99.303C78.7984 97.5495 78.4256 95.7722 78.1478 93.9784C77.4549 90.5293 76.3592 87.1741 74.8825 83.981C74.0181 81.6936 73.382 79.3267 72.9813 76.9133C72.2956 73.615 71.8092 70.2784 71.5242 66.9221L71.549 66.8385ZM53.4842 68.3658C52.2357 66.8261 53.4336 65.433 53.3954 63.5453C55.1624 65.1676 55.1241 65.6086 53.4729 68.4082L53.4842 68.3658ZM72.4908 113.413C72.5114 111.259 72.6467 109.109 72.8956 106.972C72.6292 107.029 72.0684 107.092 71.1731 107.216C69.9659 104.603 68.7215 101.73 67.5535 98.9023C66.2389 95.6473 65.1133 92.289 63.6293 89.0742C61.3853 84.7173 58.3472 80.819 54.6708 77.5774C48.8971 71.848 42.9643 66.2767 36.9809 60.6445C35.9896 59.6996 34.8474 58.9602 33.7837 58.1079C28.8238 53.8869 24.3801 49.0935 20.5468 43.8278C20.3713 43.6022 20.2484 43.3395 20.1895 43.0596C20.1296 42.7798 20.1348 42.49 20.2029 42.2122C21.784 43.464 23.4249 44.6654 25.0173 45.8754C31.0502 50.5437 37.5634 54.555 44.4472 57.8415L45.9054 58.5822C48.4251 59.9495 48.3146 59.9402 47.7756 62.7233C47.5525 63.8799 46.7573 65.3679 48.7236 66.6185C49.2327 64.8671 49.6819 63.3232 50.1136 61.8434C51.2743 61.6606 51.9342 62.1924 51.518 62.999C49.8647 66.2716 51.7091 68.4825 53.8013 70.6976C57.045 74.2057 59.9509 78.0132 62.4789 82.0675C62.7133 82.3432 62.9312 82.6334 63.1316 82.936C66.6871 90.1451 70.8984 97.0486 73.3324 104.769C73.76 106.165 74.1018 107.587 74.3558 109.025C74.5365 109.959 74.9341 110.301 75.9844 109.725C75.532 104.461 73.9283 99.3608 71.2857 94.786C69.6117 91.6756 68.0947 88.497 66.2813 85.4805C64.1622 82.0365 61.7798 78.7195 59.4996 75.3643C58.8397 74.3853 58.1034 73.4601 57.2969 72.5967C56.5276 71.8842 56.0412 70.9176 55.9296 69.8746C55.8171 68.8316 56.0856 67.7834 56.6866 66.9232C58.3523 68.4454 59.9375 70.0553 61.4359 71.7437C63.4579 74.2769 65.3002 76.9619 67.1146 79.6624C67.8148 80.7023 68.3848 81.8258 68.8113 83.0051C69.3235 84.3538 70.4957 84.9889 71.3104 85.9948C72.6736 87.7958 73.7713 89.7837 74.5686 91.8966C76.0474 95.6751 77.3351 99.4878 78.5454 103.413C78.7024 104.392 78.7241 105.389 78.6115 106.373C77.5427 107.012 76.2425 107.516 76.795 109.192C77.3475 110.868 77.9888 110.92 79.3075 110.353C79.9313 109.999 80.5209 109.588 81.0672 109.124C82.4851 108.031 84.0465 107.139 85.7071 106.471C84.7374 107.195 83.903 108.086 83.2452 109.102C82.3075 111.198 80.6913 112.92 78.657 113.986C77.8246 114.513 77.2401 115.202 78.4669 116.192C80.4383 115.093 82.4273 113.93 84.4761 112.876C86.7491 111.643 89.0819 110.525 91.4674 109.528C95.0498 108.04 98.7096 106.751 102.431 105.661C105.576 104.877 108.768 104.295 111.987 103.919C117.327 103.212 122.73 102.523 128.079 101.705C131.707 101.132 135.287 100.252 138.945 99.5746C140.645 99.2555 142.357 99.1202 144.035 98.7949C148.108 98.0121 151.418 100.085 154.859 101.629C156.342 102.286 157.7 103.292 159.436 102.147L160.974 104.631C161.438 104.516 161.864 104.527 162.104 104.326C162.642 103.763 163.341 103.38 164.106 103.23C164.871 103.081 165.663 103.17 166.374 103.487C166.53 103.568 166.699 103.618 166.874 103.633C173.736 103.369 180.6 104.575 187.484 103.615C191.046 103.115 194.683 102.974 198.256 102.589C199.445 102.4 200.619 102.13 201.77 101.78C201.819 101.614 201.874 101.426 201.762 101.19C201.324 101.063 200.906 100.556 200.494 100.572C194.825 100.935 189.163 100.644 183.501 101.914C182.157 102.118 180.789 102.131 179.442 101.953C175.913 101.695 172.395 101.425 168.888 101.143C168.379 101.108 167.908 100.858 167.046 100.788L170.513 97.6579C170.41 97.4699 170.333 97.2665 170.235 97.0569C169.698 97.0507 169.162 97.1312 168.65 97.2965C167.209 98.0534 165.892 99.0045 164.43 99.7553C163.554 100.122 162.65 100.418 161.728 100.642C162.432 98.2238 165.399 98.5212 165.623 95.9633C165.055 95.9189 164.484 95.9829 163.94 96.1523C162.358 97.0032 160.829 97.9832 159.255 98.8816C158.166 99.5147 157.047 100.252 155.609 98.8166L159.265 96.1254C158.714 94.9925 158.015 95.2187 157.347 95.5677C156.133 96.1574 154.975 96.8576 153.888 97.6589C153.122 98.2734 152.479 98.5388 151.697 98.039C148.575 96.0221 145.307 96.6769 141.956 97.4658C140.464 97.7777 139 98.1433 137.534 98.4407L137.307 97.8996L144.184 91.057C146.466 90.9816 148.75 91.0498 151.023 91.2615C156.817 91.8625 162.496 93.2731 167.899 95.45C171.305 96.8968 174.836 98.0307 178.448 98.8372C178.609 98.9054 178.777 98.9539 178.949 98.9828C184.84 99.1821 190.708 99.5332 196.552 99.5828C201.074 99.5869 205.348 99.3608 209.609 101.348C212.116 102.53 214.805 103.313 217.444 104.737C216.736 104.926 216.011 105.048 215.28 105.101C209.95 105.267 204.638 105.807 199.384 106.718C194.679 107.338 189.839 107.649 185.058 108.066C184.517 108.136 183.966 108.088 183.435 108.205C178.884 109.177 174.209 109.427 169.581 108.944C166.24 109.045 162.907 109.337 159.601 109.817C153.651 110.053 147.68 110.282 141.743 110.092C139.058 109.717 136.401 109.156 133.795 108.412C131.643 108.034 129.4 107.97 127.345 107.802L120.096 107.139C113.943 106.784 107.769 107.334 101.775 108.773C97.7069 109.62 93.7537 110.945 89.9958 112.718C87.7549 113.627 85.6916 114.925 83.903 116.554C83.0562 117.333 82.4273 118.319 82.0751 119.414C81.8479 120.371 81.344 121.239 80.6252 121.91C75.216 126.886 70.3232 132.396 66.0221 138.355C63.9949 140.885 61.7901 143.267 59.4242 145.483C58.5764 146.422 57.7957 147.419 57.0852 148.466C54.3424 152.637 51.1628 156.503 47.598 159.999C47.8634 156.458 49.3938 153.13 51.9104 150.623C52.622 150.124 53.286 149.561 53.8942 148.939C54.4643 148.223 54.8175 147.398 56.0267 147.75C56.9024 148.005 57.4745 147.516 57.8432 146.561C58.3843 145.321 59.0329 144.133 59.7826 143.008C61.7251 139.751 63.6892 136.5 65.6121 133.237C65.7515 132.758 65.7897 132.158 66.0613 131.694C66.4403 130.202 67.2716 128.864 68.4427 127.864C69.1428 127.171 69.6333 126.294 69.8574 125.335C70.1414 124.055 70.4946 122.791 70.9139 121.549C72.1128 119.027 72.6509 116.241 72.4784 113.455L72.4908 113.413ZM34.4405 120.658C33.9614 126.422 33.3521 132.17 32.7686 137.905C32.6168 138.425 32.465 138.947 32.528 139.508L31.5232 156.247C31.5211 156.516 31.4581 156.78 31.3373 157.02C31.2165 157.259 31.042 157.467 30.8272 157.628C30.5494 153.996 30.3201 150.356 30.0279 146.697C29.8554 144.725 29.6355 142.76 29.3473 140.799C28.9312 138.032 28.4468 135.266 27.9832 132.508C27.8871 131.978 27.915 131.432 28.0658 130.914C28.2166 130.397 28.4851 129.922 28.8517 129.527C29.7614 128.343 30.5008 127.043 31.4695 125.584C29.3835 124.977 29.0107 127.424 27.1105 127.345C27.1157 126.397 26.7574 125.298 27.1426 124.595C29.1625 120.999 31.3507 117.52 33.7538 113.537C34.4653 115.839 34.6987 118.262 34.4405 120.658ZM34.0946 106.308L34.7669 106.639C33.981 111.748 30.0351 115.124 27.4204 119.678C26.9608 119.201 26.6913 118.571 26.6634 117.909C26.6345 117.247 26.8503 116.597 27.2685 116.082C29.5673 112.847 31.8444 109.581 34.1008 106.287L34.0946 106.308ZM23.2906 186.082C23.5158 185.116 23.7936 184.162 24.123 183.226C25.071 180.018 25.6173 176.705 25.7495 173.363C26.0882 169.968 26.083 166.55 25.734 163.157C25.2383 159.734 24.6228 156.251 23.9474 152.979C22.4872 146.65 20.7131 140.389 19.3066 134.031C17.7214 126.958 17.4405 119.656 18.4773 112.483C19.0226 108.819 18.9968 105.103 19.4264 101.45C19.8611 96.8493 20.4415 92.291 20.8969 87.6966C21.7581 80.5598 21.1468 73.3237 19.1021 66.4326C19.0267 65.9545 19.0019 65.4692 19.0257 64.9859C21.8077 67.1844 24.0393 70.0026 25.5419 73.2153C27.2768 77.5887 28.7009 82.0964 30.1115 86.5782C31.5211 91.0601 32.7397 95.419 34.0099 99.8369C34.3063 100.788 34.5139 101.765 34.6306 102.754C34.6729 103.284 34.5201 103.811 34.1999 104.235C31.6678 107.184 29.0282 110.036 26.4569 113.042C26.2008 112.644 26.081 112.174 26.1161 111.702C26.1512 111.231 26.3391 110.784 26.652 110.429C27.7993 108.818 28.8816 107.12 29.9163 105.431C30.2323 104.666 30.4647 103.868 30.6082 103.054C28.104 103.886 27.8923 106.403 25.6751 107.023L24.9935 100.04C23.4373 100.65 23.6779 101.919 23.7285 102.68C23.775 105.317 23.9856 107.934 24.1757 110.545C24.4101 113.78 24.8923 117.02 24.8789 120.25C24.9326 125.227 25.4737 130.187 26.494 135.06C27.7384 142.208 28.0854 149.253 28.6761 156.391C28.8868 159.167 28.5202 161.978 28.4912 164.797C28.4437 166.593 28.4861 168.392 28.4107 170.202C28.3869 171.097 28.2651 171.986 28.0462 172.855C27.3491 174.784 26.7749 176.754 26.3288 178.756C25.8218 182.338 24.6042 185.783 22.7464 188.887C22.9509 187.951 23.0924 186.997 23.2969 186.062L23.2906 186.082ZM35.465 170.989C36.4099 168.753 37.5365 166.593 38.4876 164.336C39.954 160.85 41.3378 157.34 42.7846 153.848C43.0924 153.106 43.4528 152.387 43.8627 151.696C46.0902 147.53 47.3894 142.932 47.6733 138.217C47.3284 138.502 47.0362 138.845 46.8121 139.233C45.8207 141.862 44.9192 144.494 43.9898 147.142C43.7109 148.101 43.4311 149.06 43.0128 149.956C40.1905 155.92 37.237 162.027 34.454 168.093C33.7177 169.688 33.1218 171.347 32.4629 172.987C32.1118 174.196 31.7597 175.406 31.2671 176.552L30.5587 176.345C30.6361 175.698 30.8427 175.072 31.1669 174.506C31.4912 173.94 31.9259 173.444 32.4454 173.05L32.4877 172.903C32.3814 172.646 32.1294 172.347 32.2048 172.165C34.6626 165.665 37.2391 159.222 39.5926 152.693C40.9981 148.872 41.9874 144.93 43.2886 141.079C44.4875 137.584 45.8744 134.142 47.1828 130.655C47.9356 128.613 48.6637 126.812 49.3442 124.861C50.4915 121.62 51.5397 118.329 52.6798 115.11C52.9462 114.464 53.4223 113.926 54.0305 113.581C53.9676 116.05 53.9521 118.512 53.8416 120.99C53.5617 126.925 53.2818 132.86 52.8853 138.806C52.7872 142.91 51.4932 146.896 49.1625 150.276C46.8286 153.397 46.0376 157.125 44.5495 160.604C44.3006 161.459 43.8648 162.259 43.4486 163.066C41.7127 166.542 39.9984 170.023 38.1644 173.448C37.0171 175.602 35.6736 177.654 34.3383 179.911C35.8305 181.545 34.7503 182.927 33.4998 184.191C30.9965 186.651 28.4159 189.067 25.5595 191.81C26.0097 189.034 27.1818 186.426 28.959 184.249C30.474 182.332 31.739 180.229 32.7252 177.994C33.8075 175.754 34.5025 173.286 35.4712 170.967L35.465 170.989ZM-4.53211 152.289C-4.39239 152.927 -4.36936 153.585 -4.46416 154.231C-5.59578 157.089 -7.32666 159.67 -9.54022 161.801C-9.02966 158.105 -6.24596 155.613 -5.18808 152.211L-4.53211 152.289ZM-6.14516 150.914C-7.60331 153.205 -9.09709 155.461 -10.5909 157.718C-10.6698 157.989 -11.1623 158.049 -11.626 158.322C-11.7219 157.796 -11.9436 157.392 -11.8351 157.175C-10.2202 153.958 -8.59665 150.789 -6.81951 147.326C-5.74861 148.542 -5.31541 149.618 -6.127 150.852L-6.14516 150.914ZM-11.4698 206.272C-13.1166 200.275 -13.9478 194.039 -15.1673 187.894C-15.2993 186.548 -15.523 185.214 -15.8366 183.898C-17.8273 178.072 -17.5405 171.957 -18.1909 165.955C-18.8491 160.773 -19.9893 155.663 -21.5966 150.692C-22.8099 146.313 -24.1908 142.043 -25.3981 137.643C-25.761 136.094 -25.9828 134.515 -26.0609 132.926C-26.3094 129.507 -26.3251 126.064 -26.6901 122.655C-26.7198 118.984 -26.0729 115.338 -24.7814 111.902C-16.4738 122.214 -12.4366 134.065 -7.35216 145.271L-13.1067 154.317C-12.9508 152.386 -12.3083 150.527 -11.2394 148.912C-10.5392 147.284 -9.81821 145.661 -9.03988 143.92C-10.0662 143.327 -10.5394 143.709 -10.9941 144.573C-11.8417 146.315 -12.8475 147.975 -13.9988 149.534C-14.0637 147.648 -13.4772 145.799 -12.3382 144.294C-11.7495 143.515 -11.3374 142.799 -12.4959 141.806C-13.4602 143.177 -14.3256 144.44 -15.5755 146.247C-16.7223 142.882 -17.5742 140.215 -18.5773 137.367C-19.7151 137.624 -19.8605 138.667 -19.5793 139.721C-19.1311 141.367 -18.4588 142.942 -17.915 144.571C-17.1597 146.871 -16.4374 149.208 -15.6821 151.509C-14.9269 153.81 -14.2873 155.963 -13.3939 158.101C-12.5006 160.239 -10.9894 162.895 -9.96651 165.364C-9.45285 166.613 -9.1509 167.939 -9.07314 169.288C-8.66213 174.248 -8.3676 179.219 -8.06688 184.17C-7.70772 187.677 -7.88421 191.217 -8.59025 194.671C-9.00384 197.33 -8.92732 200.043 -8.3644 202.676C-7.68077 207.398 -6.80423 212.313 -5.91818 217.118C-5.37375 218.956 -5.1669 220.879 -5.30787 222.791C-7.55829 217.002 -9.9726 211.776 -11.4515 206.211L-11.4698 206.272ZM-15.3059 286.357C-15.7592 287.016 -16.4286 287.495 -17.1983 287.713C-17.9679 287.931 -18.7895 287.873 -19.521 287.55C-19.7886 287.38 -20.0158 287.154 -20.1867 286.887C-20.3576 286.62 -20.468 286.319 -20.5102 286.005C-20.5524 285.691 -20.5254 285.372 -20.4311 285.069C-20.3367 284.767 -20.1774 284.489 -19.9641 284.255C-19.5098 283.683 -18.8594 283.303 -18.1395 283.187C-17.4197 283.07 -16.6822 283.225 -16.071 283.624C-14.9352 284.384 -14.648 285.417 -15.2877 286.294L-15.3059 286.357ZM-6.25236 259.294C-8.10737 263.413 -10.0519 267.529 -11.6419 271.749C-12.7939 274.851 -13.4931 278.108 -14.3391 281.481L-18.6369 280.705C-18.5532 280.064 -18.4143 279.431 -18.2219 278.812C-17.213 276.279 -16.0849 273.803 -15.0761 271.27C-12.7564 265.475 -10.4366 259.682 -8.22117 253.857C-7.70152 252.539 -7.72672 250.994 -7.23661 249.62C-6.32588 247.036 -5.20667 244.512 -4.22737 241.924C-3.88349 241.11 -3.68439 240.242 -3.63885 239.359C-3.61809 237.578 -3.81192 235.758 -3.85984 233.979C-4.10396 231.822 -3.92913 229.638 -3.34473 227.547C-2.97679 226.15 -2.86051 224.698 -3.00127 223.259C-3.03679 221.173 -3.1858 219.091 -3.44769 217.022C-3.80438 214.363 -4.35222 211.737 -4.84626 209.083L-6.35593 201.293L-1.98717 194.987C-4.03601 194.255 -4.2884 196.443 -5.52256 196.876C-6.21528 194.593 -6.29191 194.39 -4.06968 191.418C-2.9108 189.923 -2.31257 187.791 0.0386467 187.094L-0.37505 185.097C-3.23114 185.351 -3.09823 188.625 -5.38232 189.634C-5.57502 189.198 -5.6536 188.721 -5.61054 188.246C-5.56748 187.772 -5.40421 187.317 -5.13623 186.923C-3.8776 185.163 -2.53284 183.497 -1.35765 181.712C-0.993937 181.243 -0.767979 180.683 -0.705296 180.093C-0.700855 179.196 -0.765295 178.3 -0.897789 177.413C-2.39084 179.512 -3.88379 181.61 -5.35599 183.716L-6.03116 183.315C-6.9584 179.585 -3.60538 177.779 -1.99016 175.105C-2.13825 174.292 -2.72213 174.123 -3.33606 174.6C-4.51611 175.545 -5.60136 176.632 -7.07303 178.036C-7.31551 174.595 -7.42229 171.465 -7.73416 168.185C-5.54466 166.571 -4.0042 164.228 -3.39089 161.578C-5.26966 160.262 -5.19882 162.816 -6.43742 162.953C-6.02207 160.791 -5.075 158.766 -3.6817 157.06C-2.20248 158.351 -2.42306 160.118 -2.30503 161.578C-2.02703 166.167 -1.38026 170.728 -0.370914 175.215C-0.319487 175.827 -0.33952 176.443 -0.430706 177.052C0.789721 179.047 1.38403 181.363 1.27549 183.7C1.33363 185.765 1.27559 187.833 1.10169 189.892L0.832054 197.346C1.21177 203.812 1.59749 210.258 1.61917 216.71C1.41986 219.145 0.954844 221.55 0.232275 223.884C-0.950974 228.424 -1.63131 233.08 -1.79643 237.769C-1.80376 238.649 -1.34288 239.552 -1.45441 240.402C-1.82142 242.828 -1.13717 245.605 -2.06906 247.642C-3.767 251.377 -4.55091 255.468 -6.23418 259.232L-6.25236 259.294ZM17.4426 226.767C13.728 229.35 10.1432 232.106 6.505 234.892C5.66357 235.529 4.89608 236.302 3.67958 237.373C3.76994 236.776 3.9394 236.193 4.18332 235.642C6.25127 232.132 9.02403 229.088 12.3267 226.703C14.2619 225.307 16.098 223.777 17.8205 222.127C24.0383 217.305 30.5649 212.896 37.3599 208.929C37.6677 208.744 37.9878 208.581 38.3162 208.438L38.7892 208.756C38.5568 209.279 38.2821 209.782 37.9671 210.259C36.1971 212.299 34.5108 214.365 32.5858 216.314C31.9745 216.951 31.2878 217.511 30.5401 217.981C26.1584 220.913 21.7654 223.728 17.4612 226.704L17.4426 226.767ZM31.0389 222.175C29.1377 222.877 27.189 223.444 25.2073 223.87L24.9708 223.281C25.734 222.915 26.4455 222.489 27.2169 222.171C27.9883 221.853 28.5697 221.954 28.9952 221.58C35.1686 215.913 42.9044 212.646 50.0754 208.603C53.5338 206.669 57.2432 205.193 60.6614 203.316C64.0806 201.438 67.3924 199.462 70.7404 197.519C72.213 196.658 73.7259 195.809 75.1334 194.862C75.7613 194.333 76.3344 193.742 76.8446 193.099C77.3351 192.422 77.9351 191.832 78.6198 191.353C81.0187 189.979 83.1801 188.224 85.0172 186.158C86.7966 184.785 88.6709 183.54 90.6257 182.431C92.1355 181.433 93.5586 180.312 94.8814 179.078C95.5041 178.272 95.8604 177.292 95.9007 176.275C100.4 172.579 104.893 168.903 109.379 165.248L109.739 165.647C107.711 167.794 105.684 169.941 103.642 172.06L90.0919 186.211C86.9009 189.412 83.366 192.252 79.5523 194.678C72.6891 199.217 65.8682 203.768 58.91 208.166C49.9638 213.462 40.6563 218.123 31.0564 222.112L31.0389 222.175ZM138.003 212.144C138.256 211.766 138.542 211.41 138.855 211.081C140.901 209.414 143.046 207.641 145.072 205.81C146.393 204.612 147.548 203.206 148.79 201.894L151.258 199.4C151.76 198.979 152.238 198.528 152.69 198.053C159.399 190.077 166.906 182.784 172.87 174.184C174.282 172.421 175.805 170.749 177.426 169.176C180.725 165.614 183.705 162.138 186.899 158.702C188.116 157.403 189.514 156.286 191.052 155.388L191.732 156.083C191.348 156.627 191.025 157.189 190.611 157.68C187.95 160.66 185.284 163.654 182.614 166.661C180.965 168.442 179.141 170.355 177.512 172.3C175.474 174.716 173.636 177.302 171.602 179.627C168.893 182.798 166.097 185.874 163.286 188.923C159.514 193.027 155.5 196.948 151.89 201.191C148.417 205.229 144.395 208.764 139.945 211.691C139.665 211.887 139.348 212.022 139.013 212.089C138.679 212.155 138.334 212.151 138 212.075L138.003 212.144ZM0.197269 196.03L0.891956 197.295C0.675816 197.572 0.43881 197.842 -0.191435 198.609C-0.176462 197.391 -0.194118 196.753 -0.184927 196.1L0.197269 196.03Z" fill="#101A24"/>
</g>
</svg>
