<svg width="164" height="193" viewBox="0 0 164 193" fill="none" xmlns="http://www.w3.org/2000/svg">
<path d="M160.024 163.152C159.457 162.589 158.736 162.209 157.954 162.058C156.327 161.822 154.643 161.788 152.976 161.693C150.413 161.451 147.829 161.542 145.29 161.963C141.699 162.653 138.029 162.84 134.386 162.517C130.262 162.312 126.129 162.359 122.01 162.66C119.327 162.793 116.669 163.545 113.974 163.607C112.337 163.573 110.719 163.96 109.275 164.73C107.087 165.8 104.801 166.654 102.449 167.284C97.6262 168.874 92.809 170.443 87.9987 171.991C86.6713 172.418 85.3128 172.717 83.9776 173.057C84.1455 172.479 84.6715 172.36 84.9701 172.092C87.95 169.725 91.418 168.049 95.1243 167.186C97.5991 166.506 100.036 165.694 102.423 164.752C105.268 163.527 108.265 162.69 111.332 162.263C112.335 162.136 113.312 161.848 114.224 161.409C118.1 159.098 122.196 157.174 126.451 155.667C127.138 155.435 127.796 155.126 128.413 154.747C133.578 151.963 137.781 147.884 142.376 144.324C145.685 141.746 148.976 139.112 152.363 136.675C156.418 134.055 159.78 130.493 162.162 126.294C162.679 125.585 163.028 124.768 163.186 123.904C163.343 123.041 163.304 122.152 163.072 121.306C162.201 121.341 161.341 121.507 160.521 121.801C154.704 125.022 148.947 128.327 143.152 131.588C139.923 133.427 136.682 135.246 133.404 137.019C132.108 137.744 130.714 138.287 129.443 138.984C125.767 140.845 122.113 142.746 118.42 144.603C117.85 144.849 117.262 145.058 116.664 145.227C118.1 143.046 119.695 140.973 121.434 139.025C122.438 137.843 123.448 136.646 124.506 135.513C126.604 133.312 128.787 131.168 130.872 128.894C133.625 125.901 136.195 122.717 139.065 119.843C141.761 117.061 143.965 113.84 145.581 110.319C146.753 107.864 148.141 105.54 149.487 103.188C150.269 101.839 151.225 100.592 152.039 99.2533C153.298 97.1971 152.866 96.4103 150.556 95.6707C147.679 98.222 144.802 100.773 141.924 103.324C139.047 105.875 135.96 108.62 133.01 111.303C131.179 113.294 129.155 115.1 126.968 116.694C126.583 116.974 126.233 117.299 125.924 117.661C123.735 119.768 121.488 121.842 119.347 124.015C116.949 126.434 114.692 128.946 112.379 131.424C111.327 132.827 110.09 134.079 108.702 135.15C108.763 134.591 108.785 134.343 108.805 134.095C108.998 132.27 109.237 130.459 109.373 128.652C109.478 127.361 109.33 126.064 109.498 124.791C109.796 122.37 110.221 119.918 110.63 117.581C111.026 115.097 111.79 112.688 112.898 110.43C113.534 108.926 113.992 107.354 114.262 105.744C114.526 104.838 114.535 103.875 114.721 102.946C115.111 100.908 115.619 98.8696 115.916 96.8041C116.212 94.7386 116.326 92.7728 116.439 90.7553C116.438 90.121 116.296 89.4959 116.024 88.9227C115.652 88.1034 115.074 88.0531 114.402 88.6712C113.732 89.2893 113.394 89.7504 112.82 90.2099C110.177 92.304 108.3 95.3164 105.906 97.8383C105.767 97.99 105.653 98.1625 105.57 98.3505C103.913 101.161 102.956 104.329 102.781 107.586C102.743 110.644 102.002 113.652 100.611 116.376C99.4542 118.665 98.6102 121.097 97.62 123.451C97.5062 123.842 97.2834 124.201 97.0962 124.553C95.556 127.654 94.4482 130.952 93.803 134.354C93.154 137.164 93.0147 140.088 92.5583 142.937C92.2427 145.911 91.401 148.804 90.0712 151.482C88.1504 155.228 85.8737 158.781 83.2721 162.092C82.5635 163.039 81.7442 163.899 80.8322 164.652C77.8716 166.79 74.8136 168.796 71.9072 170.983C68.4438 173.567 65.1049 176.307 61.6795 178.935C60.7148 179.688 59.59 180.293 58.6122 180.974C59.7261 178.854 60.9531 176.796 62.2875 174.809C66.5879 168.3 70.9309 161.821 75.205 155.288C78.2538 150.635 81.2019 145.918 84.2089 141.236C85.2873 139.568 86.3456 137.91 87.4309 136.278C87.5911 136.113 87.7172 135.918 87.8015 135.704C87.8858 135.492 87.9276 135.263 87.9229 135.034C87.9191 134.804 87.8696 134.578 87.7775 134.368C87.6854 134.157 87.5532 133.967 87.3876 133.808C87.0333 133.929 86.696 134.092 86.3819 134.295C83.9381 136.345 81.4874 138.36 79.1349 140.505C76.1094 143.216 73.0946 145.948 70.213 148.803C67.7878 151.316 65.419 153.981 62.9946 156.546C60.5709 159.11 58.0281 161.386 55.8651 164.044C51.4897 169.412 47.2944 174.918 43.1155 180.427C41.5559 182.327 40.3847 184.513 39.6668 186.862C38.9125 189.409 37.5928 191.753 35.8065 193.719C34.8473 194.863 33.796 195.913 32.8514 197.061C30.4911 199.932 28.0992 202.794 25.8341 205.744C24.4749 207.523 23.2402 209.395 22.1371 211.343C21.4022 212.791 20.3245 214.036 18.9971 214.971C15.9584 216.922 13.4125 219.551 11.5605 222.65C11.0027 223.546 10.1231 224.194 9.10199 224.459C9.26986 223.881 9.47022 223.6 9.62416 223.306C11.0298 220.923 12.3101 218.468 13.4597 215.951C14.6193 213.125 16.0381 210.413 17.6982 207.849C18.331 206.811 18.8408 205.702 19.2191 204.547C19.7668 203.012 19.9981 201.52 20.5234 200.064C22.6361 194.495 24.9476 189 26.9349 183.393C28.4257 179.202 29.5667 174.875 30.8284 170.599C31.4102 168.6 31.9973 166.585 32.4383 164.544C32.4901 163.887 32.4661 163.227 32.3679 162.575C31.5185 163.107 30.8625 163.323 30.5074 163.728C28.7892 165.905 27.1508 168.156 25.455 170.374C23.7593 172.591 22.0945 174.817 20.3338 176.965C18.0185 179.799 15.4532 182.44 13.3065 185.391C8.77475 191.994 5.32297 199.277 3.07876 206.966C2.01275 210.797 1.17417 214.689 0.567673 218.62C0.00062561 221.674 -0.390041 224.763 -0.780708 227.852C-0.903709 229.935 -1.49435 231.964 -2.50876 233.787C-4.17323 236.42 -5.51682 239.232 -8.06528 241.235C-8.26045 241.381 -8.34686 241.679 -8.5244 241.88C-9.61193 243.347 -10.7743 244.756 -12.0068 246.103C-15.796 249.982 -19.772 253.687 -23.481 257.639C-25.3703 259.648 -25.5636 262.116 -23.0886 263.684C-22.5183 264.053 -21.9234 264.396 -21.3485 264.749C-21.0118 264.99 -20.6042 265.112 -20.1906 265.094C-19.7771 265.076 -19.3814 264.92 -19.0664 264.651C-17.9146 263.826 -16.8275 262.913 -15.8149 261.921C-13.3435 259.252 -11.0908 256.518 -8.55698 253.867C-5.80777 251.058 -2.86068 248.443 -0.00479317 245.733C1.68242 243.941 3.99083 242.861 6.44855 242.714C8.74458 242.601 11.0159 242.191 13.2075 241.497C17.1605 240.258 21.0069 238.684 24.8934 237.325C28.0675 236.124 31.1108 234.602 33.9754 232.784C36.4107 231.324 38.8963 229.946 41.4306 228.65C45.051 226.807 48.7442 225.12 52.3576 223.36C53.8538 222.588 55.2957 221.718 56.6743 220.753C58.6702 219.368 60.5129 217.753 62.573 216.438C65.501 214.593 68.2194 212.436 70.681 210.004C71.3053 209.391 71.8608 208.712 72.3381 207.979C73.0908 206.723 74.0903 205.631 75.2754 204.771C76.4606 203.91 77.8074 203.298 79.2347 202.972C80.5622 202.776 81.8409 202.332 83.0044 201.663C84.2894 201.115 85.6563 200.786 87.0495 200.688C89.6225 200.116 92.1932 199.491 94.7724 198.954C96.7435 198.528 98.7603 198.234 100.736 197.793C103.854 197.091 106.905 196.098 110.047 195.606C114.555 194.734 118.943 193.333 123.123 191.432C123.58 191.26 123.895 190.759 124.448 190.259C123.778 189.589 123.335 188.783 122.666 188.52C121.184 187.825 119.603 187.364 117.979 187.156C112.574 186.752 107.16 186.548 101.756 186.314C99.1826 186.442 96.6027 186.371 94.0405 186.101C90.2816 185.556 86.4531 185.73 82.7592 186.613C80.3703 187.019 77.9861 187.528 75.6019 187.918C72.5941 188.416 69.5639 188.754 66.5578 189.301C62.3223 190.247 58.2168 191.703 54.3326 193.639C53.6139 193.955 52.8883 194.235 51.8633 194.614C52.1294 194.048 52.0992 193.802 52.2965 193.707C55.9935 190.903 59.5196 187.694 63.8974 185.579C67.7769 183.837 71.9605 182.874 76.2107 182.741C78.6467 182.638 81.0921 182.621 83.5219 182.481C87.7117 182.118 91.9224 182.07 96.1192 182.335C98.9536 182.737 101.839 182.562 104.605 181.823C109.143 180.433 113.643 178.947 118.171 177.537C121.257 176.492 124.464 175.842 127.714 175.604C129.679 175.528 131.628 175.207 133.515 174.65C140.455 172.518 147.363 170.208 154.233 167.973C155.958 167.385 157.647 166.694 159.29 165.903C159.573 165.833 159.831 165.688 160.038 165.485C160.245 165.28 160.394 165.024 160.468 164.744C160.544 164.463 160.542 164.167 160.464 163.887C160.385 163.607 160.233 163.353 160.024 163.152ZM114.183 165.566C114.831 165.026 116.075 165.236 117.048 165.096C115.055 167.27 112.683 169.066 110.049 170.395L109.754 170.071C111.142 168.486 112.622 166.982 114.183 165.566ZM107.705 168.205C108.777 167.025 109.857 165.815 111.879 166.031C110.084 167.829 108.386 169.589 106.592 171.27C106.314 171.454 106 171.58 105.672 171.639C105.343 171.697 105.005 171.687 104.68 171.611C105.682 170.496 106.678 169.346 107.705 168.205ZM105.966 167.834C104.764 169.407 103.454 170.894 102.044 172.284C101.288 172.962 99.9671 173.017 98.9034 173.352C99.5602 171.939 100.543 170.702 101.77 169.743C102.998 168.783 104.436 168.129 105.966 167.834ZM130.027 140.764L130.362 141.065C129.569 141.986 128.845 142.961 128.001 143.766C127.157 144.571 126.883 146.033 124.789 146.067C126.809 144.249 128.089 142.182 130.027 140.764ZM124.892 147.927C128.333 146.467 131.661 144.758 134.852 142.812C136.517 141.924 138.153 140.96 139.8 140.016C140.354 139.686 140.886 139.315 141.863 138.753C141.113 138.534 140.66 138.403 140.429 138.437C139.055 139.014 137.725 139.691 136.451 140.464C134.657 141.676 132.697 142.624 130.633 143.278C131.674 141.971 132.699 140.661 133.768 139.379C134.061 139.101 134.411 138.891 134.794 138.762C137.881 137.363 140.835 135.688 143.621 133.758C146.791 131.834 150.047 130.02 153.299 128.103C155.052 127.088 156.81 126.109 158.586 125.135C158.989 124.913 159.42 124.768 160.22 124.408C159.249 126.359 157.848 128.066 156.124 129.4C153.372 131.987 150.463 134.529 147.573 136.89C146.087 138.153 144.464 139.069 142.895 140.155C142.595 140.309 142.302 140.478 142.018 140.662C138.844 143.127 135.67 145.592 132.558 148.074C130.354 149.868 127.929 151.372 125.343 152.549C121.159 154.465 117.136 156.7 112.997 158.697C112.075 159.072 111.112 159.332 110.128 159.472C108.86 159.639 107.602 159.878 106.361 160.189C103.85 161.016 101.391 162.012 98.908 162.916C97.9789 163.255 97.0328 163.539 96.1107 163.796L95.843 163.261C97.0251 162.283 98.1321 161.216 99.3954 160.312C102.751 157.678 106.565 155.686 110.644 154.438C114.72 153.13 118.639 151.379 122.331 149.215C123.149 148.718 124.005 148.287 124.892 147.927ZM124.472 144.128C122.586 145.951 121.747 149.011 118.436 149.149C120.211 147.243 121.465 144.625 124.472 144.128ZM117.083 147.687C116.292 148.83 115.644 149.776 114.985 150.703C114.805 150.972 114.64 151.364 114.375 151.457C112.272 152.427 110.065 153.154 107.797 153.625C110.618 150.804 113.279 148.529 117.083 147.687ZM107.356 124.524L107.777 124.646C107.551 127.461 107.345 130.264 107.025 133.052C106.929 134.37 106.745 135.681 106.476 136.975C106.321 138.063 105.942 139.107 105.364 140.04C103.772 142.151 102.006 144.125 100.088 145.943C100.229 145.195 100.442 144.462 100.724 143.756C101.476 142.298 101.968 140.723 102.182 139.097C102.586 136.775 103.204 134.481 103.707 132.171C103.84 131.724 103.917 131.262 103.937 130.797C103.991 128.051 105.891 126.469 107.333 124.602L107.356 124.524ZM107.698 121.133C107.619 122.804 106.359 123.233 105.525 124.059C105.931 122.883 106.69 121.861 107.698 121.133ZM108.462 116.882C108.55 118.382 107.789 119.193 106.162 119.601L108.462 116.882ZM96.5702 141.902C97.2193 138.042 97.9046 134.175 98.8237 130.377C100.113 125.539 101.794 120.815 103.851 116.251C104.592 114.084 105.197 111.871 105.66 109.627C106.437 106.957 107.215 104.286 108.097 101.661C108.221 101.348 108.316 101.024 108.379 100.693C108.581 98.1934 110.185 96.5256 111.782 94.8213C112.622 93.9139 113.398 92.9368 114.2 91.9845L114.607 92.1029C114.255 94.5923 113.919 97.0872 113.515 99.5789C113.206 102.131 112.751 104.663 112.154 107.163C111.61 109.879 110.471 112.441 108.819 114.665C108.709 114.837 108.573 114.992 108.415 115.123C105.341 117.007 104.435 120.064 103.851 123.351C103.511 125.217 102.885 127.018 102.467 128.861C102.049 130.705 101.766 132.436 101.417 134.215C101.069 135.994 100.803 137.662 100.375 139.367C99.9609 140.789 99.4225 142.174 99.0349 143.62C98.4717 145.557 98.1104 147.553 97.6045 149.524C97.4792 150.103 97.2339 150.649 96.8843 151.127C94.9263 153.369 92.9003 155.559 90.8889 157.752C90.7775 157.869 90.6414 157.958 90.4897 158.014C90.3381 158.07 90.1764 158.091 90.0163 158.074C90.2607 157.572 90.5377 157.087 90.8456 156.621C93.8951 152.239 95.8569 147.194 96.5702 141.902ZM64.4861 158.641C66.5005 156.261 68.4724 153.853 70.5286 151.504C71.7014 150.15 72.9631 148.959 74.1877 147.723C76.5364 145.475 78.8804 143.243 81.2244 141.011C81.8819 140.3 82.6323 139.681 83.4547 139.169C83.2303 139.675 82.9742 140.167 82.6872 140.641C77.8082 148.15 72.8749 155.609 67.9819 163.046C66.007 166.047 64.2238 169.205 62.1916 172.171C59.6271 175.915 56.894 179.542 54.1988 183.213C52.746 185.18 51.239 187.096 49.7591 189.038C49.5402 189.388 49.2609 189.697 48.9345 189.95C46.4976 191.511 45.1616 194.121 43.1472 196.093C41.1327 198.065 39.2993 200.056 37.3429 202.063C36.7619 202.642 36.0549 203.08 35.2766 203.341C36.1338 201.944 37.0884 200.608 38.1343 199.344C39.4989 197.936 40.7328 196.407 41.8197 194.775C43.0064 192.968 44.5095 191.355 45.8231 189.637C47.3788 187.667 48.9461 185.717 50.5025 183.747C52.1279 181.452 53.8979 179.262 55.8001 177.19C56.5173 176.224 57.1183 175.176 57.5895 174.068C58.8759 171.918 60.1253 169.723 61.476 167.642C63.3226 164.791 65.2589 161.864 67.2354 159.034C68.1421 157.722 69.2344 156.532 70.2416 155.283L69.663 154.827L63.8223 161.853C63.6467 161.306 63.6158 160.722 63.7318 160.159C63.8486 159.596 64.1086 159.073 64.4861 158.641ZM43.0281 198.482L45.7612 195.786C44.9961 197.716 44.6395 198.069 43.0188 198.513L43.0281 198.482ZM61.722 161.733C61.2965 163.777 61.7847 165.767 59.8383 167.217C60.2429 165.301 59.5467 163.268 61.7135 161.764L61.722 161.733ZM58.5263 165.377C58.8156 167.003 57.7217 168.142 57.5206 169.473C57.4162 170.969 56.8809 172.401 55.9804 173.6C55.9603 171.807 56.0964 170.015 56.3873 168.245C56.9257 167.17 57.6498 166.2 58.5263 165.377ZM30.3844 203.443C33.4455 199.911 36.6977 196.537 39.6057 192.893C40.995 190.974 42.1655 188.905 43.0954 186.725C45.1616 182.908 47.5466 179.272 50.224 175.855C51.3179 174.31 52.5387 172.852 53.7323 171.369C54.0549 171.035 54.4046 170.729 54.7782 170.454C54.6537 172.569 54.5709 174.426 54.4409 176.269C54.3303 176.587 54.1477 176.877 53.9071 177.113C50.8685 181.092 47.8831 185.119 44.7864 189.064C42.8385 191.564 40.7374 193.952 38.7323 196.418C37.493 197.938 36.2924 199.503 35.0956 201.052C32.658 204.307 29.709 207.145 26.3632 209.456C26.4901 208.924 26.6851 208.412 26.9427 207.93C28.0613 206.358 29.1242 204.804 30.4022 203.38L30.3844 203.443ZM17.1528 198.489C16.8263 196.7 18.0618 195.366 20.7291 194.295C20.6518 196.712 18.4958 197.136 17.1706 198.427L17.1528 198.489ZM22.4411 190.1C22.2322 190.818 22.0226 191.537 21.7998 192.302L19.1262 192.93L18.929 192.619L22.011 189.89L22.4411 190.1ZM-21.1162 262.496L-22.0689 259.949C-20.8838 258.903 -19.8009 259.084 -18.3565 259.826L-21.1162 262.496ZM75.1501 191.566C77.392 189.502 80.3061 188.321 83.3525 188.243C84.2252 188.142 85.0908 187.986 85.9449 187.777C88.0846 187.378 90.277 187.346 92.4284 187.682C95.0392 187.968 97.6664 188.139 100.271 188.271C105.826 188.396 111.386 188.389 116.948 188.55C117.832 188.732 118.682 189.054 119.466 189.503L119.395 190.093C118.981 190.265 118.554 190.406 118.12 190.518C111.85 191.743 105.558 192.927 99.3257 194.197C98.2071 194.43 97.1411 194.95 96.0511 195.26C94.0235 195.822 92.0098 196.337 89.9714 196.88C88.3399 197.303 86.6426 197.604 85.0514 198.124C78.9299 200.129 72.6104 201.465 66.2019 202.109C64.1906 202.34 62.1947 202.687 60.2236 203.148C56.3417 204.085 52.5278 205.313 48.615 206.122C44.7021 206.932 41.0198 207.301 36.8068 207.921C37.2702 207.378 37.5023 206.87 37.8875 206.711C41.7439 205.105 45.7496 203.509 49.7475 202.114C51.7689 201.398 53.9474 201.134 56.0461 200.56L68.8445 197.338C69.8285 197.099 70.8311 196.916 71.8267 196.698C75.54 195.892 79.2432 195.084 82.9356 194.273C83.4345 194.132 83.925 193.964 84.4046 193.768L84.3218 193.354L71.8886 194.97C73.1488 193.61 74.1553 192.598 75.1501 191.566ZM33.6938 220.536C30.6954 222.222 27.4494 223.48 24.3356 224.98C22.1 226.023 19.8488 227.181 17.6549 228.372C16.0056 229.265 14.4073 230.273 12.7866 231.242C12.5561 231.395 12.3426 231.604 12.1229 231.777C12.0254 231.529 11.9488 231.269 11.8676 231.025C15.4849 227.09 19.3839 223.422 23.5334 220.053C23.8158 219.869 24.0881 219.671 24.3496 219.46C26.7338 217.054 29.5899 215.169 32.7392 213.921C37.7931 211.639 43.0195 209.761 48.3697 208.305C51.4193 207.728 54.4997 207.329 57.5956 207.11C60.1516 206.77 62.6898 206.373 65.2372 205.946C66.4611 205.76 67.698 205.527 68.9257 205.325L69.0286 205.728L62.1506 208.402L45.4718 214.883C41.4151 216.48 37.4783 218.37 33.6938 220.536ZM31.8898 225.688C31.9424 224.923 31.9749 224.289 32.0391 223.426L37.3769 220.575C36.6173 223.709 33.9994 224.319 31.8898 225.688ZM30.2815 224.693C28.8457 226.19 27.8106 228.177 25.486 228.652C27.0587 227.382 27.7836 224.949 30.2815 224.693ZM64.6725 193.277C64.9974 193.032 65.4809 192.885 65.6542 192.58C66.5887 190.767 68.3386 190.752 70.0157 190.461C71.6937 190.169 73.0861 190.101 74.6287 189.923L74.8283 190.285C71.9892 192.238 69.5748 194.772 66.3342 196.183C67.541 194.247 69.7032 193.166 70.9278 191.286C70.8512 191.164 70.7661 191.049 70.6725 190.94C70.3894 190.997 70.1163 191.095 69.8602 191.228C67.8528 192.711 65.8406 194.21 63.8602 195.718C63.4239 196.039 63.0379 196.423 62.7145 196.858C62.1367 197.622 61.4079 197.681 60.3404 197.624C61.5363 195.947 63 194.479 64.6725 193.277ZM57.3968 196.733C58.2764 195.974 59.0871 195.139 59.8182 194.236C60.9353 192.494 62.6704 192.236 64.5866 192.117L56.1591 198.949L55.8055 198.592C56.296 197.955 56.8329 197.332 57.3968 196.733ZM58.6539 194.219L54.6444 197.576C54.1253 198.018 53.6341 198.485 53.1274 198.829C52.7994 199.161 52.4064 199.422 51.9724 199.594C46.2926 201.155 40.8581 203.503 35.8282 206.569C35.1938 206.943 34.6902 207.509 34.1093 207.933C32.9071 208.802 31.6894 209.668 30.4656 210.498C29.241 211.327 28.2686 211.468 28.0536 212.964C27.9073 213.464 27.0989 213.855 26.6147 214.24L24.584 215.919C22.889 217.374 21.297 218.944 19.4937 220.249C17.5907 221.778 15.847 223.496 14.2905 225.377C11.415 228.598 8.28043 231.578 4.91915 234.289C4.53236 234.574 4.18811 234.913 3.89723 235.296C3.73091 235.519 3.67908 236.046 3.76108 236.171C4.02719 236.451 4.3846 236.628 4.76907 236.668C5.04989 236.75 5.38253 236.423 5.70048 236.262C7.43334 235.382 9.10508 234.385 10.7033 233.279C13.1587 231.707 15.734 230.332 18.406 229.167C20.6959 228.054 23.0801 227.139 25.8705 225.934C25.701 226.363 25.4852 226.772 25.2276 227.153C24.2165 228.032 23.2843 228.996 22.4403 230.036C21.5902 231.271 20.3756 232.209 18.9653 232.719C15.8369 233.977 12.6915 235.179 9.55222 236.417C9.32633 236.543 9.11359 236.692 8.91555 236.859C10.0257 237.351 10.855 236.83 11.6835 236.546C15.0788 235.416 18.4617 234.216 21.8354 233.045C21.9445 233.077 22.1325 233.013 22.2222 232.938C24.5662 230.706 27.625 229.919 30.3302 228.368C32.347 227.26 34.4133 225.981 36.5152 224.932C38.6162 223.883 40.38 223.296 42.3334 222.407C44.8955 221.17 47.4027 219.833 49.8837 218.471C50.6557 217.984 51.3837 217.431 52.059 216.817C50.9744 216.179 50.3881 216.737 49.7676 217.065L38.9636 222.748C38.7214 222.881 38.4685 222.994 38.0384 223.19C38.3934 221.972 38.6479 221.097 38.8638 219.889C49.0567 215.121 59.4871 210.879 70.114 207.179C68.9923 208.741 67.4636 209.966 65.6944 210.722C63.1361 211.989 60.8037 213.668 58.7916 215.693C56.9149 217.248 54.9066 218.636 52.7885 219.842C50.8654 220.976 48.8323 221.791 46.838 222.821C43.6972 224.414 40.6168 226.092 37.4442 227.676C32.7539 229.938 28.0984 232.31 23.2774 234.261C19.3374 236.075 15.1554 237.307 10.8611 237.917C9.91349 238.038 8.98208 238.267 8.08703 238.6C5.02823 239.502 1.88047 240.069 -1.30072 240.29C-1.88161 240.714 -2.46243 241.138 -3.16238 241.679L-2.83685 243.181C-7.50001 248.024 -12.1229 252.846 -16.9142 257.84L-19.6322 257.048C-19.3548 256.642 -19.0497 256.255 -18.7192 255.891C-15.6218 253.166 -12.4222 250.556 -9.44267 247.713C-7.93949 246.056 -6.52829 244.317 -5.21565 242.505C-4.79134 241.842 -4.21277 241.291 -3.52953 240.9C-2.84621 240.509 -2.07842 240.288 -1.29159 240.258C-1.47795 240.22 -1.66083 240.168 -1.83829 240.1C-2.0156 239.952 -2.18486 239.795 -2.34546 239.63C-1.8475 238.792 -1.26877 237.91 -0.768332 237.005C-0.310362 236.201 0.0965538 235.368 0.44854 234.513C1.17959 232.641 1.88433 230.745 2.54189 228.836C2.87841 227.68 3.21879 226.508 3.5553 225.353C3.7193 225.001 3.91889 224.667 4.1502 224.356L4.18656 224.232C3.39207 222.306 4.30801 220.438 4.6863 218.616C5.23091 216.047 6.05015 213.523 6.89569 211.025C8.21931 206.479 9.54216 201.933 11.2201 197.509C12.1794 194.751 13.4581 192.114 15.0308 189.654C19.5316 182.865 24.2753 176.232 29.0515 169.37C29.2588 170.703 29.0677 172.069 28.5022 173.294C26.9976 177.939 25.445 182.401 23.9164 186.954C23.6611 187.828 23.3362 188.48 22.1959 188.673C21.6884 188.728 21.2297 189.256 20.7477 189.573L20.4135 189.323C20.9009 188.347 21.4354 187.384 21.8857 186.363C22.3351 185.341 22.6685 184.371 23.0762 183.321C22.1332 182.775 21.7155 183.281 21.4169 183.956C20.3547 186.324 19.2392 188.642 18.2714 191.038C16.2895 195.866 14.4599 200.755 12.4362 205.555C11.1195 208.679 9.56769 211.684 8.17754 214.77C6.60714 217.785 5.30053 220.931 4.27165 224.171L4.24921 224.249L6.22498 223.283C6.92122 220.241 8.12648 217.337 9.79203 214.697C11.9829 210.645 13.8318 206.416 15.3178 202.056C15.8594 200.198 17.251 199.84 19.086 199.239C18.6876 200.522 18.2235 201.783 17.6974 203.02C16.8441 204.787 15.7704 206.44 14.9326 208.213C13.6229 210.966 12.4803 213.785 11.1861 216.543C10.4813 218.033 9.57388 219.462 8.77553 220.924C8.19379 221.992 7.64299 223.069 7.07671 224.141C5.955 226.305 4.76056 228.431 3.71234 230.634C3.14143 231.84 3.42611 232.143 4.55091 232.352C6.80208 229.974 8.89621 227.669 11.1079 225.484C13.7513 222.865 16.5192 220.282 19.2407 217.685C20.1203 216.637 21.2915 215.874 22.6059 215.495C22.8302 215.434 23.0383 215.324 23.2162 215.174C23.3942 215.023 23.5381 214.837 23.6379 214.627C24.8284 211.585 27.2389 209.474 29.8583 207.169C30.0053 208.703 28.5216 209.085 28.4767 210.461C37.4992 203.31 47.716 197.811 58.6539 194.219ZM63.6436 181.269C63.5663 181.535 63.6537 181.933 63.4208 182.034C62.3749 182.915 61.2726 183.725 60.1214 184.463C56.3053 186.889 52.7568 189.712 49.5363 192.887C48.7434 193.586 47.8824 194.204 46.9664 194.731C50.9876 189.994 55.5557 185.75 60.5755 182.088C61.5518 182.575 62.0585 181.825 62.6511 181.302L61.0892 180.848L63.9322 178.998C64.3453 178.776 64.7421 178.523 65.1173 178.242C69.6057 174.465 74.2419 171.053 78.8804 167.574C79.7058 166.951 80.8291 166.702 81.7032 166.142C82.5828 165.534 83.4253 164.874 84.2267 164.167C83.3943 165.633 82.2293 166.884 80.8252 167.819C79.4111 168.768 78.0766 169.83 76.8342 170.994C77.5769 171.82 78.2963 171.793 78.8193 171.335C80.0764 170.107 81.646 169.245 83.3572 168.844C83.5482 168.772 83.7107 168.642 83.8213 168.471C84.6994 167.542 85.4784 166.526 86.1444 165.436C87.4178 162.926 89.727 161.395 91.5403 159.416C93.3536 157.435 95.5351 155.936 96.9075 153.608C97.2363 153.059 98.0292 152.781 98.5491 152.391C98.8484 151.388 99.2608 150.423 99.7768 149.512C101.221 147.578 102.839 145.744 104.411 143.897C104.517 143.783 104.649 143.694 104.794 143.637C104.94 143.58 105.096 143.556 105.252 143.566C106.268 143.861 106.729 143.267 106.911 142.524C107.842 138.627 110.638 135.95 113.199 133.205C117.524 128.534 122.051 124.04 126.51 119.492C126.874 119.09 127.272 118.718 127.697 118.38C131.975 114.954 136.049 111.28 139.897 107.377C142.021 105.291 144.45 103.541 147.101 102.188C146.468 103.257 145.882 104.34 145.221 105.386C144.561 106.43 143.971 107.004 143.51 107.887C141.649 111.123 139.459 114.159 136.976 116.947C134.864 119.157 133.015 121.604 131.465 124.238C130.84 125.285 130.076 126.242 129.196 127.085C126.093 130.587 122.967 134.049 119.848 137.546C116.435 141.591 112.752 145.399 108.822 148.942C105.289 151.998 101.67 154.943 98.013 157.843C96.974 158.676 95.382 158.908 94.5635 159.855C93.8247 160.924 92.9993 161.931 92.0949 162.865C89.4361 165.072 86.8971 167.451 84.0689 169.424C80.279 172.082 76.6307 175.07 72.0526 176.363C71.7826 176.41 71.5304 176.53 71.3247 176.71C69.2599 178.942 66.5918 180.527 63.6436 181.269ZM154.995 164.653C150.927 166.112 146.838 167.531 142.743 168.966C138.149 170.402 133.441 171.447 128.669 172.087C127.012 172.367 125.372 172.822 123.721 173.137C118.641 174.356 113.638 175.876 108.74 177.689C104.997 178.9 101.103 179.581 97.1713 179.71C94.811 179.785 92.4376 179.382 90.0789 179.221C86.3564 179.002 82.6207 179.187 78.9384 179.774C75.9175 180.199 72.9245 180.819 70.0049 181.359C69.632 181.419 69.2514 181.445 68.4314 181.528C68.7896 181.153 69.1694 180.8 69.5694 180.469C69.9105 180.229 70.3708 180.161 70.6385 179.883C73.3337 177.143 77.033 176.83 80.4376 175.788C84.4526 174.568 88.4544 173.276 92.457 171.984C95.0037 171.149 97.5287 170.275 100.475 169.234C100.201 169.682 99.8804 170.1 99.5191 170.481C98.5823 171.14 97.6966 171.868 96.8688 172.658C95.3928 174.18 93.4108 175.11 91.2958 175.272C87.7172 175.924 84.1934 176.39 80.6419 176.949C80.4268 176.988 80.2249 177.217 79.7429 177.534C80.1498 177.718 80.5815 177.844 81.024 177.907C83.7107 177.639 86.4075 177.339 89.1042 177.04C90.2932 176.911 91.4985 176.788 92.7107 176.7C95.9652 176.461 98.8051 174.679 101.944 174.084C104.517 173.511 107.059 172.803 109.559 171.964C110.017 171.87 110.481 171.813 110.947 171.792C111.337 171.735 111.834 171.83 112.083 171.614C113.749 170.201 115.889 170.18 117.788 169.886C120.054 169.494 122.3 168.996 124.566 168.605C125.743 168.406 126.925 168.36 128.15 168.226C128.15 166.886 128.086 166.698 126.744 166.884C124.613 167.162 122.486 167.661 120.365 168.077L115.852 168.796C116.026 168.271 116.274 167.773 116.588 167.317C117.78 165.797 119.503 164.785 121.41 164.484C124.724 164.161 128.029 163.869 131.352 163.803C133.482 163.762 135.652 164.106 137.811 164.141C139.355 164.175 140.901 164.098 142.435 163.911C144.383 163.682 146.295 163.34 148.254 163.013C149 162.958 149.748 162.956 150.494 163.004C152.042 163.037 153.589 163.08 155.132 163.134C155.561 163.18 155.985 163.258 156.402 163.368L156.457 163.706C155.996 164.061 155.507 164.378 154.995 164.653ZM111.231 107.658C111.228 108.079 111.361 108.492 111.209 108.667C110.345 109.771 109.444 110.831 108.573 111.899C108.153 112.353 107.749 113.217 106.975 112.501C106.201 111.785 106.729 111.193 107.241 110.715C108.409 109.614 109.281 108.072 111.231 107.658ZM41.5381 154.994C44.5195 153.533 47.3401 151.764 49.9533 149.716C51.0959 148.762 52.2207 147.75 53.402 146.891C56.59 144.615 59.5915 142.09 62.3788 139.338C67.1766 134.913 71.3548 129.859 74.7997 124.315C75.1849 123.688 75.4394 122.99 75.5493 122.263C75.5369 121.693 75.4193 121.131 75.2019 120.603C74.6519 120.748 73.9974 120.727 73.582 121.046C70.7042 123.191 67.7731 125.286 65.0841 127.655C63.8053 128.862 62.3803 129.904 60.8432 130.758C58.1194 132.083 55.886 134.11 52.8535 134.921C52.6702 134.97 52.5178 135.146 52.3514 135.25C50.0531 136.801 47.7996 138.432 45.4192 139.857C42.1624 141.789 38.7903 143.536 35.4762 145.435C33.8787 146.325 32.2542 147.191 30.7542 148.212C28.8527 149.627 26.7988 150.825 24.6312 151.784C23.0654 152.433 21.5422 153.178 20.0677 154.014C17.576 155.355 15.102 156.753 12.6234 158.166C11.0832 159.009 9.58703 159.93 8.14273 160.929C5.7879 162.615 3.53519 164.417 1.21827 166.148C1.21827 166.148 0.983868 166.08 0.718525 166.003C0.846169 165.629 1.00785 165.267 1.20202 164.924C3.41064 161.585 5.65097 158.255 7.85263 154.999C10.3954 150.962 14.0723 147.765 18.4238 145.808C21.3952 144.505 24.2591 142.932 27.2714 141.606C30.2838 140.281 33.7147 139.263 36.837 137.85C39.9584 136.438 43.3514 134.562 46.5866 132.878C48.2019 132.043 49.7707 131.077 51.437 130.358C55.3739 128.651 59.156 126.605 62.7393 124.244C63.7999 123.489 64.794 122.645 65.7107 121.72C66.8935 120.625 67.9479 119.389 69.1354 118.278C72.1462 115.444 75.1833 112.634 78.2166 109.84C79.1171 109.018 80.0702 108.245 80.9173 107.373C82.8868 105.32 84.8193 103.223 86.7471 101.14C88.6749 99.0583 90.5439 97.0609 92.3889 94.9714C93.0248 94.2419 93.7667 93.4405 93.3629 92.3234C91.5271 91.5861 91.5163 91.566 90.178 92.4982C89.3951 93.0328 88.6725 93.6524 87.9833 94.2141C85.8574 95.697 83.8322 97.2419 81.704 98.6731C79.9897 99.8822 78.195 100.974 76.3314 101.938C72.1269 103.984 67.8094 105.777 63.6096 107.808C58.6771 110.201 53.8058 112.732 48.929 115.226C46.5812 116.423 44.2217 117.601 41.9582 118.975C38.4197 121.119 34.9463 123.35 31.5378 125.668C28.9594 127.425 26.535 129.294 24.0355 131.244C22.865 132.123 21.7224 133.078 20.5736 133.998L20.2178 133.708C20.6665 132.923 21.1569 132.168 21.5631 131.354C23.9968 126.488 27.1337 122.006 30.8741 118.053C31.4241 117.452 31.9409 116.822 32.4236 116.166C34.8256 113.036 37.165 109.887 39.5786 106.777C41.8406 103.895 44.1567 101.061 46.4876 98.2321C47.3238 97.2218 47.9118 95.902 49.5061 95.7226C49.7723 95.6808 50.0043 95.2909 50.2418 95.0557C51.27 93.7955 52.4133 92.6034 53.6549 91.4229C54.5368 90.476 55.517 89.6251 56.5791 88.8855C60.7101 86.2739 65.3772 84.6269 70.2323 84.066C72.6297 83.7473 75.0054 83.1508 77.3896 82.7602C78.6243 82.4005 79.9185 82.2875 81.1973 82.4283C83.3897 82.8128 85.6215 83.0046 87.8525 83.1965C90.5037 83.1849 93.1362 83.6359 95.6318 84.5294C95.8678 84.6578 96.1293 84.7336 96.3969 84.7522C99.5857 84.7994 102.788 84.9177 105.95 84.8218C110.602 84.6168 115.267 84.2463 119.924 83.9074C123.63 83.6313 127.344 83.2715 131.044 82.959C131.788 82.9048 132.535 82.9018 133.277 82.7958C136.504 82.3626 139.698 81.7506 142.933 81.5232C144.766 81.3956 146.695 80.704 148.509 81.8079C148.775 81.8852 149.184 81.8179 149.517 81.7793C151.188 81.5704 152.873 81.3669 154.547 81.0915C155.144 81.073 155.725 80.8904 156.225 80.5632C156.832 80.0263 157.611 79.7246 158.422 79.7114C158.866 79.638 159.257 79.2264 159.686 78.9781C159.45 78.5193 159.151 78.0954 158.798 77.7202C158.437 77.5369 158.045 77.4231 157.642 77.3837C155.033 76.624 152.44 75.8698 149.832 75.1101C148.548 74.5075 147.231 73.9775 145.889 73.5219C143.247 72.9556 140.541 72.7375 137.842 72.8744C131.877 73.1258 125.907 72.5286 120.11 71.1013C119.782 71.0062 119.454 70.9102 119.153 70.7215C116.342 69.7847 113.555 68.6513 110.68 67.9327C103.464 66.3066 96.007 66.0559 88.6981 67.1939L88.0877 67.2534C83.5691 67.7509 79.1163 68.7264 74.8043 70.1645C74.3765 70.2937 73.958 70.3927 73.2084 70.5807C73.3979 70.1939 73.6137 69.821 73.8559 69.4644C75.9724 67.0817 78.0781 64.6789 80.2326 62.3403C82.3879 60.0025 85.0258 57.517 87.137 54.862C89.5591 51.6918 91.4575 48.1541 92.7626 44.3844C93.0194 43.6155 93.3698 42.881 93.8054 42.1973C95.7935 39.2685 97.7546 36.3151 99.8804 33.4943C102.2 30.3265 104.025 26.8241 105.292 23.1074C105.514 22.3244 105.814 21.5659 106.189 20.8436C108.521 16.865 111.218 13.1123 114.247 9.63407C116.233 7.34894 117.915 4.7717 119.767 2.31151C119.893 2.16081 119.985 1.98598 120.04 1.79777C120.095 1.60963 120.112 1.41213 120.087 1.21757C120.063 1.02301 119.999 0.835567 119.899 0.666768C119.799 0.497969 119.665 0.351529 119.507 0.236495C118.852 -0.309818 118.26 0.212435 117.713 0.578423C116.567 1.31241 115.437 2.05096 114.252 2.68872C111.453 4.21232 108.506 5.48937 105.854 7.20814C102.74 9.23295 99.8611 11.6143 96.8959 13.8857C94.3098 15.7442 91.8907 17.8236 89.6643 20.1003C87.5477 22.4823 85.6888 25.0822 84.1199 27.8563C80.8298 33.3373 77.3982 38.726 73.9812 44.1191C72.8169 45.9664 71.4987 47.7 70.1774 49.6201C70.2432 48.5208 70.3128 47.5244 70.3778 46.5443C70.3948 42.7459 70.9247 38.9675 71.9528 35.3113C72.5276 33.4225 72.9214 31.4834 73.1302 29.5203C73.1612 29.2016 73.1225 28.8801 73.0173 28.5777C72.9128 28.2752 72.7434 27.9989 72.5222 27.7675C71.901 27.2818 71.2597 27.8574 70.7901 28.3645C70.401 28.7514 70.0552 29.1791 69.7573 29.64C67.9061 33.032 65.9969 36.3902 64.2478 39.8967C63.2769 41.8339 62.7215 43.9767 61.835 45.9718C60.5044 48.9734 59.0601 51.8403 57.5864 54.749C57.5183 54.9834 57.345 55.1699 57.0657 55.665L56.696 54.4899C56.2519 52.2287 55.5711 50.02 54.666 47.9012C54.461 47.4053 54.3566 46.8738 54.3582 46.337C54.2762 45.3986 54.3721 44.4269 54.2135 43.5163C53.7462 39.8768 53.6526 36.199 53.935 32.5404C54.027 29.8563 54.0657 27.1621 54.051 24.4581C54.1029 19.5671 54.8718 14.7102 56.3324 10.0422C56.7872 8.48025 57.0951 6.72302 58.671 5.79231C58.1611 4.05117 57.7388 3.64009 56.9334 4.25293C54.7264 5.84337 52.8365 7.8336 51.362 10.1204C49.6663 13.1404 48.4982 16.4272 47.9063 19.8399C47.4507 21.9706 46.5371 23.9768 45.2289 25.7195C43.0992 28.4615 41.7648 31.7368 41.3718 35.1866C41.0616 39.1629 40.7514 43.1391 40.756 47.1392C40.7019 50.4107 40.9873 53.6792 41.1111 57.1549C39.2127 54.7722 37.4442 52.6982 35.774 50.5182C32.5528 46.2758 28.0195 43.8042 23.4483 41.4064C19.5742 39.5906 15.8965 37.3844 12.4702 34.8223C10.298 33.0886 7.96789 31.5463 5.67882 29.9818C5.22859 29.6645 4.2848 29.3559 4.11616 29.5271C3.6814 30.0765 3.41219 30.7389 3.34024 31.4362C3.3093 31.9781 3.40058 32.5201 3.60791 33.0219C4.11074 34.5025 4.96634 35.8387 6.09966 36.9159C8.1698 39.0603 10.3227 41.2118 12.3201 43.4876C15.7526 47.5051 19.5889 51.1595 23.7678 54.394C27.6853 57.3553 31.045 60.9896 33.6908 65.1268C36.1106 69.1271 38.0886 73.3788 39.5902 77.8068C40.5309 79.9133 41.1714 82.1413 41.4925 84.4265C41.5567 85.4276 41.9342 86.4015 42.0812 87.4103C42.1771 87.9998 42.1454 88.6032 41.9899 89.1795C40.0737 95.1795 36.1106 99.8884 31.9795 105.057C31.9687 104.104 31.9494 103.591 31.9765 103.09C32.1474 100.056 32.3548 97.016 32.4955 93.9735C32.6549 90.6307 32.7516 87.2703 32.8638 84.0328C32.897 83.28 33.0278 82.5389 32.9891 81.7986C32.9311 80.4262 32.3424 80.1199 31.1727 80.762C30.7898 80.9724 30.3449 81.0459 29.9566 81.2718C29.569 81.4977 28.9463 81.7746 28.7614 82.1777C28.0566 83.6668 27.4501 85.2868 26.8676 86.8788C26.2851 88.4716 26.0399 89.7218 25.428 91.0686C22.8472 96.9085 20.2124 102.699 17.5891 108.509C17.4305 109.056 16.9834 109.486 16.4558 110.365L16.3839 109.158C16.1974 104.851 17.2882 100.696 17.6603 96.4497C18.01 93.6849 18.1647 90.8984 18.1213 88.1119C17.9813 85.8182 18.0169 83.5175 18.2273 81.2292C18.5747 78.8721 18.4501 76.4685 17.8622 74.1593C17.1776 72.0289 16.5293 69.8914 15.8199 67.7872C14.6665 64.2999 13.5084 60.828 12.2938 57.3739C11.2812 54.1936 9.41993 51.3499 6.91116 49.1482C6.37738 48.7405 5.95035 48.2091 5.66722 47.6002C5.35933 46.9148 4.87506 46.3238 4.26392 45.8867C3.65277 45.4504 2.9372 45.1835 2.18913 45.1131C0.860867 44.7271 -0.0620346 45.7459 0.330952 47.1314C0.653542 48.1588 1.08675 49.149 1.62363 50.0827C2.59604 51.5463 3.26985 53.1879 3.60636 54.913C3.80208 56.3929 3.99857 57.8736 4.00863 59.3504C4.13163 60.8558 4.1502 62.3666 4.0651 63.8744C3.68062 67.9303 3.15071 71.9616 2.78712 76.0067C2.42275 80.0518 2.24406 83.6931 1.90058 87.6091C1.31264 93.7661 1.79769 99.9781 3.33328 105.97C3.83921 108.015 4.23838 110.08 4.76443 112.114C5.06691 113.286 5.58908 114.403 5.96737 115.548C6.90652 117.728 7.37609 120.081 7.34592 122.455C7.18811 124.011 7.17419 125.578 7.30492 127.136C7.55634 129.087 7.49523 131.066 7.1239 132.997C6.91658 134.795 6.54139 136.568 6.00451 138.297C4.61823 141.836 3.44622 145.456 2.49393 149.136C2.11718 150.136 1.62905 151.09 1.0388 151.982C0.716206 152.566 0.231155 153.068 -0.138622 153.639C-1.96949 156.495 -3.76919 159.359 -5.58451 162.219C-5.75377 162.41 -5.93611 162.59 -6.13021 162.755C-6.27231 162.278 -6.37381 161.789 -6.43361 161.295C-6.59134 158.402 -6.81158 155.491 -6.83069 152.589C-6.86457 147.699 -6.74877 142.819 -6.72022 137.948C-6.71117 136.931 -6.78985 135.916 -6.95547 134.914C-7.59926 130.897 -8.50924 126.922 -8.8914 122.88C-9.06654 120.018 -9.66794 117.199 -10.6758 114.515C-12.8729 109.199 -15.2627 103.962 -17.5763 98.697C-18.0338 97.6488 -18.3857 96.5302 -18.944 95.5377C-20.5789 92.6553 -22.3524 89.7837 -23.9899 86.9693C-25.0405 85.2233 -26.1359 83.5152 -27.236 81.8226C-27.7395 81.049 -28.5276 80.9043 -28.8571 81.5704C-29.6652 83.1826 -31.1442 84.4799 -31.0403 86.5098C-31.1076 87.4567 -31.2347 88.3989 -31.4208 89.3303C-31.8169 92.3242 -32.0103 95.3419 -31.9996 98.3621C-31.6669 101.789 -31.1058 105.191 -30.3204 108.543C-29.6855 111.659 -28.7194 114.685 -28.1093 117.828C-27.1928 123.178 -26.3856 128.496 -25.7443 133.918C-25.4949 137.385 -25.051 140.834 -24.4144 144.251C-23.8802 146.491 -23.6369 148.798 -23.134 151.029C-22.7393 153.438 -22.0857 155.799 -21.1845 158.068C-19.3525 162.158 -17.913 166.412 -16.8853 170.774C-15.5446 175.728 -16.038 181 -18.275 185.619C-18.6346 186.349 -18.9495 187.101 -19.2181 187.869C-20.8318 192.889 -22.4032 197.939 -24.0325 202.954C-25.131 206.379 -26.3345 209.756 -27.4642 213.171C-27.7245 213.981 -27.6899 214.856 -27.3665 215.642C-27.0431 216.427 -26.452 217.073 -25.6977 217.464C-22.2925 218.456 -18.2001 216.97 -17.6764 213.191C-17.456 211.561 -17.1257 209.844 -16.7935 208.179C-16.5524 206.565 -16.1744 204.974 -15.6637 203.424C-14.6019 200.649 -13.2791 197.968 -12.0969 195.245C-11.5814 194.057 -11.1174 192.87 -10.6177 191.677C-8.88111 187.574 -7.61257 183.216 -3.89258 180.215C-2.26872 178.5 -0.492153 176.935 1.41553 175.541C5.42044 173.292 9.56537 171.301 13.8256 169.581C18.143 167.788 22.3939 165.834 26.5783 163.72C30.5987 161.915 34.4551 159.766 38.1057 157.299C39.1926 156.441 40.3452 155.672 41.5544 154.998L41.5381 154.994ZM33.0255 148.5L33.1871 148.293C35.5404 146.962 37.9107 145.686 40.2106 144.305C44.5923 141.649 49.2447 139.462 53.4561 136.52C55.8172 134.87 58.4845 133.681 60.994 132.276L61.305 132.722C59.436 134.194 57.5941 135.692 55.7297 137.149C53.8654 138.605 52.4582 139.889 50.754 141.088C48.6459 142.508 46.5703 143.819 44.4716 145.207C42.3736 146.595 40.6059 147.894 38.6596 149.225C37.8326 149.798 36.9708 150.428 36.034 149.223C35.3431 150.14 33.8145 150.271 34.2207 151.729C33.3821 152.162 32.7183 153.104 31.3599 152.709C32.002 152.015 32.5327 151.356 33.0897 150.84C33.2614 150.695 33.4022 150.516 33.5012 150.314C33.6002 150.112 33.6567 149.891 33.6668 149.666C33.676 149.441 33.6389 149.217 33.5577 149.007C33.4765 148.797 33.3519 148.606 33.1933 148.447L33.027 148.551C32.0352 149.805 31.0481 151.042 30.0456 152.276C30.0138 152.385 29.6858 152.289 29.4955 152.302L29.3718 152.435C28.9664 153.13 28.5425 153.888 28.1657 154.541L27.7519 154.217C28.2957 153.629 28.8287 153.022 29.3718 152.435C29.3718 152.435 29.4174 152.279 29.436 152.216C29.7926 150.117 31.5053 149.413 33.0409 148.504L33.0255 148.5ZM25.7629 152.96C26.176 152.47 26.9458 152.271 27.5461 151.955L27.871 152.354L23.7539 156.95L23.2147 156.59C24.068 155.348 24.8431 154.082 25.7784 152.965L25.7629 152.96ZM23.1211 153.885C22.1905 156.116 20.6727 158.051 18.7294 159.486C19.1092 158.936 19.479 158.366 19.8906 157.825C20.3021 157.284 20.8282 156.641 20.135 155.761L23.1211 153.885ZM56.5196 113.013C62.1452 110.685 67.5247 107.745 73.1016 105.352C76.4412 103.883 79.6625 102.159 82.736 100.193C83.9621 99.4149 85.1001 98.475 86.3796 97.7463C85.0328 99.8203 83.1916 101.526 81.0209 102.71C79.0041 103.817 76.8156 104.874 74.7362 105.963C73.5356 106.597 72.3613 107.255 71.1978 107.933C66.2537 110.831 61.3166 113.765 56.3881 116.668C56.074 116.812 55.7498 116.933 55.4187 117.031C55.6323 116.296 55.7684 115.828 56.0098 115C53.2372 116.141 52.36 119.156 49.4466 120.375C51.4285 117.174 53.074 114.433 56.5196 113.013ZM42.8942 120.01C43.6748 119.619 44.4847 119.288 45.3164 119.02C45.3164 119.02 45.3488 118.911 45.3666 118.848C46.7034 117.805 48.2297 117.029 49.8605 116.565C48.4572 119.648 46.052 122.167 43.0366 123.711C43.8017 122.595 44.5196 121.584 45.2266 120.553C45.591 119.998 46.0428 119.436 45.3527 118.896L45.2367 118.946C43.4644 121.192 41.7129 123.427 39.8934 125.66C39.2722 126.478 38.4035 127.075 37.4156 127.361C37.7521 126.266 38.3671 125.278 39.2003 124.492C39.6498 123.996 40.4009 123.452 40.3854 122.922C40.5239 121.167 41.7555 120.661 42.8942 120.01ZM38.5126 129.239C41.2441 127.713 43.7537 125.902 46.3506 124.201C47.6015 123.396 48.6026 121.993 50.46 122.771C50.6944 122.839 51.3001 122.388 51.5384 122.035C52.2663 120.954 53.2565 120.077 54.4162 119.484C57.7713 117.563 61.1263 115.642 64.4211 113.636C67.7158 111.629 70.9425 109.451 74.3982 107.475C76.0591 106.484 77.8793 105.76 79.8953 104.771C79.6563 105.244 79.6818 105.505 79.4784 105.565C75.4062 108.259 72.393 112.093 68.8948 115.378C65.4237 118.91 61.5356 122.006 57.3164 124.597C55.582 125.549 53.6743 126.282 51.9422 127.168C47.706 129.323 43.5317 131.497 39.2483 133.639C36.6436 134.846 33.9344 135.888 31.2268 137.098C27.7689 138.617 24.3333 140.175 20.74 141.518C23.3625 139.435 26.1141 137.491 28.5742 135.327C31.5154 132.557 35.1095 131.095 38.4507 129.222L38.5126 129.239ZM15.3875 140.638C17.2131 138.848 19.3127 137.341 21.2985 135.7C24.7433 132.758 28.3406 129.998 32.0747 127.433C34.1688 126.061 36.2537 124.719 38.3432 123.362L38.5072 123.612C37.1418 125.452 35.7446 127.281 34.3924 129.192C34.1704 129.439 33.8942 129.632 33.5848 129.754C30.4548 130.961 28.1727 133.329 25.6198 135.348C22.7475 138.011 19.7026 140.481 16.5038 142.742C14.7051 143.913 13.1108 145.143 11.4212 146.464C8.91478 148.35 7.02333 150.936 5.98749 153.897C5.76237 154.407 5.49006 154.895 5.17366 155.354C2.89774 159.215 0.605579 163.073 -1.58772 166.941C-2.98368 169.397 -4.70083 171.654 -6.69369 173.655C-6.69895 173.269 -6.66035 172.882 -6.5785 172.504C-5.38655 169.631 -4.19466 166.759 -2.94028 163.904C-2.48146 162.852 -1.82862 161.89 -1.27604 160.865C0.0114555 158.477 1.25307 156.077 2.5094 153.68C3.07722 152.66 3.38356 151.377 4.93076 151.183C5.31524 151.143 5.68192 150.639 6.00296 150.292C9.13216 147.052 12.1453 143.744 15.3256 140.62L15.3875 140.638ZM90.0712 72.8968C91.3693 71.5802 92.7146 70.2774 94.0436 68.9701C94.7623 68.2475 95.5777 68.4169 96.5841 68.625C94.3129 70.607 92.0965 72.4017 89.8523 74.2901L89.5003 73.9845C89.6442 73.5993 89.836 73.2341 90.0712 72.8968ZM75.0093 72.9518C76.572 72.3561 78.212 72.0203 79.76 71.5902L80.3595 71.1036L83.8097 70.6L83.9443 70.4863L84.0379 70.5142C86.8608 69.5255 89.8159 68.9693 92.8043 68.8633C92.1305 69.5487 91.7368 70.0268 91.268 70.4159C89.2295 71.7581 87.3172 73.2829 85.5534 74.9708C85.4165 75.1511 84.9655 75.0706 84.4379 75.1372C85.3461 73.0631 87.7203 72.534 88.3469 70.4971C85.4049 71.6405 83.4369 74.1508 80.8639 75.7746L80.532 75.4574C81.1903 74.7682 81.7991 74.1323 82.4753 73.3803C83.1522 72.6276 83.7262 72.1681 84.3079 71.5074C84.8904 70.8468 84.4526 70.7192 84.0813 70.4244L83.9559 70.3881C82.917 71.3396 81.8618 72.2865 80.8113 73.2179C79.7607 74.1485 78.7187 75.1673 77.662 76.0624C77.4376 76.2511 77.1042 76.2898 76.5665 76.0995C77.5142 75.172 78.4038 74.2112 79.3848 73.3447C79.7545 73.1088 80.0462 72.7707 80.2257 72.3716C80.4051 71.9724 80.4639 71.5291 80.3951 71.0967C80.3448 71.2684 80.1676 71.4711 80.0199 71.5129L79.76 71.5902C78.5261 72.5696 77.2968 73.5327 76.0854 74.5531C75.3064 75.1906 74.6148 75.9378 73.8048 76.566C73.4459 76.737 73.0629 76.8546 72.6699 76.9133L72.4704 76.5505C73.0529 75.8899 73.6594 75.2021 74.228 74.5879C74.1792 74.4757 74.1197 74.3674 74.0508 74.2653C73.6485 74.3241 73.2555 74.4378 72.885 74.6042C72.0015 75.1944 71.1808 75.8025 70.2919 76.5265C69.7078 76.9164 69.0472 77.1756 68.354 77.287C67.6609 77.3976 66.9515 77.3582 66.2754 77.1702C66.5655 76.8143 66.6676 76.5219 66.8757 76.4469C69.5114 75.2486 72.2661 74.051 75 72.9835L75.0093 72.9518ZM88.6238 23.6774C92.1243 19.5345 96.236 15.9492 100.817 13.0448C102.952 11.5313 105.123 9.89283 107.236 8.45743C109.854 6.79667 112.59 5.37325 115.352 3.85623L115.739 4.27374C114.955 5.55149 114.09 6.77671 113.147 7.94144C108.736 12.8349 104.896 18.2146 101.701 23.9768C101.172 24.9239 100.889 26.0108 100.308 26.9599C98.9606 29.1432 97.6006 31.255 96.0503 33.3792C93.352 37.0447 91.0282 40.9718 89.1143 45.1015C88.1612 46.8862 87.0944 48.6075 85.9193 50.2544C85.6207 50.7054 85.2912 51.1363 84.9345 51.5433C83.4345 53.3775 81.8773 55.1776 80.4291 57.0095C78.9809 58.8414 77.3958 60.7351 76.0769 62.707C74.4786 65.1585 72.5245 67.3594 70.2787 69.2369C68.8159 70.4205 67.5735 71.8378 66.1973 73.132C65.8151 73.4523 65.4074 73.7424 64.9796 73.9969C64.9309 73.4948 64.9889 72.9881 65.1483 72.5093C65.3084 72.0304 65.5668 71.5902 65.9072 71.2173C68.7494 66.6903 71.7393 62.2405 74.4392 57.6214C76.3755 54.288 77.8167 50.6745 79.6841 47.2869C80.7571 45.346 82.2092 43.617 83.4724 41.7819C84.5601 40.3234 85.5673 38.8065 86.4895 37.2381C88.6199 33.4337 91.1566 29.8715 94.0545 26.6138C95.6883 24.785 97.302 22.9672 98.9977 21.2751C100.693 19.5828 102.081 18.1908 103.55 16.636C104.175 16.0045 104.77 15.2968 105.354 14.6874C106.606 13.3572 107.862 11.893 109.167 10.4939C109.52 10.0442 109.844 9.57264 110.138 9.08187C109.664 8.97264 109.17 9.0042 108.714 9.17269C108.258 9.34118 107.862 9.63925 107.574 10.0301C105.103 12.6995 102.631 15.3689 100.16 18.0383C97.367 21.1731 94.7182 24.4517 91.9093 27.582C86.9304 33.0457 83.3541 39.5109 79.0451 45.4071C77.8848 47.2413 76.886 49.173 76.0598 51.1797C74.8345 53.5855 73.6671 56.0239 72.3636 58.4066C70.8396 61.1993 69.1787 63.9347 67.565 66.6849C67.3878 66.9409 67.1929 67.1846 66.9809 67.4128L66.7202 67.2009C67.3468 65.7944 67.876 64.3463 68.3038 62.8672C68.6697 61.2202 68.8909 59.5438 68.9652 57.8581C69.0851 56.167 69.564 54.5216 70.37 53.0309C74.6743 45.1665 79.3747 37.5263 84.4549 30.1395C85.6834 27.9556 86.9552 25.6826 88.6238 23.6774ZM56.9126 78.8334C57.0766 78.271 58.428 77.936 59.2852 77.6096C60.2932 77.2452 61.3213 76.9396 62.3649 76.6929C63.1795 76.5227 64.0033 76.3943 64.8311 76.3092C64.3259 77.2568 63.6274 78.0877 62.7811 78.7491C61.9355 79.4105 60.96 79.8871 59.9188 80.1485L59.1947 79.2604C57.909 79.3099 57.3141 80.3056 56.491 80.9809C55.6671 81.6563 55.2671 82.624 53.7594 82.5072C54.1276 82.0554 54.3814 81.8241 54.5662 81.5394C55.2346 80.5817 56.4925 80.2189 56.8251 78.8419L56.9126 78.8334ZM62.9884 46.9009C64.3267 43.8166 65.4709 40.6424 66.704 37.511C67.6261 34.8207 69.1269 32.3657 71.1019 30.3193C71.1359 30.6962 71.1336 31.0757 71.0941 31.4522C70.5503 33.9032 69.9639 36.3249 69.4201 38.7759C69.1624 39.7533 68.9853 40.7503 68.8909 41.7566C68.4724 47.6954 67.4752 53.5794 65.9126 59.3241C65.7973 59.5716 65.7207 59.8347 65.6852 60.1054C65.8693 63.9548 64.2795 67.3208 62.9768 70.805C62.6217 72.0057 62.0307 73.1243 61.2401 74.0951C60.7922 74.4672 60.297 74.779 59.7671 75.0219L59.5188 74.7125C59.7052 74.0719 59.9806 73.4739 60.256 72.8767C61.3584 69.9641 61.9347 66.879 61.9595 63.7653C62.0864 62.1075 62.682 60.4682 62.9157 58.7911C63.4541 55.2465 64.2416 51.7444 65.272 48.3112C65.3038 48.2013 65.2063 48.0714 65.0848 47.731C64.8442 48.0133 64.6214 48.3112 64.4188 48.6214C62.3231 52.214 62.1452 56.4316 61.0312 60.2586C60.4587 62.5531 60.1114 64.8978 59.9938 67.2596C60.0116 68.6784 59.6062 70.0709 58.8295 71.2584C58.8829 69.4443 59.0036 67.6325 58.9394 65.8176C58.9216 64.4136 58.7607 63.0157 58.459 61.6449C57.9051 59.6699 58.0629 57.5626 58.9046 55.6921C60.1655 52.7547 61.6973 49.88 62.9884 46.9009ZM53.0067 50.3999C53.9257 54.7506 54.8045 59.1245 55.7707 63.4891C56.9164 67.5234 56.7462 71.8184 55.2857 75.7506L52.4853 77.1044C52.6392 75.1758 52.6934 73.2403 52.6485 71.3055C52.4884 68.8873 52.0706 66.4783 51.7411 64.0608C51.4092 61.3215 51.027 58.5783 50.5954 55.8313C50.4971 55.2318 50.5227 54.6183 50.6704 54.0296C50.8189 53.4401 51.0866 52.8878 51.4572 52.4058C51.9051 51.681 52.2957 50.9221 52.6253 50.1369C52.8133 50.191 53.0005 50.2459 53.0067 50.3999ZM52.5812 46.0399C52.6841 46.8498 52.7638 47.4486 52.7785 47.69L49.8527 51.9215C49.1186 50.2513 50.3757 49.6 50.7934 48.6887C51.1005 47.6273 51.7581 46.7021 52.6593 46.0631L52.5812 46.0399ZM52.1812 41.5353C52.3507 42.4657 52.5541 43.3383 52.7011 44.3465C50.3037 44.666 50.6503 47.3759 48.7596 48.2825C49.5023 45.9502 50.4708 43.6953 51.6513 41.5506L52.1812 41.5353ZM44.0716 50.0696C43.7599 46.8313 43.9394 43.5648 44.6046 40.3804C44.9976 38.6818 45.0108 36.8896 45.263 35.1501C45.4486 33.4664 45.731 31.795 46.1101 30.144C46.4211 28.9086 46.9192 27.7279 47.5869 26.6429C49.937 22.6716 51.5608 18.3134 52.3832 13.7725C52.633 12.2586 53.32 10.8508 54.3589 9.72187L54.7264 9.91364C54.6397 10.5776 54.4889 11.2317 54.2769 11.8667C52.6802 15.7226 52.6903 19.8769 52.4698 23.8961C52.2486 27.9151 52.1488 32.2746 52.0319 36.4596C51.9995 37.6192 52.09 38.7638 52.1225 39.8746C50.1057 40.982 49.7645 43.0854 48.4239 44.7797C48.0317 44.0889 47.8445 43.6278 48.2746 42.9059C49.1511 41.4666 49.8713 39.9819 50.6542 38.5154C50.7687 38.1876 50.8661 37.8539 50.945 37.5156C50.6325 37.4247 50.3517 37.3429 50.255 37.5011C48.2166 39.7882 46.2501 42.0624 46.8001 45.5262C47.1374 47.9383 47.6874 50.3156 48.4432 52.6302C49.0575 54.6864 49.4814 56.7952 49.7104 58.9288C50.231 62.9608 50.7478 67.0082 51.0827 71.0363C51.1593 72.37 51.1655 73.7068 51.1036 75.0412L50.7137 75.2161C50.4198 74.9438 49.9432 74.7202 49.8527 74.3891C49.5023 73.0755 49.223 71.7442 49.0149 70.4004C48.4958 67.8166 47.675 65.3032 46.5688 62.9113C45.9213 61.1977 45.4448 59.4247 45.1446 57.6168C44.631 55.1459 44.2666 52.6464 44.0531 50.1322L44.0716 50.0696ZM30.5391 51.2137C29.6038 50.0603 30.5012 49.0167 30.4726 47.6026C31.7962 48.8179 31.7676 49.1482 30.5306 51.2454L30.5391 51.2137ZM44.7772 84.9587C44.7926 83.3458 44.894 81.7352 45.0804 80.1338C44.8808 80.1771 44.4608 80.2243 43.79 80.3172C42.8857 78.3592 41.9535 76.207 41.0786 74.0889C40.0938 71.6506 39.2506 69.1348 38.1389 66.7266C36.4579 63.4628 34.182 60.5425 31.428 58.1142C27.1028 53.8223 22.6585 49.6487 18.1763 45.4295C17.4336 44.7217 16.578 44.1678 15.7812 43.5293C12.0656 40.3673 8.73685 36.7765 5.86526 32.832C5.73375 32.6629 5.64169 32.4661 5.5976 32.2565C5.55273 32.0469 5.55659 31.8298 5.60765 31.6217C6.79203 32.5594 8.02127 33.4594 9.21416 34.3659C13.7335 37.8629 18.6126 40.8679 23.7694 43.3298L24.8617 43.8847C26.7493 44.9089 26.6665 44.9019 26.2627 46.9868C26.0956 47.8532 25.4999 48.9679 26.9728 49.9048C27.3542 48.5928 27.6907 47.4362 28.0141 46.3277C28.8836 46.1907 29.378 46.5891 29.0662 47.1933C27.8277 49.6449 29.2093 51.3011 30.7766 52.9605C33.2065 55.5884 35.3834 58.4406 37.2771 61.4778C37.4528 61.6843 37.616 61.9017 37.766 62.1284C40.4295 67.5288 43.5843 72.7003 45.4076 78.4837C45.7279 79.5296 45.984 80.5949 46.1743 81.6717C46.3096 82.3718 46.6075 82.6279 47.3942 82.1962C47.0554 78.2532 45.854 74.4324 43.8744 71.0054C42.6204 68.6753 41.484 66.2942 40.1255 64.0345C38.5381 61.4546 36.7534 58.9698 35.0453 56.4564C34.551 55.723 33.9994 55.0299 33.3952 54.3831C32.8189 53.8493 32.4545 53.1253 32.371 52.3439C32.2867 51.5626 32.4878 50.7774 32.938 50.133C34.1858 51.2733 35.3733 52.4793 36.4958 53.7441C38.0105 55.6418 39.3906 57.6531 40.7498 59.6761C41.2743 60.4551 41.7013 61.2968 42.0208 62.1802C42.4045 63.1905 43.2826 63.6663 43.8929 64.4198C44.9141 65.7689 45.7364 67.2581 46.3336 68.8409C47.4414 71.6715 48.4061 74.5276 49.3128 77.468C49.4303 78.2014 49.4466 78.9479 49.3623 79.6851C48.5616 80.164 47.5876 80.5415 48.0015 81.7971C48.4154 83.0526 48.8958 83.0913 49.8837 82.6666C50.3509 82.402 50.7926 82.0941 51.2019 81.746C52.264 80.9275 53.4337 80.2591 54.6776 79.7586C53.9512 80.3009 53.3262 80.9685 52.8334 81.7298C52.131 83.3002 50.9203 84.5897 49.3963 85.3881C48.7728 85.7834 48.3349 86.2994 49.254 87.0413C50.7308 86.2174 52.2207 85.3463 53.7555 84.5565C55.4582 83.6328 57.2058 82.7958 58.9928 82.0485C61.6764 80.9345 64.418 79.9683 67.206 79.1521C69.5616 78.565 71.9528 78.1287 74.3641 77.8471C78.3644 77.3172 82.4118 76.8012 86.4191 76.1885C89.1367 75.7591 91.8188 75.1 94.5588 74.5926C95.8322 74.3535 97.1148 74.2522 98.3719 74.0085C101.423 73.4221 103.902 74.9747 106.48 76.1312C107.591 76.624 108.608 77.3775 109.909 76.5196L111.061 78.3801C111.409 78.2942 111.728 78.3027 111.908 78.1519C112.311 77.7303 112.834 77.4433 113.408 77.3311C113.98 77.2189 114.573 77.2862 115.106 77.5237C115.223 77.5841 115.35 77.6212 115.481 77.6328C120.621 77.4348 125.763 78.3383 130.92 77.6196C133.588 77.2444 136.313 77.1392 138.99 76.8507C139.88 76.7091 140.76 76.5072 141.622 76.245C141.658 76.1204 141.699 75.9796 141.616 75.8025C141.288 75.7073 140.975 75.3275 140.666 75.3399C136.419 75.6114 132.178 75.394 127.936 76.3447C126.929 76.4979 125.905 76.508 124.895 76.3741C122.252 76.1807 119.616 75.9788 116.989 75.7676C116.608 75.7413 116.255 75.5541 115.61 75.5015L118.207 73.1568C118.13 73.016 118.072 72.8636 117.999 72.7065C117.597 72.7019 117.195 72.7622 116.811 72.886C115.731 73.453 114.745 74.1655 113.65 74.7279C112.994 75.0026 112.317 75.2246 111.626 75.3924C112.154 73.5807 114.376 73.8035 114.544 71.8873C114.118 71.854 113.691 71.902 113.283 72.0289C112.098 72.6663 110.952 73.4004 109.773 74.0735C108.958 74.5477 108.119 75.1 107.042 74.0247L109.781 72.0087C109.368 71.1601 108.844 71.3295 108.344 71.591C107.435 72.0327 106.567 72.5572 105.753 73.1575C105.179 73.6178 104.698 73.8166 104.111 73.4422C101.773 71.9314 99.325 72.4219 96.8147 73.0129C95.6968 73.2465 94.5998 73.5204 93.5021 73.7431L93.3319 73.3378L98.4833 68.2119C100.193 68.1555 101.904 68.2065 103.607 68.3651C107.947 68.8153 112.201 69.8721 116.249 71.5028C118.8 72.5866 121.445 73.436 124.151 74.0402C124.272 74.0913 124.397 74.1276 124.526 74.1493C128.939 74.2986 133.335 74.5616 137.713 74.5987C141.101 74.6018 144.302 74.4324 147.494 75.9208C149.372 76.8066 151.386 77.393 153.364 78.4598C152.833 78.6013 152.29 78.6926 151.742 78.7328C147.75 78.8566 143.77 79.2612 139.834 79.9435C136.31 80.4085 132.684 80.6413 129.103 80.9538C128.698 81.0057 128.285 80.9701 127.887 81.0575C124.478 81.7862 120.976 81.9734 117.508 81.6114C115.006 81.6872 112.509 81.9054 110.032 82.2651C105.576 82.4422 101.103 82.614 96.6545 82.4716C94.6432 82.19 92.6535 81.77 90.7009 81.213C89.0887 80.9299 87.4085 80.8819 85.869 80.7558L80.4392 80.2591C75.8293 79.993 71.2048 80.4054 66.714 81.483C63.6668 82.1181 60.7055 83.1106 57.8904 84.4381C56.2117 85.1197 54.666 86.0921 53.3262 87.312C52.6918 87.8953 52.2207 88.6341 51.9569 89.4549C51.7867 90.1712 51.4092 90.8218 50.8708 91.3247C46.8187 95.0519 43.1534 99.1798 39.9314 103.643C38.4128 105.539 36.7611 107.323 34.9888 108.983C34.3537 109.687 33.7689 110.433 33.2366 111.218C31.182 114.342 28.8001 117.239 26.1296 119.857C26.3284 117.205 27.4749 114.711 29.3601 112.834C29.8932 112.46 30.3906 112.038 30.8462 111.572C31.2733 111.036 31.5378 110.418 32.4437 110.682C33.0997 110.873 33.5283 110.506 33.8045 109.79C34.2098 108.862 34.6956 107.972 35.2573 107.129C36.7124 104.689 38.1838 102.254 39.6242 99.8095C39.7287 99.4505 39.7573 99.0011 39.9607 98.6537C40.2447 97.5359 40.8674 96.5333 41.7447 95.7844C42.2692 95.2654 42.6366 94.6086 42.8045 93.8899C43.0172 92.9314 43.2818 91.9846 43.5959 91.0539C44.494 89.1648 44.8971 87.0776 44.7679 84.9905L44.7772 84.9587ZM16.2732 90.3863C15.9143 94.7045 15.4579 99.0104 15.0208 103.306C14.9071 103.696 14.7933 104.087 14.8405 104.508L14.0878 117.047C14.0863 117.248 14.0391 117.446 13.9486 117.625C13.8581 117.805 13.7273 117.96 13.5664 118.081C13.3583 115.36 13.1866 112.633 12.9676 109.893C12.8385 108.415 12.6737 106.944 12.4578 105.475C12.1461 103.401 11.7833 101.33 11.4359 99.2633C11.364 98.8665 11.3849 98.4572 11.4978 98.0697C11.6108 97.6821 11.8119 97.3262 12.0865 97.0299C12.7681 96.1434 13.322 95.1694 14.0476 94.0764C12.4849 93.6215 12.2057 95.4549 10.7822 95.3961C10.7861 94.6859 10.5177 93.8621 10.8062 93.336C12.3194 90.6416 13.9586 88.0353 15.7588 85.0523C16.2918 86.7767 16.4666 88.5916 16.2732 90.3863ZM16.0141 79.6364L16.5177 79.8847C15.929 83.7117 12.9731 86.2406 11.0143 89.6522C10.6701 89.2947 10.4682 88.8229 10.4473 88.327C10.4256 87.8311 10.5873 87.3445 10.9006 86.9585C12.6226 84.5348 14.3284 82.0887 16.0187 79.6209L16.0141 79.6364ZM7.9207 139.397C8.08935 138.673 8.29745 137.958 8.54422 137.257C9.25438 134.853 9.66362 132.372 9.76264 129.868C10.0164 127.326 10.0125 124.765 9.75103 122.223C9.3797 119.658 8.91864 117.05 8.41271 114.598C7.31885 109.858 5.98981 105.167 4.93617 100.404C3.7487 95.106 3.53828 89.6359 4.31498 84.2625C4.72343 81.5178 4.70409 78.7336 5.02591 75.9974C5.35159 72.551 5.78635 69.1364 6.12751 65.6946C6.77269 60.3483 6.31472 54.9277 4.783 49.7655C4.72652 49.4074 4.70796 49.0438 4.72575 48.6817C6.80982 50.3287 8.48156 52.4398 9.60714 54.8465C10.9068 58.1227 11.9736 61.4994 13.0303 64.8568C14.0863 68.2143 14.9991 71.4796 15.9506 74.789C16.1727 75.5015 16.3282 76.2333 16.4156 76.9745C16.4473 77.3713 16.3328 77.7658 16.093 78.0838C14.1961 80.2932 12.2188 82.4291 10.2926 84.681C10.1007 84.3832 10.011 84.0312 10.0373 83.6777C10.0636 83.3249 10.2044 82.9899 10.4388 82.7238C11.2982 81.517 12.109 80.2452 12.8841 78.9796C13.1208 78.4064 13.2949 77.8092 13.4024 77.1988C11.5264 77.8223 11.3678 79.7076 9.70694 80.1725L9.19637 74.9415C8.03056 75.3979 8.2108 76.3486 8.24871 76.9188C8.28352 78.8945 8.44134 80.8548 8.58368 82.8105C8.75928 85.2341 9.12055 87.6609 9.1105 90.0807C9.15072 93.8095 9.55608 97.525 10.3204 101.175C11.2526 106.53 11.5125 111.807 11.955 117.154C12.1128 119.234 11.8382 121.339 11.8165 123.451C11.781 124.797 11.8127 126.144 11.7562 127.5C11.7384 128.171 11.6471 128.837 11.4831 129.488C10.9609 130.933 10.5308 132.409 10.1966 133.908C9.81679 136.592 8.90472 139.172 7.51302 141.498C7.66619 140.796 7.77218 140.082 7.92535 139.381L7.9207 139.397ZM17.0406 128.09C17.7485 126.415 18.5925 124.797 19.305 123.106C20.4035 120.495 21.4401 117.865 22.5239 115.25C22.7544 114.693 23.0244 114.155 23.3315 113.638C25.0002 110.517 25.9734 107.072 26.1861 103.54C25.9277 103.753 25.7088 104.011 25.5409 104.301C24.7983 106.271 24.1229 108.242 23.4267 110.226C23.2178 110.945 23.0082 111.663 22.6948 112.334C20.5806 116.802 18.3681 121.377 16.2833 125.921C15.7317 127.115 15.2853 128.358 14.7918 129.587C14.5288 130.493 14.265 131.399 13.896 132.257L13.3653 132.102C13.4233 131.617 13.578 131.149 13.8209 130.725C14.0638 130.301 14.3895 129.929 14.7786 129.634L14.8104 129.524C14.7307 129.331 14.5419 129.107 14.5984 128.971C16.4395 124.102 18.3697 119.275 20.1327 114.384C21.1856 111.522 21.9267 108.569 22.9014 105.684C23.7995 103.066 24.8385 100.487 25.8186 97.8755C26.3826 96.3453 26.928 94.9962 27.4378 93.5348C28.2972 91.1073 29.0824 88.6418 29.9365 86.2305C30.1361 85.7463 30.4927 85.3432 30.9484 85.0848C30.9012 86.9345 30.8896 88.7788 30.8068 90.6354C30.5971 95.0813 30.3875 99.5271 30.0904 103.981C30.0169 107.056 29.0476 110.042 27.3016 112.574C25.5533 114.912 24.9607 117.704 23.846 120.311C23.6595 120.951 23.3331 121.551 23.0213 122.155C21.7209 124.759 20.4367 127.367 19.0628 129.932C18.2033 131.546 17.1969 133.083 16.1966 134.774C17.3145 135.998 16.5053 137.033 15.5685 137.979C13.6933 139.823 11.7601 141.632 9.62029 143.687C9.95758 141.608 10.8356 139.654 12.167 138.024C13.3018 136.587 14.2495 135.012 14.9883 133.338C15.799 131.659 16.3196 129.811 17.0453 128.074L17.0406 128.09ZM-12.9217 114.082C-12.817 114.56 -12.7998 115.052 -12.8708 115.537C-13.7185 117.677 -15.0151 119.61 -16.6733 121.207C-16.2909 118.438 -14.2055 116.572 -13.4131 114.024L-12.9217 114.082ZM-14.13 113.052C-15.2224 114.768 -16.3414 116.458 -17.4604 118.148C-17.5195 118.352 -17.8884 118.397 -18.2358 118.601C-18.3076 118.207 -18.4737 117.905 -18.3925 117.741C-17.1827 115.332 -15.9665 112.958 -14.6352 110.364C-13.833 111.275 -13.5085 112.081 -14.1164 113.005L-14.13 113.052ZM-18.1188 154.521C-19.3524 150.028 -19.9751 145.357 -20.8886 140.754C-20.9875 139.746 -21.1551 138.746 -21.39 137.761C-22.8813 133.396 -22.6664 128.815 -23.1537 124.319C-23.6467 120.437 -24.5009 116.609 -25.7049 112.886C-26.6138 109.605 -27.6482 106.406 -28.5527 103.11C-28.8245 101.95 -28.9907 100.767 -29.0492 99.5766C-29.2354 97.0153 -29.2471 94.4361 -29.5205 91.8824C-29.5428 89.1323 -29.0581 86.4015 -28.0907 83.827C-21.8673 91.5521 -18.843 100.43 -15.0342 108.824L-19.345 115.601C-19.2282 114.154 -18.7469 112.762 -17.9462 111.552C-17.4217 110.332 -16.8816 109.117 -16.2985 107.812C-17.0673 107.368 -17.4218 107.655 -17.7625 108.301C-18.3974 109.606 -19.1508 110.85 -20.0133 112.018C-20.0619 110.605 -19.6226 109.22 -18.7693 108.092C-18.3283 107.509 -18.0196 106.972 -18.8874 106.229C-19.6098 107.255 -20.2581 108.201 -21.1944 109.555C-22.0535 107.035 -22.6917 105.037 -23.4431 102.903C-24.2955 103.096 -24.4044 103.877 -24.1938 104.667C-23.8579 105.9 -23.3543 107.08 -22.9469 108.3C-22.3811 110.023 -21.8401 111.774 -21.2743 113.497C-20.7085 115.221 -20.2294 116.834 -19.5601 118.435C-18.891 120.037 -17.7589 122.026 -16.9927 123.876C-16.6079 124.812 -16.3817 125.805 -16.3234 126.816C-16.0155 130.531 -15.7949 134.255 -15.5696 137.964C-15.3006 140.591 -15.4328 143.243 -15.9617 145.831C-16.2715 147.823 -16.2142 149.855 -15.7925 151.827C-15.2804 155.365 -14.6238 159.046 -13.96 162.646C-13.5522 164.023 -13.3972 165.463 -13.5028 166.896C-15.1886 162.559 -16.9972 158.644 -18.1051 154.475L-18.1188 154.521ZM-20.9925 214.514C-21.3321 215.007 -21.8335 215.366 -22.4101 215.529C-22.9866 215.693 -23.6021 215.649 -24.15 215.407C-24.3505 215.28 -24.5207 215.111 -24.6487 214.911C-24.7767 214.711 -24.8594 214.485 -24.8911 214.25C-24.9227 214.015 -24.9024 213.776 -24.8318 213.549C-24.7611 213.322 -24.6417 213.114 -24.482 212.939C-24.1417 212.511 -23.6544 212.226 -23.1151 212.139C-22.5759 212.051 -22.0234 212.167 -21.5656 212.466C-20.7147 213.035 -20.4996 213.81 -20.9788 214.466L-20.9925 214.514ZM-14.2103 194.24C-15.6 197.326 -17.0566 200.409 -18.2477 203.57C-19.1107 205.894 -19.6345 208.334 -20.2682 210.861L-23.4878 210.28C-23.425 209.799 -23.321 209.325 -23.1769 208.862C-22.4211 206.964 -21.5761 205.109 -20.8203 203.211C-19.0826 198.871 -17.3448 194.531 -15.6852 190.168C-15.2959 189.18 -15.3148 188.023 -14.9477 186.994C-14.2654 185.057 -13.427 183.167 -12.6934 181.228C-12.4358 180.619 -12.2866 179.968 -12.2525 179.307C-12.237 177.973 -12.3822 176.609 -12.4181 175.277C-12.6009 173.661 -12.47 172.025 -12.0322 170.458C-11.7566 169.411 -11.6695 168.324 -11.7749 167.246C-11.8015 165.684 -11.9131 164.124 -12.1093 162.574C-12.3765 160.582 -12.7869 158.615 -13.157 156.627L-14.2879 150.791L-11.0152 146.067C-12.55 145.519 -12.7391 147.158 -13.6636 147.482C-14.1826 145.772 -14.24 145.62 -12.5753 143.394C-11.7071 142.274 -11.259 140.676 -9.49767 140.155L-9.80757 138.659C-11.9471 138.849 -11.8475 141.301 -13.5586 142.057C-13.7029 141.731 -13.7618 141.373 -13.7295 141.017C-13.6973 140.662 -13.575 140.321 -13.3742 140.026C-12.4314 138.708 -11.424 137.46 -10.5436 136.123C-10.2712 135.772 -10.1019 135.352 -10.055 134.91C-10.0516 134.238 -10.0999 133.567 -10.1992 132.902C-11.3176 134.474 -12.436 136.046 -13.5389 137.624L-14.0446 137.323C-14.7392 134.529 -12.2275 133.176 -11.0175 131.173C-11.1284 130.565 -11.5658 130.438 -12.0257 130.795C-12.9097 131.503 -13.7227 132.318 -14.8251 133.369C-15.0068 130.791 -15.0867 128.446 -15.3204 125.99C-13.6802 124.78 -12.5262 123.025 -12.0668 121.04C-13.4742 120.054 -13.4211 121.968 -14.349 122.07C-14.0378 120.451 -13.3284 118.934 -12.2846 117.656C-11.1765 118.623 -11.3418 119.946 -11.2533 121.04C-11.0451 124.478 -10.5606 127.894 -9.80447 131.255C-9.76595 131.714 -9.78096 132.176 -9.84926 132.632C-8.93503 134.126 -8.48982 135.861 -8.57113 137.612C-8.52758 139.159 -8.57106 140.708 -8.70133 142.251L-8.90332 147.834C-8.61887 152.678 -8.32992 157.507 -8.31367 162.34C-8.46298 164.164 -8.81133 165.966 -9.35262 167.714C-10.239 171.115 -10.7486 174.603 -10.8723 178.116C-10.8778 178.775 -10.5326 179.451 -10.6161 180.088C-10.8911 181.906 -10.3785 183.986 -11.0766 185.512C-12.3485 188.31 -12.9358 191.375 -14.1967 194.194L-14.2103 194.24ZM3.53983 169.874C0.757202 171.809 -1.92818 173.874 -4.65364 175.961C-5.28397 176.438 -5.85891 177.017 -6.7702 177.819C-6.70251 177.372 -6.57556 176.935 -6.39284 176.522C-4.84371 173.893 -2.7666 171.612 -0.292566 169.826C1.15715 168.78 2.53261 167.635 3.82297 166.398C8.48079 162.786 13.3699 159.483 18.4602 156.511C18.6907 156.373 18.9305 156.25 19.1765 156.144L19.5308 156.382C19.3568 156.773 19.151 157.15 18.9151 157.507C17.5891 159.036 16.3258 160.583 14.8838 162.044C14.4259 162.521 13.9114 162.94 13.3514 163.292C10.069 165.489 6.77811 167.597 3.55376 169.827L3.53983 169.874ZM13.725 166.434C12.3008 166.96 10.841 167.385 9.3565 167.704L9.17934 167.262C9.75103 166.989 10.284 166.669 10.8619 166.431C11.4398 166.193 11.8753 166.268 12.1941 165.988C16.8186 161.743 22.6136 159.296 27.9855 156.267C30.5762 154.818 33.355 153.713 35.9156 152.307C38.477 150.9 40.9579 149.419 43.4659 147.964C44.5691 147.319 45.7024 146.683 46.7568 145.974C47.2271 145.577 47.6565 145.134 48.0386 144.653C48.4061 144.146 48.8556 143.704 49.3684 143.345C51.1655 142.316 52.7847 141.001 54.1609 139.453C55.4938 138.425 56.8979 137.492 58.3623 136.661C59.4933 135.914 60.5593 135.074 61.5503 134.149C62.0168 133.546 62.2836 132.812 62.3138 132.05C65.6844 129.281 69.0503 126.527 72.4108 123.789L72.68 124.088C71.1614 125.696 69.6429 127.305 68.1127 128.892L57.9623 139.493C55.5719 141.891 52.9239 144.018 50.067 145.835C44.9257 149.236 39.8161 152.645 34.6036 155.94C27.9019 159.907 20.9295 163.398 13.7382 166.387L13.725 166.434ZM93.8533 158.92C94.0429 158.637 94.2571 158.37 94.4915 158.123C96.024 156.875 97.6308 155.546 99.1486 154.175C100.138 153.277 101.004 152.224 101.934 151.241L103.782 149.373C104.158 149.057 104.517 148.72 104.855 148.364C109.881 142.389 115.505 136.926 119.972 130.483C121.031 129.163 122.171 127.91 123.385 126.732C125.857 124.063 128.089 121.459 130.482 118.886C131.394 117.912 132.441 117.076 133.593 116.403L134.102 116.924C133.814 117.331 133.573 117.752 133.263 118.12C131.269 120.352 129.272 122.595 127.272 124.848C126.036 126.182 124.67 127.615 123.45 129.072C121.923 130.882 120.546 132.819 119.022 134.561C116.993 136.936 114.899 139.24 112.793 141.525C109.967 144.599 106.96 147.536 104.256 150.714C101.654 153.74 98.6419 156.388 95.3077 158.58C95.098 158.727 94.8606 158.829 94.6099 158.878C94.3593 158.928 94.1009 158.925 93.851 158.868L93.8533 158.92ZM-9.37884 146.849L-8.85844 147.796C-9.02036 148.004 -9.1979 148.206 -9.67002 148.78C-9.65881 147.868 -9.67204 147.39 -9.66515 146.901L-9.37884 146.849Z" fill="#101A24"/>
</svg>
