<svg width="239" height="376" viewBox="0 0 239 376" fill="none" xmlns="http://www.w3.org/2000/svg">
<path d="M4.61191 231.018C5.41376 230.222 6.43466 229.683 7.54318 229.469C9.8457 229.135 12.2315 229.088 14.591 228.954C18.22 228.611 21.8786 228.74 25.4747 229.336C30.5596 230.313 35.7561 230.577 40.9143 230.12C46.7538 229.83 52.6066 229.897 58.4384 230.322C62.2372 230.511 66.001 231.575 69.8174 231.664C72.1352 231.615 74.4257 232.163 76.4707 233.254C79.5685 234.768 82.8054 235.978 86.1365 236.87C92.9652 239.121 99.7862 241.342 106.597 243.534C108.477 244.139 110.401 244.563 112.291 245.044C112.053 244.226 111.309 244.058 110.886 243.678C106.666 240.326 101.756 237.953 96.5077 236.731C93.0035 235.768 89.553 234.618 86.1727 233.285C82.1449 231.551 77.9013 230.364 73.5581 229.76C72.1374 229.58 70.755 229.173 69.4635 228.552C63.9745 225.279 58.1744 222.554 52.1498 220.42C51.1771 220.092 50.246 219.655 49.3718 219.118C42.0579 215.176 36.1066 209.4 29.6011 204.359C24.915 200.709 20.2552 196.979 15.4596 193.529C9.71756 189.818 4.95697 184.775 1.58426 178.829C0.852539 177.825 0.357452 176.668 0.133972 175.445C-0.0883789 174.222 -0.0336304 172.965 0.296082 171.766C1.52838 171.816 2.74646 172.051 3.90759 172.467C12.1438 177.028 20.2968 181.708 28.5024 186.325C33.0746 188.929 37.6632 191.504 42.3044 194.016C44.1392 195.041 46.1142 195.81 47.9128 196.797C53.1181 199.433 58.2927 202.125 63.521 204.754C64.3294 205.102 65.1608 205.398 66.0087 205.638C63.9745 202.549 61.7169 199.613 59.2545 196.855C57.8316 195.183 56.4021 193.487 54.9036 191.883C51.9329 188.766 48.8428 185.73 45.8896 182.511C41.9922 178.272 38.3533 173.764 34.2894 169.694C30.4709 165.755 27.3512 161.195 25.0618 156.209C23.4023 152.733 21.4371 149.442 19.5312 146.111C18.4237 144.202 17.0709 142.436 15.9185 140.54C14.1353 137.629 14.7476 136.514 18.0173 135.467C22.0911 139.08 26.166 142.693 30.2408 146.304C34.3146 149.917 38.6852 153.803 42.8619 157.602C45.4558 160.421 48.3214 162.979 51.418 165.236C51.9625 165.632 52.4587 166.092 52.8957 166.605C55.9957 169.589 59.1778 172.525 62.2088 175.602C65.6045 179.028 68.7997 182.585 72.076 186.093C73.5658 188.079 75.3162 189.852 77.2825 191.368C77.1959 190.578 77.1652 190.226 77.1357 189.875C76.8629 187.291 76.5244 184.727 76.3316 182.168C76.1838 180.34 76.393 178.503 76.1553 176.701C75.7336 173.273 75.1311 169.801 74.5516 166.491C73.9919 162.975 72.9096 159.563 71.34 156.366C70.4395 154.237 69.7911 152.01 69.4088 149.73C69.0352 148.448 69.0221 147.084 68.7592 145.768C68.2071 142.883 67.4874 139.997 67.0679 137.072C66.6484 134.147 66.4863 131.364 66.3263 128.507C66.3285 127.609 66.529 126.724 66.9146 125.912C67.4403 124.752 68.2597 124.681 69.2105 125.556C70.1602 126.431 70.6378 127.084 71.4517 127.735C75.1935 130.7 77.851 134.966 81.2412 138.537C81.4384 138.751 81.5994 138.996 81.7166 139.262C84.0629 143.241 85.4179 147.727 85.6666 152.34C85.7192 156.669 86.7696 160.929 88.7381 164.785C90.3768 168.027 91.5718 171.47 92.9739 174.804C93.135 175.357 93.4504 175.865 93.7155 176.364C95.8965 180.755 97.465 185.425 98.3786 190.241C99.2976 194.221 99.4948 198.361 100.141 202.396C100.588 206.606 101.78 210.703 103.663 214.494C106.383 219.799 109.606 224.83 113.29 229.519C114.294 230.86 115.454 232.077 116.745 233.143C120.937 236.17 125.267 239.011 129.383 242.108C134.287 245.767 139.014 249.646 143.865 253.368C145.231 254.433 146.823 255.29 148.208 256.254C146.631 253.253 144.893 250.339 143.004 247.525C136.914 238.308 130.765 229.134 124.713 219.884C120.396 213.295 116.221 206.616 111.964 199.986C110.437 197.624 108.938 195.277 107.401 192.966C107.175 192.732 106.996 192.456 106.877 192.154C106.757 191.853 106.698 191.529 106.705 191.204C106.71 190.879 106.78 190.559 106.911 190.261C107.041 189.963 107.228 189.694 107.463 189.469C107.964 189.64 108.442 189.871 108.887 190.158C112.347 193.061 115.817 195.914 119.148 198.951C123.432 202.79 127.701 206.658 131.781 210.701C135.216 214.259 138.57 218.034 142.003 221.665C145.434 225.296 149.035 228.519 152.098 232.281C158.293 239.883 164.234 247.679 170.151 255.481C172.359 258.17 174.018 261.265 175.034 264.592C176.102 268.198 177.971 271.517 180.5 274.302C181.858 275.921 183.347 277.407 184.685 279.034C188.027 283.099 191.414 287.152 194.621 291.328C196.545 293.848 198.294 296.498 199.856 299.257C200.896 301.306 202.422 303.07 204.302 304.393C208.605 307.156 212.21 310.878 214.832 315.267C215.622 316.536 216.867 317.452 218.313 317.828C218.075 317.01 217.792 316.612 217.574 316.196C215.583 312.821 213.771 309.345 212.143 305.781C210.501 301.78 208.492 297.939 206.141 294.309C205.245 292.839 204.523 291.269 203.988 289.633C203.212 287.46 202.885 285.348 202.141 283.285C199.149 275.399 195.876 267.619 193.062 259.68C190.951 253.746 189.336 247.618 187.549 241.564C186.725 238.733 185.894 235.88 185.27 232.99C185.196 232.06 185.23 231.125 185.369 230.202C186.572 230.956 187.501 231.262 188.004 231.834C190.436 234.917 192.757 238.104 195.158 241.245C197.559 244.384 199.916 247.537 202.409 250.578C205.688 254.59 209.32 258.331 212.36 262.509C218.776 271.859 223.664 282.171 226.842 293.058C228.351 298.484 229.539 303.995 230.397 309.56C231.2 313.885 231.754 318.259 232.307 322.633C232.481 325.582 233.317 328.455 234.754 331.036C237.11 334.765 239.013 338.746 242.622 341.583C242.898 341.79 243.02 342.211 243.272 342.496C244.812 344.573 246.457 346.568 248.203 348.475C253.568 353.967 259.198 359.214 264.45 364.811C267.125 367.655 267.399 371.15 263.894 373.37C263.087 373.893 262.244 374.378 261.43 374.878C260.953 375.219 260.376 375.391 259.791 375.366C259.205 375.341 258.645 375.121 258.199 374.739C256.568 373.571 255.029 372.278 253.595 370.874C250.095 367.093 246.906 363.223 243.318 359.47C239.425 355.492 235.252 351.789 231.208 347.951C228.819 345.413 225.55 343.884 222.07 343.677C218.819 343.516 215.603 342.936 212.5 341.953C206.902 340.199 201.456 337.97 195.953 336.046C191.458 334.346 187.149 332.191 183.093 329.616C179.645 327.549 176.125 325.598 172.537 323.763C167.41 321.153 162.181 318.765 157.064 316.272C154.946 315.18 152.904 313.947 150.952 312.58C148.126 310.619 145.517 308.332 142.6 306.47C138.454 303.859 134.604 300.804 131.119 297.361C130.235 296.492 129.448 295.53 128.772 294.493C127.707 292.714 126.291 291.169 124.613 289.95C122.935 288.731 121.028 287.865 119.007 287.403C117.127 287.125 115.317 286.497 113.669 285.549C111.85 284.774 109.914 284.308 107.941 284.169C104.298 283.358 100.658 282.474 97.0061 281.714C94.215 281.111 91.3593 280.694 88.5617 280.07C84.1462 279.075 79.8259 277.67 75.3775 276.973C68.9947 275.738 62.7805 273.754 56.8622 271.063C56.2159 270.819 55.7689 270.11 54.9868 269.402C55.9343 268.453 56.562 267.312 57.5095 266.94C59.6072 265.955 61.8462 265.303 64.1454 265.008C71.8 264.435 79.4656 264.147 87.118 263.816C90.7612 263.997 94.4144 263.897 98.0423 263.514C103.365 262.742 108.786 262.988 114.016 264.239C117.399 264.815 120.775 265.535 124.151 266.087C128.41 266.792 132.701 267.27 136.957 268.046C142.954 269.384 148.768 271.447 154.268 274.188C155.285 274.635 156.313 275.032 157.764 275.569C157.387 274.767 157.43 274.419 157.151 274.284C151.916 270.313 146.923 265.77 140.724 262.775C135.231 260.309 129.307 258.944 123.289 258.757C119.84 258.61 116.377 258.586 112.936 258.388C107.004 257.874 101.042 257.806 95.099 258.182C91.0855 258.75 86.9997 258.503 83.0836 257.457C76.657 255.488 70.2862 253.384 63.8748 251.387C59.5042 249.908 54.9638 248.988 50.3621 248.651C47.5787 248.542 44.8194 248.089 42.1477 247.299C32.321 244.281 22.5391 241.011 12.812 237.845C10.3682 237.012 7.97696 236.034 5.65036 234.915C5.25052 234.815 4.88467 234.61 4.59219 234.322C4.29865 234.033 4.08722 233.67 3.98206 233.273C3.87579 232.875 3.87802 232.457 3.98865 232.06C4.10037 231.664 4.31506 231.303 4.61191 231.018ZM69.5216 234.437C68.6037 233.673 66.8423 233.969 65.4643 233.771C68.2871 236.85 71.6445 239.393 75.3743 241.275L75.7927 240.817C73.8265 238.572 71.7321 236.443 69.5216 234.437ZM78.6944 238.173C77.1762 236.503 75.6459 234.79 72.7837 235.095C75.325 237.642 77.7294 240.133 80.2696 242.513C80.6639 242.774 81.1076 242.953 81.5731 243.036C82.0386 243.119 82.5162 243.105 82.9774 242.996C81.5578 241.418 80.148 239.789 78.6944 238.173ZM81.1568 237.649C82.858 239.876 84.7136 241.981 86.7094 243.949C87.7807 244.909 89.6505 244.988 91.1567 245.462C90.2267 243.461 88.8355 241.709 87.0972 240.351C85.3588 238.993 83.3224 238.066 81.1568 237.649ZM47.0869 199.318L46.6115 199.744C47.7342 201.048 48.7606 202.429 49.9557 203.569C51.1507 204.708 51.5385 206.778 54.5027 206.828C51.6426 204.254 49.8308 201.326 47.0869 199.318ZM54.3581 209.461C49.4858 207.394 44.7723 204.973 40.2538 202.218C37.8965 200.961 35.5798 199.596 33.2477 198.26C32.4634 197.792 31.7108 197.267 30.3274 196.471C31.3888 196.161 32.0307 195.975 32.3571 196.024C34.3036 196.84 36.1866 197.799 37.9907 198.894C40.5309 200.61 43.3056 201.952 46.2281 202.878C44.7537 201.028 43.3023 199.172 41.7895 197.357C41.3744 196.964 40.8782 196.666 40.336 196.484C35.9653 194.502 31.782 192.131 27.8375 189.398C23.3497 186.674 18.7392 184.105 14.1342 181.391C11.652 179.953 9.1622 178.568 6.64825 177.188C6.07758 176.874 5.46634 176.668 4.33371 176.158C5.7095 178.922 7.69217 181.338 10.1338 183.226C14.0312 186.89 18.1499 190.49 22.2423 193.833C24.3465 195.621 26.6435 196.919 28.8661 198.456C29.2911 198.674 29.7052 198.914 30.1072 199.173C34.6016 202.664 39.096 206.154 43.5027 209.669C46.6235 212.209 50.0565 214.339 53.7195 216.005C59.6433 218.718 65.3394 221.883 71.2008 224.711C72.5054 225.241 73.8692 225.61 75.2625 225.809C77.059 226.045 78.839 226.384 80.5971 226.823C84.1527 227.995 87.6339 229.405 91.1501 230.684C92.4657 231.165 93.8053 231.567 95.111 231.931L95.4901 231.173C93.8163 229.788 92.2488 228.278 90.46 226.998C85.7082 223.268 80.3079 220.448 74.5319 218.68C68.7614 216.829 63.2121 214.349 57.9838 211.285C56.826 210.581 55.6134 209.97 54.3581 209.461ZM54.9518 204.082C57.6223 206.663 58.8108 210.996 63.4991 211.191C60.9852 208.492 59.2106 204.785 54.9518 204.082ZM65.415 209.121C66.5344 210.739 67.4524 212.079 68.3857 213.391C68.6409 213.773 68.8742 214.328 69.2488 214.459C72.2272 215.833 75.3524 216.863 78.563 217.53C74.5692 213.535 70.801 210.313 65.415 209.121ZM79.1884 176.322L78.5914 176.495C78.9113 180.481 79.2038 184.451 79.6562 188.398C79.7931 190.264 80.0527 192.121 80.4339 193.954C80.653 195.494 81.1897 196.971 82.0091 198.294C84.2634 201.282 86.7631 204.077 89.4796 206.651C89.2803 205.592 88.978 204.555 88.5792 203.555C87.5145 201.491 86.8167 199.26 86.5144 196.958C85.9415 193.67 85.0674 190.421 84.3554 187.15C84.167 186.518 84.0574 185.864 84.029 185.206C83.9534 181.317 81.262 179.077 79.2202 176.433L79.1884 176.322ZM78.7032 171.521C78.816 173.887 80.6004 174.495 81.7801 175.664C81.205 173.999 80.1305 172.552 78.7032 171.521ZM77.622 165.502C77.4971 167.626 78.575 168.775 80.8786 169.352L77.622 165.502ZM94.4604 200.93C93.5414 195.464 92.5708 189.988 91.2695 184.61C89.4435 177.76 87.0632 171.071 84.1517 164.608C83.1012 161.54 82.2457 158.407 81.5895 155.229C80.4887 151.448 79.3878 147.666 78.1391 143.95C77.9627 143.506 77.829 143.047 77.7392 142.579C77.4533 139.039 75.1826 136.678 72.9206 134.265C71.731 132.98 70.6323 131.596 69.4964 130.248L68.9213 130.415C69.4197 133.94 69.8951 137.473 70.4669 141.001C70.9051 144.615 71.5491 148.2 72.3937 151.74C73.1638 155.586 74.7773 159.213 77.116 162.362C77.2715 162.607 77.4654 162.826 77.6888 163.011C82.0408 165.679 83.3246 170.007 84.1517 174.662C84.6325 177.305 85.5187 179.854 86.1102 182.464C86.7028 185.075 87.1037 187.526 87.5977 190.045C88.0907 192.565 88.4664 194.926 89.0732 197.341C89.6593 199.354 90.4217 201.315 90.9705 203.362C91.7679 206.105 92.2794 208.931 92.9958 211.722C93.1733 212.541 93.5205 213.315 94.0157 213.992C96.7881 217.167 99.6569 220.267 102.505 223.373C102.663 223.538 102.855 223.665 103.07 223.744C103.285 223.823 103.514 223.852 103.741 223.829C103.394 223.118 103.002 222.432 102.566 221.771C98.2482 215.567 95.4703 208.423 94.4604 200.93ZM139.891 224.631C137.038 221.262 134.246 217.852 131.335 214.525C129.674 212.609 127.887 210.922 126.153 209.172C122.828 205.989 119.509 202.828 116.19 199.668C115.259 198.662 114.196 197.784 113.032 197.06C113.349 197.776 113.712 198.473 114.118 199.144C121.027 209.777 128.012 220.338 134.941 230.869C137.737 235.118 140.262 239.59 143.14 243.79C146.771 249.091 150.641 254.226 154.457 259.425C156.514 262.21 158.648 264.923 160.744 267.672C161.054 268.169 161.449 268.606 161.911 268.964C165.362 271.174 167.254 274.87 170.106 277.662C172.958 280.456 175.554 283.274 178.325 286.115C179.147 286.936 180.149 287.556 181.25 287.926C180.037 285.947 178.685 284.055 177.204 282.266C175.272 280.273 173.525 278.107 171.986 275.796C170.305 273.238 168.177 270.954 166.317 268.521C164.114 265.731 161.895 262.971 159.691 260.181C157.39 256.931 154.883 253.83 152.19 250.896C151.174 249.528 150.323 248.044 149.656 246.475C147.834 243.431 146.065 240.324 144.153 237.377C141.538 233.34 138.796 229.196 135.998 225.188C134.714 223.331 133.167 221.645 131.741 219.877L132.56 219.231L140.831 229.179C141.079 228.405 141.123 227.579 140.959 226.781C140.793 225.984 140.425 225.243 139.891 224.631ZM170.275 281.045L166.405 277.229C167.488 279.96 167.993 280.461 170.288 281.089L170.275 281.045ZM143.805 229.009C144.407 231.905 143.716 234.722 146.472 236.775C145.899 234.062 146.885 231.184 143.817 229.054L143.805 229.009ZM148.33 234.17C147.92 236.472 149.469 238.085 149.754 239.97C149.901 242.087 150.659 244.116 151.935 245.813C151.963 243.274 151.77 240.737 151.358 238.23C150.596 236.709 149.571 235.334 148.33 234.17ZM188.178 288.07C183.843 283.069 179.238 278.291 175.121 273.132C173.153 270.414 171.496 267.484 170.179 264.398C167.254 258.993 163.876 253.844 160.085 249.006C158.536 246.818 156.808 244.753 155.118 242.655C154.661 242.182 154.166 241.748 153.637 241.359C153.813 244.354 153.93 246.983 154.114 249.593C154.271 250.043 154.53 250.453 154.87 250.788C159.173 256.422 163.4 262.124 167.785 267.71C170.543 271.25 173.518 274.63 176.357 278.122C178.112 280.275 179.812 282.491 181.507 284.685C184.958 289.293 189.134 293.312 193.872 296.584C193.692 295.832 193.416 295.105 193.051 294.424C191.467 292.198 189.962 289.996 188.153 287.981L188.178 288.07ZM206.913 281.056C207.376 278.522 205.626 276.633 201.849 275.117C201.959 278.54 205.012 279.139 206.888 280.967L206.913 281.056ZM199.425 269.176C199.721 270.194 200.018 271.212 200.333 272.295L204.119 273.184L204.398 272.743L200.034 268.88L199.425 269.176ZM261.101 371.688L262.45 368.08C260.772 366.601 259.239 366.856 257.194 367.906L261.101 371.688ZM124.791 271.252C121.616 268.33 117.49 266.658 113.176 266.547C111.941 266.404 110.715 266.184 109.506 265.888C106.476 265.323 103.371 265.277 100.325 265.753C96.6282 266.157 92.9082 266.401 89.22 266.587C81.354 266.764 73.4814 266.753 65.6067 266.982C64.3546 267.24 63.1508 267.695 62.0412 268.332L62.1408 269.167C62.728 269.41 63.3315 269.61 63.9471 269.769C72.8253 271.503 81.7341 273.18 90.5586 274.978C92.1425 275.308 93.652 276.044 95.1954 276.484C98.0664 277.279 100.918 278.008 103.804 278.776C106.114 279.376 108.518 279.803 110.771 280.539C119.439 283.377 128.387 285.269 137.461 286.181C140.309 286.509 143.135 286.999 145.926 287.652C151.423 288.979 156.823 290.718 162.364 291.864C167.904 293.011 173.118 293.532 179.084 294.411C178.428 293.642 178.099 292.922 177.554 292.698C172.093 290.424 166.421 288.164 160.76 286.189C157.898 285.175 154.813 284.801 151.841 283.987L133.719 279.425C132.326 279.087 130.906 278.828 129.497 278.519C124.239 277.379 118.995 276.234 113.767 275.085C113.06 274.886 112.366 274.648 111.687 274.371L111.804 273.785L129.409 276.073C127.624 274.146 126.199 272.713 124.791 271.252ZM183.492 312.273C187.737 314.66 192.334 316.441 196.743 318.565C199.908 320.043 203.096 321.682 206.202 323.369C208.538 324.633 210.801 326.061 213.096 327.433C213.422 327.649 213.725 327.945 214.036 328.191C214.174 327.839 214.282 327.471 214.397 327.126C209.275 321.554 203.754 316.36 197.879 311.589C197.479 311.329 197.093 311.049 196.723 310.75C193.347 307.343 189.303 304.674 184.843 302.907C177.687 299.675 170.287 297.017 162.711 294.954C158.393 294.137 154.031 293.572 149.647 293.263C146.028 292.781 142.434 292.219 138.827 291.614C137.094 291.35 135.343 291.021 133.604 290.735L133.459 291.305L143.198 295.092L166.814 304.268C172.559 306.53 178.133 309.206 183.492 312.273ZM186.046 319.568C185.972 318.485 185.926 317.587 185.835 316.366L178.277 312.328C179.352 316.766 183.059 317.63 186.046 319.568ZM188.323 318.16C190.356 320.28 191.822 323.093 195.114 323.765C192.887 321.967 191.86 318.523 188.323 318.16ZM139.627 273.675C139.167 273.329 138.482 273.121 138.237 272.688C136.913 270.122 134.436 270.1 132.061 269.688C129.685 269.275 127.713 269.177 125.529 268.926L125.246 269.439C129.266 272.204 132.685 275.791 137.274 277.791C135.565 275.049 132.503 273.517 130.769 270.856C130.878 270.684 130.998 270.52 131.131 270.366C131.532 270.447 131.918 270.585 132.281 270.775C135.124 272.874 137.973 274.996 140.777 277.131C141.395 277.586 141.941 278.13 142.399 278.746C143.217 279.828 144.249 279.911 145.761 279.83C144.067 277.456 141.995 275.377 139.627 273.675ZM149.929 278.569C148.683 277.495 147.535 276.312 146.5 275.033C144.919 272.567 142.462 272.202 139.748 272.032L151.681 281.707L152.182 281.2C151.488 280.299 150.727 279.417 149.929 278.569ZM148.149 275.009L153.826 279.762C154.561 280.389 155.257 281.049 155.974 281.537C156.439 282.007 156.995 282.376 157.61 282.62C165.652 284.831 173.347 288.155 180.469 292.496C181.368 293.026 182.081 293.827 182.903 294.427C184.606 295.659 186.33 296.884 188.063 298.06C189.797 299.234 191.174 299.433 191.478 301.552C191.685 302.259 192.83 302.814 193.516 303.358L196.391 305.736C198.791 307.797 201.045 310.019 203.599 311.867C206.293 314.032 208.762 316.464 210.966 319.127C215.038 323.689 219.476 327.909 224.236 331.747C224.784 332.15 225.271 332.631 225.683 333.174C225.918 333.489 225.992 334.235 225.876 334.412C225.499 334.809 224.993 335.059 224.448 335.116C224.051 335.232 223.58 334.77 223.13 334.541C220.676 333.295 218.309 331.883 216.046 330.317C212.569 328.091 208.922 326.144 205.139 324.495C201.896 322.918 198.52 321.623 194.569 319.917C194.809 320.524 195.115 321.103 195.48 321.643C196.911 322.888 198.231 324.253 199.426 325.725C200.63 327.474 202.35 328.802 204.347 329.524C208.777 331.305 213.23 333.007 217.676 334.761C217.995 334.939 218.297 335.15 218.577 335.386C217.005 336.083 215.831 335.346 214.658 334.943C209.85 333.343 205.06 331.643 200.283 329.986C200.128 330.031 199.862 329.941 199.735 329.834C196.416 326.673 192.085 325.559 188.254 323.363C185.399 321.795 182.473 319.984 179.497 318.499C176.522 317.013 174.024 316.181 171.258 314.922C167.63 313.172 164.08 311.278 160.567 309.35C159.474 308.66 158.443 307.877 157.487 307.008C159.023 306.104 159.853 306.894 160.732 307.358L176.03 315.405C176.373 315.594 176.731 315.754 177.34 316.032C176.837 314.307 176.477 313.068 176.171 311.358C161.738 304.606 146.969 298.599 131.922 293.36C133.51 295.572 135.675 297.307 138.18 298.376C141.802 300.17 145.105 302.549 147.954 305.415C150.611 307.617 153.455 309.583 156.454 311.291C159.177 312.897 162.056 314.05 164.88 315.508C169.327 317.765 173.689 320.141 178.181 322.384C184.823 325.586 191.415 328.945 198.241 331.708C203.82 334.277 209.742 336.02 215.822 336.884C217.164 337.056 218.483 337.38 219.75 337.851C224.081 339.129 228.539 339.931 233.043 340.244C233.866 340.845 234.688 341.445 235.679 342.212L235.218 344.338C241.821 351.196 248.367 358.024 255.151 365.094L259 363.974C258.607 363.399 258.175 362.851 257.707 362.335C253.321 358.477 248.791 354.781 244.572 350.756C242.443 348.408 240.445 345.947 238.587 343.38C237.986 342.442 237.166 341.662 236.199 341.107C235.231 340.554 234.144 340.242 233.03 340.199C233.294 340.146 233.553 340.071 233.804 339.975C234.055 339.766 234.295 339.543 234.522 339.31C233.817 338.124 232.998 336.874 232.289 335.593C231.641 334.454 231.065 333.275 230.566 332.064C229.531 329.414 228.533 326.729 227.602 324.026C227.126 322.389 226.644 320.73 226.167 319.093C225.935 318.596 225.652 318.123 225.325 317.682L225.273 317.506C226.398 314.78 225.101 312.134 224.566 309.555C223.794 305.917 222.634 302.344 221.437 298.806C219.563 292.369 217.69 285.933 215.314 279.667C213.956 275.762 212.145 272.029 209.918 268.545C203.545 258.932 196.828 249.539 190.065 239.824C189.772 241.712 190.042 243.645 190.843 245.38C192.973 251.957 195.172 258.275 197.336 264.723C197.698 265.96 198.158 266.883 199.772 267.156C200.491 267.234 201.141 267.981 201.823 268.43L202.296 268.077C201.606 266.694 200.849 265.332 200.212 263.886C199.575 262.439 199.103 261.065 198.526 259.577C199.861 258.805 200.453 259.52 200.876 260.477C202.38 263.83 203.959 267.113 205.329 270.505C208.136 277.341 210.726 284.264 213.592 291.06C215.456 295.484 217.654 299.739 219.622 304.108C221.846 308.378 223.696 312.832 225.153 317.421L225.185 317.531L222.387 316.163C221.401 311.855 219.694 307.744 217.336 304.005C214.234 298.268 211.616 292.28 209.512 286.106C208.745 283.474 206.774 282.968 204.176 282.117C204.74 283.933 205.397 285.72 206.142 287.47C207.35 289.973 208.871 292.314 210.057 294.824C211.912 298.722 213.53 302.714 215.362 306.619C216.36 308.729 217.645 310.753 218.775 312.823C219.599 314.335 220.379 315.86 221.181 317.378C222.769 320.442 224.46 323.453 225.945 326.572C226.753 328.279 226.35 328.709 224.757 329.004C221.57 325.637 218.604 322.374 215.473 319.28C211.73 315.571 207.81 311.913 203.957 308.236C202.711 306.753 201.053 305.673 199.192 305.136C198.874 305.048 198.58 304.893 198.328 304.68C198.076 304.468 197.872 304.204 197.731 303.907C196.045 299.599 192.632 296.609 188.923 293.346C188.715 295.518 190.815 296.058 190.879 298.007C178.103 287.881 163.637 280.095 148.149 275.009ZM141.084 256.672C141.193 257.048 141.069 257.612 141.399 257.756C142.88 259.002 144.441 260.15 146.071 261.194C151.474 264.629 156.499 268.628 161.059 273.123C162.182 274.112 163.401 274.987 164.698 275.734C159.004 269.026 152.536 263.017 145.428 257.831C144.046 258.521 143.328 257.459 142.489 256.72L144.701 256.075L140.675 253.456C140.09 253.142 139.528 252.784 138.997 252.386C132.641 247.037 126.077 242.207 119.509 237.281C118.34 236.398 116.749 236.045 115.512 235.253C114.266 234.392 113.073 233.458 111.938 232.456C113.117 234.532 114.767 236.304 116.755 237.627C118.757 238.971 120.647 240.475 122.406 242.123C121.354 243.293 120.336 243.254 119.595 242.607C117.815 240.867 115.593 239.647 113.17 239.078C112.899 238.977 112.669 238.792 112.512 238.55C111.269 237.236 110.166 235.796 109.223 234.253C107.42 230.7 104.15 228.532 101.583 225.729C99.015 222.925 95.926 220.802 93.9828 217.505C93.5172 216.728 92.3945 216.335 91.6584 215.781C91.2345 214.362 90.6506 212.995 89.92 211.706C87.8749 208.966 85.5833 206.37 83.3586 203.754C83.2074 203.593 83.0212 203.467 82.8153 203.386C82.6093 203.305 82.3881 203.271 82.1668 203.285C80.7286 203.704 80.0757 202.862 79.8183 201.81C78.4994 196.292 74.5407 192.502 70.9149 188.615C64.7906 182.001 58.3803 175.638 52.0665 169.198C51.5506 168.628 50.9876 168.101 50.3851 167.624C44.3276 162.772 38.5592 157.569 33.1107 152.043C30.1039 149.09 26.6644 146.612 22.9105 144.695C23.8065 146.21 24.6368 147.743 25.5723 149.223C26.5066 150.702 27.3424 151.515 27.9942 152.765C30.6297 157.348 33.7307 161.646 37.2469 165.594C40.2374 168.723 42.8553 172.188 45.0505 175.918C45.9356 177.4 47.0168 178.755 48.2633 179.949C52.6569 184.908 57.0834 189.81 61.5 194.762C66.3318 200.49 71.5481 205.881 77.1127 210.898C82.1153 215.225 87.2395 219.395 92.4175 223.502C93.8886 224.682 96.1429 225.009 97.3018 226.351C98.3479 227.865 99.5167 229.29 100.797 230.612C104.562 233.738 108.157 237.107 112.162 239.9C117.528 243.664 122.694 247.894 129.177 249.725C129.559 249.792 129.916 249.962 130.207 250.217C133.131 253.378 136.909 255.621 141.084 256.672ZM11.732 233.145C17.4926 235.21 23.2829 237.219 29.0808 239.251C35.5863 241.285 42.2529 242.764 49.0093 243.671C51.3556 244.068 53.6778 244.711 56.0154 245.158C63.2088 246.883 70.2927 249.035 77.2288 251.603C82.5283 253.318 88.0425 254.282 93.6093 254.465C96.9513 254.571 100.312 254.001 103.652 253.773C108.923 253.462 114.213 253.724 119.427 254.555C123.704 255.158 127.942 256.035 132.076 256.8C132.604 256.885 133.143 256.921 134.304 257.038C133.797 256.508 133.259 256.008 132.693 255.54C132.21 255.2 131.558 255.103 131.179 254.71C127.363 250.83 122.125 250.387 117.304 248.912C111.619 247.183 105.952 245.354 100.285 243.524C96.6786 242.343 93.1032 241.105 88.9319 239.631C89.3197 240.266 89.7732 240.857 90.2848 241.397C91.6113 242.329 92.8655 243.36 94.0376 244.48C96.1276 246.634 98.934 247.951 101.929 248.181C106.996 249.104 111.986 249.764 117.015 250.555C117.319 250.611 117.605 250.935 118.287 251.384C117.711 251.645 117.1 251.822 116.473 251.912C112.669 251.532 108.851 251.108 105.032 250.684C103.348 250.502 101.642 250.327 99.9253 250.203C95.317 249.865 91.2958 247.341 86.8518 246.498C83.2074 245.687 79.608 244.684 76.0688 243.496C75.4203 243.363 74.763 243.282 74.1025 243.253C73.5515 243.173 72.8472 243.307 72.4945 243.001C70.1361 241 67.1052 240.971 64.416 240.554C61.2076 239.999 58.0276 239.294 54.8192 238.741C53.1531 238.458 51.4794 238.394 49.7443 238.203C49.7443 236.307 49.8352 236.041 51.7346 236.304C54.7524 236.697 57.7648 237.403 60.7672 237.993L67.1577 239.011C66.9113 238.268 66.5607 237.562 66.116 236.916C64.428 234.765 61.9886 233.332 59.2873 232.906C54.5958 232.448 49.9162 232.035 45.2104 231.941C42.1948 231.883 39.1212 232.37 36.065 232.419C33.8775 232.468 31.6889 232.359 29.5168 232.094C26.7586 231.77 24.0507 231.286 21.2772 230.822C20.2213 230.745 19.162 230.741 18.106 230.809C15.9131 230.856 13.7234 230.918 11.5381 230.993C10.9312 231.059 10.3299 231.17 9.73944 231.325L9.66278 231.804C10.3145 232.307 11.0068 232.755 11.732 233.145ZM73.7005 152.44C73.706 153.037 73.5165 153.621 73.7323 153.87C74.9558 155.433 76.2319 156.934 77.4643 158.446C78.0591 159.088 78.6309 160.313 79.7274 159.299C80.8239 158.284 80.0757 157.446 79.3505 156.769C77.6976 155.211 76.462 153.028 73.7005 152.44ZM172.384 219.467C168.163 217.398 164.169 214.894 160.469 211.995C158.851 210.643 157.258 209.21 155.585 207.994C151.071 204.772 146.821 201.195 142.875 197.299C136.081 191.033 130.165 183.877 125.287 176.027C124.741 175.139 124.381 174.151 124.225 173.121C124.243 172.314 124.41 171.518 124.717 170.771C125.496 170.976 126.423 170.946 127.011 171.398C131.086 174.435 135.236 177.402 139.044 180.756C140.855 182.465 142.872 183.941 145.049 185.15C148.906 187.026 152.068 189.896 156.362 191.045C156.622 191.114 156.838 191.363 157.073 191.511C160.327 193.706 163.518 196.016 166.889 198.034C171.5 200.77 176.275 203.244 180.968 205.932C183.23 207.192 185.53 208.418 187.654 209.864C190.347 211.868 193.255 213.564 196.324 214.922C198.541 215.841 200.698 216.895 202.786 218.08C206.314 219.979 209.817 221.958 213.327 223.96C215.508 225.153 217.626 226.457 219.671 227.871C223.006 230.259 226.196 232.81 229.476 235.262C229.476 235.262 229.808 235.166 230.184 235.056C230.003 234.526 229.774 234.014 229.499 233.528C226.372 228.8 223.2 224.086 220.082 219.474C216.482 213.758 211.275 209.231 205.114 206.461C200.906 204.615 196.851 202.388 192.586 200.511C188.32 198.634 183.462 197.193 179.041 195.192C174.621 193.192 169.817 190.536 165.236 188.151C162.949 186.969 160.727 185.601 158.368 184.584C152.793 182.166 147.438 179.27 142.364 175.927C140.862 174.858 139.455 173.663 138.157 172.352C136.482 170.801 134.989 169.052 133.307 167.479C129.044 163.466 124.744 159.487 120.449 155.531C119.174 154.366 117.824 153.272 116.625 152.037C113.836 149.13 111.099 146.161 108.37 143.212C105.64 140.264 102.993 137.436 100.381 134.477C99.4806 133.444 98.4301 132.309 99.0019 130.728C101.601 129.684 101.617 129.655 103.512 130.975C104.62 131.732 105.643 132.609 106.619 133.405C109.629 135.505 112.497 137.692 115.511 139.719C117.938 141.431 120.479 142.976 123.118 144.341C129.072 147.238 135.185 149.777 141.132 152.653C148.116 156.042 155.014 159.625 161.919 163.157C165.244 164.852 168.584 166.519 171.79 168.465C176.8 171.501 181.718 174.66 186.545 177.942C190.195 180.43 193.628 183.077 197.168 185.838C198.825 187.082 200.443 188.435 202.07 189.737L202.573 189.327C201.938 188.216 201.244 187.147 200.669 185.994C197.222 179.103 192.781 172.757 187.484 167.16C186.706 166.309 185.974 165.416 185.29 164.488C181.889 160.056 178.577 155.597 175.159 151.194C171.956 147.112 168.676 143.1 165.376 139.094C164.192 137.664 163.359 135.795 161.102 135.541C160.725 135.482 160.396 134.929 160.06 134.596C158.604 132.812 156.985 131.124 155.227 129.452C153.979 128.112 152.591 126.907 151.087 125.86C145.237 122.162 138.629 119.829 131.754 119.035C128.359 118.584 124.996 117.739 121.62 117.186C119.871 116.677 118.039 116.517 116.228 116.716C113.124 117.261 109.963 117.532 106.804 117.804C103.05 117.788 99.3228 118.426 95.7891 119.691C95.455 119.873 95.0848 119.981 94.7057 120.007C90.1906 120.074 85.6567 120.241 81.1788 120.106C74.5922 119.815 67.9858 119.291 61.3927 118.811C56.1447 118.42 50.8857 117.91 45.6464 117.468C44.5927 117.391 43.5356 117.387 42.484 117.237C37.9151 116.623 33.3923 115.757 28.8124 115.435C26.2164 115.254 23.4845 114.275 20.9169 115.838C20.54 115.947 19.9606 115.852 19.4895 115.797C17.1235 115.502 14.7367 115.213 12.3673 114.824C11.5217 114.797 10.699 114.539 9.99139 114.075C9.13153 113.315 8.02847 112.888 6.88049 112.869C6.25064 112.765 5.69748 112.183 5.09061 111.831C5.42361 111.181 5.8475 110.581 6.34811 110.05C6.85855 109.79 7.41394 109.629 7.98465 109.573C11.6783 108.498 15.35 107.43 19.0437 106.354C20.861 105.501 22.7253 104.75 24.6269 104.105C28.3677 103.303 32.1983 102.994 36.0201 103.188C44.4667 103.544 52.9198 102.699 61.1287 100.678C61.5931 100.543 62.0576 100.407 62.4837 100.14C66.4643 98.8133 70.411 97.2085 74.4815 96.1909C84.6983 93.8884 95.2578 93.5335 105.607 95.1448L106.471 95.2291C112.87 95.9335 119.175 97.3148 125.28 99.3511C125.886 99.534 126.479 99.6742 127.54 99.9404C127.272 99.3927 126.966 98.8648 126.623 98.3598C123.626 94.986 120.645 91.5837 117.594 88.2723C114.542 84.962 110.807 81.4425 107.818 77.6832C104.388 73.1942 101.7 68.185 99.8519 62.8472C99.4882 61.7585 98.992 60.7184 98.3753 59.7503C95.5602 55.6032 92.7834 51.4212 89.7732 47.427C86.4881 42.9415 83.9041 37.9822 82.1098 32.7195C81.7966 31.6107 81.3715 30.5367 80.8403 29.514C77.5388 23.8804 73.7191 18.5667 69.4307 13.6416C66.6177 10.4059 64.2363 6.75661 61.6139 3.27304C61.4365 3.05966 61.305 2.8121 61.2273 2.54559C61.1495 2.27919 61.1265 1.99954 61.1615 1.72405C61.1955 1.44856 61.2864 1.18314 61.4277 0.944127C61.569 0.705112 61.7585 0.497756 61.9831 0.334871C62.9098 -0.438695 63.7478 0.300802 64.5233 0.819032C66.1456 1.85834 67.7449 2.90411 69.423 3.80715C73.3861 5.96453 77.5596 7.7728 81.3146 10.2065C85.7246 13.0736 89.8006 16.4456 93.9992 19.6618C97.6611 22.2934 101.086 25.2377 104.239 28.4615C107.236 31.8344 109.868 35.5158 112.09 39.4438C116.748 47.2047 121.607 54.835 126.446 62.4714C128.094 65.0872 129.961 67.542 131.832 70.2608C131.739 68.7042 131.64 67.2934 131.548 65.9055C131.524 60.5271 130.774 55.177 129.318 49.9999C128.504 47.3253 127.947 44.5797 127.651 41.8C127.607 41.3488 127.662 40.8935 127.811 40.4652C127.959 40.0369 128.198 39.6457 128.512 39.3181C129.391 38.6303 130.299 39.4453 130.964 40.1634C131.515 40.7113 132.005 41.3168 132.427 41.9694C135.048 46.7724 137.751 51.5276 140.228 56.4927C141.603 59.2357 142.389 62.2699 143.645 65.0949C145.529 69.345 147.574 73.4045 149.66 77.5232C149.757 77.8551 150.002 78.1191 150.398 78.8202L150.921 77.1563C151.55 73.9544 152.514 70.8271 153.796 67.8268C154.086 67.1247 154.234 66.3721 154.232 65.6119C154.348 64.2832 154.212 62.9074 154.436 61.618C155.098 56.4645 155.231 51.2568 154.831 46.0764C154.7 42.2757 154.646 38.4609 154.666 34.632C154.593 27.7065 153.504 20.8293 151.436 14.2195C150.792 12.0078 150.356 9.51962 148.125 8.20176C148.847 5.73636 149.445 5.15427 150.585 6.02204C153.71 8.27405 156.386 11.0922 158.474 14.3303C160.875 18.6065 162.529 23.2606 163.367 28.0928C164.012 31.1098 165.306 33.9505 167.158 36.4181C170.174 40.3008 172.063 44.9385 172.62 49.8234C173.059 55.4536 173.498 61.0838 173.492 66.7478C173.569 71.3803 173.164 76.0083 172.989 80.9299C175.677 77.5561 178.181 74.6193 180.546 71.5325C185.107 65.5254 191.526 62.0256 197.999 58.6303C203.485 56.0592 208.692 52.9354 213.544 49.3075C216.62 46.8526 219.919 44.6687 223.16 42.4535C223.798 42.0041 225.134 41.5672 225.373 41.8096C225.989 42.5875 226.37 43.5254 226.472 44.5128C226.515 45.2801 226.386 46.0477 226.093 46.7581C225.381 48.8546 224.169 50.7467 222.564 52.2719C219.633 55.3083 216.585 58.3548 213.756 61.5774C208.896 67.266 203.464 72.4406 197.547 77.0204C192 81.2136 187.242 86.3597 183.496 92.2179C180.07 97.8822 177.269 103.902 175.143 110.172C173.811 113.155 172.904 116.31 172.449 119.546C172.358 120.963 171.824 122.342 171.615 123.771C171.48 124.605 171.525 125.46 171.745 126.276C174.458 134.772 180.07 141.439 185.919 148.758C185.934 147.409 185.962 146.682 185.923 145.973C185.681 141.677 185.388 137.372 185.188 133.064C184.963 128.331 184.826 123.572 184.667 118.988C184.62 117.922 184.435 116.873 184.49 115.825C184.572 113.881 185.405 113.448 187.062 114.357C187.604 114.655 188.234 114.759 188.784 115.079C189.332 115.399 190.214 115.791 190.476 116.361C191.474 118.47 192.333 120.764 193.157 123.018C193.982 125.274 194.329 127.044 195.196 128.951C198.85 137.22 202.581 145.419 206.296 153.646C206.52 154.421 207.153 155.029 207.9 156.274L208.002 154.565C208.266 148.466 206.722 142.583 206.195 136.57C205.7 132.655 205.481 128.71 205.542 124.764C205.74 121.516 205.69 118.259 205.392 115.018C204.9 111.681 205.076 108.277 205.909 105.008C206.878 101.991 207.796 98.9644 208.801 95.985C210.434 91.0469 212.074 86.1308 213.794 81.2399C215.227 76.7367 217.863 72.7101 221.415 69.5926C222.171 69.0153 222.776 68.2628 223.177 67.4007C223.613 66.4302 224.298 65.5933 225.164 64.9744C226.029 64.3566 227.042 63.9787 228.102 63.879C229.982 63.3324 231.289 64.775 230.733 66.7369C230.276 68.1916 229.662 69.5937 228.902 70.9158C227.525 72.9883 226.571 75.3127 226.095 77.7554C225.818 79.8509 225.539 81.9475 225.525 84.0386C225.351 86.1702 225.325 88.3096 225.445 90.4445C225.99 96.1876 226.74 101.896 227.255 107.624C227.771 113.351 228.024 118.507 228.51 124.052C229.343 132.77 228.656 141.566 226.481 150.05C225.765 152.946 225.2 155.87 224.455 158.75C224.027 160.409 223.287 161.992 222.752 163.612C221.422 166.699 220.757 170.031 220.8 173.393C221.023 175.596 221.043 177.815 220.858 180.021C220.502 182.784 220.588 185.586 221.114 188.32C221.408 190.866 221.939 193.377 222.699 195.825C224.662 200.836 226.322 205.961 227.67 211.172C228.203 212.588 228.895 213.94 229.73 215.202C230.187 216.029 230.874 216.741 231.398 217.548C233.99 221.593 236.538 225.649 239.109 229.698C239.348 229.969 239.607 230.223 239.881 230.458C240.083 229.782 240.226 229.089 240.311 228.389C240.534 224.294 240.846 220.172 240.873 216.062C240.921 209.138 240.757 202.228 240.717 195.33C240.704 193.891 240.816 192.454 241.05 191.034C241.962 185.347 243.25 179.718 243.791 173.994C244.039 169.943 244.891 165.951 246.318 162.15C249.429 154.624 252.813 147.208 256.089 139.752C256.737 138.268 257.235 136.684 258.025 135.279C260.34 131.197 262.852 127.131 265.17 123.146C266.658 120.674 268.209 118.255 269.767 115.859C270.48 114.763 271.596 114.558 272.062 115.502C273.206 117.784 275.301 119.621 275.154 122.496C275.249 123.836 275.429 125.171 275.692 126.489C276.253 130.729 276.527 135.002 276.512 139.278C276.041 144.131 275.246 148.947 274.134 153.694C273.235 158.106 271.867 162.391 271.003 166.842C269.706 174.416 268.563 181.947 267.655 189.625C267.301 194.533 266.673 199.417 265.771 204.256C265.015 207.427 264.671 210.694 263.958 213.852C263.4 217.265 262.474 220.607 261.198 223.821C258.604 229.612 256.566 235.635 255.11 241.811C253.212 248.826 253.911 256.291 257.078 262.832C257.587 263.866 258.033 264.93 258.414 266.017C260.699 273.126 262.924 280.276 265.231 287.377C266.786 292.227 268.49 297.009 270.09 301.845C270.458 302.991 270.41 304.23 269.952 305.343C269.494 306.455 268.657 307.369 267.589 307.924C262.767 309.328 256.972 307.224 256.231 301.873C255.918 299.565 255.451 297.134 254.98 294.776C254.639 292.491 254.104 290.239 253.381 288.043C251.877 284.114 250.004 280.318 248.33 276.462C247.6 274.779 246.943 273.099 246.236 271.41C243.777 265.6 241.98 259.428 236.713 255.179C234.414 252.751 231.898 250.536 229.197 248.562C223.526 245.377 217.657 242.557 211.625 240.122C205.511 237.583 199.492 234.816 193.567 231.823C187.874 229.267 182.414 226.225 177.245 222.731C175.706 221.517 174.074 220.428 172.361 219.473L172.384 219.467ZM184.438 210.272L184.209 209.979C180.877 208.094 177.521 206.288 174.264 204.332C168.06 200.572 161.472 197.475 155.509 193.309C152.166 190.972 148.389 189.288 144.835 187.299L144.395 187.931C147.041 190.016 149.65 192.136 152.289 194.199C154.929 196.262 156.922 198.08 159.335 199.777C162.32 201.788 165.259 203.643 168.231 205.61C171.201 207.575 173.704 209.414 176.46 211.299C177.631 212.11 178.852 213.002 180.178 211.296C181.156 212.595 183.321 212.78 182.746 214.844C183.933 215.457 184.873 216.791 186.796 216.232C185.887 215.249 185.136 214.316 184.347 213.585C184.104 213.38 183.905 213.126 183.764 212.84C183.624 212.554 183.544 212.242 183.53 211.923C183.517 211.605 183.569 211.287 183.684 210.99C183.799 210.693 183.976 210.423 184.2 210.197L184.436 210.345C185.84 212.12 187.238 213.872 188.658 215.618C188.702 215.773 189.167 215.637 189.436 215.655L189.612 215.844C190.186 216.829 190.786 217.901 191.319 218.826L191.905 218.368C191.135 217.535 190.381 216.675 189.612 215.844C189.612 215.844 189.547 215.623 189.521 215.534C189.016 212.562 186.591 211.565 184.416 210.278L184.438 210.272ZM194.722 216.588C194.137 215.894 193.047 215.612 192.197 215.164L191.737 215.729L197.566 222.238L198.33 221.727C197.122 219.968 196.024 218.176 194.7 216.594L194.722 216.588ZM198.462 217.898C199.78 221.056 201.929 223.796 204.681 225.828C204.143 225.05 203.62 224.242 203.037 223.477C202.454 222.71 201.709 221.8 202.691 220.554L198.462 217.898ZM151.171 160.024C143.205 156.728 135.588 152.564 127.691 149.176C122.962 147.096 118.401 144.654 114.049 141.871C112.313 140.769 110.702 139.438 108.89 138.406C110.797 141.343 113.404 143.758 116.478 145.434C119.333 147.003 122.432 148.499 125.377 150.041C127.077 150.939 128.74 151.87 130.387 152.83C137.388 156.934 144.379 161.089 151.357 165.2C151.802 165.403 152.261 165.574 152.73 165.712C152.427 164.673 152.235 164.009 151.893 162.837C155.819 164.452 157.061 168.721 161.186 170.448C158.38 165.915 156.05 162.034 151.171 160.024ZM170.464 169.931C169.359 169.377 168.212 168.909 167.035 168.53C167.035 168.53 166.988 168.375 166.963 168.286C165.07 166.809 162.909 165.71 160.6 165.053C162.587 169.419 165.993 172.986 170.263 175.172C169.179 173.591 168.163 172.16 167.162 170.699C166.646 169.914 166.006 169.118 166.983 168.353L167.147 168.424C169.657 171.605 172.137 174.77 174.713 177.931C175.593 179.09 176.823 179.935 178.222 180.34C177.745 178.79 176.874 177.39 175.695 176.277C175.058 175.575 173.995 174.805 174.017 174.055C173.82 171.569 172.077 170.853 170.464 169.931ZM176.668 183C172.801 180.838 169.247 178.274 165.57 175.865C163.799 174.726 162.381 172.739 159.751 173.841C159.419 173.937 158.562 173.299 158.224 172.798C157.193 171.268 155.791 170.026 154.149 169.186C149.399 166.466 144.648 163.746 139.983 160.906C135.317 158.064 130.749 154.98 125.855 152.182C123.504 150.779 120.926 149.753 118.072 148.353C118.41 149.023 118.374 149.393 118.662 149.477C124.428 153.293 128.695 158.72 133.648 163.372C138.563 168.373 144.069 172.757 150.043 176.426C152.499 177.775 155.2 178.812 157.652 180.066C163.651 183.118 169.562 186.196 175.627 189.229C179.315 190.938 183.151 192.413 186.985 194.128C191.881 196.278 196.746 198.484 201.834 200.386C198.121 197.437 194.224 194.684 190.741 191.619C186.576 187.697 181.487 185.628 176.756 182.974L176.668 183ZM209.413 199.14C206.828 196.606 203.855 194.472 201.043 192.147C196.165 187.981 191.072 184.074 185.784 180.442C182.819 178.499 179.867 176.598 176.908 174.677L176.676 175.032C178.61 177.637 180.588 180.227 182.503 182.933C182.817 183.282 183.208 183.555 183.646 183.728C188.078 185.437 191.309 188.791 194.924 191.649C198.991 195.42 203.303 198.918 207.832 202.119C210.379 203.777 212.637 205.519 215.029 207.39C218.578 210.059 221.256 213.722 222.723 217.914C223.042 218.636 223.427 219.327 223.876 219.978C227.098 225.445 230.344 230.907 233.449 236.385C235.426 239.861 237.858 243.058 240.679 245.892C240.687 245.344 240.632 244.796 240.516 244.261C238.828 240.193 237.141 236.126 235.365 232.084C234.715 230.594 233.791 229.232 233.008 227.78C231.185 224.4 229.427 221.001 227.648 217.607C226.844 216.163 226.41 214.345 224.219 214.072C223.675 214.015 223.156 213.301 222.701 212.81C218.27 208.222 214.004 203.537 209.501 199.114L209.413 199.14ZM103.663 103.22C101.825 101.356 99.9198 99.511 98.0379 97.6598C97.0203 96.6367 95.8658 96.8766 94.4407 97.1713C97.6567 99.9777 100.795 102.519 103.973 105.193L104.471 104.76C104.267 104.215 103.996 103.698 103.663 103.22ZM124.99 103.298C122.777 102.454 120.455 101.979 118.263 101.37L117.414 100.681L112.529 99.9678L112.338 99.8068L112.206 99.8462C108.209 98.4463 104.024 97.6587 99.7928 97.5086C100.747 98.4792 101.304 99.1561 101.968 99.7071C104.855 101.608 107.562 103.767 110.06 106.157C110.254 106.412 110.892 106.298 111.639 106.392C110.353 103.456 106.992 102.706 106.104 99.8221C110.27 101.441 113.057 104.996 116.7 107.295L117.17 106.846C116.238 105.87 115.376 104.969 114.418 103.905C113.46 102.839 112.647 102.188 111.823 101.253C110.999 100.317 111.619 100.136 112.144 99.7192L112.322 99.6677C113.793 101.015 115.287 102.356 116.775 103.675C118.262 104.992 119.738 106.435 121.234 107.702C121.552 107.97 122.024 108.024 122.785 107.755C121.443 106.442 120.183 105.081 118.795 103.854C118.271 103.52 117.858 103.041 117.604 102.476C117.35 101.911 117.266 101.283 117.364 100.671C117.435 100.914 117.686 101.201 117.895 101.26L118.263 101.37C120.01 102.757 121.751 104.12 123.466 105.565C124.569 106.468 125.549 107.526 126.696 108.415C127.204 108.658 127.746 108.824 128.303 108.907L128.585 108.394C127.76 107.458 126.902 106.484 126.096 105.615C126.165 105.456 126.25 105.302 126.347 105.158C126.917 105.241 127.473 105.402 127.998 105.638C129.249 106.473 130.411 107.334 131.67 108.36C132.497 108.912 133.432 109.279 134.414 109.436C135.395 109.593 136.4 109.537 137.357 109.271C136.946 108.767 136.802 108.353 136.507 108.247C132.775 106.55 128.874 104.854 125.003 103.343L124.99 103.298ZM105.712 33.5266C100.756 27.6604 94.9336 22.5837 88.4467 18.4711C85.4234 16.328 82.3497 14.008 79.3582 11.9755C75.6514 9.62391 71.777 7.60839 67.8654 5.46032L67.3177 6.0515C68.4273 7.86076 69.653 9.59565 70.9883 11.2449C77.2343 18.1739 82.6718 25.7915 87.1947 33.9505C87.945 35.2916 88.3448 36.8306 89.1674 38.1745C91.0756 41.2661 93.0013 44.2563 95.1965 47.2641C99.0172 52.4543 102.308 58.0151 105.018 63.8626C106.367 66.3897 107.878 68.8269 109.542 71.159C109.965 71.7976 110.431 72.4077 110.936 72.9839C113.06 75.5811 115.265 78.1301 117.316 80.724C119.366 83.3178 121.611 85.9994 123.478 88.7915C125.742 92.2628 128.508 95.3792 131.688 98.0377C133.76 99.7137 135.519 101.72 137.468 103.553C138.009 104.007 138.586 104.417 139.192 104.778C139.261 104.067 139.179 103.349 138.953 102.671C138.726 101.993 138.36 101.37 137.878 100.842C133.854 94.4317 129.62 88.131 125.797 81.5904C123.056 76.8704 121.015 71.7538 118.371 66.9571C116.851 64.2087 114.795 61.7605 113.006 59.162C111.466 57.0969 110.04 54.9491 108.734 52.7281C105.718 47.3412 102.126 42.2973 98.0226 37.6845C95.7091 35.095 93.4241 32.521 91.023 30.1249C88.6219 27.7288 86.6568 25.7577 84.5767 23.5562C83.6927 22.6619 82.8492 21.6599 82.0222 20.7969C80.2499 18.9135 78.4709 16.8402 76.623 14.8591C76.1235 14.2224 75.6646 13.5546 75.2494 12.8597C75.9198 12.705 76.6197 12.7497 77.2649 12.9883C77.9101 13.2269 78.4709 13.6489 78.8795 14.2024C82.3782 17.9822 85.878 21.762 89.3778 25.5417C93.3321 29.9806 97.0827 34.623 101.06 39.0553C108.11 46.7919 113.174 55.9464 119.275 64.2953C120.919 66.8924 122.333 69.6276 123.503 72.4691C125.238 75.8757 126.891 79.3284 128.736 82.7022C130.894 86.6566 133.246 90.5299 135.531 94.424C135.782 94.7866 136.058 95.1316 136.358 95.4548L136.727 95.1547C135.84 93.1632 135.091 91.1127 134.485 89.0183C133.967 86.6862 133.654 84.3125 133.548 81.9256C133.379 79.5311 132.701 77.2012 131.559 75.0904C125.464 63.9546 118.809 53.1363 111.615 42.6768C109.876 39.5844 108.075 36.3658 105.712 33.5266ZM150.615 111.626C150.382 110.83 148.469 110.355 147.255 109.893C145.828 109.377 144.372 108.945 142.894 108.595C141.741 108.354 140.574 108.172 139.402 108.052C140.117 109.394 141.107 110.57 142.305 111.507C143.502 112.443 144.883 113.118 146.358 113.488L147.383 112.231C149.204 112.301 150.046 113.711 151.212 114.667C152.378 115.623 152.944 116.993 155.079 116.828C154.558 116.188 154.199 115.861 153.937 115.458C152.99 114.102 151.209 113.588 150.738 111.638L150.615 111.626ZM142.011 66.4105C140.116 62.0431 138.496 57.5486 136.75 53.1146C135.444 49.3053 133.319 45.8289 130.523 42.9313C130.475 43.4651 130.478 44.0024 130.534 44.5355C131.304 48.006 132.134 51.4351 132.904 54.9057C133.269 56.2897 133.52 57.7013 133.654 59.1262C134.246 67.5354 135.658 75.867 137.871 84.0014C138.034 84.3519 138.142 84.7243 138.193 85.1077C137.932 90.5584 140.183 95.3244 142.028 100.258C142.531 101.958 143.367 103.542 144.487 104.917C145.121 105.444 145.822 105.885 146.573 106.229L146.924 105.791C146.66 104.884 146.27 104.037 145.88 103.192C144.319 99.0674 143.503 94.699 143.468 90.29C143.289 87.9426 142.445 85.6215 142.114 83.2466C141.352 78.2276 140.237 73.2687 138.778 68.4074C138.733 68.2518 138.871 68.0678 139.043 67.5858C139.384 67.9856 139.699 68.4074 139.986 68.8466C142.953 73.9336 143.205 79.9057 144.783 85.3246C145.593 88.5735 146.085 91.8937 146.252 95.2379C146.226 97.2468 146.8 99.2186 147.9 100.9C147.825 98.3313 147.654 95.7659 147.745 93.1961C147.77 91.208 147.998 89.2286 148.425 87.2876C149.209 84.491 148.986 81.5072 147.794 78.8585C146.008 74.6993 143.84 70.6288 142.011 66.4105ZM156.145 71.3649C154.844 77.5254 153.6 83.7188 152.231 89.899C150.609 95.6114 150.85 101.693 152.918 107.261L156.883 109.178C156.666 106.447 156.589 103.706 156.652 100.967C156.879 97.5426 157.471 94.1316 157.937 90.7085C158.407 86.8297 158.948 82.9454 159.56 79.0557C159.699 78.2067 159.663 77.3381 159.453 76.5045C159.243 75.6698 158.864 74.8877 158.339 74.2053C157.705 73.1789 157.152 72.1043 156.685 70.9925C156.419 71.0692 156.154 71.1469 156.145 71.3649ZM156.748 65.1913C156.602 66.3382 156.489 67.186 156.468 67.5278L160.611 73.5196C161.651 71.1546 159.871 70.2323 159.279 68.9419C158.844 67.439 157.913 66.129 156.637 65.2242L156.748 65.1913ZM157.314 58.8129C157.074 60.1304 156.786 61.3659 156.578 62.7935C159.973 63.2459 159.482 67.083 162.159 68.3668C161.107 65.0642 159.736 61.8714 158.064 58.8345L157.314 58.8129ZM168.797 70.8972C169.238 66.3119 168.984 61.6867 168.042 57.1776C167.486 54.7724 167.467 52.2348 167.11 49.7716C166.847 47.3876 166.447 45.0209 165.911 42.6832C165.47 40.9338 164.765 39.2621 163.82 37.7257C160.492 32.1023 158.192 25.9312 157.028 19.5015C156.674 17.3579 155.702 15.3644 154.23 13.7659L153.71 14.0375C153.833 14.9776 154.046 15.9038 154.347 16.803C156.607 22.2628 156.593 28.1452 156.905 33.8362C157.219 39.5271 157.36 45.7 157.525 51.6259C157.571 53.2678 157.443 54.8886 157.397 56.4615C160.253 58.0294 160.736 61.0078 162.634 63.4069C163.19 62.4287 163.455 61.7759 162.846 60.7536C161.605 58.7157 160.585 56.6134 159.476 54.5367C159.314 54.0726 159.176 53.6001 159.064 53.1212C159.507 52.9925 159.905 52.8766 160.042 53.1006C162.928 56.3391 165.712 59.5592 164.934 64.464C164.456 67.8794 163.677 71.2455 162.607 74.5229C161.737 77.4345 161.137 80.4205 160.813 83.4416C160.075 89.1508 159.344 94.8819 158.869 100.586C158.761 102.474 158.752 104.367 158.84 106.256L159.392 106.504C159.808 106.118 160.483 105.802 160.611 105.333C161.107 103.473 161.503 101.588 161.797 99.6852C162.532 96.0266 163.695 92.4677 165.261 89.0807C166.178 86.6544 166.853 84.1438 167.278 81.5838C168.005 78.0852 168.521 74.546 168.823 70.9859L168.797 70.8972ZM187.959 72.5173C189.283 70.884 188.012 69.4064 188.053 67.404C186.179 69.1249 186.219 69.5926 187.971 72.5622L187.959 72.5173ZM167.798 120.299C167.776 118.015 167.633 115.735 167.369 113.467C167.651 113.529 168.246 113.596 169.196 113.727C170.476 110.955 171.796 107.907 173.035 104.908C174.429 101.455 175.623 97.8931 177.198 94.4832C179.578 89.8617 182.8 85.7266 186.7 82.2882C192.824 76.2109 199.117 70.3013 205.464 64.327C206.516 63.3248 207.727 62.5405 208.855 61.6364C214.117 57.1591 218.83 52.0746 222.896 46.4892C223.082 46.2499 223.213 45.9712 223.275 45.6744C223.339 45.3775 223.333 45.0701 223.261 44.7755C221.584 46.1033 219.843 47.3777 218.154 48.6612C211.755 53.6129 204.846 57.8678 197.544 61.3539L195.998 62.1395C193.325 63.5898 193.442 63.58 194.014 66.5321C194.251 67.7589 195.094 69.3373 193.008 70.6639C192.468 68.8061 191.992 67.1685 191.534 65.5988C190.303 65.4049 189.603 65.969 190.044 66.8245C191.798 70.2958 189.842 72.6411 187.622 74.9907C184.182 78.7117 181.099 82.7504 178.418 87.0509C178.169 87.3434 177.938 87.6512 177.726 87.9722C173.954 95.6191 169.487 102.942 166.905 111.131C166.452 112.612 166.089 114.12 165.82 115.645C165.628 116.636 165.206 116.999 164.092 116.388C164.572 110.805 166.273 105.394 169.076 100.542C170.852 97.2425 172.461 93.8708 174.385 90.6712C176.632 87.0181 179.159 83.4997 181.578 79.9408C182.278 78.9023 183.059 77.9208 183.914 77.0051C184.731 76.2493 185.247 75.224 185.365 74.1176C185.484 73.0113 185.199 71.8995 184.562 70.987C182.795 72.6016 181.114 74.3093 179.524 76.1003C177.379 78.7873 175.425 81.6353 173.501 84.4998C172.758 85.6028 172.153 86.7946 171.701 88.0456C171.158 89.4761 169.914 90.1498 169.05 91.2167C167.604 93.1271 166.44 95.2357 165.594 97.4769C164.025 101.485 162.66 105.529 161.376 109.693C161.209 110.731 161.186 111.788 161.306 112.832C162.439 113.51 163.818 114.045 163.232 115.823C162.646 117.6 161.966 117.655 160.567 117.054C159.906 116.679 159.28 116.243 158.701 115.75C157.197 114.591 155.541 113.645 153.779 112.936C154.808 113.704 155.693 114.649 156.391 115.727C157.385 117.951 159.099 119.777 161.257 120.907C162.14 121.467 162.76 122.198 161.459 123.248C159.368 122.082 157.258 120.848 155.085 119.73C152.674 118.422 150.199 117.237 147.669 116.179C143.869 114.601 139.987 113.233 136.039 112.077C132.704 111.246 129.318 110.628 125.904 110.229C120.239 109.479 114.508 108.748 108.834 107.881C104.986 107.273 101.188 106.34 97.3084 105.621C95.5054 105.283 93.6892 105.139 91.9092 104.794C87.589 103.964 84.0783 106.162 80.4284 107.8C78.8554 108.498 77.415 109.565 75.5736 108.35L73.9415 110.984C73.4497 110.863 72.9973 110.875 72.7431 110.661C72.1724 110.064 71.4309 109.658 70.6192 109.499C69.8086 109.34 68.9684 109.435 68.2137 109.772C68.0483 109.857 67.8687 109.91 67.6835 109.926C60.4046 109.646 53.1236 110.925 45.8217 109.907C42.0437 109.376 38.1857 109.227 34.3956 108.819C33.1348 108.618 31.8894 108.332 30.668 107.961C30.6166 107.785 30.5585 107.585 30.6768 107.334C31.1413 107.2 31.5849 106.662 32.0219 106.679C38.0356 107.064 44.0406 106.756 50.0466 108.102C51.4728 108.319 52.9231 108.333 54.3526 108.144C58.0956 107.87 61.8275 107.584 65.5475 107.285C66.0875 107.248 66.587 106.983 67.5006 106.908L63.8234 103.588C63.9329 103.389 64.014 103.173 64.118 102.951C64.6876 102.944 65.2561 103.029 65.7995 103.205C67.3286 104.008 68.7252 105.016 70.2763 105.813C71.2052 106.202 72.1637 106.516 73.1419 106.754C72.3948 104.188 69.2477 104.504 69.01 101.791C69.6125 101.743 70.2182 101.811 70.7955 101.991C72.4737 102.894 74.0959 103.933 75.7653 104.886C76.9199 105.558 78.1073 106.34 79.632 104.817L75.7544 101.963C76.3393 100.761 77.0809 101.001 77.7885 101.371C79.0767 101.996 80.3046 102.739 81.4581 103.589C82.2709 104.241 82.9522 104.522 83.7825 103.992C87.0939 101.853 90.5597 102.547 94.1142 103.384C95.6971 103.715 97.2504 104.103 98.8047 104.418L99.0457 103.844L91.7515 96.5863C89.3307 96.5064 86.9077 96.5787 84.4967 96.8032C78.3515 97.4407 72.3269 98.937 66.5958 101.246C62.9832 102.781 59.2381 103.984 55.4064 104.839C55.2355 104.911 55.058 104.963 54.8751 104.993C48.627 105.205 42.4019 105.577 36.203 105.63C31.4063 105.634 26.8736 105.394 22.3529 107.502C19.6944 108.756 16.842 109.586 14.0422 111.097C14.7936 111.297 15.5626 111.427 16.3381 111.484C21.9914 111.659 27.6261 112.232 33.1995 113.198C38.1901 113.856 43.3242 114.186 48.3948 114.629C48.9687 114.702 49.5537 114.652 50.1167 114.775C54.9441 115.807 59.903 116.072 64.8125 115.56C68.3561 115.667 71.8909 115.976 75.3984 116.485C81.7089 116.736 88.0425 116.979 94.341 116.778C97.189 116.379 100.006 115.784 102.771 114.995C105.054 114.595 107.433 114.527 109.613 114.348L117.302 113.645C123.829 113.268 130.377 113.852 136.736 115.378C141.051 116.277 145.244 117.683 149.23 119.562C151.607 120.527 153.796 121.904 155.693 123.632C156.591 124.457 157.258 125.504 157.632 126.666C157.873 127.68 158.407 128.601 159.17 129.313C164.907 134.591 170.097 140.436 174.66 146.756C176.81 149.44 179.148 151.967 181.658 154.317C182.557 155.314 183.385 156.371 184.139 157.481C187.048 161.906 190.421 166.007 194.202 169.715C193.921 165.959 192.298 162.428 189.628 159.77C188.873 159.241 188.169 158.643 187.524 157.983C186.919 157.224 186.545 156.349 185.262 156.722C184.333 156.993 183.726 156.474 183.335 155.46C182.761 154.146 182.073 152.885 181.278 151.692C179.217 148.237 177.134 144.789 175.094 141.328C174.947 140.819 174.906 140.183 174.618 139.691C174.216 138.108 173.334 136.689 172.092 135.628C171.349 134.893 170.829 133.963 170.591 132.946C170.29 131.589 169.915 130.248 169.471 128.93C168.199 126.255 167.628 123.3 167.811 120.344L167.798 120.299ZM208.159 127.985C208.667 134.099 209.313 140.196 209.932 146.279C210.093 146.831 210.254 147.384 210.187 147.98L211.253 165.735C211.255 166.02 211.322 166.3 211.45 166.555C211.579 166.809 211.764 167.029 211.992 167.2C212.286 163.347 212.529 159.486 212.839 155.605C213.022 153.513 213.256 151.429 213.561 149.349C214.003 146.414 214.516 143.48 215.008 140.554C215.11 139.992 215.081 139.413 214.921 138.864C214.761 138.315 214.476 137.811 214.087 137.392C213.122 136.137 212.338 134.757 211.31 133.21C213.523 132.566 213.918 135.162 215.934 135.078C215.928 134.073 216.309 132.906 215.9 132.161C213.757 128.346 211.436 124.656 208.887 120.432C208.133 122.874 207.885 125.443 208.159 127.985ZM208.526 112.763L207.813 113.115C208.646 118.534 212.832 122.114 215.605 126.945C216.093 126.439 216.379 125.771 216.408 125.069C216.439 124.367 216.21 123.678 215.766 123.131C213.328 119.699 210.913 116.235 208.519 112.741L208.526 112.763ZM219.986 197.382C219.747 196.357 219.452 195.345 219.103 194.352C218.097 190.949 217.518 187.435 217.378 183.89C217.018 180.29 217.024 176.664 217.394 173.064C217.92 169.433 218.573 165.74 219.289 162.268C220.838 155.556 222.72 148.914 224.212 142.17C225.893 134.668 226.191 126.922 225.091 119.314C224.513 115.427 224.54 111.485 224.085 107.61C223.624 102.73 223.008 97.8953 222.525 93.0219C221.611 85.4517 222.26 77.7763 224.429 70.4667C224.509 69.9595 224.535 69.4447 224.51 68.9321C221.559 71.2642 219.192 74.2535 217.598 77.6612C215.758 82.3002 214.247 87.0816 212.751 91.8356C211.255 96.5896 209.963 101.213 208.616 105.899C208.301 106.908 208.081 107.944 207.957 108.994C207.912 109.556 208.074 110.114 208.414 110.565C211.1 113.693 213.9 116.717 216.627 119.906C216.899 119.484 217.026 118.986 216.989 118.485C216.952 117.986 216.752 117.512 216.42 117.135C215.203 115.426 214.055 113.625 212.958 111.833C212.623 111.021 212.376 110.176 212.224 109.312C214.88 110.194 215.105 112.864 217.457 113.522L218.179 106.115C219.83 106.761 219.575 108.108 219.521 108.915C219.472 111.713 219.249 114.488 219.047 117.257C218.798 120.689 218.287 124.126 218.301 127.552C218.244 132.832 217.67 138.093 216.588 143.261C215.268 150.843 214.9 158.316 214.273 165.887C214.05 168.832 214.439 171.814 214.469 174.804C214.52 176.709 214.475 178.617 214.555 180.537C214.58 181.487 214.709 182.43 214.941 183.351C215.681 185.397 216.29 187.487 216.763 189.61C217.301 193.41 218.592 197.064 220.563 200.357C220.346 199.364 220.196 198.353 219.979 197.36L219.986 197.382ZM207.072 181.372C206.07 179 204.875 176.709 203.866 174.315C202.311 170.617 200.843 166.894 199.308 163.191C198.982 162.403 198.599 161.641 198.164 160.908C195.802 156.489 194.424 151.611 194.122 146.61C194.488 146.912 194.798 147.277 195.036 147.687C196.088 150.476 197.044 153.269 198.03 156.077C198.325 157.095 198.622 158.111 199.066 159.062C202.06 165.388 205.192 171.866 208.145 178.3C208.926 179.992 209.558 181.752 210.256 183.491C210.629 184.774 211.002 186.057 211.525 187.273L212.276 187.054C212.194 186.367 211.975 185.703 211.631 185.103C211.287 184.503 210.826 183.977 210.275 183.558L210.23 183.403C210.343 183.13 210.61 182.812 210.53 182.62C207.923 175.725 205.19 168.891 202.694 161.965C201.203 157.912 200.154 153.731 198.773 149.646C197.502 145.938 196.031 142.287 194.643 138.589C193.844 136.422 193.072 134.512 192.35 132.443C191.133 129.006 190.021 125.515 188.812 122.1C188.529 121.415 188.024 120.844 187.379 120.478C187.446 123.097 187.462 125.708 187.58 128.337C187.877 134.633 188.173 140.928 188.594 147.235C188.698 151.588 190.071 155.816 192.543 159.402C195.018 162.712 195.858 166.666 197.436 170.357C197.7 171.264 198.162 172.113 198.604 172.968C200.445 176.655 202.263 180.348 204.209 183.98C205.426 186.265 206.851 188.442 208.267 190.836C206.684 192.569 207.83 194.035 209.157 195.375C211.812 197.986 214.549 200.548 217.579 203.457C217.102 200.513 215.858 197.747 213.973 195.438C212.366 193.404 211.024 191.173 209.978 188.803C208.83 186.426 208.093 183.809 207.066 181.349L207.072 181.372ZM249.498 161.537C249.35 162.214 249.325 162.911 249.426 163.597C250.626 166.628 252.462 169.365 254.81 171.626C254.269 167.706 251.316 165.063 250.194 161.454L249.498 161.537ZM251.209 160.079C252.756 162.508 254.34 164.902 255.925 167.295C256.008 167.583 256.531 167.647 257.023 167.936C257.124 167.378 257.36 166.95 257.245 166.719C255.532 163.307 253.809 159.946 251.924 156.272C250.788 157.562 250.329 158.704 251.19 160.013L251.209 160.079ZM256.857 218.798C258.604 212.436 259.486 205.822 260.779 199.303C260.919 197.876 261.156 196.461 261.489 195.065C263.601 188.885 263.296 182.399 263.986 176.033C264.684 170.536 265.894 165.115 267.599 159.843C268.886 155.197 270.35 150.668 271.631 146.002C272.016 144.359 272.251 142.684 272.334 140.998C272.598 137.371 272.614 133.719 273.002 130.103C273.033 126.209 272.347 122.342 270.977 118.697C262.165 129.635 257.883 142.206 252.489 154.092L258.593 163.688C258.428 161.639 257.746 159.668 256.613 157.955C255.87 156.227 255.105 154.506 254.28 152.659C255.368 152.031 255.87 152.436 256.352 153.352C257.251 155.2 258.318 156.961 259.54 158.614C259.608 156.614 258.986 154.652 257.778 153.056C257.154 152.23 256.717 151.47 257.945 150.417C258.968 151.871 259.886 153.21 261.212 155.127C262.429 151.559 263.332 148.729 264.396 145.708C265.603 145.981 265.757 147.087 265.459 148.206C264.984 149.952 264.27 151.622 263.694 153.35C262.892 155.79 262.126 158.269 261.325 160.71C260.524 163.15 259.846 165.434 258.898 167.701C257.95 169.969 256.347 172.786 255.262 175.405C254.718 176.731 254.397 178.137 254.315 179.568C253.879 184.829 253.566 190.102 253.247 195.353C252.866 199.073 253.054 202.828 253.803 206.493C254.241 209.313 254.16 212.191 253.563 214.983C252.838 219.992 251.908 225.205 250.968 230.302C250.391 232.252 250.171 234.291 250.321 236.32C252.708 230.179 255.269 224.636 256.838 218.732L256.857 218.798ZM260.926 303.746C261.407 304.445 262.117 304.953 262.933 305.184C263.75 305.415 264.621 305.354 265.397 305.011C265.681 304.831 265.922 304.591 266.103 304.308C266.284 304.025 266.402 303.705 266.446 303.372C266.491 303.039 266.462 302.701 266.362 302.38C266.262 302.059 266.093 301.764 265.867 301.516C265.385 300.91 264.695 300.507 263.932 300.383C263.168 300.259 262.386 300.423 261.738 300.846C260.533 301.653 260.228 302.749 260.907 303.679L260.926 303.746ZM251.323 275.039C253.29 279.408 255.353 283.775 257.04 288.25C258.262 291.541 259.003 294.996 259.901 298.573L264.459 297.751C264.371 297.071 264.223 296.399 264.019 295.743C262.949 293.056 261.752 290.429 260.682 287.742C258.222 281.596 255.761 275.451 253.411 269.273C252.86 267.874 252.887 266.235 252.367 264.778C251.401 262.037 250.214 259.359 249.175 256.614C248.81 255.751 248.599 254.83 248.551 253.893C248.529 252.005 248.734 250.074 248.785 248.188C249.044 245.899 248.858 243.583 248.239 241.364C247.848 239.882 247.725 238.342 247.874 236.816C247.912 234.604 248.07 232.395 248.348 230.2C248.726 227.379 249.307 224.595 249.831 221.78L251.433 213.516L246.799 206.828C248.972 206.051 249.24 208.372 250.549 208.831C251.283 206.409 251.365 206.195 249.008 203.042C247.778 201.456 247.144 199.194 244.65 198.456L245.089 196.337C248.118 196.607 247.977 200.079 250.4 201.149C250.604 200.687 250.688 200.181 250.642 199.677C250.596 199.174 250.423 198.691 250.139 198.274C248.804 196.407 247.377 194.639 246.131 192.746C245.745 192.249 245.505 191.654 245.439 191.029C245.434 190.077 245.502 189.127 245.643 188.186C247.227 190.412 248.81 192.638 250.372 194.872L251.088 194.447C252.072 190.49 248.515 188.574 246.802 185.738C246.959 184.876 247.578 184.696 248.229 185.202C249.481 186.205 250.632 187.358 252.193 188.847C252.45 185.197 252.564 181.877 252.895 178.398C250.572 176.686 248.938 174.2 248.288 171.39C250.28 169.994 250.205 172.703 251.519 172.849C251.078 170.555 250.074 168.407 248.596 166.597C247.027 167.966 247.261 169.841 247.136 171.39C246.841 176.258 246.155 181.095 245.084 185.854C245.03 186.504 245.051 187.158 245.148 187.803C243.853 189.919 243.223 192.376 243.338 194.855C243.276 197.046 243.338 199.239 243.522 201.423L243.808 209.33C243.405 216.188 242.996 223.025 242.973 229.869C243.185 232.452 243.678 235.003 244.444 237.479C245.699 242.294 246.421 247.233 246.596 252.208C246.604 253.141 246.115 254.098 246.233 255C246.623 257.574 245.897 260.52 246.885 262.68C248.686 266.642 249.518 270.982 251.303 274.973L251.323 275.039ZM226.189 240.537C230.129 243.277 233.932 246.201 237.791 249.156C238.683 249.832 239.497 250.651 240.788 251.787C240.692 251.154 240.512 250.536 240.253 249.951C238.06 246.228 235.119 242.999 231.616 240.469C229.563 238.988 227.615 237.366 225.788 235.616C219.193 230.5 212.27 225.824 205.062 221.616C204.736 221.419 204.396 221.246 204.048 221.095L203.546 221.433C203.793 221.987 204.084 222.52 204.418 223.026C206.296 225.191 208.084 227.382 210.126 229.45C210.775 230.126 211.503 230.719 212.296 231.218C216.944 234.328 221.604 237.314 226.169 240.47L226.189 240.537ZM211.767 235.666C213.784 236.411 215.851 237.012 217.953 237.465L218.204 236.839C217.394 236.452 216.639 235.999 215.821 235.662C215.003 235.324 214.386 235.432 213.935 235.035C207.387 229.024 199.181 225.559 191.575 221.27C187.906 219.219 183.971 217.653 180.346 215.662C176.719 213.671 173.206 211.574 169.655 209.514C168.093 208.6 166.488 207.7 164.995 206.695C164.329 206.133 163.721 205.507 163.18 204.824C162.66 204.107 162.023 203.481 161.297 202.973C158.752 201.515 156.46 199.654 154.511 197.462C152.624 196.006 150.635 194.685 148.562 193.509C146.96 192.451 145.451 191.261 144.048 189.952C143.387 189.098 143.009 188.058 142.967 186.979C138.194 183.059 133.428 179.159 128.669 175.283L128.288 175.705C130.439 177.983 132.589 180.26 134.755 182.508L149.128 197.518C152.513 200.914 156.262 203.926 160.308 206.499C167.588 211.314 174.823 216.142 182.203 220.807C191.693 226.424 201.566 231.368 211.748 235.599L211.767 235.666ZM98.3074 225.027C98.039 224.626 97.7356 224.248 97.4037 223.898C95.2337 222.13 92.9586 220.25 90.8094 218.307C89.4084 217.037 88.1827 215.546 86.866 214.154L84.248 211.508C83.7157 211.061 83.2085 210.584 82.7287 210.08C75.612 201.619 67.6496 193.883 61.3237 184.761C59.8252 182.891 58.2106 181.118 56.4908 179.449C52.991 175.67 49.8308 171.983 46.4427 168.339C45.1513 166.961 43.6682 165.777 42.0371 164.824L41.3163 165.561C41.7238 166.138 42.0656 166.734 42.5049 167.254C45.3277 170.416 48.156 173.591 50.9875 176.781C52.7369 178.671 54.6714 180.699 56.3999 182.763C58.5611 185.325 60.5109 188.068 62.6688 190.535C65.542 193.898 68.5073 197.161 71.4889 200.396C75.4904 204.749 79.7482 208.908 83.5777 213.408C87.2615 217.692 91.5269 221.441 96.2481 224.546C96.5449 224.754 96.8812 224.897 97.2361 224.967C97.591 225.038 97.9569 225.033 98.3107 224.953L98.3074 225.027ZM244.481 207.934L243.745 209.276C243.974 209.57 244.225 209.855 244.894 210.669C244.878 209.378 244.897 208.701 244.887 208.007L244.481 207.934Z" fill="#101A24"/>
</svg>
