<svg width="152" height="318" viewBox="0 0 152 318" fill="none" xmlns="http://www.w3.org/2000/svg">
<g opacity="0.08">
<path d="M4.90039 198.441C6.86485 199.414 8.88666 200.267 10.9538 200.996C19.1864 203.728 27.4051 206.341 35.7339 208.984C37.9908 209.651 40.3226 210.034 42.6738 210.125C46.5611 210.41 50.3965 211.187 54.0876 212.437C59.5035 214.124 64.8852 215.901 70.314 217.563C73.6221 218.448 77.0735 218.656 80.4639 218.176C85.4837 217.858 90.5212 217.917 95.5327 218.35C98.4391 218.517 101.363 218.538 104.277 218.662C109.355 218.796 114.357 219.921 119.003 221.976C124.313 224.484 128.435 228.269 132.934 231.682C133.095 231.818 133.06 232.112 133.453 232.767C132.211 232.257 131.343 231.922 130.499 231.6C125.853 229.285 120.943 227.543 115.876 226.413C112.28 225.757 108.657 225.353 105.059 224.758C102.189 224.297 99.3358 223.688 96.4969 223.197C92.0785 222.14 87.5 221.933 83.0039 222.585C79.9383 222.907 76.8533 222.992 73.7747 222.838C67.3105 223.12 60.8351 223.363 54.3689 223.846C52.4267 224.095 50.5362 224.646 48.7643 225.478C47.9417 225.717 47.4337 226.757 46.6333 227.558C47.2939 228.155 47.6705 228.755 48.2174 228.961C53.216 231.234 58.4662 232.91 63.8572 233.954C67.6158 234.542 71.2653 235.73 74.9952 236.569C77.3585 237.098 79.7708 237.449 82.1285 237.958C85.2135 238.601 88.2884 239.347 91.366 240.033C93.0325 240.149 94.6675 240.544 96.2045 241.198C97.5952 241.998 99.1248 242.529 100.714 242.763C102.421 243.155 104.032 243.887 105.449 244.916C106.867 245.945 108.062 247.25 108.962 248.753C109.533 249.63 110.197 250.443 110.944 251.175C113.889 254.084 117.141 256.664 120.642 258.871C123.126 260.439 125.31 262.376 127.698 264.033C129.35 265.206 131.082 266.266 132.878 267.207C137.221 269.388 141.64 271.405 145.948 273.535C148.967 275.088 151.939 276.736 154.865 278.479C158.286 280.655 161.92 282.477 165.71 283.915C170.363 285.56 174.959 287.425 179.688 288.906C182.309 289.736 185.026 290.226 187.772 290.363C190.712 290.538 193.473 291.829 195.491 293.973C198.907 297.215 202.432 300.343 205.721 303.703C208.677 306.896 211.427 310.149 214.402 313.337C215.613 314.523 216.914 315.614 218.291 316.602C218.668 316.923 219.141 317.11 219.636 317.131C220.131 317.153 220.618 317.007 221.021 316.72C221.709 316.297 222.42 315.887 223.103 315.444C226.052 313.533 225.752 310.621 223.572 308.215C219.119 303.431 214.38 299.054 209.847 294.416C208.373 292.805 206.983 291.12 205.682 289.365C205.47 289.123 205.366 288.768 205.133 288.593C202.14 286.181 200.533 282.818 198.486 279.685C197.273 277.504 196.567 275.076 196.419 272.585C195.952 268.891 195.485 265.196 194.807 261.543C194.081 256.841 193.078 252.186 191.803 247.602C189.049 238.414 184.85 229.723 179.364 221.856C176.796 218.328 173.728 215.167 170.958 211.778C168.852 209.208 166.842 206.551 164.833 203.893C162.823 201.236 160.845 198.549 158.789 195.945C158.349 195.405 157.564 195.146 156.564 194.565C156.447 195.345 156.418 196.136 156.48 196.921C157.064 199.345 157.71 201.772 158.405 204.164C159.895 209.283 161.279 214.453 163.063 219.467C165.44 226.172 168.205 232.745 170.732 239.407C171.397 241.138 171.77 242.975 172.292 244.769C172.743 246.152 173.354 247.477 174.111 248.719C176.097 251.786 177.794 255.03 179.181 258.41C180.556 261.421 182.087 264.358 183.768 267.208C183.878 267.581 184.098 267.923 184.393 268.587C183.172 268.269 182.12 267.494 181.452 266.423C179.236 262.715 176.192 259.571 172.557 257.237C171.012 256.071 169.775 254.546 168.953 252.794C167.609 250.469 166.107 248.238 164.456 246.118C161.747 242.589 158.886 239.167 156.063 235.732C154.933 234.359 153.676 233.103 152.528 231.734C150.391 229.383 148.813 226.58 147.91 223.532C147.053 220.722 145.651 218.107 143.785 215.837C138.77 209.189 133.862 202.633 128.535 196.239C125.949 193.06 122.754 190.301 120.007 187.27C117.26 184.24 114.369 180.987 111.373 178.009C107.926 174.593 104.32 171.327 100.702 168.084C97.9247 165.507 94.9562 163.108 92.0341 160.655C91.6575 160.413 91.254 160.217 90.8302 160.073C90.6322 160.263 90.474 160.49 90.3639 160.742C90.2538 160.994 90.1945 161.265 90.1899 161.539C90.1853 161.814 90.2343 162.087 90.3352 162.342C90.437 162.597 90.5869 162.831 90.7784 163.027C92.0766 164.98 93.3425 166.962 94.6324 168.958C98.2846 174.542 101.775 180.194 105.402 185.766C110.515 193.58 115.709 201.33 120.853 209.115C122.449 211.493 123.917 213.954 125.249 216.49C124.024 215.691 122.771 214.941 121.58 214.052C117.483 210.906 113.489 207.631 109.348 204.54C105.87 201.924 102.213 199.523 98.6714 196.967C97.5804 196.066 96.6005 195.038 95.7529 193.905C92.6411 189.945 89.9179 185.695 87.6212 181.214C86.0297 178.01 85.0229 174.55 84.6463 170.994C84.0995 167.586 83.9329 164.087 83.1575 160.726C82.3848 156.657 81.0598 152.713 79.2175 149.003C79.087 148.555 78.7835 148.136 78.591 147.686C77.4066 144.869 76.398 141.96 75.0128 139.222C73.3584 135.944 72.4858 132.327 72.4645 128.655C72.2535 124.758 71.1089 120.97 69.1269 117.608C69.0278 117.383 68.8918 117.176 68.7253 116.996C65.8346 114.026 63.6443 110.469 60.4205 107.82C59.7339 107.271 59.1686 106.583 58.5273 105.98C57.8851 105.376 57.0505 105.295 56.5878 106.281C56.2732 106.99 56.1243 107.761 56.1502 108.536C56.2853 110.95 56.4444 113.376 56.7766 115.772C57.1097 118.167 57.739 120.679 58.2053 123.118C58.5208 124.201 58.4764 125.37 58.754 126.465C59.077 128.39 59.6247 130.271 60.3853 132.069C61.7113 134.769 62.6256 137.653 63.0984 140.623C63.6101 143.494 64.1135 146.408 64.454 149.247C64.6539 150.77 64.4771 152.321 64.602 153.865C64.7649 156.027 65.0508 158.194 65.2812 160.376C65.3627 160.656 65.3321 160.97 65.4052 161.637C63.711 160.408 62.1897 158.955 60.885 157.318C58.1174 154.355 55.3997 151.356 52.5498 148.457C49.9894 145.857 47.3013 143.377 44.6827 140.856C44.3135 140.423 43.8943 140.034 43.4344 139.699C40.8186 137.792 38.3979 135.633 36.2068 133.251C32.6785 130.042 29.1049 126.886 25.5452 123.707C21.9846 120.528 18.6608 117.605 15.2196 114.553C12.3418 115.39 11.9402 116.379 13.4466 118.838C14.4201 120.44 15.5629 121.931 16.4984 123.543C18.1084 126.358 19.7684 129.138 21.1703 132.074C23.1042 136.286 25.7395 140.137 28.9652 143.465C32.3981 146.904 35.4721 150.712 38.7643 154.293C41.2479 156.975 43.8582 159.538 46.3788 162.21C47.6446 163.564 48.8522 164.996 50.0542 166.41C52.1343 168.74 54.0414 171.219 55.7597 173.828C55.0435 173.625 54.3412 173.376 53.6583 173.082C49.2417 170.861 44.8705 168.587 40.4734 166.361C38.8791 165.548 37.2107 164.899 35.7358 164.01C31.8152 161.889 27.939 159.714 24.0767 157.515C17.1452 153.614 10.258 149.66 3.30051 145.808C2.31967 145.457 1.29073 145.257 0.249741 145.216C-0.0287933 146.228 -0.0750275 147.291 0.112808 148.323C0.301575 149.356 0.719788 150.333 1.33791 151.183C4.18697 156.205 8.20844 160.465 13.059 163.599C17.1359 166.466 21.0463 169.665 25.0048 172.748C30.5003 177.005 35.5174 181.849 41.7059 185.215C42.4443 185.669 43.2309 186.038 44.0525 186.315C49.1881 188.07 54.1357 190.329 58.8243 193.061C59.9153 193.585 61.0831 193.93 62.2832 194.081C65.9521 194.592 69.5368 195.594 72.9392 197.059C75.7956 198.185 78.7095 199.157 81.6705 199.97C86.1028 201.003 90.2519 203.007 93.8163 205.838C94.1725 206.16 94.7083 206.329 95.0034 206.992C93.4054 206.586 91.7805 206.228 90.1936 205.717C84.427 203.869 78.6651 201.993 72.9086 200.089C70.0947 199.334 67.3604 198.312 64.7436 197.033C63.0105 196.11 61.0683 195.649 59.1047 195.695C55.8809 195.62 52.7385 194.712 49.4925 194.562C44.5661 194.203 39.6221 194.146 34.6892 194.391C30.3319 194.777 25.9422 194.554 21.6468 193.729C18.609 193.225 15.5185 193.116 12.4529 193.406C10.4597 193.52 8.44437 193.559 6.49934 193.842C5.56291 194.022 4.70053 194.477 4.02319 195.15C3.77243 195.391 3.59106 195.695 3.49669 196.03C3.40323 196.365 3.40137 196.719 3.49112 197.054C3.57996 197.39 3.75854 197.697 4.00653 197.941C4.25359 198.184 4.56265 198.357 4.90039 198.441ZM145.728 185.397C142.162 183.65 138.789 181.535 135.662 179.086C134.296 177.943 132.951 176.733 131.537 175.706C127.725 172.984 124.134 169.963 120.8 166.672C115.062 161.378 110.064 155.334 105.943 148.703C105.483 147.952 105.177 147.118 105.047 146.248C105.062 145.566 105.202 144.892 105.461 144.262C106.12 144.435 106.903 144.41 107.4 144.792C110.842 147.357 114.347 149.863 117.564 152.697C119.101 154.14 120.811 155.384 122.656 156.403C125.914 157.988 128.585 160.413 132.212 161.383C132.432 161.442 132.614 161.652 132.813 161.777C135.562 163.631 138.258 165.582 141.105 167.287C145 169.598 149.034 171.688 152.998 173.958C154.909 175.023 156.852 176.059 158.646 177.28C160.92 178.973 163.377 180.405 165.97 181.553C167.843 182.329 169.665 183.22 171.428 184.22C174.409 185.825 177.368 187.497 180.333 189.187C182.175 190.195 183.965 191.297 185.692 192.492C188.509 194.509 191.203 196.664 193.975 198.735C193.975 198.735 194.255 198.653 194.572 198.561C194.42 198.113 194.226 197.681 193.994 197.27C191.352 193.276 188.673 189.294 186.039 185.398C182.998 180.57 178.6 176.745 173.395 174.405C169.841 172.846 166.415 170.965 162.812 169.379C159.209 167.794 155.105 166.576 151.37 164.887C147.637 163.197 143.578 160.953 139.708 158.939C137.776 157.94 135.9 156.784 133.907 155.925C129.198 153.883 124.674 151.436 120.388 148.612C119.119 147.709 117.93 146.699 116.834 145.593C115.419 144.282 114.158 142.805 112.737 141.476C109.136 138.086 105.503 134.725 101.875 131.383C100.798 130.399 99.6578 129.475 98.6446 128.432C96.2887 125.976 93.9772 123.467 91.6714 120.976C89.3654 118.486 87.1299 116.097 84.923 113.598C84.1624 112.725 83.275 111.767 83.758 110.431C85.9538 109.549 85.9668 109.525 87.5676 110.64C88.504 111.279 89.3682 112.02 90.1927 112.692C92.7355 114.466 95.158 116.314 97.7035 118.026C99.754 119.472 101.901 120.778 104.13 121.93C109.159 124.378 114.323 126.523 119.347 128.952C125.247 131.815 131.073 134.841 136.907 137.825C139.715 139.257 142.537 140.665 145.245 142.309C149.477 144.874 153.632 147.542 157.709 150.315C160.793 152.416 163.693 154.653 166.682 156.984C168.082 158.036 169.449 159.178 170.823 160.278L171.249 159.931C170.712 158.993 170.126 158.09 169.64 157.117C166.729 151.295 162.977 145.934 158.503 141.206C157.845 140.488 157.227 139.734 156.649 138.949C153.776 135.205 150.978 131.439 148.091 127.719C145.385 124.272 142.615 120.882 139.827 117.498C138.827 116.29 138.123 114.711 136.216 114.496C135.898 114.446 135.62 113.98 135.336 113.699C134.107 112.191 132.739 110.766 131.254 109.353C130.199 108.221 129.027 107.203 127.756 106.318C122.815 103.195 117.232 101.225 111.425 100.554C108.558 100.172 105.716 99.459 102.864 98.9918C101.387 98.5615 99.8391 98.4264 98.3096 98.5948C95.6872 99.0547 93.0177 99.2842 90.3491 99.5136C87.178 99.4998 84.0291 100.039 81.0441 101.108C80.7618 101.262 80.4491 101.352 80.1289 101.374C76.3147 101.431 72.4848 101.572 68.7021 101.458C63.1382 101.213 57.5576 100.769 51.9881 100.364C47.5549 100.034 43.1124 99.6034 38.6866 99.2296C37.7964 99.1648 36.9035 99.1611 36.0152 99.0343C32.1557 98.5161 28.3351 97.7842 24.4663 97.5122C22.2733 97.3595 19.9655 96.5322 17.7966 97.8527C17.4783 97.9452 16.9888 97.8647 16.5909 97.8185C14.5922 97.5686 12.5759 97.3253 10.5745 96.9958C9.86012 96.9736 9.16521 96.7553 8.56744 96.3639C7.84106 95.7217 6.90927 95.3608 5.93954 95.3451C5.40749 95.2572 4.9402 94.7649 4.42757 94.4679C4.70886 93.9192 5.06694 93.4121 5.48982 92.9633C5.92102 92.744 6.39017 92.608 6.87227 92.5608C9.99245 91.6521 13.0941 90.7499 16.2143 89.8413C17.7494 89.1205 19.3243 88.4866 20.9306 87.9416C24.0906 87.2643 27.3264 87.0033 30.5549 87.1671C37.69 87.4678 44.8307 86.7535 51.7651 85.0463C52.1574 84.9324 52.5497 84.8177 52.9097 84.5919C56.2723 83.4714 59.6062 82.1158 63.0447 81.2562C71.6752 79.3111 80.5953 79.0113 89.3377 80.3725L90.0678 80.4437C95.4726 81.0387 100.799 82.2055 105.956 83.9257C106.468 84.0802 106.969 84.1987 107.865 84.4235C107.639 83.9609 107.381 83.5149 107.091 83.0883C104.559 80.2383 102.04 77.3643 99.4635 74.567C96.8855 71.7707 93.7302 68.7976 91.205 65.6219C88.3078 61.83 86.0371 57.5985 84.4761 53.0894C84.1689 52.1697 83.7497 51.2911 83.2287 50.4733C80.8507 46.9702 78.505 43.4375 75.9622 40.0634C73.1872 36.2743 71.0043 32.085 69.4887 27.6394C69.224 26.7028 68.865 25.7955 68.4162 24.9316C65.6273 20.1727 62.4007 15.684 58.7781 11.5236C56.4019 8.79027 54.3902 5.70756 52.175 2.76486C52.0251 2.58461 51.914 2.37549 51.8484 2.15036C51.7827 1.92532 51.7632 1.68909 51.7928 1.45637C51.8215 1.22365 51.8983 0.999445 52.0177 0.79754C52.1371 0.595635 52.2971 0.420474 52.4868 0.282879C53.2697 -0.370582 53.9775 0.254099 54.6326 0.691868C56.003 1.56981 57.354 2.45322 58.7716 3.21605C62.1194 5.03847 65.6449 6.56598 68.8169 8.62186C72.5422 11.0438 75.9853 13.8922 79.5321 16.609C82.6254 18.8321 85.5189 21.3193 88.182 24.0425C90.7137 26.8917 92.9372 30.0016 94.8137 33.3197C98.7491 39.8757 102.854 46.3213 106.941 52.772C108.334 54.9817 109.91 57.0553 111.491 59.352C111.412 58.0371 111.329 56.8453 111.251 55.6729C111.231 51.1296 110.597 46.6101 109.367 42.2368C108.68 39.9775 108.209 37.6582 107.959 35.31C107.922 34.9289 107.968 34.5443 108.094 34.1825C108.219 33.8207 108.421 33.4902 108.686 33.2135C109.429 32.6325 110.196 33.321 110.758 33.9276C111.223 34.3904 111.637 34.9019 111.993 35.4532C114.208 39.5104 116.491 43.5273 118.583 47.7215C119.745 50.0386 120.409 52.6018 121.469 54.9882C123.061 58.5784 124.789 62.0076 126.551 65.4868C126.633 65.7672 126.84 65.9902 127.174 66.5824L127.616 65.1769C128.147 62.4722 128.962 59.8304 130.044 57.2959C130.29 56.7028 130.414 56.0671 130.413 55.4249C130.511 54.3025 130.396 53.1403 130.586 52.0511C131.145 47.6978 131.257 43.2986 130.919 38.9225C130.809 35.7119 130.762 32.4894 130.78 29.255C130.718 23.4048 129.798 17.5952 128.051 12.0118C127.507 10.1435 127.139 8.04159 125.254 6.92834C125.864 4.84572 126.369 4.35401 127.332 5.08705C129.972 6.98941 132.233 9.36998 133.996 12.1053C136.025 15.7176 137.422 19.6491 138.13 23.731C138.675 26.2796 139.768 28.6793 141.332 30.7638C143.88 34.0435 145.476 37.9613 145.946 42.0877C146.317 46.8438 146.688 51.5998 146.683 56.3845C146.747 60.2977 146.406 64.2071 146.258 68.3646C148.529 65.5146 150.644 63.0338 152.642 60.4263C156.495 55.3518 161.917 52.3954 167.385 49.5273C172.019 47.3553 176.418 44.7166 180.516 41.6519C183.114 39.5782 185.901 37.7334 188.639 35.8621C189.178 35.4825 190.307 35.1134 190.508 35.3182C191.029 35.9753 191.351 36.7676 191.437 37.6017C191.474 38.2499 191.364 38.8981 191.116 39.4984C190.515 41.2694 189.492 42.8677 188.135 44.1561C185.66 46.7211 183.085 49.2945 180.695 52.0168C176.59 56.8222 172.001 61.1934 167.003 65.0621C162.317 68.6042 158.298 72.9514 155.133 77.9C152.239 82.6848 149.873 87.7704 148.077 93.0669C146.952 95.5866 146.186 98.2515 145.802 100.985C145.725 102.182 145.273 103.347 145.097 104.554C144.983 105.259 145.021 105.981 145.207 106.67C147.499 113.847 152.239 119.479 157.179 125.661C157.193 124.522 157.216 123.908 157.184 123.309C156.98 119.68 156.732 116.044 156.563 112.404C156.372 108.406 156.257 104.386 156.123 100.514C156.083 99.6136 155.926 98.7271 155.973 97.8416C156.042 96.2001 156.746 95.8327 158.145 96.6017C158.603 96.8533 159.135 96.9413 159.6 97.2114C160.064 97.4816 160.808 97.812 161.03 98.295C161.873 100.076 162.598 102.014 163.295 103.918C163.992 105.823 164.285 107.319 165.017 108.93C168.104 115.915 171.255 122.841 174.393 129.791C174.583 130.445 175.118 130.959 175.749 132.011L175.835 130.567C176.058 125.415 174.753 120.445 174.308 115.366C173.89 112.059 173.705 108.726 173.756 105.393C173.924 102.65 173.881 99.8976 173.63 97.1605C173.214 94.3411 173.363 91.4661 174.066 88.704C174.885 86.1557 175.661 83.5991 176.509 81.0822C177.889 76.9109 179.274 72.758 180.727 68.6265C181.938 64.8225 184.164 61.421 187.165 58.7875C187.804 58.2999 188.315 57.6642 188.653 56.936C189.021 56.1161 189.601 55.4092 190.332 54.8864C191.063 54.3645 191.919 54.0453 192.813 53.9611C194.402 53.4993 195.506 54.718 195.036 56.3752C194.65 57.604 194.132 58.7885 193.49 59.9053C192.327 61.656 191.521 63.6196 191.118 65.683C190.884 67.4532 190.649 69.2242 190.637 70.9907C190.49 72.7913 190.468 74.5985 190.57 76.4019C191.029 81.2534 191.663 86.0752 192.098 90.9137C192.534 95.7522 192.748 100.108 193.159 104.792C193.862 112.156 193.282 119.587 191.445 126.753C190.84 129.2 190.362 131.669 189.733 134.102C189.371 135.504 188.747 136.841 188.294 138.21C187.171 140.817 186.609 143.632 186.645 146.472C186.834 148.333 186.851 150.207 186.694 152.071C186.394 154.405 186.467 156.771 186.911 159.081C187.159 161.232 187.608 163.353 188.25 165.421C189.908 169.654 191.31 173.983 192.449 178.385C192.9 179.582 193.483 180.723 194.189 181.789C194.575 182.488 195.155 183.089 195.598 183.771C197.788 187.188 199.94 190.614 202.112 194.035C202.314 194.264 202.532 194.478 202.764 194.676C202.934 194.105 203.056 193.521 203.127 192.929C203.316 189.47 203.579 185.988 203.602 182.516C203.643 176.667 203.504 170.83 203.47 165.003C203.459 163.787 203.553 162.573 203.752 161.374C204.522 156.57 205.61 151.815 206.067 146.98C206.277 143.557 206.996 140.185 208.202 136.974C210.83 130.616 213.688 124.352 216.455 118.054C217.003 116.8 217.424 115.462 218.091 114.275C220.047 110.828 222.168 107.393 224.127 104.026C225.384 101.938 226.694 99.8949 228.01 97.8703C228.612 96.945 229.555 96.7719 229.949 97.5686C230.915 99.497 232.684 101.049 232.56 103.477C232.641 104.609 232.793 105.736 233.015 106.85C233.489 110.431 233.72 114.041 233.707 117.654C233.31 121.753 232.638 125.821 231.699 129.831C230.94 133.558 229.784 137.178 229.054 140.937C227.958 147.336 226.992 153.698 226.225 160.183C225.927 164.33 225.396 168.456 224.635 172.543C223.996 175.221 223.705 177.982 223.103 180.649C222.631 183.532 221.849 186.355 220.771 189.07C218.58 193.962 216.858 199.05 215.629 204.267C214.025 210.193 214.615 216.499 217.291 222.024C217.721 222.898 218.098 223.796 218.419 224.715C220.349 230.72 222.229 236.76 224.178 242.759C225.492 246.855 226.931 250.895 228.283 254.98C228.594 255.948 228.553 256.995 228.166 257.935C227.779 258.874 227.072 259.647 226.17 260.115C222.097 261.301 217.202 259.524 216.575 255.003C216.311 253.054 215.916 251.001 215.519 249.008C215.231 247.078 214.779 245.176 214.168 243.321C212.898 240.002 211.315 236.795 209.901 233.538C209.285 232.117 208.73 230.697 208.132 229.27C206.055 224.362 204.538 219.149 200.088 215.56C198.146 213.508 196.021 211.637 193.739 209.97C188.948 207.279 183.991 204.897 178.895 202.84C173.731 200.696 168.646 198.358 163.641 195.83C158.832 193.671 154.219 191.101 149.853 188.149C148.553 187.124 147.174 186.204 145.728 185.397Z" fill="white"/>
<path d="M4.02318 195.15C4.70052 194.477 5.56291 194.022 6.49933 193.842C8.44435 193.559 10.4597 193.52 12.4529 193.406C15.5184 193.116 18.609 193.225 21.6468 193.729C25.9422 194.554 30.3319 194.777 34.6892 194.391C39.6221 194.146 44.5661 194.203 49.4925 194.562C52.7015 194.722 55.8809 195.62 59.1047 195.695C61.0627 195.654 62.9975 196.117 64.7251 197.039C67.3419 198.317 70.0762 199.34 72.8901 200.093C78.6586 201.995 84.4205 203.871 90.1742 205.723C91.762 206.234 93.3869 206.592 94.984 206.998C94.7832 206.307 94.154 206.165 93.7968 205.844C90.2325 203.013 86.0843 201.008 81.6511 199.976C78.691 199.162 75.7762 198.191 72.9207 197.065C69.5183 195.6 65.9336 194.598 62.2647 194.087C61.0645 193.935 59.8968 193.591 58.8058 193.066C54.1691 190.301 49.2695 188 44.1802 186.198C43.3585 185.92 42.572 185.551 41.8336 185.097C35.6552 181.767 30.628 176.888 25.1325 172.63C21.174 169.546 17.2377 166.396 13.1866 163.481C8.33611 160.347 4.31465 156.087 1.46559 151.064C0.847473 150.216 0.429245 149.238 0.240479 148.205C0.0526428 147.172 0.0988922 146.11 0.377411 145.098C1.4184 145.139 2.44736 145.338 3.42819 145.69C10.3857 149.542 17.2728 153.496 24.2044 157.396C28.0667 159.596 31.9429 161.771 35.8634 163.893C37.4134 164.759 39.0817 165.408 40.6011 166.242C44.9982 168.469 49.3694 170.743 53.786 172.964C54.4689 173.258 55.1712 173.508 55.8874 173.71C54.1691 171.101 52.262 168.621 50.1818 166.291C48.9799 164.878 47.7723 163.446 46.5065 162.091C43.997 159.458 41.3867 156.894 38.892 154.174C35.5997 150.593 32.5258 146.785 29.0929 143.347C25.8672 140.02 23.2319 136.167 21.298 131.955C19.8961 129.019 18.2361 126.24 16.626 123.426C15.6905 121.813 14.5478 120.321 13.5743 118.72C12.0679 116.26 12.5852 115.319 15.3472 114.434C18.7885 117.486 22.2307 120.538 25.6729 123.589C29.1142 126.64 32.8062 129.923 36.3344 133.132C38.5256 135.514 40.9462 137.675 43.5621 139.581C44.022 139.916 44.4412 140.305 44.8104 140.738C47.429 143.258 50.1171 145.739 52.6774 148.338C55.5459 151.232 58.2451 154.236 61.0127 157.2C62.2711 158.878 63.7498 160.376 65.4108 161.656C65.3377 160.988 65.3118 160.691 65.2868 160.395C65.0564 158.212 64.7704 156.046 64.6076 153.885C64.4827 152.34 64.6594 150.788 64.4586 149.266C64.1024 146.37 63.5934 143.438 63.1039 140.641C62.6311 137.671 61.7169 134.789 60.3909 132.089C59.6303 130.29 59.0825 128.409 58.7596 126.483C58.444 125.399 58.4329 124.247 58.2108 123.136C57.7445 120.699 57.1366 118.261 56.7822 115.79C56.4277 113.319 56.2908 110.968 56.1557 108.555C56.1576 107.796 56.3269 107.049 56.6526 106.363C57.0968 105.383 57.7889 105.323 58.5921 106.062C59.3943 106.801 59.7978 107.353 60.4853 107.903C63.6462 110.407 65.891 114.011 68.7549 117.027C68.9214 117.209 69.0574 117.415 69.1564 117.64C71.1385 121.001 72.2831 124.791 72.4932 128.687C72.5376 132.344 73.425 135.943 75.0878 139.201C76.472 141.939 77.4816 144.847 78.666 147.664C78.802 148.131 79.0685 148.56 79.2924 148.981C81.1347 152.691 82.4598 156.636 83.2315 160.704C84.0078 164.066 84.1744 167.564 84.7203 170.971C85.0979 174.528 86.1046 177.989 87.6952 181.192C89.9928 185.673 92.716 189.923 95.8279 193.883C96.6755 195.016 97.6554 196.044 98.7463 196.945C102.288 199.502 105.945 201.902 109.422 204.518C113.564 207.609 117.558 210.885 121.655 214.029C122.809 214.93 124.155 215.653 125.324 216.468C123.992 213.932 122.524 211.471 120.928 209.094C115.784 201.308 110.59 193.559 105.477 185.744C101.83 180.178 98.304 174.537 94.7073 168.936C93.4174 166.941 92.1516 164.958 90.8534 163.005C90.6618 162.808 90.511 162.575 90.4101 162.32C90.3093 162.065 90.2593 161.792 90.2648 161.518C90.2695 161.243 90.3287 160.972 90.4388 160.721C90.5489 160.469 90.7072 160.241 90.9052 160.052C91.329 160.196 91.7324 160.391 92.1081 160.634C95.0312 163.086 97.9626 165.496 100.776 168.061C104.395 171.305 108.001 174.572 111.448 177.987C114.349 180.993 117.182 184.181 120.082 187.249C122.981 190.316 126.023 193.039 128.61 196.217C133.844 202.639 138.862 209.224 143.86 215.814C145.726 218.086 147.127 220.701 147.985 223.511C148.888 226.557 150.466 229.361 152.603 231.713C153.75 233.081 155.008 234.336 156.137 235.711C158.961 239.144 161.822 242.568 164.531 246.096C166.157 248.225 167.634 250.463 168.953 252.794C169.832 254.525 171.121 256.015 172.709 257.133C176.344 259.466 179.389 262.611 181.604 266.318C182.271 267.39 183.323 268.164 184.545 268.482C184.344 267.79 184.104 267.455 183.92 267.103C182.239 264.252 180.707 261.316 179.332 258.305C177.945 254.925 176.248 251.681 174.263 248.614C173.506 247.372 172.896 246.046 172.443 244.664C171.788 242.828 171.512 241.044 170.883 239.302C168.356 232.64 165.591 226.068 163.214 219.362C161.431 214.349 160.066 209.172 158.557 204.058C157.861 201.667 157.159 199.257 156.632 196.816C156.57 196.03 156.598 195.24 156.716 194.461C157.732 195.097 158.516 195.356 158.941 195.839C160.996 198.443 162.956 201.136 164.984 203.789C167.013 206.441 169.004 209.104 171.11 211.673C173.88 215.062 176.948 218.222 179.516 221.751C184.936 229.65 189.065 238.361 191.749 247.557C193.024 252.141 194.027 256.796 194.753 261.497C195.431 265.151 195.898 268.845 196.366 272.54C196.513 275.032 197.219 277.458 198.433 279.639C200.424 282.789 202.031 286.152 205.079 288.548C205.312 288.723 205.416 289.078 205.628 289.32C206.929 291.074 208.319 292.759 209.794 294.37C214.326 299.01 219.082 303.442 223.518 308.17C225.778 310.573 226.009 313.524 223.049 315.4C222.367 315.841 221.655 316.251 220.968 316.674C220.565 316.962 220.077 317.107 219.582 317.086C219.088 317.065 218.615 316.879 218.238 316.557C216.86 315.569 215.56 314.478 214.349 313.291C211.392 310.098 208.698 306.829 205.667 303.658C202.379 300.298 198.854 297.169 195.438 293.928C193.42 291.784 190.658 290.492 187.719 290.317C184.972 290.181 182.256 289.691 179.634 288.861C174.906 287.38 170.305 285.496 165.656 283.871C161.86 282.435 158.219 280.615 154.793 278.439C151.88 276.693 148.907 275.045 145.876 273.495C141.545 271.29 137.128 269.273 132.806 267.167C131.016 266.244 129.291 265.203 127.642 264.048C125.255 262.392 123.051 260.46 120.587 258.887C117.084 256.681 113.833 254.1 110.888 251.192C110.142 250.458 109.477 249.646 108.906 248.77C108.006 247.267 106.811 245.961 105.393 244.932C103.975 243.902 102.364 243.17 100.657 242.78C99.0693 242.546 97.5397 242.015 96.148 241.214C94.6111 240.559 92.976 240.166 91.3096 240.048C88.2319 239.364 85.1571 238.617 82.0721 237.975C79.7144 237.465 77.302 237.113 74.9388 236.586C71.2088 235.746 67.5593 234.559 63.8016 233.97C58.4098 232.926 53.1605 231.251 48.1609 228.977C47.615 228.772 47.2375 228.172 46.5768 227.574C47.3772 226.773 47.9074 225.809 48.7078 225.494C50.4798 224.662 52.3712 224.112 54.3134 223.863C60.7795 223.379 67.2549 223.135 73.7192 222.855C76.7968 223.009 79.8828 222.924 82.9474 222.601C87.4436 221.948 92.023 222.156 96.4414 223.213C99.2988 223.699 102.151 224.308 105.002 224.774C108.6 225.369 112.225 225.774 115.82 226.429C120.886 227.559 125.797 229.302 130.443 231.617C131.303 231.994 132.171 232.33 133.397 232.784C133.078 232.106 133.115 231.812 132.879 231.698C128.457 228.344 124.239 224.506 119.003 221.976C114.362 219.893 109.358 218.74 104.274 218.582C101.36 218.458 98.4354 218.438 95.529 218.27C90.5175 217.836 85.481 217.779 80.4611 218.096C77.0707 218.576 73.6193 218.367 70.3112 217.484C64.8824 215.821 59.5007 214.043 54.0848 212.356C50.3928 211.107 46.5574 210.33 42.6701 210.045C40.3188 209.953 37.988 209.57 35.7311 208.903C27.4301 206.354 19.167 203.591 10.9501 200.917C8.88573 200.213 6.86575 199.387 4.90038 198.441C4.56264 198.357 4.25357 198.184 4.00652 197.941C3.75853 197.697 3.57994 197.39 3.4911 197.054C3.40135 196.719 3.40321 196.365 3.49667 196.03C3.59105 195.695 3.77242 195.391 4.02318 195.15ZM58.8549 198.038C58.0795 197.392 56.5915 197.643 55.4275 197.475C57.812 200.076 60.6481 202.224 63.7989 203.814L64.1523 203.427C62.4914 201.531 60.7222 199.732 58.8549 198.038ZM66.6035 201.194C65.321 199.783 64.0283 198.336 61.6105 198.594C63.7572 200.746 65.7883 202.85 67.9341 204.86C68.2672 205.081 68.642 205.231 69.0352 205.302C69.4285 205.372 69.8319 205.36 70.2215 205.268C69.0223 203.935 67.8314 202.559 66.6035 201.194ZM68.6836 200.751C70.1206 202.632 71.6881 204.411 73.3741 206.074C74.279 206.884 75.8585 206.951 77.1309 207.351C76.3453 205.661 75.1701 204.181 73.7016 203.034C72.2331 201.886 70.513 201.104 68.6836 200.751ZM39.9034 168.371L39.5018 168.731C40.4503 169.833 41.3173 170.999 42.3268 171.963C43.3363 172.925 43.6639 174.674 46.1678 174.715C43.7518 172.541 42.2213 170.067 39.9034 168.371ZM46.0457 176.94C41.9298 175.194 37.9482 173.149 34.1312 170.822C32.14 169.759 30.1829 168.606 28.2129 167.477C27.5504 167.082 26.9147 166.639 25.746 165.966C26.6426 165.705 27.1849 165.547 27.4606 165.589C29.1049 166.278 30.6955 167.089 32.2195 168.013C34.3654 169.463 36.7092 170.597 39.1779 171.379C37.9325 169.816 36.7064 168.248 35.4285 166.715C35.0779 166.383 34.6587 166.131 34.2006 165.978C30.5086 164.304 26.9748 162.3 23.6427 159.992C19.8517 157.69 15.957 155.52 12.067 153.228C9.9702 152.014 7.86696 150.843 5.74336 149.677C5.26126 149.412 4.74493 149.238 3.78815 148.807C4.95035 151.142 6.6252 153.183 8.68773 154.778C11.98 157.874 15.4592 160.914 18.9162 163.738C20.6937 165.248 22.6341 166.345 24.5116 167.643C24.8706 167.827 25.2204 168.03 25.56 168.249C29.3566 171.198 33.1532 174.146 36.8757 177.116C39.512 179.261 42.4119 181.06 45.5062 182.468C50.5103 184.76 55.322 187.433 60.2734 189.822C61.3754 190.27 62.5275 190.582 63.7045 190.749C65.222 190.949 66.7256 191.235 68.2108 191.606C71.2144 192.596 74.155 193.787 77.1253 194.868C78.2366 195.274 79.3683 195.614 80.4713 195.921L80.7914 195.281C79.3775 194.111 78.0534 192.835 76.5424 191.754C72.5283 188.603 67.9665 186.221 63.0873 184.727C58.2127 183.163 53.525 181.069 49.1085 178.48C48.1304 177.885 47.1061 177.37 46.0457 176.94ZM46.5472 172.396C48.8031 174.577 49.8071 178.236 53.7675 178.401C51.6438 176.121 50.1448 172.99 46.5472 172.396ZM55.3858 176.653C56.3315 178.02 57.1069 179.151 57.8953 180.26C58.1109 180.582 58.308 181.051 58.6245 181.162C61.1404 182.322 63.7803 183.192 66.4925 183.756C63.1187 180.381 59.9356 177.66 55.3858 176.653ZM67.0208 148.946L66.5165 149.092C66.7867 152.46 67.0338 155.813 67.4159 159.147C67.5316 160.724 67.7509 162.292 68.0729 163.84C68.258 165.141 68.7114 166.389 69.4035 167.506C71.3078 170.03 73.4194 172.392 75.7142 174.566C75.5458 173.672 75.2904 172.795 74.9536 171.95C74.0542 170.207 73.4648 168.322 73.2094 166.378C72.7254 163.6 71.987 160.856 71.3855 158.093C71.2264 157.559 71.1339 157.007 71.1098 156.45C71.046 153.166 68.7724 151.273 67.0477 149.04L67.0208 148.946ZM66.6109 144.89C66.7062 146.889 68.2135 147.403 69.2101 148.39C68.7243 146.983 67.8166 145.761 66.6109 144.89ZM65.6976 139.806C65.5921 141.6 66.5026 142.571 68.4486 143.058L65.6976 139.806ZM79.9216 169.733C79.1453 165.116 78.3255 160.49 77.2262 155.947C75.6837 150.161 73.6729 144.51 71.2134 139.051C70.3261 136.459 69.6034 133.812 69.0491 131.128C68.1192 127.934 67.1892 124.739 66.1344 121.6C65.9854 121.225 65.8725 120.838 65.7966 120.442C65.5551 117.452 63.6369 115.457 61.7261 113.418C60.7212 112.333 59.7932 111.164 58.8336 110.025L58.3478 110.167C58.7688 113.145 59.1704 116.129 59.6534 119.109C60.0236 122.162 60.5676 125.19 61.2811 128.181C61.9315 131.43 63.2946 134.494 65.2701 137.154C65.4015 137.36 65.5653 137.545 65.754 137.702C69.4303 139.956 70.5148 143.612 71.2134 147.543C71.6197 149.776 72.3682 151.929 72.8679 154.134C73.3685 156.34 73.7072 158.41 74.1245 160.539C74.5409 162.667 74.8583 164.662 75.3709 166.701C75.866 168.402 76.51 170.058 76.9736 171.788C77.6472 174.105 78.0793 176.492 78.6845 178.85C78.8344 179.542 79.1277 180.195 79.5459 180.767C81.8879 183.449 84.3113 186.068 86.7172 188.691C86.8504 188.831 87.0133 188.938 87.1946 189.005C87.376 189.072 87.5694 189.097 87.7609 189.077C87.4685 188.477 87.1373 187.897 86.769 187.339C83.1214 182.098 80.7748 176.063 79.9216 169.733ZM118.298 189.755C115.889 186.908 113.53 184.028 111.071 181.218C109.668 179.599 108.159 178.174 106.694 176.696C103.885 174.007 101.081 171.337 98.2772 168.667C97.4907 167.817 96.5931 167.076 95.6095 166.464C95.8778 167.069 96.1841 167.658 96.5274 168.224C102.363 177.206 108.264 186.128 114.117 195.024C116.479 198.614 118.612 202.391 121.043 205.938C124.11 210.417 127.379 214.755 130.603 219.146C132.341 221.499 134.144 223.791 135.914 226.113C136.176 226.532 136.51 226.902 136.9 227.204C139.815 229.071 141.413 232.193 143.822 234.552C146.232 236.912 148.425 239.292 150.765 241.693C151.46 242.386 152.306 242.91 153.237 243.222C152.211 241.55 151.069 239.952 149.818 238.441C148.186 236.757 146.71 234.928 145.41 232.975C143.991 230.815 142.193 228.885 140.622 226.83C138.761 224.473 136.886 222.142 135.024 219.785C133.08 217.039 130.963 214.42 128.688 211.942C127.83 210.786 127.111 209.532 126.548 208.207C125.009 205.636 123.514 203.011 121.899 200.522C119.69 197.111 117.374 193.61 115.01 190.225C113.925 188.656 112.619 187.232 111.414 185.739L112.106 185.193L119.092 193.596C119.302 192.942 119.339 192.245 119.201 191.571C119.061 190.897 118.75 190.272 118.298 189.755ZM143.965 237.409L140.696 234.186C141.611 236.493 142.037 236.916 143.976 237.446L143.965 237.409ZM121.605 193.453C122.113 195.899 121.53 198.279 123.858 200.013C123.374 197.722 124.207 195.29 121.615 193.491L121.605 193.453ZM125.427 197.812C125.081 199.757 126.389 201.119 126.63 202.712C126.755 204.5 127.395 206.214 128.472 207.647C128.496 205.503 128.333 203.36 127.986 201.242C127.342 199.957 126.475 198.796 125.427 197.812ZM159.088 243.344C155.427 239.119 151.537 235.083 148.058 230.725C146.397 228.429 144.997 225.954 143.884 223.347C141.413 218.781 138.56 214.432 135.358 210.345C134.049 208.497 132.589 206.753 131.161 204.98C130.775 204.58 130.357 204.214 129.91 203.885C130.059 206.415 130.158 208.636 130.314 210.841C130.446 211.221 130.664 211.567 130.952 211.85C134.587 216.609 138.158 221.426 141.862 226.145C144.192 229.135 146.705 231.991 149.103 234.941C150.586 236.759 152.022 238.631 153.453 240.484C156.369 244.377 159.896 247.772 163.898 250.536C163.746 249.9 163.513 249.287 163.205 248.711C161.867 246.831 160.596 244.971 159.067 243.269L159.088 243.344ZM174.915 237.419C175.305 235.278 173.828 233.682 170.637 232.402C170.73 235.293 173.309 235.799 174.894 237.344L174.915 237.419ZM168.589 227.384C168.839 228.243 169.09 229.103 169.357 230.018L172.554 230.769L172.79 230.396L169.104 227.133L168.589 227.384ZM220.69 313.979L221.829 310.932C220.412 309.682 219.116 309.897 217.389 310.785L220.69 313.979ZM105.543 229.137C102.861 226.668 99.3755 225.256 95.7316 225.163C94.6879 225.042 93.6525 224.856 92.6309 224.606C90.0715 224.128 87.4491 224.089 84.8758 224.492C81.7528 224.833 78.6105 225.039 75.4949 225.196C68.8502 225.346 62.1999 225.337 55.5478 225.53C54.4901 225.748 53.4732 226.133 52.5359 226.67L52.6201 227.375C53.116 227.581 53.6259 227.75 54.1459 227.884C61.6456 229.349 69.1713 230.766 76.6256 232.284C77.9637 232.564 79.2388 233.185 80.5425 233.556C82.9678 234.228 85.3764 234.844 87.8146 235.493C89.7661 235.999 91.7963 236.36 93.6996 236.982C101.022 239.379 108.581 240.977 116.246 241.748C118.652 242.025 121.039 242.439 123.397 242.991C128.04 244.112 132.602 245.581 137.282 246.549C141.962 247.518 146.367 247.958 151.406 248.7C150.852 248.051 150.574 247.443 150.114 247.253C145.501 245.332 140.71 243.423 135.928 241.755C133.51 240.898 130.904 240.582 128.394 239.895L113.085 236.041C111.908 235.756 110.709 235.537 109.518 235.276C105.076 234.312 100.647 233.345 96.2304 232.375C95.6336 232.206 95.0469 232.006 94.4732 231.771L94.5722 231.276L109.444 233.209C107.937 231.582 106.733 230.371 105.543 229.137ZM155.13 263.789C158.716 265.806 162.599 267.31 166.323 269.104C168.998 270.353 171.69 271.737 174.314 273.162C176.287 274.23 178.199 275.436 180.137 276.595C180.413 276.778 180.669 277.028 180.931 277.235C181.048 276.938 181.14 276.627 181.237 276.336C176.91 271.629 172.246 267.242 167.283 263.211C166.945 262.992 166.619 262.755 166.307 262.502C163.455 259.625 160.039 257.37 156.272 255.877C150.227 253.147 143.975 250.902 137.576 249.159C133.928 248.469 130.243 247.991 126.54 247.73C123.483 247.323 120.447 246.849 117.4 246.338C115.936 246.115 114.456 245.836 112.988 245.595L112.865 246.077L121.092 249.276L141.042 257.027C145.894 258.938 150.603 261.199 155.13 263.789ZM157.288 269.951C157.225 269.037 157.186 268.278 157.109 267.246L150.724 263.836C151.633 267.584 154.764 268.314 157.288 269.951ZM159.211 268.762C160.929 270.553 162.167 272.929 164.947 273.497C163.066 271.978 162.199 269.068 159.211 268.762ZM118.075 231.184C117.687 230.892 117.108 230.716 116.901 230.35C115.783 228.182 113.69 228.164 111.684 227.816C109.677 227.467 108.012 227.385 106.166 227.172L105.928 227.606C109.324 229.941 112.212 232.972 116.088 234.66C114.644 232.344 112.058 231.051 110.593 228.802C110.685 228.657 110.787 228.519 110.899 228.389C111.237 228.457 111.564 228.574 111.87 228.734C114.271 230.507 116.678 232.3 119.047 234.103C119.569 234.487 120.031 234.947 120.417 235.467C121.109 236.381 121.98 236.452 123.257 236.383C121.827 234.378 120.076 232.622 118.075 231.184ZM126.778 235.318C125.726 234.41 124.756 233.411 123.882 232.331C122.546 230.247 120.47 229.939 118.178 229.796L128.258 237.968L128.681 237.541C128.095 236.779 127.453 236.034 126.778 235.318ZM125.274 232.311L130.07 236.326C130.691 236.855 131.279 237.413 131.885 237.825C132.277 238.222 132.747 238.534 133.266 238.74C140.06 240.607 146.56 243.416 152.577 247.083C153.336 247.531 153.938 248.207 154.633 248.714C156.071 249.754 157.527 250.79 158.991 251.782C160.456 252.774 161.619 252.943 161.876 254.732C162.051 255.33 163.018 255.798 163.597 256.258L166.026 258.267C168.054 260.008 169.958 261.885 172.115 263.446C174.391 265.275 176.477 267.33 178.339 269.579C181.778 273.432 185.527 276.997 189.548 280.24C190.011 280.58 190.422 280.986 190.77 281.444C190.969 281.711 191.031 282.341 190.933 282.491C190.615 282.826 190.187 283.037 189.727 283.085C189.392 283.183 188.994 282.793 188.613 282.599C186.541 281.547 184.541 280.354 182.629 279.031C179.692 277.151 176.612 275.507 173.416 274.113C170.677 272.782 167.825 271.687 164.488 270.246C164.69 270.759 164.948 271.248 165.256 271.705C166.466 272.756 167.581 273.909 168.59 275.152C169.607 276.63 171.06 277.752 172.747 278.361C176.489 279.866 180.251 281.304 184.006 282.785C184.276 282.936 184.531 283.114 184.768 283.314C183.44 283.902 182.448 283.279 181.457 282.939C177.396 281.588 173.349 280.152 169.314 278.752C169.184 278.79 168.959 278.714 168.851 278.623C166.048 275.954 162.389 275.013 159.153 273.157C156.741 271.832 154.269 270.303 151.755 269.048C149.242 267.793 147.132 267.09 144.796 266.027C141.731 264.548 138.732 262.948 135.765 261.32C134.841 260.737 133.97 260.075 133.163 259.341C134.46 258.578 135.161 259.245 135.903 259.637L148.827 266.435C149.116 266.594 149.419 266.729 149.933 266.964C149.508 265.507 149.204 264.46 148.946 263.016C136.754 257.312 124.278 252.238 111.567 247.813C112.908 249.681 114.737 251.147 116.853 252.05C119.913 253.566 122.703 255.574 125.11 257.996C127.354 259.856 129.757 261.517 132.29 262.959C134.59 264.316 137.022 265.29 139.408 266.522C143.164 268.428 146.849 270.435 150.644 272.33C156.254 275.035 161.823 277.873 167.589 280.206C172.302 282.376 177.304 283.849 182.441 284.579C183.574 284.724 184.688 284.998 185.759 285.396C189.418 286.475 193.183 287.153 196.988 287.417C197.683 287.925 198.377 288.432 199.215 289.079L198.825 290.875C204.403 296.669 209.933 302.436 215.663 308.409L218.915 307.463C218.583 306.977 218.218 306.514 217.822 306.078C214.118 302.819 210.29 299.697 206.727 296.297C204.929 294.314 203.241 292.235 201.671 290.067C201.163 289.274 200.471 288.615 199.654 288.147C198.836 287.679 197.918 287.416 196.977 287.379C197.2 287.334 197.418 287.271 197.631 287.19C197.843 287.013 198.045 286.825 198.237 286.628C197.642 285.626 196.95 284.57 196.351 283.489C195.803 282.526 195.316 281.531 194.895 280.507C194.021 278.269 193.178 276.001 192.391 273.717C191.989 272.335 191.582 270.933 191.179 269.55C190.983 269.13 190.744 268.731 190.468 268.359L190.424 268.21C191.375 265.907 190.279 263.672 189.827 261.493C189.175 258.42 188.195 255.401 187.184 252.413C185.601 246.975 184.018 241.538 182.011 236.245C180.864 232.947 179.334 229.793 177.453 226.851C172.07 218.73 166.396 210.795 160.683 202.589C160.435 204.183 160.663 205.816 161.34 207.282C163.139 212.838 164.996 218.175 166.825 223.621C167.13 224.667 167.519 225.446 168.883 225.677C169.49 225.743 170.039 226.374 170.615 226.753L171.015 226.455C170.432 225.287 169.792 224.136 169.254 222.914C168.716 221.692 168.317 220.532 167.83 219.275C168.958 218.623 169.457 219.227 169.815 220.035C171.085 222.867 172.419 225.64 173.577 228.506C175.948 234.281 178.136 240.129 180.557 245.87C182.132 249.607 183.988 253.201 185.651 256.892C187.529 260.499 189.092 264.261 190.322 268.137L190.349 268.231L187.986 267.075C187.153 263.436 185.712 259.963 183.719 256.805C181.099 251.958 178.887 246.9 177.11 241.684C176.462 239.462 174.797 239.034 172.603 238.315C173.079 239.85 173.634 241.359 174.264 242.837C175.284 244.952 176.569 246.929 177.571 249.049C179.137 252.342 180.504 255.714 182.052 259.013C182.895 260.795 183.98 262.505 184.935 264.254C185.631 265.531 186.29 266.819 186.967 268.101C188.309 270.69 189.738 273.233 190.991 275.868C191.674 277.31 191.334 277.673 189.988 277.923C187.296 275.078 184.791 272.322 182.145 269.708C178.984 266.575 175.673 263.485 172.418 260.379C171.365 259.126 169.965 258.213 168.392 257.76C168.124 257.686 167.875 257.555 167.662 257.375C167.45 257.196 167.277 256.973 167.158 256.722C165.734 253.083 162.851 250.557 159.718 247.801C159.542 249.636 161.316 250.092 161.37 251.738C150.578 243.184 138.357 236.607 125.274 232.311ZM119.306 216.821C119.399 217.138 119.294 217.615 119.573 217.736C120.824 218.789 122.142 219.759 123.519 220.641C128.084 223.543 132.328 226.92 136.18 230.718C137.129 231.553 138.158 232.292 139.254 232.924C134.444 227.257 128.98 222.181 122.976 217.8C121.808 218.383 121.202 217.485 120.493 216.861L122.361 216.317L118.961 214.104C118.467 213.839 117.992 213.536 117.543 213.2C112.175 208.682 106.629 204.601 101.081 200.44C100.094 199.694 98.75 199.396 97.7044 198.727C96.6523 198 95.6447 197.211 94.686 196.364C95.6817 198.119 97.0752 199.615 98.7547 200.733C100.446 201.868 102.042 203.138 103.528 204.531C102.64 205.519 101.78 205.486 101.154 204.939C99.6504 203.47 97.7729 202.439 95.7261 201.959C95.4975 201.873 95.3032 201.717 95.1709 201.513C94.1207 200.402 93.1889 199.186 92.3922 197.883C90.8691 194.881 88.107 193.05 85.9381 190.682C83.7691 188.313 81.1597 186.52 79.5182 183.734C79.1249 183.078 78.1765 182.746 77.5547 182.279C77.1966 181.08 76.7034 179.925 76.0862 178.836C74.3586 176.522 72.4228 174.329 70.5435 172.119C70.4158 171.983 70.2585 171.876 70.0845 171.808C69.9106 171.74 69.7237 171.711 69.5368 171.723C68.3218 172.076 67.7703 171.366 67.5529 170.476C66.4388 165.816 63.0947 162.614 60.0319 159.33C54.8584 153.743 49.4434 148.368 44.1099 142.928C43.6741 142.447 43.1985 142.002 42.6895 141.598C37.5725 137.5 32.6998 133.105 28.0972 128.436C25.5572 125.942 22.6517 123.849 19.4807 122.229C20.2376 123.509 20.939 124.804 21.7292 126.055C22.5185 127.304 23.2245 127.99 23.7751 129.046C26.0014 132.918 28.621 136.549 31.5912 139.884C34.1174 142.527 36.3289 145.454 38.1832 148.605C38.9309 149.857 39.8442 151.001 40.8972 152.01C44.6086 156.199 48.3479 160.34 52.0787 164.523C56.1603 169.361 60.5667 173.916 65.2673 178.154C69.4933 181.809 73.8219 185.332 78.1959 188.801C79.4386 189.797 81.3429 190.074 82.3219 191.207C83.2056 192.486 84.1929 193.69 85.2746 194.807C88.4549 197.448 91.4918 200.293 94.8748 202.653C99.4079 205.832 103.772 209.406 109.248 210.953C109.571 211.009 109.872 211.153 110.119 211.368C112.588 214.038 115.78 215.933 119.306 216.821ZM10.0378 196.946C14.904 198.691 19.7953 200.388 24.693 202.105C30.1885 203.823 35.82 205.072 41.5273 205.838C43.5094 206.173 45.471 206.717 47.4457 207.094C53.5222 208.552 59.5063 210.37 65.3654 212.539C69.8421 213.988 74.5002 214.802 79.2027 214.957C82.0258 215.046 84.8647 214.564 87.686 214.372C92.1386 214.109 96.607 214.33 101.012 215.032C104.625 215.541 108.205 216.283 111.697 216.928C112.143 217.001 112.598 217.031 113.579 217.13C113.151 216.682 112.696 216.259 112.218 215.864C111.81 215.577 111.259 215.495 110.939 215.163C107.715 211.885 103.291 211.512 99.2183 210.265C94.4158 208.805 89.6292 207.26 84.8416 205.714C81.7954 204.716 78.7752 203.67 75.2515 202.426C75.5791 202.962 75.9622 203.461 76.3943 203.917C77.5149 204.705 78.5744 205.576 79.5645 206.521C81.33 208.341 83.7006 209.454 86.2305 209.648C90.511 210.428 94.7258 210.985 98.974 211.653C99.2312 211.7 99.4727 211.974 100.049 212.354C99.5625 212.574 99.0462 212.724 98.5169 212.8C95.3032 212.479 92.0776 212.12 88.8519 211.762C87.4297 211.609 85.988 211.461 84.5381 211.356C80.6452 211.07 77.2484 208.938 73.4944 208.227C70.4158 207.541 67.3752 206.694 64.3855 205.69C63.8377 205.578 63.2825 205.51 62.7245 205.485C62.2591 205.417 61.6641 205.53 61.3662 205.272C59.374 203.582 56.8136 203.558 54.542 203.205C51.8317 202.737 49.1455 202.141 46.4352 201.674C45.0278 201.435 43.6139 201.38 42.1482 201.219C42.1482 199.618 42.225 199.393 43.8295 199.615C46.3788 199.947 48.9234 200.544 51.4597 201.042L56.858 201.902C56.6498 201.274 56.3537 200.678 55.9781 200.132C54.5521 198.315 52.4914 197.104 50.2096 196.744C46.2465 196.358 42.2935 196.009 38.3183 195.929C35.7709 195.88 33.1745 196.292 30.5928 196.334C28.7449 196.374 26.8961 196.283 25.0612 196.059C22.7313 195.785 20.4439 195.376 18.101 194.984C17.209 194.919 16.3142 194.916 15.4222 194.973C13.5697 195.013 11.72 195.065 9.87398 195.129C9.36134 195.184 8.85335 195.278 8.3546 195.409L8.28983 195.814C8.84039 196.238 9.4252 196.617 10.0378 196.946ZM62.385 128.772C62.3896 129.277 62.2295 129.77 62.4118 129.98C63.4454 131.3 64.5234 132.568 65.5644 133.846C66.0668 134.388 66.5498 135.423 67.4761 134.566C68.4023 133.709 67.7703 133.001 67.1578 132.429C65.7614 131.112 64.7177 129.268 62.385 128.772ZM145.747 185.393C142.181 183.645 138.807 181.529 135.681 179.08C134.315 177.938 132.969 176.728 131.556 175.701C127.743 172.979 124.153 169.957 120.819 166.666C115.08 161.373 110.082 155.328 105.962 148.697C105.501 147.947 105.197 147.112 105.065 146.242C105.08 145.56 105.221 144.888 105.481 144.257C106.139 144.43 106.922 144.405 107.418 144.787C110.861 147.352 114.367 149.858 117.583 152.692C119.113 154.135 120.817 155.382 122.656 156.403C125.914 157.988 128.585 160.413 132.212 161.383C132.432 161.442 132.614 161.652 132.813 161.777C135.562 163.631 138.257 165.582 141.105 167.287C145 169.598 149.034 171.688 152.998 173.958C154.909 175.023 156.852 176.059 158.646 177.28C160.92 178.973 163.377 180.406 165.97 181.553C167.843 182.329 169.665 183.22 171.428 184.22C174.409 185.825 177.368 187.497 180.333 189.187C182.175 190.195 183.965 191.297 185.692 192.492C188.509 194.509 191.203 196.664 193.975 198.735C193.975 198.735 194.255 198.653 194.572 198.561C194.42 198.113 194.226 197.681 193.994 197.27C191.352 193.276 188.673 189.294 186.039 185.398C182.998 180.57 178.6 176.745 173.395 174.405C169.841 172.846 166.415 170.965 162.812 169.379C159.209 167.794 155.105 166.576 151.37 164.887C147.637 163.197 143.578 160.953 139.708 158.939C137.776 157.94 135.9 156.784 133.907 155.925C129.198 153.883 124.674 151.436 120.388 148.612C119.119 147.709 117.93 146.699 116.834 145.593C115.419 144.282 114.158 142.805 112.737 141.476C109.136 138.086 105.503 134.725 101.875 131.383C100.798 130.399 99.6578 129.475 98.6445 128.432C96.2887 125.976 93.9772 123.467 91.6713 120.976C89.3654 118.486 87.1299 116.097 84.923 113.598C84.1624 112.725 83.275 111.767 83.758 110.431C85.9538 109.549 85.9668 109.525 87.5676 110.64C88.504 111.279 89.3682 112.02 90.1927 112.692C92.7355 114.466 95.1579 116.314 97.7035 118.026C99.754 119.472 101.901 120.778 104.13 121.93C109.159 124.378 114.323 126.523 119.347 128.952C125.247 131.815 131.073 134.841 136.907 137.825C139.715 139.257 142.537 140.665 145.245 142.309C149.477 144.874 153.632 147.542 157.709 150.315C160.793 152.416 163.693 154.653 166.682 156.984C168.082 158.036 169.449 159.178 170.823 160.278L171.249 159.931C170.712 158.993 170.126 158.09 169.64 157.117C166.729 151.295 162.977 145.934 158.503 141.207C157.845 140.488 157.227 139.734 156.649 138.949C153.776 135.205 150.978 131.439 148.091 127.719C145.385 124.272 142.615 120.882 139.827 117.498C138.827 116.29 138.123 114.711 136.216 114.496C135.898 114.446 135.62 113.98 135.336 113.699C134.107 112.191 132.739 110.766 131.254 109.353C130.199 108.221 129.027 107.203 127.756 106.318C122.815 103.195 117.232 101.225 111.425 100.554C108.558 100.172 105.716 99.459 102.864 98.9918C101.387 98.5615 99.8391 98.4264 98.3096 98.5948C95.6872 99.0547 93.0177 99.2842 90.3491 99.5136C87.178 99.4998 84.0291 100.039 81.044 101.108C80.7618 101.262 80.4491 101.352 80.1289 101.374C76.3147 101.431 72.4848 101.572 68.7021 101.458C63.1382 101.213 57.5576 100.769 51.9881 100.364C47.5549 100.034 43.1124 99.6034 38.6866 99.2296C37.7964 99.1648 36.9035 99.1611 36.0152 99.0343C32.1557 98.5161 28.3351 97.7842 24.4663 97.5122C22.2733 97.3595 19.9655 96.5322 17.7966 97.8527C17.4783 97.9452 16.9888 97.8647 16.5909 97.8185C14.5922 97.5686 12.5759 97.3253 10.5745 96.9958C9.86011 96.9736 9.16519 96.7553 8.56743 96.3639C7.84106 95.7217 6.90926 95.3608 5.93953 95.3451C5.40747 95.2572 4.94019 94.7649 4.42755 94.4679C4.70885 93.9192 5.06693 93.4121 5.48981 92.9633C5.92101 92.744 6.39015 92.608 6.87225 92.5608C9.99243 91.6521 13.0941 90.7499 16.2143 89.8413C17.7494 89.1205 19.3243 88.4866 20.9306 87.9416C24.0906 87.2643 27.3264 87.0033 30.5549 87.1671C37.69 87.4678 44.8307 86.7535 51.7651 85.0463C52.1574 84.9324 52.5497 84.8177 52.9097 84.5919C56.2723 83.4714 59.6062 82.1158 63.0447 81.2562C71.6752 79.3111 80.5953 79.0113 89.3377 80.3725L90.0678 80.4437C95.4725 81.0387 100.799 82.2055 105.956 83.9257C106.468 84.0802 106.969 84.1987 107.865 84.4235C107.639 83.9609 107.381 83.5149 107.091 83.0883C104.559 80.2383 102.04 77.3643 99.4635 74.567C96.8855 71.7707 93.7302 68.7976 91.205 65.6219C88.3078 61.83 86.0371 57.5985 84.4761 53.0894C84.1688 52.1697 83.7497 51.2911 83.2287 50.4733C80.8507 46.9702 78.505 43.4375 75.9622 40.0634C73.1872 36.2743 71.0043 32.085 69.4886 27.6394C69.224 26.7028 68.865 25.7955 68.4162 24.9316C65.6273 20.1727 62.4007 15.684 58.7781 11.5236C56.4018 8.79027 54.3902 5.70756 52.175 2.76486C52.0251 2.58461 51.914 2.37549 51.8483 2.15036C51.7826 1.92532 51.7632 1.68909 51.7928 1.45637C51.8215 1.22365 51.8983 0.999445 52.0177 0.79754C52.1371 0.595635 52.2971 0.420474 52.4868 0.282879C53.2696 -0.370582 53.9775 0.254099 54.6326 0.691868C56.003 1.56981 57.354 2.45322 58.7716 3.21605C62.1194 5.03847 65.6449 6.56598 68.8169 8.62186C72.5422 11.0438 75.9853 13.8922 79.5321 16.609C82.6254 18.8321 85.5189 21.3193 88.182 24.0425C90.7136 26.8917 92.9372 30.0016 94.8137 33.3197C98.7491 39.8757 102.854 46.3213 106.941 52.772C108.334 54.9817 109.91 57.0553 111.491 59.352C111.412 58.0371 111.329 56.8453 111.251 55.6729C111.231 51.1296 110.597 46.6101 109.367 42.2368C108.68 39.9775 108.209 37.6582 107.959 35.31C107.922 34.9289 107.968 34.5443 108.094 34.1825C108.219 33.8207 108.421 33.4902 108.686 33.2135C109.429 32.6325 110.196 33.321 110.758 33.9276C111.223 34.3904 111.637 34.9019 111.993 35.4532C114.208 39.5104 116.491 43.5273 118.583 47.7215C119.745 50.0386 120.409 52.6018 121.469 54.9882C123.061 58.5784 124.789 62.0076 126.551 65.4868C126.633 65.7672 126.84 65.9902 127.174 66.5824L127.616 65.1769C128.147 62.4722 128.962 59.8304 130.044 57.2959C130.29 56.7028 130.414 56.0671 130.413 55.4249C130.511 54.3025 130.396 53.1403 130.586 52.0511C131.145 47.6978 131.257 43.2986 130.919 38.9225C130.809 35.7119 130.762 32.4894 130.78 29.255C130.718 23.4048 129.798 17.5953 128.051 12.0118C127.507 10.1435 127.139 8.04159 125.254 6.92834C125.864 4.84572 126.369 4.35401 127.332 5.08705C129.972 6.98941 132.233 9.36998 133.996 12.1053C136.025 15.7176 137.422 19.6491 138.13 23.731C138.675 26.2796 139.768 28.6793 141.332 30.7638C143.88 34.0436 145.476 37.9613 145.946 42.0877C146.317 46.8438 146.688 51.5998 146.683 56.3845C146.747 60.2977 146.406 64.2071 146.258 68.3646C148.529 65.5146 150.644 63.0338 152.642 60.4263C156.495 55.3518 161.917 52.3954 167.385 49.5273C172.019 47.3554 176.418 44.7166 180.516 41.6519C183.114 39.5782 185.901 37.7334 188.639 35.8621C189.178 35.4825 190.307 35.1134 190.508 35.3182C191.028 35.9753 191.351 36.7676 191.437 37.6017C191.474 38.2499 191.364 38.8982 191.116 39.4984C190.515 41.2694 189.492 42.8677 188.136 44.1561C185.66 46.7211 183.085 49.2946 180.695 52.0168C176.59 56.8222 172.001 61.1934 167.003 65.0621C162.317 68.6042 158.298 72.9514 155.133 77.9C152.239 82.6848 149.873 87.7704 148.077 93.0669C146.952 95.5866 146.186 98.2515 145.802 100.985C145.725 102.182 145.273 103.347 145.097 104.554C144.983 105.259 145.021 105.981 145.207 106.67C147.499 113.847 152.239 119.479 157.18 125.661C157.193 124.522 157.216 123.908 157.184 123.309C156.979 119.68 156.732 116.044 156.563 112.404C156.372 108.406 156.257 104.386 156.123 100.514C156.083 99.6136 155.926 98.7271 155.973 97.8416C156.042 96.2001 156.746 95.8336 158.145 96.6017C158.603 96.8533 159.135 96.9413 159.6 97.2114C160.064 97.4816 160.808 97.8129 161.03 98.295C161.873 100.076 162.598 102.014 163.295 103.918C163.992 105.823 164.285 107.319 165.017 108.93C168.104 115.915 171.255 122.841 174.393 129.791C174.583 130.445 175.118 130.959 175.749 132.011L175.835 130.567C176.058 125.415 174.753 120.445 174.308 115.366C173.89 112.059 173.705 108.726 173.756 105.393C173.924 102.65 173.881 99.8976 173.63 97.1605C173.214 94.3411 173.363 91.4661 174.066 88.704C174.885 86.1557 175.661 83.5991 176.509 81.0822C177.889 76.9109 179.274 72.758 180.727 68.6265C181.938 64.8225 184.164 61.421 187.165 58.7875C187.804 58.2999 188.315 57.6642 188.653 56.936C189.021 56.1161 189.601 55.4092 190.332 54.8864C191.063 54.3645 191.919 54.0453 192.813 53.9611C194.402 53.4993 195.506 54.718 195.036 56.3752C194.65 57.604 194.132 58.7885 193.49 59.9053C192.327 61.656 191.521 63.6196 191.118 65.683C190.884 67.4532 190.649 69.2242 190.637 70.9907C190.49 72.7913 190.468 74.5985 190.57 76.4019C191.029 81.2534 191.663 86.0752 192.098 90.9137C192.534 95.7522 192.748 100.108 193.159 104.792C193.862 112.156 193.282 119.587 191.445 126.753C190.84 129.2 190.362 131.669 189.733 134.102C189.371 135.504 188.747 136.841 188.294 138.21C187.171 140.817 186.609 143.632 186.645 146.472C186.834 148.333 186.851 150.207 186.694 152.071C186.394 154.405 186.467 156.772 186.911 159.081C187.159 161.232 187.608 163.353 188.25 165.421C189.908 169.654 191.31 173.983 192.449 178.385C192.899 179.582 193.483 180.723 194.189 181.789C194.575 182.488 195.155 183.089 195.598 183.771C197.788 187.188 199.94 190.614 202.112 194.035C202.314 194.264 202.532 194.478 202.764 194.676C202.934 194.105 203.056 193.521 203.127 192.929C203.316 189.47 203.579 185.988 203.602 182.516C203.643 176.667 203.504 170.83 203.47 165.003C203.459 163.787 203.553 162.573 203.752 161.374C204.522 156.57 205.61 151.815 206.067 146.98C206.277 143.557 206.996 140.185 208.202 136.974C210.83 130.616 213.688 124.352 216.455 118.054C217.003 116.8 217.424 115.462 218.091 114.275C220.047 110.828 222.168 107.393 224.127 104.026C225.384 101.938 226.694 99.8949 228.01 97.8703C228.612 96.945 229.555 96.7719 229.949 97.5686C230.915 99.497 232.684 101.049 232.56 103.477C232.641 104.609 232.793 105.736 233.015 106.85C233.489 110.431 233.72 114.041 233.707 117.654C233.31 121.753 232.638 125.821 231.699 129.831C230.94 133.558 229.784 137.178 229.054 140.937C227.958 147.336 226.992 153.698 226.225 160.183C225.927 164.33 225.396 168.456 224.635 172.543C223.996 175.221 223.705 177.982 223.103 180.649C222.631 183.532 221.849 186.355 220.771 189.07C218.58 193.962 216.858 199.05 215.629 204.267C214.025 210.193 214.615 216.499 217.291 222.024C217.721 222.898 218.098 223.796 218.419 224.715C220.349 230.72 222.229 236.76 224.178 242.759C225.492 246.855 226.931 250.895 228.283 254.98C228.594 255.948 228.553 256.995 228.166 257.935C227.779 258.874 227.072 259.647 226.17 260.115C222.097 261.301 217.202 259.524 216.575 255.003C216.311 253.054 215.916 251.001 215.519 249.008C215.231 247.078 214.779 245.176 214.168 243.321C212.898 240.002 211.315 236.795 209.901 233.538C209.285 232.117 208.73 230.697 208.132 229.27C206.055 224.362 204.538 219.149 200.088 215.56C198.146 213.508 196.021 211.637 193.739 209.97C188.948 207.279 183.991 204.897 178.895 202.84C173.731 200.696 168.646 198.358 163.641 195.83C158.832 193.671 154.219 191.101 149.853 188.149C148.553 187.124 147.174 186.204 145.728 185.397L145.747 185.393ZM155.929 177.625L155.736 177.377C152.921 175.785 150.086 174.259 147.335 172.607C142.094 169.431 136.529 166.815 131.492 163.296C128.667 161.321 125.477 159.899 122.475 158.219L122.103 158.753C124.339 160.514 126.542 162.305 128.772 164.047C131.002 165.79 132.685 167.326 134.724 168.759C137.245 170.458 139.728 172.025 142.238 173.686C144.748 175.346 146.862 176.9 149.19 178.492C150.179 179.177 151.21 179.931 152.331 178.49C153.157 179.587 154.985 179.744 154.5 181.487C155.503 182.005 156.297 183.132 157.921 182.659C157.153 181.829 156.519 181.041 155.852 180.424C155.647 180.251 155.479 180.036 155.36 179.794C155.242 179.553 155.174 179.289 155.162 179.02C155.151 178.751 155.195 178.482 155.293 178.232C155.39 177.981 155.539 177.752 155.728 177.562L155.927 177.687C157.114 179.186 158.294 180.666 159.494 182.141C159.532 182.271 159.924 182.157 160.151 182.172L160.3 182.332C160.784 183.164 161.291 184.069 161.742 184.85L162.237 184.464C161.587 183.76 160.949 183.034 160.3 182.332C160.3 182.332 160.245 182.145 160.223 182.07C159.796 179.559 157.748 178.717 155.911 177.63L155.929 177.625ZM164.616 182.96C164.122 182.374 163.201 182.135 162.483 181.757L162.095 182.234L167.019 187.733L167.664 187.302C166.644 185.815 165.716 184.302 164.598 182.965L164.616 182.96ZM167.776 184.067C168.889 186.734 170.705 189.049 173.029 190.766C172.575 190.108 172.133 189.426 171.64 188.779C171.148 188.132 170.519 187.363 171.348 186.311L167.776 184.067ZM127.827 135.178C121.098 132.394 114.664 128.877 107.993 126.015C103.998 124.258 100.145 122.195 96.4691 119.844C95.0025 118.913 93.6414 117.789 92.1109 116.917C93.7219 119.398 95.9241 121.438 98.5206 122.854C100.933 124.179 103.551 125.443 106.038 126.746C107.474 127.504 108.879 128.29 110.27 129.102C116.184 132.568 122.089 136.078 127.985 139.55C128.36 139.723 128.748 139.867 129.144 139.983C128.889 139.105 128.726 138.545 128.437 137.554C131.753 138.919 132.803 142.525 136.287 143.984C133.917 140.155 131.949 136.876 127.827 135.178ZM144.125 143.547C143.191 143.08 142.222 142.684 141.228 142.363C141.228 142.363 141.189 142.233 141.168 142.158C139.569 140.91 137.743 139.982 135.792 139.426C137.471 143.115 140.348 146.128 143.955 147.975C143.04 146.639 142.181 145.43 141.335 144.196C140.899 143.533 140.359 142.86 141.184 142.214L141.323 142.275C143.443 144.962 145.538 147.635 147.714 150.305C148.457 151.284 149.496 151.998 150.678 152.34C150.276 151.031 149.54 149.848 148.543 148.908C148.006 148.315 147.107 147.665 147.126 147.031C146.96 144.931 145.487 144.326 144.125 143.547ZM149.366 154.587C146.099 152.761 143.097 150.595 139.991 148.56C138.494 147.598 137.297 145.919 135.075 146.85C134.795 146.932 134.07 146.392 133.785 145.969C132.915 144.677 131.73 143.627 130.343 142.918C126.33 140.62 122.317 138.322 118.376 135.923C114.435 133.523 110.576 130.917 106.442 128.554C104.456 127.369 102.278 126.502 99.8669 125.32C100.153 125.885 100.122 126.198 100.366 126.269C105.237 129.492 108.841 134.077 113.025 138.007C117.177 142.231 121.828 145.934 126.874 149.034C128.949 150.173 131.231 151.049 133.302 152.109C138.369 154.687 143.362 157.287 148.486 159.849C151.602 161.293 154.842 162.539 158.081 163.987C162.217 165.804 166.326 167.667 170.624 169.274C167.487 166.783 164.196 164.457 161.254 161.868C157.735 158.555 153.436 156.807 149.44 154.566L149.366 154.587ZM177.027 168.221C174.843 166.08 172.331 164.278 169.956 162.314C165.836 158.795 161.533 155.495 157.066 152.426C154.562 150.785 152.068 149.179 149.569 147.556L149.372 147.856C151.006 150.056 152.677 152.245 154.294 154.53C154.56 154.826 154.89 155.056 155.26 155.202C159.004 156.646 161.734 159.479 164.787 161.893C168.223 165.079 171.865 168.034 175.691 170.737C177.843 172.138 179.75 173.61 181.771 175.19C184.769 177.445 187.031 180.539 188.27 184.081C188.539 184.69 188.865 185.274 189.244 185.824C191.966 190.442 194.708 195.056 197.331 199.683C199.001 202.62 201.055 205.32 203.438 207.714C203.445 207.251 203.399 206.789 203.301 206.336C201.875 202.901 200.449 199.465 198.949 196.05C198.4 194.792 197.619 193.641 196.958 192.415C195.418 189.559 193.933 186.688 192.43 183.821C191.751 182.601 191.385 181.066 189.534 180.834C189.074 180.786 188.636 180.184 188.252 179.769C184.509 175.893 180.905 171.936 177.101 168.199L177.027 168.221ZM87.6952 87.1939C86.1426 85.619 84.5334 84.0608 82.9437 82.497C82.0841 81.6328 81.1088 81.8354 79.905 82.0843C82.6217 84.455 85.2728 86.6017 87.9571 88.8604L88.3781 88.4949C88.206 88.0341 87.9765 87.5974 87.6952 87.1939ZM105.711 87.2596C103.842 86.5471 101.88 86.1455 100.029 85.6311L99.3117 85.049L95.1848 84.4467L95.0238 84.3106L94.9118 84.3439C91.5353 83.1614 88.0006 82.4961 84.4261 82.3693C85.232 83.1891 85.703 83.761 86.2638 84.2264C88.702 85.8319 90.9894 87.6557 93.0991 89.6747C93.2629 89.8903 93.8024 89.7941 94.4334 89.8736C93.3471 87.3929 90.5073 86.7599 89.7578 84.3236C93.2768 85.6912 95.6308 88.6939 98.7084 90.6361L99.1054 90.2567C98.3179 89.4323 97.5897 88.6717 96.781 87.7722C95.9713 86.8719 95.2847 86.3223 94.5889 85.532C93.8921 84.7418 94.4158 84.5891 94.86 84.2366L95.0099 84.1931C96.2526 85.3313 97.5147 86.4639 98.7713 87.5779C100.028 88.6911 101.274 89.9097 102.538 90.9803C102.807 91.2061 103.205 91.2524 103.849 91.0247C102.715 89.9153 101.651 88.766 100.478 87.7297C100.035 87.4475 99.6865 87.0431 99.4718 86.5656C99.2571 86.0882 99.1868 85.558 99.2691 85.0407C99.3293 85.2461 99.5412 85.4886 99.7179 85.5385L100.029 85.6311C101.505 86.8025 102.975 87.9545 104.424 89.175C105.356 89.9375 106.183 90.8314 107.152 91.5827C107.581 91.7872 108.039 91.9279 108.509 91.9982L108.748 91.5642C108.051 90.774 107.326 89.9514 106.646 89.2167C106.704 89.0825 106.775 88.953 106.858 88.8308C107.339 88.9011 107.809 89.0372 108.252 89.2361C109.309 89.9421 110.291 90.6694 111.354 91.5355C112.052 92.0019 112.843 92.3119 113.672 92.4451C114.501 92.5774 115.349 92.5303 116.158 92.3054C115.811 91.8797 115.689 91.53 115.44 91.4402C112.287 90.0069 108.992 88.5745 105.722 87.2976L105.711 87.2596ZM89.4265 28.3212C85.2394 23.3658 80.3214 19.0773 74.8416 15.6032C72.2877 13.7929 69.6913 11.8331 67.1642 10.1162C64.033 8.12968 60.7601 6.4271 57.4558 4.61254L56.9931 5.11194C57.9305 6.64029 58.9659 8.10581 60.0939 9.49897C65.3701 15.3522 69.9633 21.787 73.784 28.6793C74.4178 29.8122 74.7556 31.1122 75.4505 32.2475C77.0624 34.859 78.6891 37.385 80.5434 39.9258C83.771 44.3102 86.5506 49.0075 88.8399 53.9472C89.9799 56.0819 91.2559 58.1407 92.6614 60.1107C93.0186 60.6502 93.4128 61.1656 93.8394 61.6523C95.6336 63.8463 97.4962 65.9995 99.2284 68.1906C100.961 70.3818 102.857 72.647 104.434 75.0056C106.346 77.938 108.683 80.5705 111.37 82.8162C113.119 84.232 114.605 85.9272 116.252 87.4752C116.709 87.8583 117.196 88.2053 117.708 88.5097C117.766 87.9092 117.697 87.3031 117.506 86.7303C117.315 86.1576 117.006 85.6311 116.599 85.1851C113.199 79.7701 109.623 74.4476 106.393 68.9226C104.077 64.9354 102.353 60.6132 100.12 56.5612C98.8361 54.2396 97.0993 52.1715 95.5882 49.9764C94.2872 48.2319 93.0825 46.4176 91.9795 44.5415C89.4312 39.991 86.397 35.7301 82.9308 31.8335C80.9765 29.6461 79.0463 27.4717 77.018 25.4477C74.9897 23.4236 73.3297 21.7585 71.5725 19.8988C70.8257 19.1434 70.1132 18.2969 69.4146 17.5679C67.9174 15.977 66.4147 14.2256 64.8537 12.5521C64.4318 12.0142 64.0441 11.4501 63.6934 10.8631C64.2597 10.7324 64.8509 10.7702 65.396 10.9717C65.941 11.1732 66.4147 11.5298 66.7599 11.9973C69.7153 15.1902 72.6718 18.3832 75.6281 21.5761C78.9686 25.3257 82.1368 29.2473 85.4967 32.9916C91.452 39.5269 95.7298 47.2601 100.884 54.3127C102.272 56.5066 103.466 58.8171 104.455 61.2174C105.92 64.0952 107.317 67.0118 108.876 69.8618C110.699 73.2022 112.685 76.4741 114.616 79.7636C114.827 80.0699 115.061 80.3614 115.314 80.6343L115.626 80.3808C114.877 78.6986 114.244 76.9664 113.732 75.1972C113.294 73.2271 113.03 71.222 112.941 69.2057C112.797 67.183 112.225 65.2148 111.26 63.4317C106.112 54.0249 100.49 44.8863 94.4131 36.0508C92.9436 33.4385 91.4224 30.7196 89.4265 28.3212ZM127.357 94.2948C127.161 93.6221 125.545 93.2215 124.519 92.831C123.314 92.3951 122.084 92.0296 120.836 91.7345C119.861 91.5309 118.876 91.3773 117.886 91.2755C118.49 92.409 119.325 93.4028 120.338 94.194C121.349 94.9851 122.516 95.5551 123.761 95.8679L124.628 94.8056C126.165 94.8648 126.877 96.0557 127.862 96.8635C128.847 97.6713 129.325 98.8289 131.129 98.6892C130.688 98.1488 130.385 97.8721 130.164 97.5316C129.364 96.3861 127.86 95.9521 127.462 94.305L127.357 94.2948ZM120.09 56.0995C118.489 52.4102 117.12 48.6135 115.645 44.8679C114.542 41.6501 112.747 38.7135 110.385 36.2657C110.344 36.7166 110.347 37.1705 110.394 37.6208C111.045 40.5525 111.746 43.4492 112.397 46.3809C112.705 47.5501 112.917 48.7425 113.03 49.9462C113.53 57.0498 114.723 64.0878 116.592 70.9592C116.73 71.2553 116.822 71.5699 116.864 71.8938C116.644 76.4982 118.545 80.5242 120.104 84.6919C120.528 86.128 121.235 87.466 122.181 88.6272C122.717 89.0723 123.309 89.4452 123.943 89.7358L124.24 89.3657C124.017 88.5995 123.687 87.8842 123.358 87.1699C122.039 83.686 121.35 79.9959 121.32 76.2714C121.169 74.2885 120.456 72.3277 120.177 70.3216C119.533 66.0818 118.591 61.8929 117.358 57.7863C117.32 57.6549 117.437 57.4995 117.582 57.0923C117.87 57.4301 118.136 57.7863 118.379 58.1574C120.886 62.4546 121.098 67.4994 122.431 72.077C123.116 74.8215 123.531 77.6261 123.672 80.4511C123.65 82.1482 124.135 83.8137 125.064 85.2341C125 83.0642 124.856 80.8971 124.933 78.7263C124.954 77.0469 125.147 75.3748 125.508 73.7351C126.17 71.3728 125.981 68.8522 124.975 66.6148C123.466 63.1014 121.634 59.6629 120.09 56.0995ZM132.029 60.2847C130.93 65.4887 129.879 70.7205 128.723 75.9411C127.353 80.7667 127.556 85.904 129.303 90.6074L132.653 92.2267C132.469 89.9199 132.404 87.6048 132.458 85.2906C132.649 82.398 133.149 79.5165 133.543 76.6249C133.94 73.3484 134.397 70.0672 134.913 66.7814C135.031 66.0642 135 65.3305 134.824 64.6263C134.646 63.9212 134.326 63.2605 133.883 62.6841C133.347 61.817 132.88 60.9093 132.485 59.9701C132.26 60.0349 132.037 60.1006 132.029 60.2847ZM132.538 55.0696C132.415 56.0384 132.32 56.7546 132.302 57.0433L135.802 62.1048C136.68 60.107 135.176 59.3279 134.677 58.2379C134.309 56.9684 133.523 55.8617 132.445 55.0974L132.538 55.0696ZM133.016 49.6816C132.814 50.7944 132.57 51.8381 132.395 53.0441C135.262 53.4262 134.848 56.6676 137.109 57.7521C136.221 54.9623 135.062 52.2651 133.65 49.6998L133.016 49.6816ZM142.717 59.8896C143.09 56.0162 142.875 52.1091 142.079 48.3001C141.609 46.2683 141.593 44.1247 141.292 42.044C141.07 40.0301 140.732 38.0308 140.278 36.0561C139.906 34.5784 139.311 33.1662 138.512 31.8683C135.701 27.1181 133.759 21.9051 132.775 16.4737C132.476 14.6629 131.654 12.9789 130.412 11.6286L129.972 11.858C130.076 12.6522 130.256 13.4345 130.51 14.1941C132.42 18.8062 132.408 23.7754 132.671 28.5828C132.936 33.3901 133.055 38.6045 133.195 43.6103C133.234 44.9974 133.126 46.3665 133.087 47.6952C135.499 49.0197 135.907 51.5356 137.511 53.5622C137.98 52.7359 138.204 52.1844 137.689 51.3209C136.641 49.5994 135.779 47.8235 134.843 46.0693C134.706 45.6772 134.59 45.278 134.495 44.8735C134.869 44.7648 135.205 44.6669 135.321 44.8561C137.759 47.5918 140.111 50.312 139.453 54.4552C139.05 57.3403 138.392 60.1838 137.488 62.9524C136.753 65.4119 136.246 67.9343 135.972 70.4864C135.349 75.3091 134.731 80.1504 134.33 84.9685C134.239 86.5638 134.231 88.1627 134.305 89.7589L134.772 89.968C135.123 89.6423 135.693 89.3749 135.802 88.9789C136.221 87.4077 136.555 85.8152 136.804 84.2079C137.425 81.1173 138.406 78.111 139.73 75.2499C140.504 73.2003 141.074 71.0795 141.433 68.917C142.048 65.9615 142.483 62.9718 142.739 59.9645L142.717 59.8896ZM158.903 61.2581C160.022 59.8785 158.949 58.6302 158.983 56.9387C157.4 58.3924 157.434 58.7875 158.913 61.2961L158.903 61.2581ZM141.873 101.622C141.854 99.6922 141.733 97.7657 141.51 95.8503C141.749 95.9021 142.251 95.9585 143.053 96.0696C144.135 93.7276 145.25 91.1534 146.297 88.6198C147.475 85.7032 148.483 82.6941 149.813 79.8136C151.824 75.9097 154.546 72.4166 157.84 69.512C163.014 64.3783 168.329 59.3862 173.691 54.3395C174.579 53.4929 175.602 52.8303 176.556 52.0667C181 48.2845 184.982 43.9894 188.416 39.2712C188.574 39.0691 188.684 38.8337 188.736 38.5829C188.79 38.3321 188.786 38.0725 188.724 37.8236C187.308 38.9452 185.837 40.0218 184.411 41.106C179.005 45.2889 173.169 48.8832 167.001 51.828L165.694 52.4917C163.436 53.7168 163.535 53.7085 164.018 56.2022C164.218 57.2385 164.931 58.5719 163.169 59.6925C162.713 58.1231 162.31 56.7398 161.923 55.4138C160.883 55.25 160.292 55.7266 160.665 56.4492C162.146 59.3816 160.494 61.3627 158.619 63.3475C155.713 66.4908 153.109 69.9025 150.844 73.5353C150.634 73.7823 150.438 74.0424 150.259 74.3135C147.073 80.7731 143.3 86.9589 141.119 93.8766C140.736 95.1276 140.429 96.4018 140.202 97.6898C140.04 98.5272 139.683 98.8335 138.742 98.3172C139.148 93.6008 140.585 89.0307 142.953 84.9315C144.453 82.1445 145.812 79.2963 147.437 76.5935C149.335 73.5075 151.47 70.5354 153.513 67.529C154.105 66.6518 154.764 65.8227 155.487 65.0492C156.176 64.4107 156.612 63.5446 156.712 62.61C156.813 61.6754 156.572 60.7363 156.034 59.9655C154.541 61.3294 153.121 62.772 151.778 64.2849C149.966 66.5547 148.316 68.9605 146.69 71.3802C146.063 72.312 145.552 73.3188 145.17 74.3755C144.711 75.5839 143.66 76.153 142.93 77.0543C141.709 78.668 140.725 80.4493 140.011 82.3425C138.686 85.7282 137.532 89.1445 136.448 92.6616C136.307 93.5388 136.287 94.4318 136.388 95.3136C137.346 95.8864 138.511 96.3379 138.016 97.8397C137.521 99.3415 136.946 99.3878 135.765 98.8798C135.206 98.5633 134.677 98.1951 134.188 97.7787C132.917 96.7997 131.518 96.0002 130.03 95.4015C130.899 96.0502 131.647 96.8487 132.236 97.7592C133.077 99.6376 134.525 101.18 136.348 102.135C137.093 102.608 137.617 103.225 136.518 104.112C134.751 103.127 132.969 102.085 131.133 101.14C129.097 100.036 127.007 99.0343 124.869 98.1405C121.659 96.808 118.38 95.6523 115.045 94.6761C112.227 93.9737 109.367 93.4519 106.483 93.1151C101.698 92.4812 96.8568 91.864 92.0637 91.1312C88.813 90.6176 85.6049 89.8292 82.3275 89.2222C80.8044 88.9363 79.2702 88.8151 77.7666 88.5236C74.1171 87.8222 71.1514 89.6793 68.0683 91.0627C66.7395 91.6521 65.5227 92.5534 63.9673 91.5272L62.5885 93.7526C62.1731 93.6499 61.7909 93.6601 61.5762 93.4796C61.0941 92.9753 60.4677 92.632 59.782 92.4979C59.0973 92.3637 58.3876 92.4442 57.75 92.7283C57.6103 92.8004 57.4586 92.8449 57.3022 92.8587C51.1534 92.6219 45.0028 93.7026 38.8346 92.843C35.6432 92.3942 32.3842 92.2684 29.1826 91.9232C28.1176 91.7539 27.0655 91.5124 26.0338 91.1987C25.9903 91.0497 25.9412 90.8813 26.0412 90.6694C26.4335 90.5556 26.8083 90.1013 27.1775 90.1161C32.2575 90.4409 37.3301 90.1809 42.4036 91.3181C43.6084 91.5013 44.8335 91.5133 46.041 91.3532C49.2029 91.1219 52.3554 90.8804 55.4978 90.6278C55.954 90.5963 56.3759 90.3724 57.1477 90.3095L54.0414 87.5048C54.1339 87.3364 54.2024 87.1541 54.2903 86.9663C54.7714 86.9607 55.2517 87.0329 55.7106 87.181C57.0024 87.8592 58.1822 88.7115 59.4924 89.3842C60.2771 89.7127 61.0867 89.9782 61.913 90.179C61.282 88.0119 58.6236 88.2784 58.4227 85.9864C58.9317 85.9466 59.4434 86.004 59.931 86.1557C61.3486 86.9182 62.719 87.7963 64.1292 88.6013C65.1045 89.1686 66.1075 89.8292 67.3956 88.5431L64.1199 86.1317C64.6141 85.1166 65.2405 85.3192 65.8383 85.632C66.9264 86.1603 67.9637 86.7877 68.9381 87.5058C69.6247 88.0563 70.2002 88.2941 70.9016 87.8463C73.6989 86.0391 76.6266 86.6258 79.6292 87.3327C80.9663 87.6122 82.2784 87.9397 83.5914 88.2062L83.795 87.7214L77.6333 81.5902C75.5884 81.5226 73.5415 81.5837 71.5049 81.7734C66.3139 82.3119 61.2246 83.5759 56.3833 85.5265C53.3316 86.8229 50.168 87.8389 46.9312 88.5615C46.7868 88.6226 46.637 88.6661 46.4824 88.692C41.2044 88.8706 35.9458 89.1852 30.7094 89.2296C26.6574 89.2333 22.8285 89.0307 19.0097 90.811C16.7639 91.8705 14.3544 92.5719 11.9893 93.8479C12.624 94.0172 13.2736 94.1264 13.9287 94.1745C18.7043 94.3226 23.4641 94.8065 28.1722 95.6227C32.3879 96.1788 36.7249 96.4573 41.0082 96.8311C41.4931 96.8931 41.9872 96.8506 42.4628 96.9551C46.5407 97.8268 50.7296 98.0507 54.8769 97.6177C57.8703 97.7083 60.8563 97.9693 63.8192 98.3996C69.15 98.6115 74.5002 98.8169 79.8208 98.6466C82.2266 98.3098 84.6065 97.8074 86.942 97.1411C88.8704 96.8025 90.8802 96.7451 92.7216 96.5942L99.2164 96.0002C104.73 95.6819 110.262 96.1751 115.633 97.4641C119.278 98.2237 122.82 99.4109 126.188 100.999C128.196 101.814 130.044 102.977 131.647 104.436C132.406 105.134 132.969 106.018 133.285 106.999C133.488 107.856 133.94 108.635 134.584 109.236C139.431 113.694 143.815 118.632 147.669 123.971C149.485 126.238 151.461 128.373 153.581 130.357C154.34 131.199 155.04 132.092 155.677 133.031C158.134 136.768 160.983 140.232 164.178 143.365C163.94 140.192 162.568 137.209 160.313 134.964C159.676 134.517 159.081 134.011 158.536 133.454C158.025 132.813 157.709 132.074 156.625 132.389C155.84 132.618 155.328 132.179 154.997 131.323C154.513 130.213 153.931 129.148 153.26 128.14C151.519 125.222 149.759 122.309 148.036 119.385C147.911 118.956 147.877 118.418 147.634 118.002C147.294 116.665 146.549 115.466 145.5 114.57C144.873 113.95 144.433 113.164 144.232 112.304C143.978 111.158 143.661 110.025 143.286 108.912C142.211 106.652 141.729 104.156 141.884 101.659L141.873 101.622ZM175.967 108.114C176.396 113.279 176.942 118.429 177.465 123.567C177.601 124.034 177.737 124.501 177.681 125.004L178.581 140.003C178.583 140.243 178.639 140.48 178.748 140.695C178.856 140.91 179.012 141.096 179.205 141.24C179.454 137.986 179.659 134.724 179.921 131.446C180.075 129.678 180.273 127.918 180.531 126.161C180.904 123.681 181.338 121.203 181.753 118.732C181.839 118.257 181.814 117.767 181.679 117.304C181.544 116.84 181.303 116.415 180.975 116.06C180.16 115 179.497 113.835 178.629 112.527C180.498 111.983 180.832 114.176 182.535 114.106C182.53 113.256 182.851 112.271 182.506 111.642C180.696 108.419 178.736 105.302 176.582 101.733C175.945 103.796 175.736 105.967 175.967 108.114ZM176.277 95.2553L175.675 95.5523C176.379 100.13 179.914 103.155 182.257 107.235C182.669 106.808 182.911 106.243 182.936 105.65C182.962 105.057 182.768 104.475 182.393 104.013C180.334 101.114 178.293 98.1886 176.271 95.2368L176.277 95.2553ZM185.958 166.736C185.756 165.87 185.507 165.015 185.212 164.177C184.362 161.302 183.873 158.333 183.755 155.339C183.451 152.298 183.456 149.235 183.768 146.194C184.213 143.127 184.764 140.007 185.369 137.074C186.678 131.404 188.267 125.794 189.528 120.096C190.948 113.759 191.2 107.216 190.271 100.789C189.782 97.5057 189.805 94.1755 189.42 90.9026C189.031 86.7803 188.511 82.6959 188.103 78.5792C187.331 72.1843 187.879 65.7006 189.711 59.5259C189.778 59.0975 189.801 58.6626 189.779 58.2296C187.287 60.1996 185.287 62.7248 183.941 65.6034C182.386 69.5222 181.11 73.5612 179.846 77.5771C178.583 81.593 177.491 85.4987 176.353 89.4573C176.087 90.3095 175.901 91.1848 175.797 92.0713C175.759 92.546 175.896 93.0179 176.183 93.3982C178.452 96.0409 180.817 98.5957 183.121 101.289C183.35 100.933 183.458 100.512 183.426 100.089C183.395 99.6672 183.226 99.2666 182.946 98.9483C181.918 97.5048 180.948 95.9835 180.021 94.4697C179.738 93.7841 179.53 93.0697 179.401 92.3396C181.645 93.0854 181.835 95.3404 183.821 95.8966L184.432 89.6395C185.826 90.1855 185.611 91.3227 185.565 92.0047C185.524 94.3679 185.335 96.7127 185.165 99.0519C184.955 101.951 184.523 104.854 184.535 107.748C184.486 112.208 184.002 116.652 183.087 121.018C181.972 127.423 181.661 133.736 181.132 140.132C180.943 142.619 181.272 145.137 181.298 147.664C181.34 149.273 181.302 150.885 181.37 152.507C181.391 153.309 181.5 154.106 181.697 154.884C182.321 156.612 182.836 158.378 183.235 160.171C183.69 163.381 184.781 166.468 186.445 169.249C186.262 168.41 186.135 167.556 185.952 166.718L185.958 166.736ZM175.049 153.212C174.202 151.209 173.193 149.273 172.341 147.251C171.027 144.127 169.787 140.982 168.49 137.853C168.215 137.188 167.892 136.544 167.524 135.925C165.529 132.192 164.364 128.072 164.11 123.847C164.419 124.102 164.681 124.41 164.882 124.757C165.77 127.113 166.578 129.472 167.411 131.844C167.66 132.704 167.911 133.563 168.286 134.366C170.815 139.71 173.461 145.182 175.955 150.617C176.615 152.046 177.149 153.533 177.739 155.002C178.054 156.086 178.369 157.169 178.811 158.197L179.445 158.011C179.376 157.431 179.191 156.871 178.9 156.363C178.61 155.856 178.22 155.412 177.755 155.059L177.717 154.927C177.812 154.697 178.038 154.429 177.97 154.266C175.768 148.442 173.459 142.669 171.351 136.818C170.091 133.394 169.205 129.862 168.039 126.412C166.965 123.28 165.722 120.195 164.55 117.072C163.875 115.241 163.223 113.628 162.613 111.88C161.585 108.976 160.646 106.027 159.624 103.143C159.385 102.563 158.959 102.081 158.414 101.772C158.47 103.985 158.484 106.191 158.583 108.412C158.834 113.729 159.085 119.047 159.44 124.375C159.528 128.052 160.687 131.624 162.776 134.653C164.867 137.449 165.576 140.789 166.909 143.907C167.132 144.673 167.523 145.39 167.896 146.113C169.451 149.227 170.987 152.347 172.63 155.415C173.658 157.345 174.862 159.184 176.059 161.207C174.722 162.67 175.689 163.909 176.81 165.041C179.053 167.246 181.365 169.41 183.925 171.868C183.521 169.381 182.471 167.044 180.879 165.094C179.521 163.376 178.388 161.492 177.504 159.489C176.534 157.481 175.912 155.271 175.044 153.192L175.049 153.212ZM210.888 136.456C210.763 137.028 210.742 137.617 210.827 138.197C211.841 140.757 213.392 143.069 215.375 144.979C214.918 141.668 212.424 139.435 211.476 136.387L210.888 136.456ZM212.333 135.225C213.64 137.277 214.978 139.299 216.317 141.321C216.387 141.564 216.829 141.618 217.244 141.862C217.33 141.391 217.529 141.029 217.432 140.834C215.985 137.951 214.53 135.113 212.937 132.009C211.978 133.099 211.59 134.063 212.317 135.169L212.333 135.225ZM217.104 184.827C218.58 179.453 219.325 173.866 220.417 168.359C220.536 167.154 220.736 165.958 221.017 164.779C222.801 159.559 222.544 154.08 223.127 148.702C223.716 144.059 224.738 139.479 226.178 135.026C227.265 131.101 228.503 127.275 229.585 123.333C229.91 121.945 230.108 120.53 230.178 119.106C230.401 116.043 230.415 112.958 230.742 109.903C230.769 106.614 230.189 103.347 229.032 100.268C221.588 109.508 217.971 120.127 213.415 130.168L218.571 138.273C218.431 136.543 217.856 134.878 216.898 133.43C216.27 131.971 215.624 130.517 214.927 128.957C215.847 128.426 216.271 128.769 216.678 129.542C217.438 131.103 218.339 132.591 219.37 133.987C219.429 132.298 218.903 130.64 217.882 129.292C217.355 128.595 216.986 127.952 218.024 127.063C218.888 128.291 219.663 129.423 220.783 131.042C221.811 128.027 222.574 125.637 223.473 123.085C224.492 123.316 224.623 124.25 224.371 125.195C223.969 126.67 223.367 128.081 222.879 129.54C222.203 131.602 221.555 133.696 220.879 135.758C220.202 137.819 219.629 139.748 218.828 141.664C218.028 143.579 216.674 145.959 215.757 148.172C215.297 149.291 215.026 150.479 214.957 151.688C214.589 156.132 214.325 160.587 214.055 165.023C213.733 168.165 213.891 171.337 214.524 174.432C214.895 176.815 214.826 179.246 214.322 181.604C213.709 185.836 212.924 190.239 212.13 194.545C211.642 196.192 211.457 197.915 211.583 199.629C213.599 194.441 215.763 189.758 217.088 184.772L217.104 184.827ZM220.542 256.586C220.948 257.176 221.548 257.605 222.237 257.801C222.927 257.996 223.663 257.944 224.318 257.655C224.558 257.503 224.762 257.3 224.915 257.06C225.068 256.822 225.167 256.552 225.205 256.27C225.243 255.989 225.218 255.703 225.134 255.432C225.049 255.161 224.907 254.912 224.716 254.702C224.308 254.19 223.726 253.85 223.081 253.745C222.436 253.64 221.775 253.779 221.227 254.136C220.209 254.817 219.952 255.744 220.525 256.529L220.542 256.586ZM212.429 232.336C214.091 236.027 215.834 239.715 217.259 243.496C218.291 246.276 218.917 249.194 219.675 252.216L223.526 251.522C223.451 250.947 223.327 250.38 223.154 249.825C222.25 247.556 221.24 245.337 220.336 243.067C218.257 237.875 216.179 232.684 214.193 227.465C213.728 226.283 213.75 224.899 213.311 223.668C212.495 221.352 211.492 219.091 210.615 216.772C210.307 216.043 210.128 215.265 210.088 214.474C210.069 212.878 210.243 211.247 210.286 209.654C210.504 207.721 210.348 205.764 209.824 203.89C209.494 202.638 209.39 201.337 209.516 200.048C209.548 198.179 209.682 196.313 209.916 194.459C210.236 192.076 210.727 189.724 211.169 187.346L212.522 180.365L208.608 174.715C210.443 174.059 210.67 176.02 211.775 176.408C212.396 174.362 212.465 174.18 210.474 171.517C209.435 170.178 208.899 168.267 206.792 167.643L207.163 165.854C209.722 166.081 209.603 169.014 211.65 169.918C211.822 169.528 211.893 169.1 211.854 168.675C211.816 168.25 211.669 167.842 211.429 167.49C210.301 165.913 209.096 164.419 208.043 162.82C207.718 162.4 207.515 161.898 207.459 161.369C207.455 160.565 207.513 159.763 207.631 158.968C208.969 160.848 210.307 162.729 211.626 164.615L212.231 164.256C213.062 160.914 210.058 159.296 208.61 156.9C208.743 156.172 209.266 156.02 209.816 156.448C210.874 157.294 211.846 158.269 213.165 159.526C213.382 156.443 213.478 153.638 213.757 150.7C211.795 149.253 210.415 147.154 209.865 144.779C211.549 143.601 211.485 145.889 212.595 146.012C212.223 144.074 211.374 142.26 210.126 140.731C208.8 141.888 208.998 143.471 208.892 144.779C208.643 148.891 208.064 152.978 207.159 156.998C207.113 157.547 207.131 158.099 207.213 158.644C206.119 160.432 205.587 162.508 205.684 164.602C205.632 166.452 205.684 168.305 205.84 170.15L206.081 176.829C205.741 182.622 205.396 188.398 205.376 194.179C205.555 196.361 205.971 198.516 206.619 200.608C207.679 204.675 208.289 208.848 208.437 213.049C208.443 213.838 208.03 214.647 208.13 215.408C208.459 217.583 207.846 220.071 208.681 221.896C210.202 225.242 210.905 228.909 212.413 232.28L212.429 232.336ZM191.198 203.191C194.526 205.505 197.738 207.975 200.998 210.472C201.752 211.042 202.44 211.735 203.53 212.694C203.449 212.159 203.297 211.637 203.079 211.143C201.226 207.998 198.741 205.27 195.782 203.134C194.048 201.883 192.403 200.512 190.859 199.034C185.288 194.712 179.44 190.762 173.351 187.207C173.075 187.042 172.789 186.895 172.494 186.768L172.071 187.053C172.279 187.521 172.525 187.971 172.807 188.399C174.393 190.227 175.904 192.078 177.629 193.825C178.177 194.396 178.792 194.897 179.462 195.318C183.388 197.945 187.324 200.468 191.181 203.135L191.198 203.191ZM179.015 199.076C180.719 199.705 182.465 200.213 184.24 200.596L184.452 200.067C183.768 199.74 183.131 199.358 182.44 199.073C181.748 198.788 181.228 198.878 180.846 198.543C175.315 193.465 168.383 190.538 161.958 186.916C158.859 185.183 155.535 183.86 152.472 182.178C149.409 180.496 146.441 178.725 143.441 176.984C142.122 176.212 140.766 175.452 139.505 174.603C138.942 174.129 138.429 173.599 137.972 173.023C137.532 172.417 136.994 171.888 136.381 171.459C134.231 170.228 132.295 168.655 130.649 166.804C129.054 165.574 127.375 164.458 125.623 163.464C124.27 162.57 122.995 161.566 121.81 160.46C121.252 159.738 120.933 158.86 120.897 157.949C116.865 154.637 112.839 151.343 108.819 148.068L108.497 148.425C110.314 150.349 112.13 152.273 113.96 154.171L126.102 166.851C128.961 169.72 132.128 172.264 135.545 174.438C141.695 178.505 147.807 182.583 154.042 186.524C162.058 191.269 170.398 195.445 178.999 199.02L179.015 199.076ZM83.1713 190.089C82.9446 189.75 82.6883 189.431 82.408 189.136C80.5749 187.642 78.653 186.053 76.8375 184.413C75.6541 183.339 74.6186 182.08 73.5064 180.904L71.2949 178.669C70.8452 178.292 70.4167 177.888 70.0114 177.463C63.9996 170.315 57.2735 163.781 51.9298 156.075C50.6639 154.495 49.3 152.997 47.8473 151.588C44.8909 148.396 42.2213 145.281 39.3593 142.202C38.2683 141.038 37.0155 140.038 35.6377 139.233L35.0288 139.856C35.373 140.343 35.6617 140.847 36.0328 141.286C38.4173 143.957 40.8065 146.639 43.1985 149.334C44.6762 150.93 46.3103 152.644 47.7705 154.387C49.5961 156.551 51.2432 158.868 53.0661 160.952C55.4932 163.793 57.998 166.549 60.5168 169.282C63.8969 172.959 67.4937 176.473 70.7286 180.274C73.8404 183.893 77.4436 187.06 81.4317 189.682C81.6825 189.858 81.9666 189.979 82.2664 190.039C82.5662 190.098 82.8752 190.094 83.1741 190.027L83.1713 190.089ZM206.65 175.65L206.028 176.783C206.221 177.031 206.434 177.273 206.999 177.96C206.985 176.869 207.001 176.298 206.993 175.712L206.65 175.65Z" fill="#101A24"/>
</g>
</svg>
