<svg width="62" height="62" viewBox="0 0 62 62" fill="none" xmlns="http://www.w3.org/2000/svg">
<g filter="url(#filter0_d_38_1165)">
<circle cx="31" cy="27" r="17" fill="white"/>
</g>
<g clip-path="url(#clip0_38_1165)">
<path d="M35.9971 32.0003V31.9998H35.9998V27.9656C35.9998 25.992 35.575 24.4717 33.2677 24.4717C32.1585 24.4717 31.4142 25.0803 31.1103 25.6574H31.0783V24.6559H28.8906V31.9998H31.1685V28.3634C31.1685 27.4059 31.35 26.4801 32.5358 26.4801C33.704 26.4801 33.7215 27.5728 33.7215 28.4248V32.0003H35.9971Z" fill="#00063F"/>
<path d="M25.1816 24.656H27.4623V31.9999H25.1816V24.656Z" fill="#00063F"/>
<path d="M26.3209 21C25.5917 21 25 21.5917 25 22.3209C25 23.0501 25.5917 23.6542 26.3209 23.6542C27.0501 23.6542 27.6418 23.0501 27.6418 22.3209C27.6414 21.5917 27.0497 21 26.3209 21V21Z" fill="#00063F"/>
</g>
<defs>
<filter id="filter0_d_38_1165" x="0" y="0" width="62" height="62" filterUnits="userSpaceOnUse" color-interpolation-filters="sRGB">
<feFlood flood-opacity="0" result="BackgroundImageFix"/>
<feColorMatrix in="SourceAlpha" type="matrix" values="0 0 0 0 0 0 0 0 0 0 0 0 0 0 0 0 0 0 127 0" result="hardAlpha"/>
<feOffset dy="4"/>
<feGaussianBlur stdDeviation="7"/>
<feColorMatrix type="matrix" values="0 0 0 0 0 0 0 0 0 0 0 0 0 0 0 0 0 0 0.15 0"/>
<feBlend mode="normal" in2="BackgroundImageFix" result="effect1_dropShadow_38_1165"/>
<feBlend mode="normal" in="SourceGraphic" in2="effect1_dropShadow_38_1165" result="shape"/>
</filter>
<clipPath id="clip0_38_1165">
<rect width="11" height="11" fill="white" transform="translate(25 21)"/>
</clipPath>
</defs>
</svg>
