<svg width="31" height="31" viewBox="0 0 31 31" fill="none" xmlns="http://www.w3.org/2000/svg">
<g filter="url(#filter0_d_38_1029)">
<path d="M11.1274 9.04412L12.548 8.44676C12.9794 8.26479 13.3604 7.98056 13.6581 7.61846C13.9559 7.25636 14.1615 6.82721 14.2574 6.36788C14.3534 5.90855 14.3366 5.43276 14.2087 4.98137C14.0808 4.52998 13.8455 4.11647 13.5231 3.77637L10.9041 1.01155C10.5942 0.684445 10.2125 0.434379 9.78922 0.281242C9.36597 0.128104 8.91291 0.0761213 8.46608 0.129428C8.01924 0.182736 7.59096 0.339861 7.21532 0.588306C6.83967 0.836751 6.52703 1.16966 6.30225 1.56054L5.90352 2.25432C4.87334 4.01604 4.34478 6.02727 4.37536 8.06912C4.40593 10.111 4.99447 12.1052 6.07693 13.8349C6.92851 15.2257 7.91672 16.5277 9.0268 17.7213C10.2069 18.9001 11.5013 19.958 12.8906 20.8795C14.65 22.0732 16.7147 22.7343 18.8386 22.7839C20.6564 22.8301 22.4586 22.4372 24.0933 21.6383L24.889 21.2494C25.2977 21.0499 25.6537 20.7566 25.9282 20.3933C26.2026 20.03 26.3878 19.6069 26.4686 19.1584C26.5495 18.71 26.5237 18.2487 26.3934 17.8121C26.2631 17.3755 26.032 16.9758 25.7188 16.6456L23.124 13.9075C22.8027 13.5682 22.4043 13.3119 21.9627 13.1606C21.5212 13.0093 21.0496 12.9675 20.5884 13.0387C20.1272 13.1099 19.69 13.2921 19.3142 13.5696C18.9384 13.847 18.6353 14.2116 18.4306 14.6322L17.7768 15.9723C17.725 16.0804 17.6346 16.165 17.5236 16.2094C17.4125 16.2538 17.2889 16.2548 17.1772 16.2121C15.6743 15.708 14.3091 14.86 13.1896 13.7354C12.1053 12.5706 11.3066 11.1685 10.8567 9.64027C10.8195 9.52497 10.8266 9.39987 10.8767 9.28955C10.9268 9.17923 11.0162 9.09169 11.1274 9.04412Z" fill="white"/>
</g>
<defs>
<filter id="filter0_d_38_1029" x="0.375" y="0.109131" width="30.1406" height="30.6785" filterUnits="userSpaceOnUse" color-interpolation-filters="sRGB">
<feFlood flood-opacity="0" result="BackgroundImageFix"/>
<feColorMatrix in="SourceAlpha" type="matrix" values="0 0 0 0 0 0 0 0 0 0 0 0 0 0 0 0 0 0 127 0" result="hardAlpha"/>
<feOffset dy="4"/>
<feGaussianBlur stdDeviation="2"/>
<feComposite in2="hardAlpha" operator="out"/>
<feColorMatrix type="matrix" values="0 0 0 0 0 0 0 0 0 0 0 0 0 0 0 0 0 0 0.25 0"/>
<feBlend mode="normal" in2="BackgroundImageFix" result="effect1_dropShadow_38_1029"/>
<feBlend mode="normal" in="SourceGraphic" in2="effect1_dropShadow_38_1029" result="shape"/>
</filter>
</defs>
</svg>
