<svg width="1100" height="190" viewBox="0 0 1100 190" fill="none" xmlns="http://www.w3.org/2000/svg">
<g opacity="0.3">
<path d="M138.676 64C138.676 74.1667 136.342 83.5 131.676 92C127.009 100.333 119.842 107.083 110.176 112.25C100.509 117.417 88.5091 120 74.1757 120H47.6757V183H4.92572V7.49999H74.1757C88.1757 7.49999 100.009 9.91666 109.676 14.75C119.342 19.5833 126.592 26.25 131.426 34.75C136.259 43.25 138.676 53 138.676 64ZM70.9257 86C79.0924 86 85.1757 84.0833 89.1757 80.25C93.1757 76.4167 95.1757 71 95.1757 64C95.1757 57 93.1757 51.5833 89.1757 47.75C85.1757 43.9167 79.0924 42 70.9257 42H47.6757V86H70.9257ZM233.678 183L197.178 116.75H186.928V183H144.178V7.49999H215.928C229.761 7.49999 241.511 9.91666 251.178 14.75C261.011 19.5833 268.345 26.25 273.178 34.75C278.011 43.0833 280.428 52.4167 280.428 62.75C280.428 74.4167 277.095 84.8333 270.428 94C263.928 103.167 254.261 109.667 241.428 113.5L281.928 183H233.678ZM186.928 86.5H213.428C221.261 86.5 227.095 84.5833 230.928 80.75C234.928 76.9167 236.928 71.5 236.928 64.5C236.928 57.8333 234.928 52.5833 230.928 48.75C227.095 44.9167 221.261 43 213.428 43H186.928V86.5ZM373.51 184.75C357.01 184.75 341.844 180.917 328.01 173.25C314.344 165.583 303.427 154.917 295.26 141.25C287.26 127.417 283.26 111.917 283.26 94.75C283.26 77.5833 287.26 62.1667 295.26 48.5C303.427 34.8333 314.344 24.1667 328.01 16.5C341.844 8.83333 357.01 5 373.51 5C390.01 5 405.094 8.83333 418.76 16.5C432.594 24.1667 443.427 34.8333 451.26 48.5C459.26 62.1667 463.26 77.5833 463.26 94.75C463.26 111.917 459.26 127.417 451.26 141.25C443.26 154.917 432.427 165.583 418.76 173.25C405.094 180.917 390.01 184.75 373.51 184.75ZM373.51 145.75C387.51 145.75 398.677 141.083 407.01 131.75C415.51 122.417 419.76 110.083 419.76 94.75C419.76 79.25 415.51 66.9167 407.01 57.75C398.677 48.4167 387.51 43.75 373.51 43.75C359.344 43.75 348.01 48.3333 339.51 57.5C331.177 66.6667 327.01 79.0833 327.01 94.75C327.01 110.25 331.177 122.667 339.51 132C348.01 141.167 359.344 145.75 373.51 145.75ZM536.04 7.49999C554.54 7.49999 570.707 11.1667 584.54 18.5C598.373 25.8333 609.04 36.1667 616.54 49.5C624.207 62.6667 628.04 77.9167 628.04 95.25C628.04 112.417 624.207 127.667 616.54 141C609.04 154.333 598.29 164.667 584.29 172C570.457 179.333 554.373 183 536.04 183H470.29V7.49999H536.04ZM533.29 146C549.457 146 562.04 141.583 571.04 132.75C580.04 123.917 584.54 111.417 584.54 95.25C584.54 79.0833 580.04 66.5 571.04 57.5C562.04 48.5 549.457 44 533.29 44H513.04V146H533.29ZM677.177 7.49999V112.5C677.177 123 679.76 131.083 684.927 136.75C690.094 142.417 697.677 145.25 707.677 145.25C717.677 145.25 725.344 142.417 730.677 136.75C736.01 131.083 738.677 123 738.677 112.5V7.49999H781.427V112.25C781.427 127.917 778.094 141.167 771.427 152C764.76 162.833 755.76 171 744.427 176.5C733.26 182 720.76 184.75 706.927 184.75C693.094 184.75 680.677 182.083 669.677 176.75C658.844 171.25 650.26 163.083 643.927 152.25C637.594 141.25 634.427 127.917 634.427 112.25V7.49999H677.177ZM787.443 95C787.443 77.6667 791.193 62.25 798.693 48.75C806.193 35.0833 816.61 24.5 829.943 17C843.443 9.33332 858.693 5.49999 875.693 5.49999C896.526 5.49999 914.36 11 929.193 22C944.026 33 953.943 48 958.943 67H911.943C908.443 59.6667 903.443 54.0833 896.943 50.25C890.61 46.4167 883.36 44.5 875.193 44.5C862.026 44.5 851.36 49.0833 843.193 58.25C835.026 67.4167 830.943 79.6667 830.943 95C830.943 110.333 835.026 122.583 843.193 131.75C851.36 140.917 862.026 145.5 875.193 145.5C883.36 145.5 890.61 143.583 896.943 139.75C903.443 135.917 908.443 130.333 911.943 123H958.943C953.943 142 944.026 157 929.193 168C914.36 178.833 896.526 184.25 875.693 184.25C858.693 184.25 843.443 180.5 829.943 173C816.61 165.333 806.193 154.75 798.693 141.25C791.193 127.75 787.443 112.333 787.443 95ZM1094.62 7.49999V41.75H1048.12V183H1005.37V41.75H958.869V7.49999H1094.62Z" fill="white"/>
<path d="M131.676 92L135.74 94.2759L135.749 94.2588L135.759 94.2417L131.676 92ZM110.176 112.25L107.98 108.142H107.98L110.176 112.25ZM47.6757 120V115.342H43.0177V120H47.6757ZM47.6757 183V187.658H52.3337V183H47.6757ZM4.92572 183H0.267749V187.658H4.92572V183ZM4.92572 7.5V2.84202H0.267749V7.5H4.92572ZM109.676 14.75L111.759 10.5838L109.676 14.75ZM47.6757 42V37.342H43.0177V42H47.6757ZM47.6757 86H43.0177V90.658H47.6757V86ZM138.676 64H134.018C134.018 73.4223 131.864 81.979 127.593 89.7583L131.676 92L135.759 94.2417C140.821 85.021 143.334 74.911 143.334 64H138.676ZM131.676 92L127.612 89.7241C123.441 97.1711 116.98 103.331 107.98 108.142L110.176 112.25L112.371 116.358C122.704 110.835 130.577 103.496 135.74 94.2759L131.676 92ZM110.176 112.25L107.98 108.142C99.1648 112.854 87.971 115.342 74.1757 115.342V120V124.658C89.0471 124.658 101.853 121.98 112.371 116.358L110.176 112.25ZM74.1757 120V115.342H47.6757V120V124.658H74.1757V120ZM47.6757 120H43.0177V183H47.6757H52.3337V120H47.6757ZM47.6757 183V178.342H4.92572V183V187.658H47.6757V183ZM4.92572 183H9.58369V7.5H4.92572H0.267749V183H4.92572ZM4.92572 7.5V12.158H74.1757V7.5V2.84202H4.92572V7.5ZM74.1757 7.5V12.158C87.6588 12.158 98.7349 14.4873 107.593 18.9162L109.676 14.75L111.759 10.5838C101.283 5.34597 88.6926 2.84202 74.1757 2.84202V7.5ZM109.676 14.75L107.593 18.9162C116.524 23.382 123.047 29.4384 127.377 37.0524L131.426 34.75L135.475 32.4475C130.138 23.0616 122.161 15.7846 111.759 10.5838L109.676 14.75ZM131.426 34.75L127.377 37.0524C131.763 44.7664 134.018 53.7044 134.018 64H138.676H143.334C143.334 52.2955 140.755 41.7336 135.475 32.4475L131.426 34.75ZM70.9257 86V90.658C79.7305 90.658 87.196 88.5988 92.3986 83.613L89.1757 80.25L85.9529 76.887C83.1555 79.5678 78.4543 81.342 70.9257 81.342V86ZM89.1757 80.25L92.3986 83.613C97.5431 78.6828 99.8337 71.9153 99.8337 64H95.1757H90.5178C90.5178 70.0847 88.8083 74.1505 85.9529 76.887L89.1757 80.25ZM95.1757 64H99.8337C99.8337 56.0847 97.5431 49.3172 92.3986 44.387L89.1757 47.75L85.9529 51.113C88.8083 53.8495 90.5178 57.9153 90.5178 64H95.1757ZM89.1757 47.75L92.3986 44.387C87.196 39.4011 79.7305 37.342 70.9257 37.342V42V46.658C78.4543 46.658 83.1555 48.4322 85.9529 51.113L89.1757 47.75ZM70.9257 42V37.342H47.6757V42V46.658H70.9257V42ZM47.6757 42H43.0177V86H47.6757H52.3337V42H47.6757ZM47.6757 86V90.658H70.9257V86V81.342H47.6757V86ZM233.678 183L229.598 185.248L230.926 187.658H233.678V183ZM197.178 116.75L201.258 114.502L199.93 112.092H197.178V116.75ZM186.928 116.75V112.092H182.27V116.75H186.928ZM186.928 183V187.658H191.586V183H186.928ZM144.178 183H139.52V187.658H144.178V183ZM144.178 7.5V2.84202H139.52V7.5H144.178ZM251.178 14.75L249.095 18.9162L249.109 18.9233L249.123 18.9303L251.178 14.75ZM273.178 34.75L269.129 37.0524L269.139 37.0697L269.149 37.087L273.178 34.75ZM270.428 94L266.661 91.2603L266.645 91.2829L266.628 91.3057L270.428 94ZM241.428 113.5L240.095 109.037L234.423 110.731L237.404 115.845L241.428 113.5ZM281.928 183V187.658H290.034L285.953 180.655L281.928 183ZM186.928 86.5H182.27V91.158H186.928V86.5ZM230.928 80.75L227.705 77.387L227.669 77.4213L227.634 77.4563L230.928 80.75ZM230.928 48.75L227.634 52.0437L227.669 52.0787L227.705 52.113L230.928 48.75ZM186.928 43V38.342H182.27V43H186.928ZM233.678 183L237.758 180.752L201.258 114.502L197.178 116.75L193.098 118.998L229.598 185.248L233.678 183ZM197.178 116.75V112.092H186.928V116.75V121.408H197.178V116.75ZM186.928 116.75H182.27V183H186.928H191.586V116.75H186.928ZM186.928 183V178.342H144.178V183V187.658H186.928V183ZM144.178 183H148.836V7.5H144.178H139.52V183H144.178ZM144.178 7.5V12.158H215.928V7.5V2.84202H144.178V7.5ZM215.928 7.5V12.158C229.234 12.158 240.23 14.4839 249.095 18.9162L251.178 14.75L253.261 10.5838C242.792 5.34944 230.288 2.84202 215.928 2.84202V7.5ZM251.178 14.75L249.123 18.9303C258.224 23.4033 264.812 29.4601 269.129 37.0524L273.178 34.75L277.227 32.4475C271.878 23.0399 263.799 15.7634 253.233 10.5697L251.178 14.75ZM273.178 34.75L269.149 37.087C273.54 44.6588 275.77 53.1757 275.77 62.75H280.428H285.086C285.086 51.6576 282.482 41.5079 277.207 32.413L273.178 34.75ZM280.428 62.75H275.77C275.77 73.4631 272.731 82.9144 266.661 91.2603L270.428 94L274.195 96.7397C281.459 86.7523 285.086 75.3702 285.086 62.75H280.428ZM270.428 94L266.628 91.3057C260.84 99.4694 252.13 105.442 240.095 109.037L241.428 113.5L242.761 117.963C256.393 113.891 267.016 106.864 274.228 96.6943L270.428 94ZM241.428 113.5L237.404 115.845L277.904 185.345L281.928 183L285.953 180.655L245.453 111.155L241.428 113.5ZM281.928 183V178.342H233.678V183V187.658H281.928V183ZM186.928 86.5V91.158H213.428V86.5V81.842H186.928V86.5ZM213.428 86.5V91.158C221.945 91.158 229.19 89.0754 234.222 84.0437L230.928 80.75L227.634 77.4563C224.999 80.0913 220.577 81.842 213.428 81.842V86.5ZM230.928 80.75L234.151 84.113C239.295 79.1828 241.586 72.4152 241.586 64.5H236.928H232.27C232.27 70.5847 230.561 74.6505 227.705 77.387L230.928 80.75ZM236.928 64.5H241.586C241.586 56.8415 239.251 50.2742 234.151 45.387L230.928 48.75L227.705 52.113C230.605 54.8924 232.27 58.8251 232.27 64.5H236.928ZM230.928 48.75L234.222 45.4563C229.19 40.4246 221.945 38.342 213.428 38.342V43V47.658C220.577 47.658 224.999 49.4087 227.634 52.0437L230.928 48.75ZM213.428 43V38.342H186.928V43V47.658H213.428V43ZM186.928 43H182.27V86.5H186.928H191.586V43H186.928ZM328.01 173.25L325.731 177.312L325.742 177.318L325.752 177.324L328.01 173.25ZM295.26 141.25L291.228 143.582L291.245 143.611L291.262 143.639L295.26 141.25ZM295.26 48.5L291.262 46.1107L291.251 46.1287L291.24 46.1469L295.26 48.5ZM328.01 16.5L325.752 12.4259L325.742 12.4317L325.731 12.4376L328.01 16.5ZM418.76 16.5L416.481 20.5624L416.492 20.5683L416.502 20.5741L418.76 16.5ZM451.26 48.5L447.219 50.8163L447.23 50.8347L447.24 50.8531L451.26 48.5ZM451.26 141.25L455.28 143.603L455.286 143.593L455.293 143.582L451.26 141.25ZM418.76 173.25L421.039 177.312L418.76 173.25ZM407.01 131.75L403.567 128.614L403.551 128.631L403.536 128.648L407.01 131.75ZM407.01 57.75L403.536 60.8523L403.565 60.885L403.595 60.9171L407.01 57.75ZM339.51 57.5L336.095 54.3329L336.079 54.3497L336.064 54.3667L339.51 57.5ZM339.51 132L336.036 135.102L336.065 135.135L336.095 135.167L339.51 132ZM373.51 184.75V180.092C357.765 180.092 343.38 176.443 330.268 169.176L328.01 173.25L325.752 177.324C340.307 185.391 356.256 189.408 373.51 189.408V184.75ZM328.01 173.25L330.289 169.188C317.344 161.926 307.015 151.841 299.259 138.861L295.26 141.25L291.262 143.639C299.839 157.993 311.344 169.241 325.731 177.312L328.01 173.25ZM295.26 141.25L299.293 138.918C291.733 125.846 287.918 111.161 287.918 94.75H283.26H278.602C278.602 112.673 282.788 128.987 291.228 143.582L295.26 141.25ZM283.26 94.75H287.918C287.918 78.3387 291.733 63.7465 299.28 50.8531L295.26 48.5L291.24 46.1469C282.788 60.5868 278.602 76.828 278.602 94.75H283.26ZM295.26 48.5L299.259 50.8893C307.015 37.9092 317.344 27.8245 330.289 20.5624L328.01 16.5L325.731 12.4376C311.344 20.5089 299.839 31.7574 291.262 46.1107L295.26 48.5ZM328.01 16.5L330.268 20.5741C343.38 13.3072 357.765 9.65797 373.51 9.65797V5V0.342026C356.256 0.342026 340.307 4.35943 325.752 12.4259L328.01 16.5ZM373.51 5V9.65797C389.256 9.65797 403.548 13.3071 416.481 20.5624L418.76 16.5L421.039 12.4376C406.639 4.35954 390.765 0.342026 373.51 0.342026V5ZM418.76 16.5L416.502 20.5741C429.595 27.8303 439.81 37.8905 447.219 50.8163L451.26 48.5L455.302 46.1837C447.044 31.7762 435.592 20.503 421.018 12.4259L418.76 16.5ZM451.26 48.5L447.24 50.8531C454.788 63.7465 458.602 78.3387 458.602 94.75H463.26H467.918C467.918 76.828 463.733 60.5868 455.28 46.1469L451.26 48.5ZM463.26 94.75H458.602C458.602 111.161 454.788 125.846 447.228 138.918L451.26 141.25L455.293 143.582C463.733 128.987 467.918 112.673 467.918 94.75H463.26ZM451.26 141.25L447.24 138.897C439.654 151.857 429.418 161.93 416.481 169.188L418.76 173.25L421.039 177.312C435.436 169.236 446.867 157.976 455.28 143.603L451.26 141.25ZM418.76 173.25L416.481 169.188C403.548 176.443 389.256 180.092 373.51 180.092V184.75V189.408C390.765 189.408 406.639 185.39 421.039 177.312L418.76 173.25ZM373.51 145.75V150.408C388.662 150.408 401.157 145.299 410.485 134.852L407.01 131.75L403.536 128.648C396.197 136.867 386.359 141.092 373.51 141.092V145.75ZM407.01 131.75L410.454 134.886C419.895 124.52 424.418 110.982 424.418 94.75H419.76H415.102C415.102 109.185 411.125 120.314 403.567 128.614L407.01 131.75ZM419.76 94.75H424.418C424.418 78.3704 419.905 64.8052 410.426 54.5828L407.01 57.75L403.595 60.9171C411.116 69.0281 415.102 80.1296 415.102 94.75H419.76ZM407.01 57.75L410.485 54.6477C401.157 44.2007 388.662 39.092 373.51 39.092V43.75V48.408C386.359 48.408 396.197 52.6326 403.536 60.8523L407.01 57.75ZM373.51 43.75V39.092C358.238 39.092 345.598 44.0844 336.095 54.3329L339.51 57.5L342.926 60.6671C350.423 52.5822 360.45 48.408 373.51 48.408V43.75ZM339.51 57.5L336.064 54.3667C326.761 64.6001 322.352 78.2426 322.352 94.75H327.01H331.668C331.668 79.924 335.593 68.7332 342.957 60.6333L339.51 57.5ZM327.01 94.75H322.352C322.352 111.11 326.77 124.725 336.036 135.102L339.51 132L342.985 128.898C335.584 120.609 331.668 109.39 331.668 94.75H327.01ZM339.51 132L336.095 135.167C345.598 145.416 358.238 150.408 373.51 150.408V145.75V141.092C360.45 141.092 350.423 136.918 342.926 128.833L339.51 132ZM584.54 18.5L586.722 14.3845V14.3845L584.54 18.5ZM616.54 49.5L612.48 51.7836L612.497 51.8139L612.515 51.8438L616.54 49.5ZM616.54 141L612.502 138.678L612.491 138.697L612.48 138.716L616.54 141ZM584.29 172L582.129 167.874L582.118 167.879L582.108 167.885L584.29 172ZM470.29 183H465.632V187.658H470.29V183ZM470.29 7.5V2.84202H465.632V7.5H470.29ZM513.04 44V39.342H508.382V44H513.04ZM513.04 146H508.382V150.658H513.04V146ZM536.04 7.5V12.158C553.917 12.158 569.309 15.6978 582.358 22.6154L584.54 18.5L586.722 14.3845C572.104 6.6355 555.163 2.84202 536.04 2.84202V7.5ZM584.54 18.5L582.358 22.6154C595.423 29.5411 605.429 39.2473 612.48 51.7836L616.54 49.5L620.6 47.2164C612.651 33.086 601.324 22.1256 586.722 14.3845L584.54 18.5ZM616.54 49.5L612.515 51.8438C619.713 64.2054 623.382 78.6247 623.382 95.25H628.04H632.698C632.698 77.2086 628.701 61.1279 620.565 47.1561L616.54 49.5ZM628.04 95.25H623.382C623.382 111.699 619.717 126.131 612.502 138.678L616.54 141L620.578 143.322C628.697 129.203 632.698 113.135 632.698 95.25H628.04ZM616.54 141L612.48 138.716C605.437 151.238 595.359 160.944 582.129 167.874L584.29 172L586.451 176.126C601.221 168.39 612.643 157.429 620.6 143.284L616.54 141ZM584.29 172L582.108 167.885C569.053 174.805 553.743 178.342 536.04 178.342V183V187.658C555.004 187.658 571.86 183.861 586.472 176.115L584.29 172ZM536.04 183V178.342H470.29V183V187.658H536.04V183ZM470.29 183H474.948V7.5H470.29H465.632V183H470.29ZM470.29 7.5V12.158H536.04V7.5V2.84202H470.29V7.5ZM533.29 146V150.658C550.318 150.658 564.205 145.985 574.303 136.074L571.04 132.75L567.777 129.426C559.875 137.182 548.596 141.342 533.29 141.342V146ZM571.04 132.75L574.303 136.074C584.429 126.136 589.198 112.297 589.198 95.25H584.54H579.882C579.882 110.537 575.651 121.698 567.777 129.426L571.04 132.75ZM584.54 95.25H589.198C589.198 78.1986 584.427 64.3 574.334 54.2063L571.04 57.5L567.746 60.7937C575.653 68.7 579.882 79.968 579.882 95.25H584.54ZM571.04 57.5L574.334 54.2063C564.24 44.1126 550.341 39.342 533.29 39.342V44V48.658C548.572 48.658 559.84 52.8873 567.746 60.7937L571.04 57.5ZM533.29 44V39.342H513.04V44V48.658H533.29V44ZM513.04 44H508.382V146H513.04H517.698V44H513.04ZM513.04 146V150.658H533.29V146V141.342H513.04V146ZM677.177 7.5H681.835V2.84202H677.177V7.5ZM684.927 136.75L681.485 139.888L684.927 136.75ZM730.677 136.75L734.069 139.942L730.677 136.75ZM738.677 7.5V2.84202H734.019V7.5H738.677ZM781.427 7.5H786.085V2.84202H781.427V7.5ZM771.427 152L775.394 154.441L771.427 152ZM744.427 176.5L742.393 172.309L742.381 172.315L742.369 172.321L744.427 176.5ZM669.677 176.75L667.568 180.903L667.607 180.923L667.645 180.941L669.677 176.75ZM643.927 152.25L639.89 154.574L639.898 154.588L639.906 154.601L643.927 152.25ZM634.427 7.5V2.84202H629.769V7.5H634.427ZM677.177 7.5H672.519V112.5H677.177H681.835V7.5H677.177ZM677.177 112.5H672.519C672.519 123.728 675.287 133.09 681.485 139.888L684.927 136.75L688.369 133.612C684.234 129.077 681.835 122.272 681.835 112.5H677.177ZM684.927 136.75L681.485 139.888C687.783 146.796 696.788 149.908 707.677 149.908V145.25V140.592C698.566 140.592 692.405 138.038 688.369 133.612L684.927 136.75ZM707.677 145.25V149.908C718.575 149.908 727.621 146.793 734.069 139.942L730.677 136.75L727.285 133.558C723.066 138.04 716.78 140.592 707.677 140.592V145.25ZM730.677 136.75L734.069 139.942C740.465 133.147 743.335 123.764 743.335 112.5H738.677H734.019C734.019 122.236 731.556 129.02 727.285 133.558L730.677 136.75ZM738.677 112.5H743.335V7.5H738.677H734.019V112.5H738.677ZM738.677 7.5V12.158H781.427V7.5V2.84202H738.677V7.5ZM781.427 7.5H776.769V112.25H781.427H786.085V7.5H781.427ZM781.427 112.25H776.769C776.769 127.254 773.581 139.613 767.46 149.559L771.427 152L775.394 154.441C782.607 142.721 786.085 128.579 786.085 112.25H781.427ZM771.427 152L767.46 149.559C761.253 159.645 752.921 167.201 742.393 172.309L744.427 176.5L746.461 180.691C758.6 174.799 768.267 166.022 775.394 154.441L771.427 152ZM744.427 176.5L742.369 172.321C731.911 177.472 720.127 180.092 706.927 180.092V184.75V189.408C721.394 189.408 734.61 186.528 746.485 180.679L744.427 176.5ZM706.927 184.75V180.092C693.705 180.092 681.997 177.547 671.709 172.559L669.677 176.75L667.645 180.941C679.357 186.62 692.483 189.408 706.927 189.408V184.75ZM669.677 176.75L671.786 172.597C661.777 167.515 653.846 159.987 647.948 149.899L643.927 152.25L639.906 154.601C646.675 166.179 655.911 174.985 667.568 180.903L669.677 176.75ZM643.927 152.25L647.964 149.926C642.123 139.781 639.085 127.29 639.085 112.25H634.427H629.769C629.769 128.543 633.065 142.719 639.89 154.574L643.927 152.25ZM634.427 112.25H639.085V7.5H634.427H629.769V112.25H634.427ZM634.427 7.5V12.158H677.177V7.5V2.84202H634.427V7.5ZM798.693 48.75L802.765 51.0121L802.771 51.0015L802.777 50.9909L798.693 48.75ZM829.943 17L832.227 21.0598L832.235 21.0551L832.243 21.0504L829.943 17ZM929.193 22L931.968 18.2585L929.193 22ZM958.943 67V71.658H964.985L963.448 65.8146L958.943 67ZM911.943 67L907.739 69.0063L909.005 71.658H911.943V67ZM896.943 50.25L894.531 54.2349L894.554 54.2487L894.577 54.2622L896.943 50.25ZM843.193 58.25L846.671 61.3485L843.193 58.25ZM843.193 131.75L839.715 134.849L843.193 131.75ZM896.943 139.75L894.577 135.738L894.554 135.751L894.531 135.765L896.943 139.75ZM911.943 123V118.342H909.005L907.739 120.994L911.943 123ZM958.943 123L963.448 124.185L964.985 118.342H958.943V123ZM929.193 168L931.94 171.762L931.954 171.752L931.968 171.741L929.193 168ZM829.943 173L827.621 177.038L827.651 177.055L827.681 177.072L829.943 173ZM798.693 141.25L802.765 138.988L798.693 141.25ZM787.443 95H792.101C792.101 78.3596 795.695 63.7388 802.765 51.0121L798.693 48.75L794.621 46.4879C786.692 60.7612 782.785 76.9737 782.785 95H787.443ZM798.693 48.75L802.777 50.9909C809.867 38.0714 819.666 28.1249 832.227 21.0598L829.943 17L827.659 12.9402C813.553 20.8751 802.52 32.0953 794.61 46.5091L798.693 48.75ZM829.943 17L832.243 21.0504C844.977 13.8191 859.421 10.158 875.693 10.158V5.49999V0.842018C857.965 0.842018 841.909 4.84758 827.643 12.9496L829.943 17ZM875.693 5.49999V10.158C895.661 10.158 912.489 15.4118 926.419 25.7414L929.193 22L931.968 18.2585C916.23 6.58819 897.392 0.842018 875.693 0.842018V5.49999ZM929.193 22L926.419 25.7414C940.345 36.0688 949.689 50.139 954.438 68.1854L958.943 67L963.448 65.8146C958.197 45.861 947.708 29.9311 931.968 18.2585L929.193 22ZM958.943 67V62.342H911.943V67V71.658H958.943V67ZM911.943 67L916.147 64.9937C912.28 56.8912 906.67 50.5786 899.309 46.2378L896.943 50.25L894.577 54.2622C900.216 57.5881 904.606 62.4422 907.739 69.0063L911.943 67ZM896.943 50.25L899.355 46.2651C892.221 41.9469 884.12 39.842 875.193 39.842V44.5V49.158C882.6 49.158 888.999 50.8864 894.531 54.2349L896.943 50.25ZM875.193 44.5V39.842C860.806 39.842 848.835 44.9145 839.715 55.1515L843.193 58.25L846.671 61.3485C853.884 53.2522 863.246 49.158 875.193 49.158V44.5ZM843.193 58.25L839.715 55.1515C830.612 65.3687 826.285 78.8195 826.285 95H830.943H835.601C835.601 80.5138 839.44 69.4646 846.671 61.3485L843.193 58.25ZM830.943 95H826.285C826.285 111.181 830.612 124.631 839.715 134.849L843.193 131.75L846.671 128.651C839.44 120.535 835.601 109.486 835.601 95H830.943ZM843.193 131.75L839.715 134.849C848.835 145.086 860.806 150.158 875.193 150.158V145.5V140.842C863.246 140.842 853.884 136.748 846.671 128.651L843.193 131.75ZM875.193 145.5V150.158C884.12 150.158 892.221 148.053 899.355 143.735L896.943 139.75L894.531 135.765C888.999 139.114 882.6 140.842 875.193 140.842V145.5ZM896.943 139.75L899.309 143.762C906.67 139.421 912.28 133.109 916.147 125.006L911.943 123L907.739 120.994C904.606 127.558 900.216 132.412 894.577 135.738L896.943 139.75ZM911.943 123V127.658H958.943V123V118.342H911.943V123ZM958.943 123L954.438 121.815C949.689 139.861 940.345 153.931 926.419 164.259L929.193 168L931.968 171.741C947.708 160.069 958.197 144.139 963.448 124.185L958.943 123ZM929.193 168L926.446 164.238C912.515 174.413 895.677 179.592 875.693 179.592V184.25V188.908C897.376 188.908 916.205 183.254 931.94 171.762L929.193 168ZM875.693 184.25V179.592C859.403 179.592 844.945 176.006 832.205 168.928L829.943 173L827.681 177.072C841.941 184.994 857.983 188.908 875.693 188.908V184.25ZM829.943 173L832.265 168.962C819.669 161.719 809.856 151.751 802.765 138.988L798.693 141.25L794.621 143.512C802.531 157.749 813.551 168.948 827.621 177.038L829.943 173ZM798.693 141.25L802.765 138.988C795.695 126.261 792.101 111.64 792.101 95H787.443H782.785C782.785 113.026 786.692 129.239 794.621 143.512L798.693 141.25ZM1094.62 7.5H1099.28V2.84202H1094.62V7.5ZM1094.62 41.75V46.408H1099.28V41.75H1094.62ZM1048.12 41.75V37.092H1043.46V41.75H1048.12ZM1048.12 183V187.658H1052.78V183H1048.12ZM1005.37 183H1000.71V187.658H1005.37V183ZM1005.37 41.75H1010.03V37.092H1005.37V41.75ZM958.869 41.75H954.211V46.408H958.869V41.75ZM958.869 7.5V2.84202H954.211V7.5H958.869ZM1094.62 7.5H1089.96V41.75H1094.62H1099.28V7.5H1094.62ZM1094.62 41.75V37.092H1048.12V41.75V46.408H1094.62V41.75ZM1048.12 41.75H1043.46V183H1048.12H1052.78V41.75H1048.12ZM1048.12 183V178.342H1005.37V183V187.658H1048.12V183ZM1005.37 183H1010.03V41.75H1005.37H1000.71V183H1005.37ZM1005.37 41.75V37.092H958.869V41.75V46.408H1005.37V41.75ZM958.869 41.75H963.527V7.5H958.869H954.211V41.75H958.869ZM958.869 7.5V12.158H1094.62V7.5V2.84202H958.869V7.5Z" fill="#E0E0F9"/>
</g>
</svg>
