<svg width="41" height="42" viewBox="0 0 41 42" fill="none" xmlns="http://www.w3.org/2000/svg">
<rect y="1.5" width="40" height="40" rx="10" fill="#BAD9FF"/>
<circle cx="4.5" cy="4.5" r="4.5" transform="matrix(1 0 0 -1 32 9.5)" fill="#7E6ABB"/>
<path d="M22.9302 25.2456L23.7457 24.4302L22.2261 22.9106C22.1861 22.9584 22.1382 23.0034 22.0962 23.0502C21.8814 23.2876 21.6538 23.5151 21.4087 23.7251L22.9283 25.2447L22.9302 25.2456Z" fill="#00063F"/>
<path d="M29.3187 28.1288L25.381 24.8191C25.2531 24.7117 25.0959 24.6589 24.9435 24.6589C24.7707 24.6589 24.6007 24.7244 24.4689 24.8591L23.3585 25.9666C23.1056 26.2196 23.0909 26.6092 23.3185 26.8788L26.6281 30.8194C26.9758 31.2316 27.4661 31.4767 28.0081 31.4972C28.5511 31.5245 29.0559 31.3243 29.4407 30.9395C29.8236 30.5567 30.0208 30.0469 30.0003 29.5049C29.975 28.9648 29.7357 28.4746 29.3206 28.1269L29.3187 28.1288ZM28.3958 29.8954C28.2904 30.0009 28.1507 30.0556 28.011 30.0556C27.8714 30.0556 27.7356 30.0009 27.6311 29.8954L27.3333 29.6005C27.1233 29.3876 27.1233 29.0458 27.3333 28.8358C27.5433 28.6259 27.888 28.6258 28.098 28.8358L28.3958 29.1337C28.6058 29.3436 28.6058 29.6864 28.3958 29.8964V29.8954Z" fill="#00063F"/>
<path d="M16.5998 24.6979C20.2377 24.6979 23.1979 21.7377 23.1979 18.0998C23.1979 14.4619 20.2377 11.5 16.5998 11.5C12.9619 11.5 10 14.4601 10 18.0998C10 21.7397 12.9631 24.6979 16.5998 24.6979ZM16.5998 12.9003C19.4652 12.9003 21.7973 15.2324 21.7973 18.1008C21.7973 20.9682 19.4652 23.2983 16.5998 23.2983C13.7344 23.2983 11.3993 20.9662 11.3993 18.1008C11.3993 15.2354 13.7314 12.9003 16.5998 12.9003Z" fill="#00063F"/>
</svg>
