<svg width="60" height="60" viewBox="0 0 60 60" fill="none" xmlns="http://www.w3.org/2000/svg">
<circle cx="30" cy="30" r="30" fill="#BAD9FF"/>
<path d="M44.1851 27.1084C40.5936 26.9244 36.997 27.3919 33.4078 26.5227C32.9911 26.4207 32.383 26.3001 32.3955 27.8919C32.4079 29.1977 32.9812 29.0509 33.3667 29.0572C34.6912 29.0758 36.0119 28.9776 37.3364 28.9303C37.3302 30.3854 37.4919 31.8404 37.4919 33.2916C37.4919 34.8897 37.4857 36.4877 37.4981 38.0894C37.4981 38.3531 37.1859 38.7423 38.3574 38.761C39.6247 38.7796 39.2678 38.3692 39.2839 38.1205C39.4655 35.0488 39.0203 31.9732 39.8286 28.9041C41.2712 28.9041 42.7101 28.9041 44.1514 28.8979C44.4536 28.8979 44.9026 29.2101 44.9225 28.0386C44.9448 26.7713 44.4735 27.1282 44.1875 27.1121L44.1851 27.1084Z" fill="#00063F" fill-opacity="0.33"/>
<path d="M16.8216 22.9107L16.8378 22.2329L16.844 21.8959C16.8478 21.8163 16.8565 21.7616 16.8689 21.6956C16.9261 21.4444 17.0977 21.2181 17.3216 21.0937C17.4335 21.0303 17.5541 20.9918 17.681 20.9756L17.7767 20.9694H17.9421H18.2792H19.6359L24.2236 20.9594C24.1502 21.243 24.1763 21.5638 24.1726 21.8312C24.1477 24.6617 24.3281 27.4921 24.3281 30.3227C24.3281 33.1533 24.3218 36.2411 24.3343 39.1984C24.3343 39.3576 24.3019 39.5416 24.2995 39.717C23.1951 39.6623 22.0933 39.5255 20.9891 39.1984C20.6483 39.0964 20.1546 38.9758 20.1683 40.5676C20.1783 41.8734 20.6421 41.7267 20.958 41.7329C22.3869 41.7578 23.8134 41.5775 25.2435 41.5775C26.6725 41.5775 28.2295 41.5837 29.7229 41.5712C29.9679 41.5712 30.3348 41.8834 30.3497 40.7119C30.3659 39.4446 29.9841 39.8016 29.7516 39.7854C28.554 39.7095 27.3539 39.7444 26.1575 39.7506C26.1513 39.579 26.119 39.4036 26.1227 39.2544C26.3068 33.469 25.8392 27.6789 26.7084 21.8996C26.7532 21.6136 26.798 21.2728 26.7147 20.9768C27.9719 20.993 29.2292 21.0241 30.4841 21.0788L31.8409 21.1485L32.5187 21.1932L32.8557 21.2181C32.9477 21.2281 32.9601 21.2405 33.0111 21.2567C33.1803 21.3201 33.2972 21.4706 33.3357 21.6161C33.3544 21.6894 33.3519 21.7628 33.3357 21.8262C33.3357 21.8424 33.3233 21.8586 33.3195 21.8735C33.3158 21.8859 33.3071 21.9717 33.3009 22.0202L33.2623 22.3573C33.1604 23.2004 33.0397 24.4204 34.6316 24.3943C35.9374 24.3719 35.7906 23.2166 35.7968 22.4393V22.1085C35.7968 21.9842 35.8031 21.9307 35.7906 21.6944C35.7658 21.3002 35.6563 20.9047 35.4723 20.5515C35.1067 19.8414 34.4376 19.3066 33.6665 19.1002C33.2972 18.9883 32.8097 18.9958 32.6667 19.0045L32.0051 19.0169L30.6806 19.0455C28.9134 19.0865 27.1439 19.1313 25.3766 19.1313L19.8301 19.1326H18.4447H17.7321C17.3403 19.1425 16.9461 19.2345 16.5929 19.4062C15.8803 19.7469 15.3319 20.4023 15.1317 21.1696C15.0807 21.3611 15.0483 21.5551 15.0421 21.7516L15.0359 21.8921V21.978V22.1496V22.8435C15.0396 23.4517 14.7238 24.3558 15.899 24.3943C17.1662 24.4353 16.8093 23.4902 16.8255 22.9144L16.8216 22.9107Z" fill="#00063F" fill-opacity="0.33"/>
</svg>
