<svg width="60" height="60" viewBox="0 0 60 60" fill="none" xmlns="http://www.w3.org/2000/svg">
<circle cx="30" cy="30" r="30" fill="#BAD9FF"/>
<path d="M29.5 17C25.919 17 22.4864 18.4222 19.9534 20.9534C17.4222 23.4863 16 26.9191 16 30.5C16 34.0809 17.4222 37.5136 19.9534 40.0466C22.4863 42.5778 25.9191 44 29.5 44C33.0809 44 36.5136 42.5778 39.0466 40.0466C41.5778 37.5137 43 34.0809 43 30.5C42.9951 26.9207 41.5712 23.4897 39.04 20.9602C36.5104 18.4289 33.0792 17.0049 29.5 17ZM27.4747 21.8764C28.6348 21.8764 29.6813 22.5751 30.1245 23.648C30.5695 24.7192 30.3239 25.9534 29.5032 26.7741C28.6826 27.5948 27.4499 27.8403 26.3771 27.3954C25.3059 26.9521 24.6055 25.9057 24.6055 24.7456C24.6055 23.9842 24.9071 23.2542 25.446 22.7169C25.9832 22.1781 26.7133 21.8764 27.4747 21.8764ZM29.5 42.3124C25.334 42.3091 21.4793 40.1091 19.3586 36.5247L22.5655 32.6949L22.5638 32.6933C23.0187 32.1478 23.691 31.833 24.3997 31.833C25.1083 31.833 25.7806 32.1478 26.2355 32.6933C26.2355 32.6933 28.007 34.8109 28.0828 34.9032V34.9048C28.2427 35.0993 28.48 35.2163 28.7321 35.2245C28.9892 35.2328 29.2364 35.1207 29.3995 34.9213C31.6605 32.1956 33.6858 29.7749 33.6858 29.7749C34.1406 29.2294 34.8146 28.9146 35.5249 28.9146C36.2352 28.9146 36.9092 29.2294 37.364 29.7749L40.8066 33.9013V33.8997C40.0732 36.3304 38.5786 38.4597 36.5419 39.9738C34.5067 41.4882 32.0376 42.3091 29.5 42.3124Z" fill="#00063F" fill-opacity="0.33"/>
</svg>
