<svg width="60" height="60" viewBox="0 0 60 60" fill="none" xmlns="http://www.w3.org/2000/svg">
<circle cx="30" cy="30" r="30" fill="#BAD9FF"/>
<path d="M43.815 39.1373C41.5499 43.0613 36.5142 44.4093 32.5915 42.1454C32.14 41.8848 31.7208 41.583 31.3338 41.2502C32.2755 40.1757 32.9733 38.8961 33.3539 37.4758C33.737 36.0466 33.7705 34.5812 33.4867 33.1714C36.26 32.231 38.4555 30.0407 39.4023 27.27C39.8847 27.439 40.3555 27.6518 40.8083 27.9124C42.7096 29.0101 44.0692 30.7812 44.6369 32.9017C45.2057 35.0223 44.9128 37.2372 43.815 39.1373Z" fill="#00063F" fill-opacity="0.33"/>
<path d="M28.3284 42.1441C24.403 44.4105 19.3685 43.06 17.1048 39.136C16.0071 37.2347 15.7156 35.0212 16.2832 32.9005C16.8507 30.7799 18.2103 29.0089 20.1117 27.9112C20.5645 27.6493 21.0392 27.4507 21.5229 27.2817C22.4723 30.046 24.6651 32.2311 27.4332 33.1702C27.1494 34.5801 27.1829 36.0454 27.566 37.4746C27.9465 38.8961 28.6444 40.1745 29.586 41.2491C29.1991 41.5819 28.7798 41.8836 28.3284 42.1441Z" fill="#00063F" fill-opacity="0.33"/>
<path d="M22.2423 24.2169C22.2423 19.6853 25.9276 16 30.4592 16C34.9908 16 38.6761 19.6866 38.6761 24.2169C38.6761 24.7418 38.6219 25.254 38.5264 25.7519C37.1256 25.4745 35.6706 25.5094 34.2504 25.8899C32.8212 26.273 31.5364 26.976 30.4582 27.9254C29.3798 26.976 28.095 26.273 26.6659 25.8899C25.2457 25.5094 23.7907 25.4745 22.3899 25.7519C22.2957 25.254 22.2403 24.7418 22.2403 24.2169H22.2423Z" fill="#00063F" fill-opacity="0.33"/>
<path d="M32.1569 37.151C31.8344 38.3557 31.2475 39.4419 30.4594 40.3629C29.6712 39.4431 29.0843 38.3558 28.7618 37.151C28.4368 35.9358 28.402 34.6911 28.6315 33.4915C29.2236 33.6075 29.8337 33.672 30.4594 33.672C31.085 33.672 31.6951 33.6076 32.2872 33.4915C32.5168 34.6911 32.4819 35.9358 32.1569 37.151Z" fill="#00063F" fill-opacity="0.33"/>
<path d="M27.7505 31.9667C25.4079 31.145 23.553 29.2953 22.7222 26.9579C23.2124 26.8664 23.7064 26.8044 24.2056 26.8044C24.919 26.8044 25.6387 26.8986 26.3456 27.0882C27.5594 27.4133 28.6533 28.0053 29.5769 28.8025C29.1783 29.2604 28.8197 29.7596 28.5101 30.2975C28.2005 30.8341 27.9478 31.3927 27.7505 31.9667Z" fill="#00063F" fill-opacity="0.33"/>
<path d="M32.4083 30.2975C32.0974 29.7596 31.7401 29.2604 31.3415 28.8025C32.2664 28.0053 33.3589 27.4133 34.5728 27.0882C35.7762 26.7657 37.0094 26.7296 38.1999 26.9515C37.3705 29.2927 35.513 31.1449 33.1693 31.9668C32.972 31.3941 32.7191 30.8343 32.4096 30.2977L32.4083 30.2975Z" fill="#00063F" fill-opacity="0.33"/>
<path d="M30.4592 32.4351C29.9445 32.4351 29.4428 32.3822 28.9526 32.2906C29.1203 31.8198 29.3266 31.3593 29.582 30.9168C29.8374 30.4744 30.1341 30.0629 30.4579 29.6824C30.7829 30.0629 31.0783 30.4731 31.3337 30.9168C31.5891 31.3593 31.7968 31.8198 31.9632 32.2906C31.4743 32.3822 30.9725 32.4351 30.4566 32.4351H30.4592Z" fill="#00063F" fill-opacity="0.33"/>
</svg>
