<svg width="60" height="60" viewBox="0 0 60 60" fill="none" xmlns="http://www.w3.org/2000/svg">
<circle cx="30" cy="30" r="30" fill="#BAD9FF"/>
<path d="M44.5848 26.4153H32.4333C30.9953 26.4153 29.8295 27.581 29.8295 29.0192V41.1706C29.8295 42.6087 30.9953 43.7745 32.4333 43.7745H38.5087V48.3437L43.6965 43.7745H44.5848C46.0228 43.7745 47.1886 42.6087 47.1886 41.1706V29.0192C47.1886 27.581 46.0228 26.4153 44.5848 26.4153ZM38.5091 39.0961C38.5091 39.0961 33.8327 37.3824 33.8327 33.6838C33.8327 32.3437 34.919 31.2574 36.2591 31.2574C37.2787 31.2574 38.15 31.887 38.5091 32.7782C38.8682 31.887 39.7394 31.2574 40.759 31.2574C42.0991 31.2574 43.1854 32.3437 43.1854 33.6838C43.1854 37.3824 38.5091 39.0961 38.5091 39.0961Z" fill="#00063F" fill-opacity="0.33"/>
<path d="M25.8424 23.5164H23.5166V25.8426H25.8424V23.5164Z" fill="#00063F" fill-opacity="0.33"/>
<path d="M33.3592 25.2695V18.6039C33.3592 17.1658 32.1934 16 30.7553 16H18.6039C17.1658 16 16 17.1658 16 18.6039V30.7553C16 32.1934 17.1658 33.3592 18.6039 33.3592H19.4921L24.68 37.9285V33.3592H28.6836V29.0191C28.6836 26.9516 30.3657 25.2695 32.4333 25.2695H33.3592ZM28.1518 25.8426C28.4681 25.8426 28.7247 26.0992 28.7247 26.4155C28.7247 26.7318 28.4681 26.9884 28.1518 26.9884H26.9881V28.1513C26.9881 28.4676 26.7315 28.7242 26.4153 28.7242C26.099 28.7242 25.8424 28.4676 25.8424 28.1513V26.9884H23.5166V28.1513C23.5166 28.4676 23.26 28.7242 22.9437 28.7242C22.6274 28.7242 22.3708 28.4676 22.3708 28.1513V26.9884H21.2079C20.8916 26.9884 20.635 26.7318 20.635 26.4155C20.635 26.0992 20.8916 25.8426 21.2079 25.8426H22.3708V23.5164H21.2079C20.8916 23.5164 20.635 23.2598 20.635 22.9435C20.635 22.6273 20.8916 22.3707 21.2079 22.3707H22.3708V21.2077C22.3708 20.8915 22.6274 20.6349 22.9437 20.6349C23.26 20.6349 23.5166 20.8915 23.5166 21.2077V22.3707H25.8424V21.2077C25.8424 20.8915 26.099 20.6349 26.4153 20.6349C26.7315 20.6349 26.9881 20.8915 26.9881 21.2077V22.3707H28.1518C28.4681 22.3707 28.7247 22.6273 28.7247 22.9435C28.7247 23.2598 28.4681 23.5164 28.1518 23.5164H26.9881V25.8426H28.1518Z" fill="#00063F" fill-opacity="0.33"/>
</svg>
