<svg width="60" height="60" viewBox="0 0 60 60" fill="none" xmlns="http://www.w3.org/2000/svg">
<circle cx="30" cy="30" r="30" fill="#BAD9FF"/>
<path d="M35.0916 23.4155C36.8314 23.4155 38.2666 24.729 38.4665 26.4156H31.7166C31.915 24.7289 33.3518 23.4155 35.0916 23.4155ZM27.0456 48.6719V40.6007H33.803L33.8046 44.783L27.0456 48.6719ZM33.9969 39.8011H26.8536L18 27.2153H42.8486L33.9969 39.8011Z" fill="#00063F" fill-opacity="0.33"/>
<path d="M24.6623 20.5874C26.0023 20.5874 27.0908 21.6775 27.0908 23.0159C27.0908 24.3543 26.0241 25.4022 24.6623 25.4022C23.3005 25.4022 22.2338 24.3543 22.2338 23.0159C22.2323 21.6775 23.3224 20.5874 24.6623 20.5874Z" fill="#00063F" fill-opacity="0.33"/>
<path d="M32.5992 14.2532C33.9392 14.2532 35.0277 15.3433 35.0277 16.6817C35.0277 18.0201 33.961 19.068 32.5992 19.068C31.2374 19.068 30.1707 18.0201 30.1707 16.6817C30.1707 15.3432 31.2608 14.2532 32.5992 14.2532Z" fill="#00063F" fill-opacity="0.33"/>
<path d="M24.9154 14C25.626 14 26.2054 14.5778 26.2054 15.2884C26.2054 15.9881 25.6385 16.5347 24.9154 16.5347C24.1923 16.5347 23.627 15.9865 23.627 15.2884C23.6254 14.5794 24.2048 14 24.9154 14Z" fill="#00063F" fill-opacity="0.33"/>
</svg>
