<svg width="193" height="148" viewBox="0 0 193 148" fill="none" xmlns="http://www.w3.org/2000/svg">
<g opacity="0.09">
<path d="M12.1666 25.7827L12.2706 21.4212L12.3106 19.2525C12.3346 18.7403 12.3906 18.3882 12.4707 17.964C12.8388 16.3475 13.9432 14.891 15.3837 14.0908C16.1039 13.6826 16.8802 13.4346 17.6965 13.3305L18.3127 13.2905H19.377H21.5458H30.2766L59.7982 13.2265C59.3261 15.0511 59.4941 17.1157 59.4701 18.8364C59.31 37.0505 60.4704 55.2641 60.4704 73.479C60.4704 91.6938 60.4304 111.564 60.5104 130.594C60.5104 131.619 60.3024 132.803 60.2864 133.931C53.1799 133.579 46.0896 132.699 38.9841 130.594C36.7914 129.938 33.6143 129.162 33.7024 139.405C33.7664 147.808 36.7515 146.864 38.7842 146.904C47.9793 147.064 57.1584 145.904 66.3615 145.904C75.5567 145.904 85.576 145.944 95.1865 145.864C96.7631 145.864 99.1239 147.872 99.22 140.334C99.324 132.179 96.8673 134.476 95.3707 134.372C87.6642 133.883 79.9417 134.108 72.2431 134.148C72.2031 133.043 71.995 131.915 72.019 130.954C73.2034 93.7258 70.1944 56.4663 75.7882 19.2765C76.0763 17.4359 76.3644 15.243 75.8282 13.3386C83.9189 13.4426 92.0096 13.6427 100.085 13.9948L108.816 14.4429L113.177 14.731L115.346 14.8911C115.938 14.9551 116.018 15.0351 116.346 15.1392C117.434 15.5473 118.187 16.5156 118.435 17.4519C118.555 17.9241 118.539 18.3962 118.435 18.8044C118.435 18.9084 118.355 19.0124 118.331 19.1085C118.307 19.1885 118.251 19.7407 118.211 20.0528L117.963 22.2215C117.306 27.6473 116.53 35.4981 126.774 35.3299C135.176 35.1858 134.232 27.7514 134.272 22.7497V20.6209C134.272 19.8207 134.312 19.4765 134.232 17.956C134.072 15.4191 133.368 12.8742 132.183 10.6016C129.831 6.03201 125.525 2.59083 120.563 1.26246C118.187 0.542229 115.05 0.590249 114.129 0.64626L109.872 0.726287L101.349 0.910349C89.9772 1.17444 78.5902 1.46253 67.218 1.46253L31.5257 1.47053H22.6107H18.0251C15.5042 1.53455 12.9673 2.12675 10.6947 3.23113C6.10913 5.42384 2.58007 9.64127 1.29165 14.579C0.963529 15.8114 0.755464 17.0598 0.715454 18.3242L0.675441 19.2285V19.7807V20.8851V25.3506C0.699447 29.264 -1.33323 35.0819 6.22922 35.33C14.384 35.594 12.0872 29.5121 12.1913 25.8068L12.1666 25.7827Z" fill="#101A24"/>
<path d="M188.25 72.4127C165.139 71.2284 141.995 74.2374 118.898 68.6436C116.217 67.9874 112.304 67.2111 112.384 77.4546C112.464 85.8575 116.153 84.913 118.634 84.9532C127.157 85.0732 135.656 84.441 144.179 84.1369C144.139 93.5 145.179 102.863 145.179 112.202C145.179 122.485 145.139 132.769 145.219 143.076C145.219 144.772 143.211 147.277 150.749 147.397C158.904 147.517 156.607 144.876 156.711 143.276C157.88 123.509 155.015 103.718 160.216 83.9683C169.499 83.9683 178.759 83.9683 188.033 83.9283C189.978 83.9283 192.867 85.9369 192.995 78.3985C193.139 70.2437 190.106 72.5404 188.265 72.4364L188.25 72.4127Z" fill="#101A24"/>
</g>
</svg>
