<svg width="135" height="148" viewBox="0 0 135 148" fill="none" xmlns="http://www.w3.org/2000/svg">
<path d="M12.1666 26.0539L12.2706 21.6924L12.3106 19.5237C12.3346 19.0115 12.3906 18.6594 12.4707 18.2353C12.8388 16.6187 13.9432 15.1622 15.3837 14.362C16.1039 13.9539 16.8802 13.7058 17.6965 13.6018L18.3127 13.5618H19.377H21.5458H30.2766L59.7982 13.4977C59.3261 15.3223 59.4941 17.387 59.4701 19.1077C59.31 37.3217 60.4704 55.5353 60.4704 73.7502C60.4704 91.9651 60.4304 111.835 60.5104 130.866C60.5104 131.89 60.3024 133.074 60.2864 134.203C53.1799 133.851 46.0896 132.97 38.9841 130.866C36.7914 130.209 33.6143 129.433 33.7024 139.677C33.7664 148.079 36.7515 147.135 38.7842 147.175C47.9793 147.335 57.1584 146.175 66.3615 146.175C75.5567 146.175 85.576 146.215 95.1865 146.135C96.7631 146.135 99.1239 148.143 99.22 140.605C99.324 132.45 96.8673 134.747 95.3707 134.643C87.6642 134.155 79.9417 134.379 72.2431 134.419C72.2031 133.314 71.995 132.186 72.019 131.226C73.2034 93.997 70.1944 56.7375 75.7882 19.5477C76.0763 17.7071 76.3644 15.5143 75.8282 13.6098C83.9189 13.7139 92.0096 13.9139 100.085 14.266L108.816 14.7142L113.177 15.0023L115.346 15.1623C115.938 15.2263 116.018 15.3064 116.346 15.4104C117.434 15.8185 118.187 16.7868 118.435 17.7232C118.555 18.1953 118.539 18.6675 118.435 19.0756C118.435 19.1797 118.355 19.2837 118.331 19.3797C118.307 19.4598 118.251 20.0119 118.211 20.3241L117.963 22.4928C117.306 27.9185 116.53 35.7693 126.774 35.6011C135.176 35.4571 134.232 28.0226 134.272 23.0209V20.8922C134.272 20.0919 134.312 19.7478 134.232 18.2272C134.072 15.6903 133.368 13.1455 132.183 10.8728C129.831 6.30325 125.525 2.86207 120.563 1.5337C118.187 0.813469 115.05 0.861489 114.129 0.9175L109.872 0.997527L101.349 1.18159C89.9772 1.44569 78.5902 1.73377 67.218 1.73377L31.5257 1.74177H22.6107H18.0251C15.5042 1.80579 12.9673 2.39799 10.6947 3.50237C6.10913 5.69508 2.58007 9.91251 1.29165 14.8503C0.963529 16.0827 0.755464 17.331 0.715454 18.5955L0.675441 19.4998V20.0519V21.1563V25.6218C0.699447 29.5352 -1.33323 35.3531 6.22922 35.6012C14.384 35.8653 12.0872 29.7833 12.1913 26.0781L12.1666 26.0539Z" fill="#101A24"/>
</svg>
